<svg id="ICONS" xmlns="http://www.w3.org/2000/svg" xmlns:xlink="http://www.w3.org/1999/xlink" viewBox="0 0 24 24"><defs><style>.cls-1,.cls-272{stroke:#fff;stroke-miterlimit:10;stroke-width:0.25px;}.cls-2,.cls-272{fill:none;}.cls-3{fill-opacity:0;}.cls-4{clip-path:url(#clip-path);}.cls-5{clip-path:url(#clip-path-2);}.cls-6{clip-path:url(#clip-path-3);}.cls-7{fill:#1852a3;}.cls-8{fill:#f74724;}.cls-9{fill:#0399d9;}.cls-10{fill:#1f94c3;}.cls-11{fill:#198fcf;}.cls-12{fill:#fe9935;}.cls-13{fill:#f75421;}.cls-14{fill:#f7361d;}.cls-15{fill:#ea3b20;}.cls-16{fill:#23a08b;}.cls-17{fill:#1f94c4;}.cls-18{fill:#1f53a2;}.cls-19{fill:#61a74b;}.cls-20{fill:#219d97;}.cls-21{fill:#b04651;}.cls-22{fill:#f73e1f;}.cls-23{fill:#73a648;}.cls-24{fill:#27a37e;}.cls-25{fill:#39a953;}.cls-26{fill:#f7311d;}.cls-27{fill:#089ad9;}.cls-28{fill:#1a90cf;}.cls-29{fill:#249ca5;}.cls-30{fill:#0599d9;}.cls-31{fill:#1c91d0;}.cls-32{fill:#f9842b;}.cls-33{fill:#f75521;}.cls-34{fill:#fe9a37;}.cls-35{fill:#28a576;}.cls-36{fill:#2ca96a;}.cls-37{fill:#ea3c21;}.cls-38{fill:#e93c22;}.cls-39{fill:#44a950;}.cls-40{fill:#f98f2c;}.cls-41{fill:#0391d4;}.cls-42{fill:#4ea74d;}.cls-43{fill:#1d91cd;}.cls-44{fill:#f75525;}.cls-45{fill:#269ea0;}.cls-46{fill:#29a483;}.cls-47{fill:#8ea444;}.cls-48{fill:#f8712b;}.cls-49{fill:#259e9c;}.cls-50{fill:#c3a242;}.cls-51{fill:#f86328;}.cls-52{fill:#f8792b;}.cls-53{fill:#2196bf;}.cls-54{fill:#45a951;}.cls-55{fill:#f73b20;}.cls-56{fill:#f99437;}.cls-57{fill:#26a289;}.cls-58{fill:#2092d0;}.cls-59{fill:#f74127;}.cls-60{fill:#079ad9;}.cls-61{fill:#fe9b39;}.cls-62{fill:#2aa198;}.cls-63{fill:#1e96b8;}.cls-64{fill:#f98f31;}.cls-65{fill:#269bb3;}.cls-66{fill:#24a088;}.cls-67{fill:#57a74c;}.cls-68{fill:#f74924;}.cls-69{fill:#72a74a;}.cls-70{fill:#0a61b1;}.cls-71{fill:#51aa53;}.cls-72{fill:#f73724;}.cls-73{fill:#f74f24;}.cls-74{fill:#eb4026;}.cls-75{fill:#0287cd;}.cls-76{fill:#3ea951;}.cls-77{fill:#56a950;}.cls-78{fill:#0168b9;}.cls-79{fill:#f86524;}.cls-80{fill:#fe9b38;}.cls-81{fill:#0b9cda;}.cls-82{fill:#f87d2c;}.cls-83{fill:#f8432f;}.cls-84{fill:#40a84f;}.cls-85{fill:#2ba96a;}.cls-86{fill:#c83f3a;}.cls-87{fill:#31ae55;}.cls-88{fill:#2193d0;}.cls-89{fill:#30ab68;}.cls-90{fill:#1d91cc;}.cls-91{fill:#fe9c3a;}.cls-92{fill:#e33f2a;}.cls-93{fill:#2aa57e;}.cls-94{fill:#1c90cf;}.cls-95{fill:#faaa36;}.cls-96{fill:#3caa54;}.cls-97{fill:#30a851;}.cls-98{fill:#069ad9;}.cls-99{fill:#f99933;}.cls-100{fill:#f87b29;}.cls-101{fill:#f86827;}.cls-102{fill:#2399b4;}.cls-103{fill:#fe9c3b;}.cls-104{fill:#f9992d;}.cls-105{fill:#fe9936;}.cls-106{fill:#2da29b;}.cls-107{fill:#f75729;}.cls-108{fill:#294b96;}.cls-109{fill:#259bad;}.cls-110{fill:#2ea879;}.cls-111{fill:#9fa648;}.cls-112{fill:#f8742c;}.cls-113{fill:#f73b25;}.cls-114{fill:#e03b27;}.cls-115{fill:#54ab54;}.cls-116{fill:#0678c2;}.cls-117{fill:#f86329;}.cls-118{fill:#2699be;}.cls-119{fill:#dd402f;}.cls-120{fill:#20509f;}.cls-121{fill:#0591d4;}.cls-122{fill:#31ae5a;}.cls-123{fill:#0770bd;}.cls-124{fill:#7ba647;}.cls-125{fill:#f74927;}.cls-126{fill:#baa03d;}.cls-127{fill:#2ea48f;}.cls-128{fill:#e53b24;}.cls-129{fill:#3fad59;}.cls-130{fill:#6daa51;}.cls-131{fill:#0c9bda;}.cls-132{fill:#f9812a;}.cls-133{fill:#804468;}.cls-134{fill:#fe9d3c;}.cls-135{fill:#047bc4;}.cls-136{fill:#eaa143;}.cls-137{fill:#249bac;}.cls-138{fill:#2ea96f;}.cls-139{fill:#c1a03c;}.cls-140{fill:#0a9bda;}.cls-141{fill:#c3a03e;}.cls-142{fill:#2897cd;}.cls-143{fill:#f99531;}.cls-144{fill:#a2a94f;}.cls-145{fill:#f9812e;}.cls-146{fill:#e99c39;}.cls-147{fill:#eb452c;}.cls-148{fill:#47aa53;}.cls-149{fill:#e94a33;}.cls-150{fill:#7fa546;}.cls-151{fill:#35b058;}.cls-152{fill:#45a74d;}.cls-153{fill:#f73320;}.cls-154{fill:#0d88cd;}.cls-155{fill:#f86d27;}.cls-156{fill:#f73927;}.cls-157{fill:#f59d3b;}.cls-158{fill:#7ca648;}.cls-159{fill:#0768b8;}.cls-160{fill:#23a27a;}.cls-161{fill:#1d91d0;}.cls-162{fill:#f9a33b;}.cls-163{fill:#fab43d;}.cls-164{fill:#fe9e3e;}.cls-165{fill:#39ab57;}.cls-166{fill:#e7a142;}.cls-167{fill:#095fb1;}.cls-168{fill:#6f4a77;}.cls-169{fill:#2193d1;}.cls-170{fill:#34ab57;}.cls-171{fill:#30ae51;}.cls-172{fill:#eb3f26;}.cls-173{fill:#90a444;}.cls-174{fill:#1f92d0;}.cls-175{fill:#f86e28;}.cls-176{fill:#82a646;}.cls-177{fill:#c2a343;}.cls-178{fill:#e09d3a;}.cls-179{fill:#a54151;}.cls-180{fill:#d4a140;}.cls-181{fill:#894665;}.cls-182{fill:#76a84d;}.cls-183{fill:#9da444;}.cls-184{fill:#ee9c39;}.cls-185{fill:#714571;}.cls-186{fill:#b2a342;}.cls-187{fill:#95a445;}.cls-188{fill:#1156a8;}.cls-189{fill:#27a191;}.cls-190{fill:#a7a444;}.cls-191{fill:#d33d31;}.cls-192{fill:#0777c2;}.cls-193{fill:#baa23f;}.cls-194{fill:#89a546;}.cls-195{fill:#f9a134;}.cls-196{fill:#0584ca;}.cls-197{fill:#e1422f;}.cls-198{fill:#29a577;}.cls-199{fill:#874c6d;}.cls-200{fill:#59a84f;}.cls-201{fill:#0b8cd0;}.cls-202{fill:#dea243;}.cls-203{fill:#6eaa50;}.cls-204{fill:#97425a;}.cls-205{fill:#e09e3b;}.cls-206{fill:#cdac56;}.cls-207{fill:#4562a3;}.cls-208{fill:#2354a2;}.cls-209{fill:#1b98d6;}.cls-210{fill:#a9a74b;}.cls-211{fill:#f86138;}.cls-212{fill:#0a66b5;}.cls-213{fill:#f97745;}.cls-214{fill:#60b366;}.cls-215{fill:#257cc2;}.cls-216{fill:#f99731;}.cls-217{fill:#83ad56;}.cls-218{fill:#3ba6b1;}.cls-219{fill:#22a5dd;}.cls-220{fill:#67497a;}.cls-221{fill:#76b363;}.cls-222{fill:#f85538;}.cls-223{fill:#f97d38;}.cls-224{fill:#f1ab56;}.cls-225{fill:#98617d;}.cls-226{fill:#e35544;}.cls-227{fill:#57b468;}.cls-228{fill:#38aa8d;}.cls-229{fill:#faa64a;}.cls-230{fill:#f84d3c;}.cls-231{fill:#fea750;}.cls-232{fill:#f73b27;}.cls-233{fill:#259da1;}.cls-234{fill:#309ebe;}.cls-235{fill:#ee5c46;}.cls-236{fill:#a0a547;}.cls-237{fill:#16a0db;}.cls-238{fill:#48a6d9;}.cls-239{fill:#f84736;}.cls-240{fill:#46b164;}.cls-241{fill:#0799d9;}.cls-242{fill:#23a5dd;}.cls-243{fill:#ee5f49;}.cls-244{fill:#27a7de;}.cls-245{fill:#309bcf;}.cls-246{fill:#cba343;}.cls-247{fill:#ed523b;}.cls-248{fill:#fbbc51;}.cls-249{fill:#fab658;}.cls-250{fill:#fa8b3a;}.cls-251{fill:#48b865;}.cls-252{fill:#ee5b45;}.cls-253{fill:#27a384;}.cls-254{fill:#fea751;}.cls-255{fill:#4db56c;}.cls-256{fill:#2b98d3;}.cls-257{fill:#3daf5e;}.cls-258{fill:#0c8ed1;}.cls-259{fill:#fe9d3d;}.cls-260{fill:#2c98d3;}.cls-261{fill:#2e9eb7;}.cls-262{fill:#269cac;}.cls-263{fill:#8c5677;}.cls-264{fill:#d64b40;}.cls-265{fill:#d75950;}.cls-266{fill:#855579;}.cls-267{fill:#5b4c82;}.cls-268{fill:#87a443;}.cls-269{fill:#c84844;}.cls-270{fill:#ba545b;}.cls-271{fill:#b2a94e;}.cls-273{clip-path:url(#clip-path-4);}.cls-274{clip-path:url(#clip-path-5);}.cls-275{clip-path:url(#clip-path-6);}.cls-276{clip-path:url(#clip-path-7);}.cls-277{fill:#fff;}</style><clipPath id="clip-path"><path class="cls-1" d="M20.63,5.07a1.36,1.36,0,0,0-1.14-.23L12.16,6.61V20.8l8-1.93a1.26,1.26,0,0,0,1-1.21V6A1.22,1.22,0,0,0,20.63,5.07Z"/></clipPath><clipPath id="clip-path-2"><rect class="cls-2" x="0.98" y="7" width="16" height="13"/></clipPath><clipPath id="clip-path-3"><rect class="cls-2" x="0.98" y="7" width="16" height="13"/></clipPath><clipPath id="clip-path-4"><path d="M12.16,7,5.61,5.36A1.18,1.18,0,0,0,4.16,6.52v11a1.2,1.2,0,0,0,.89,1.15l7.11,1.84Z"/></clipPath><clipPath id="clip-path-5"><rect class="cls-2" x="7.51" y="4.89" width="17.69" height="21.48" transform="translate(-0.46 30.76) rotate(-85.68)"/></clipPath><clipPath id="clip-path-6"><rect class="cls-2" x="7.52" y="4.89" width="17.69" height="21.48" transform="translate(-0.46 30.76) rotate(-85.68)"/></clipPath><clipPath id="clip-path-7"><rect class="cls-2" x="15.98" y="14" width="4" height="5"/></clipPath></defs><g id="book-open"><rect class="cls-3" x="1.16" y="0.8" width="24" height="24"/><path d="M20.63,5.07a1.36,1.36,0,0,0-1.14-.23L12.16,6.61V20.8l8-1.93a1.26,1.26,0,0,0,1-1.21V6A1.22,1.22,0,0,0,20.63,5.07Z"/><g class="cls-4"><g id="Illustration_1" data-name="Illustration 1"><g class="cls-5"><g class="cls-6"><path class="cls-7" d="M12.15,12.41a1,1,0,0,1-.29.08.42.42,0,0,1-.44-.19c-.09-.18.08-.25.23-.33a.44.44,0,0,1,.55.1c.1.12.13.25,0,.34"/><path class="cls-8" d="M8.62,10.72a.35.35,0,0,1,0,.41.33.33,0,0,1-.4.17c-.15-.06-.25-.2-.15-.36s0-.07,0-.11.11-.15.18-.21a.33.33,0,0,1,.39,0s0,0,0,.07"/><path class="cls-9" d="M12.71,14.09c0,.14.09.32-.16.38a.43.43,0,0,1-.47-.19.22.22,0,0,1,0-.32.31.31,0,0,1,.37,0l.23.13s0,0,0,0"/><path class="cls-10" d="M11.27,16.34A.38.38,0,0,1,11,15.9c0-.1.05-.21.22-.22a.29.29,0,0,1,.32.16c0,.07,0,.14.13.16s0,.11,0,.17-.19.29-.42.17"/><path class="cls-11" d="M12.16,15.63a.28.28,0,0,1-.39.13.37.37,0,0,1-.23-.46c.06-.18.23-.2.41-.16s.31.22.21.49"/><path class="cls-12" d="M5.26,13.34c0-.15,0-.33.22-.37a.42.42,0,0,1,.44.2.23.23,0,0,1,0,.34.33.33,0,0,1-.38,0,1.22,1.22,0,0,1-.19-.12.1.1,0,0,1-.08-.06"/><path class="cls-13" d="M7.8,10.88c.11.21.16.41-.11.57s-.38.09-.41-.16c0-.1,0-.2,0-.3v0c.14-.15.29-.26.5-.07"/><path class="cls-14" d="M8.92,10.67c.18,0,.38-.16.5,0s0,.34-.15.46a.35.35,0,0,1-.38.05c-.13-.08-.11-.2-.09-.32s.14-.14.13-.24Z"/><path class="cls-15" d="M10.19,11.16h0c-.17.14-.37.26-.57.09s-.06-.29.07-.4a.4.4,0,0,1,.59,0l0,0a.19.19,0,0,1-.1.24"/><path class="cls-11" d="M12,15.08c-.13-.15-.3-.31-.09-.5a.32.32,0,0,1,.42,0c.19.16.26.34,0,.52s-.27.09-.37-.06"/><path class="cls-16" d="M8.92,16.77c.29-.34.39-.36.66-.11.11.15,0,.28-.07.41l-.12.08a.5.5,0,0,1-.36,0c-.16-.12-.23-.24-.11-.41"/><path class="cls-17" d="M11.88,16.45a.45.45,0,0,1,.21.45.33.33,0,0,1-.26.25c-.14,0-.21-.08-.26-.18a2.5,2.5,0,0,1-.09-.25c.06-.18.12-.34.4-.27"/><path class="cls-18" d="M12.6,11.76H13a.3.3,0,0,1,.28.23c0,.14-.1.18-.22.22s-.31.08-.47,0-.22-.31,0-.44"/><path class="cls-19" d="M5.85,16.28a.55.55,0,0,1-.51.16c-.14,0-.27-.09-.29-.22s.12-.2.26-.23l.15,0a.49.49,0,0,1,.24,0c.17.06.26.16.15.31"/><path class="cls-20" d="M9.68,16.66c.06-.11.1-.23.26-.27s.3.15.35.31a.38.38,0,0,1,0,.21.26.26,0,0,1-.07.11.49.49,0,0,1-.39.07.19.19,0,0,1-.09,0,.3.3,0,0,1,0-.39"/><path class="cls-21" d="M11.84,11.11a.71.71,0,0,1,.45-.11c.13,0,.27.08.28.22s-.07.2-.22.21a2.32,2.32,0,0,1-.38.06c-.29-.12-.31-.19-.13-.38"/><path class="cls-22" d="M8.22,10.29c-.11-.2,0-.35.14-.48a.27.27,0,0,1,.33-.09.22.22,0,0,1,.1.28,1.34,1.34,0,0,1-.07.18c0,.09-.11.12-.18.17s-.25.1-.32-.06"/><path class="cls-23" d="M6,15.73a.49.49,0,0,1,.58-.13c.18.05.32.17.16.35a1.3,1.3,0,0,1-.58.11.3.3,0,0,1-.26-.19.15.15,0,0,1,.1-.14"/><path class="cls-24" d="M8.54,17.1c-.17,0-.4,0-.42-.17s.14-.4.43-.43a.51.51,0,0,1,.28.28.36.36,0,0,1-.12.29c-.05,0-.1.07-.17,0"/><path class="cls-25" d="M7.09,17.05c.19,0,.38,0,.36.23s-.3.33-.49.3a.19.19,0,0,1-.16-.32c.07-.11.21-.13.3-.22Z"/><path class="cls-26" d="M9.18,10.17a.48.48,0,0,1,.43-.42c.15,0,.22.09.21.22a.49.49,0,0,1-.45.39c-.15,0-.2-.09-.19-.19"/><path class="cls-27" d="M13.16,13.45a.62.62,0,0,1,.36,0c.17.08.36.19.26.37s-.3.12-.47,0a.17.17,0,0,1-.24-.09c-.06-.13-.13-.27.09-.35"/><path class="cls-28" d="M12.27,16a.18.18,0,0,1,.24-.18.34.34,0,0,1,.29.35c0,.12,0,.24-.16.28a.28.28,0,0,1-.31-.13.26.26,0,0,1-.06-.18s0-.09,0-.14"/><path class="cls-29" d="M11,17l.13.14a.47.47,0,0,1,0,.33c-.08.1-.1.27-.29.23s-.2-.27-.21-.43,0-.13,0-.19.19-.15.34-.08"/><path class="cls-30" d="M13.2,14.27a.5.5,0,0,1,.48.37c0,.14-.08.19-.24.19s-.45-.22-.44-.39.12-.16.2-.17"/><path class="cls-31" d="M12.72,15.42c0-.12-.05-.27.13-.33a.3.3,0,0,1,.31.06.38.38,0,0,1,.18.35.19.19,0,0,1-.15.16.41.41,0,0,1-.39-.18l-.08-.07Z"/><path class="cls-32" d="M5.64,11.61a.35.35,0,0,1-.17-.21c0-.16-.08-.35.14-.43s.3.09.37.24a.28.28,0,0,1,.06.23.26.26,0,0,1-.4.17"/><path class="cls-33" d="M7.23,10.5a.48.48,0,0,1,0-.42.29.29,0,0,1,.34-.17c.16,0,.14.16.15.28s-.1.1,0,.16a.06.06,0,0,1,0,.07.4.4,0,0,1-.15.14c-.14.06-.27.09-.36-.06"/><path class="cls-34" d="M4.83,13.12a.47.47,0,0,1-.44-.36c0-.13.07-.21.21-.22A.46.46,0,0,1,5,12.9c0,.14,0,.21-.2.22"/><path class="cls-35" d="M9.19,18,9,18a.27.27,0,0,1-.3,0,.2.2,0,0,1,0-.27l.08-.17,0,0a.13.13,0,0,1,.06-.07c.17-.06.34-.14.42.1s-.09.29-.08.44Z"/><path class="cls-36" d="M8.36,17.45a.5.5,0,0,1-.48.46c-.12,0-.21-.08-.2-.19a.51.51,0,0,1,.48-.39c.13,0,.2.08.2.12"/><path class="cls-37" d="M10.55,10c.15,0,.24.06.25.19s-.25.35-.45.35-.23-.05-.23-.18a.43.43,0,0,1,.43-.36"/><path class="cls-38" d="M11,10.61a.63.63,0,0,1,.31-.17c.15,0,.3,0,.38.1s0,.24-.16.31l-.14.05a.36.36,0,0,1-.25,0c-.22-.06-.29-.16-.14-.34"/><path class="cls-39" d="M6.55,16.88a.23.23,0,0,1-.17.17c-.2.08-.42.08-.52-.09s.11-.27.29-.31.28-.07.41,0,.09.15,0,.22"/><path class="cls-40" d="M5.64,12.39a.28.28,0,0,1,.44,0c.14.14.22.31.06.46a.29.29,0,0,1-.43,0,1.43,1.43,0,0,1-.07-.46"/><path class="cls-41" d="M12.59,13.77c-.26.05-.48,0-.58-.25s.18-.21.34-.23.19,0,.28,0a.17.17,0,0,1,.1,0,.27.27,0,0,1-.14.44"/><path class="cls-42" d="M7.4,16.17c0,.22-.11.35-.36.38a.13.13,0,0,1-.15.08.39.39,0,0,1-.3-.28c0-.1,0-.19.15-.22a1.14,1.14,0,0,1,.66,0"/><path class="cls-43" d="M12.27,16v.14c-.11.09-.1.27-.29.31s-.35-.12-.33-.32l.06-.12c.12-.21.27-.21.42,0s.07.11.14,0"/><path class="cls-44" d="M7.79,9.18c0,.16-.08.36-.33.4s-.17-.1-.17-.21S7.36,9,7.61,9s.15.11.18.22"/><path class="cls-45" d="M11.25,18.22c0,.15-.06.34-.3.36s-.2-.12-.18-.23.05-.37.3-.38.16.14.18.25"/><path class="cls-46" d="M9.55,18.67c0-.15.09-.34.34-.38s.17.08.17.18-.21.44-.36.42-.14-.1-.15-.22"/><path class="cls-47" d="M6.33,15.19c.09.32-.25.28-.43.38a.31.31,0,0,1-.23,0c-.12-.12-.33-.24,0-.4a1.39,1.39,0,0,1,.7.06"/><path class="cls-48" d="M6.53,9.72c0,.15,0,.33-.26.35s-.2-.14-.2-.25,0-.33.25-.35.18.14.21.25"/><path class="cls-49" d="M10.7,17.11l-.06.15c-.14,0-.22.19-.39.08a.1.1,0,0,1-.09,0,.23.23,0,0,1,0-.3s0-.08,0-.12a1.12,1.12,0,0,1,.25-.11h.05a.1.1,0,0,1,.09,0,.36.36,0,0,1,.11.35"/><path class="cls-50" d="M3.62,14.55c-.24,0-.42-.09-.48-.29s.1-.16.21-.15.42.09.47.3-.1.14-.2.14"/><path class="cls-51" d="M7.29,11a.45.45,0,0,1-.25.17c-.32-.09-.37-.32-.12-.54a.34.34,0,0,1,.31,0c.22.12.15.27.06.43Z"/><path class="cls-52" d="M6.46,11.59l-.11.06c-.23.06-.29-.07-.32-.22a.39.39,0,0,1,0-.23.24.24,0,0,1,.32-.14c.16,0,.18.16.2.27a.25.25,0,0,1-.14.26"/><path class="cls-53" d="M12,17.67c0-.16,0-.32.23-.32s.22.17.21.31-.06.29-.25.28-.18-.16-.19-.27"/><path class="cls-54" d="M6.93,16.61,7,16.55c.35.18.36.26.06.5h0c-.18,0-.35,0-.44-.16s.07-.26.27-.27"/><path class="cls-55" d="M8.55,9.2c0-.18.21-.4.37-.38s.16.11.14.2a.42.42,0,0,1-.37.38c-.14,0-.14-.11-.14-.2"/><path class="cls-56" d="M6,12.09c-.14.06-.23.27-.44.1a.31.31,0,0,1,0-.48c.32-.14.4.1.53.26a.11.11,0,0,1,0,.12"/><path class="cls-57" d="M9.74,17h.09c.09.1,0,.21,0,.32s0,.16-.15.16-.28.08-.4-.05,0-.26,0-.38L9.44,17a.27.27,0,0,1,.3,0"/><path class="cls-58" d="M12.41,15.18a.5.5,0,0,1,.31.24h0c0,.12,0,.25-.1.31s-.27-.05-.36-.14c-.15-.29-.13-.36.15-.4"/><path class="cls-59" d="M8.62,10.72v-.05c-.13-.1-.1-.21,0-.32a.7.7,0,0,1,.24-.17c.11,0,.25,0,.29.07s0,.31-.18.42h0a.66.66,0,0,1-.31.06"/><path class="cls-60" d="M14.8,14.13c0,.1-.13.11-.23.1s-.46-.22-.43-.34.12-.12.22-.11.45.2.44.35"/><path class="cls-61" d="M5.26,13.34l.08.06a.54.54,0,0,1-.07.27.45.45,0,0,1-.52-.1.12.12,0,0,1,0-.13c0-.1,0-.2.11-.24s.28.06.39.14"/><path class="cls-62" d="M10.69,17.94c0,.16-.11.33-.31.34s-.19-.13-.17-.24.08-.33.3-.33.16.13.18.23"/><path class="cls-63" d="M11.49,16.72c-.05.19-.15.32-.41.22-.11,0-.12-.12-.15-.19a.17.17,0,0,1,0-.07.24.24,0,0,1,.06-.09.45.45,0,0,1,.1-.09c0-.07.11-.09.19-.12.24,0,.27.16.22.34"/><path class="cls-64" d="M5.46,10.54c0,.14,0,.28-.2.27S5,10.66,5,10.51s0-.28.21-.27.22.17.23.3"/><path class="cls-51" d="M7.17,9.91c0,.13,0,.31-.27.33s-.19-.12-.18-.24,0-.32.26-.34.18.12.19.25"/><path class="cls-30" d="M13.13,13.78a.18.18,0,0,0,.18.11s-.06,0-.06.06c-.06.3-.15.34-.46.18l-.08,0,0,0,0-.23c.14-.18.31-.08.48,0"/><path class="cls-65" d="M11.72,17.53c0,.14,0,.3-.25.31s-.19-.13-.19-.24,0-.32.24-.33.19.13.2.26"/><path class="cls-66" d="M9.71,17.53l.11-.15a.08.08,0,0,1,.07,0c.16.09.34.17.3.38l-.09.14a.26.26,0,0,1-.26.11.19.19,0,0,1-.16-.21,2,2,0,0,1,0-.24"/><path class="cls-67" d="M6.15,16.57c-.17,0-.27-.12-.24-.29s.13-.15.25-.17h.2c.17,0,.28.11.26.28s-.26.22-.47.18"/><path class="cls-68" d="M8.31,9.59A.33.33,0,0,1,8,9.9c-.16,0-.18-.1-.17-.2a.36.36,0,0,1,.32-.36c.13,0,.16.09.15.25"/><path class="cls-69" d="M4.54,15.7c.17,0,.39,0,.4.21s-.19.19-.32.19-.35-.05-.35-.24.17-.13.27-.16"/><path class="cls-70" d="M13.57,12.18c.18,0,.37.06.4.22s-.13.18-.29.18-.34-.08-.37-.24.14-.15.26-.16"/><path class="cls-37" d="M10.26,10.89c.14-.34.31-.42.63-.28.12.26-.06.36-.3.43a.31.31,0,0,1-.34-.16Z"/><path class="cls-71" d="M5.33,16.94c-.14,0-.3-.05-.29-.19s.18-.2.34-.2.31,0,.3.18-.19.19-.35.21"/><path class="cls-72" d="M9.86,9.51a.15.15,0,0,1-.15-.15c0-.15.22-.37.39-.38s.16.06.16.15a.47.47,0,0,1-.4.38"/><path class="cls-73" d="M7.74,10.38a0,0,0,0,1,0,0,.43.43,0,0,1,.44,0,.23.23,0,0,1,.05.29.59.59,0,0,1-.24.2H7.79a.25.25,0,0,1-.13-.14.41.41,0,0,1,.08-.32"/><path class="cls-74" d="M12.05,10.34c-.13,0-.26,0-.23-.17s.2-.22.37-.24.26,0,.25.16-.21.23-.39.25"/><path class="cls-75" d="M12.73,13.34h-.07a.07.07,0,0,1-.05,0c0-.08-.1-.14-.08-.23A.32.32,0,0,1,13,13c.13.11.39.2.11.39a.25.25,0,0,1-.37-.06"/><path class="cls-76" d="M5.42,17.11c.15,0,.3,0,.29.18s-.21.21-.37.22-.28,0-.27-.17.21-.19.35-.23"/><path class="cls-77" d="M4.49,16.67c-.19,0-.37-.06-.39-.22s.17-.19.3-.16.36,0,.37.21-.16.15-.28.17"/><path class="cls-78" d="M11.94,13a.19.19,0,0,1-.16-.23c.12-.19.4-.12.56-.23a.19.19,0,0,1,.17.07.27.27,0,0,1,.07.21c-.14.25-.4.2-.64.18"/><path class="cls-79" d="M7,11.21c.23.3.19.5-.12.67a.79.79,0,0,1-.23-.64.26.26,0,0,1,.35,0"/><path class="cls-80" d="M3.68,13.51c-.19,0-.44-.18-.43-.33s.06-.12.16-.12.45.18.45.31-.08.14-.18.14"/><path class="cls-81" d="M14.54,15.09c0,.09,0,.16-.17.15a.4.4,0,0,1-.4-.32.13.13,0,0,1,.15-.16.48.48,0,0,1,.42.33"/><path class="cls-82" d="M6.14,10.54c0,.14-.06.28-.22.28s-.22-.16-.22-.3,0-.26.2-.26.21.16.24.28"/><path class="cls-83" d="M9.46,9.51a.4.4,0,0,1-.35.33c-.13,0-.18-.07-.16-.18a.38.38,0,0,1,.34-.34c.13,0,.17.08.17.19"/><path class="cls-84" d="M8.05,16.67a.42.42,0,0,1-.52.21.2.2,0,0,1-.16-.3l0,0a.73.73,0,0,1,.44-.06c.11,0,.22.05.2.18"/><path class="cls-85" d="M8.35,18.68a.42.42,0,0,1,.39-.35c.14,0,.15.11.13.2a.39.39,0,0,1-.4.31c-.16,0-.11-.09-.12-.16"/><path class="cls-86" d="M13.29,10.72c.11,0,.2.09.15.2s-.24.15-.4.14-.24,0-.26-.15,0-.19.18-.19a.47.47,0,0,1,.33,0"/><path class="cls-87" d="M7.36,18.61c-.09,0-.17,0-.15-.14a.39.39,0,0,1,.36-.34.14.14,0,0,1,.19.13c0,.14-.21.35-.4.35"/><path class="cls-88" d="M12.86,16.78c0-.1,0-.24.2-.22s.26.17.27.31,0,.24-.19.23-.23-.18-.28-.32"/><path class="cls-89" d="M8.54,18a.41.41,0,0,1-.35.34c-.12,0-.21-.05-.18-.16a.38.38,0,0,1,.35-.33.15.15,0,0,1,.18.15"/><path class="cls-90" d="M12.66,16.91c0,.11,0,.24-.2.23s-.24-.17-.24-.32,0-.23.2-.21.22.16.24.3"/><path class="cls-74" d="M11,9.82c-.12,0-.21,0-.2-.14a.41.41,0,0,1,.38-.31c.12,0,.22.05.2.15a.41.41,0,0,1-.38.3"/><path class="cls-91" d="M3.82,12.08c.18.05.31.15.32.33s0,.16-.16.16a.41.41,0,0,1-.36-.35c0-.1.07-.15.2-.14"/><path class="cls-92" d="M12.17,10.89c-.14,0-.29,0-.26-.17s.19-.21.35-.21.27,0,.26.18-.19.19-.35.2"/><path class="cls-93" d="M9.18,18c.13,0,.27-.17.38,0a.26.26,0,0,1-.08.35c-.08.06-.17.17-.29.12s-.09-.19-.06-.29A1.27,1.27,0,0,1,9.19,18Z"/><path class="cls-94" d="M13.73,15.68A.37.37,0,0,1,14,16c0,.1-.06.16-.17.15a.34.34,0,0,1-.32-.35c0-.1.05-.15.19-.15"/><path class="cls-95" d="M4.69,11.47c0,.1,0,.2-.17.19s-.29-.16-.31-.32a.15.15,0,0,1,.16-.19c.23,0,.27.17.32.32"/><path class="cls-96" d="M6.31,17.19c.13,0,.27,0,.25.16s-.16.22-.33.24-.26,0-.25-.15.18-.22.33-.25"/><path class="cls-97" d="M6.35,18.15c-.13,0-.25,0-.22-.15s.19-.25.38-.27.22,0,.2.15-.18.25-.36.27"/><path class="cls-98" d="M13.93,14.53a.37.37,0,0,1-.31-.29c0-.11.09-.16.2-.14s.35.12.37.31-.07.14-.26.12"/><path class="cls-99" d="M4.87,11.24c0-.11,0-.22.2-.19s.25.18.25.33a.16.16,0,0,1-.18.18c-.21,0-.25-.17-.27-.32"/><path class="cls-100" d="M6.35,11.69a.41.41,0,0,1,.26.47.23.23,0,0,1-.27.21.73.73,0,0,1-.14-.66s.09,0,.15,0"/><path class="cls-101" d="M6.34,10.44c.2-.21.34-.14.46.06a.37.37,0,0,1-.13.45c-.35,0-.29-.3-.33-.51"/><path class="cls-74" d="M11.32,9.94c.13,0,.24,0,.23.15s-.16.24-.35.25-.23,0-.22-.12.17-.25.34-.28"/><path class="cls-102" d="M11,16.61l-.07.06a.47.47,0,0,1-.44-.49c.2-.19.35-.14.45.08s0,.24.06.35"/><path class="cls-94" d="M13.37,16.13c0,.11,0,.21-.17.2a.33.33,0,0,1-.29-.34.15.15,0,0,1,.19-.16.29.29,0,0,1,.27.3"/><path class="cls-103" d="M4.76,13.44v.12c.07,0,.11.08,0,.15a.64.64,0,0,1-.57,0c-.07-.09-.13-.18,0-.27a.31.31,0,0,1,.31-.05.34.34,0,0,0,.24,0"/><path class="cls-104" d="M5,11.76a.35.35,0,0,1,.44.31c0,.17-.06.26-.25.28a.13.13,0,0,1-.07,0C5,12.14,4.86,12,5,11.76"/><path class="cls-105" d="M4.2,13.24A.35.35,0,0,1,3.88,13c0-.11.05-.17.18-.15a.34.34,0,0,1,.34.3c0,.1-.05.15-.2.14"/><path class="cls-106" d="M10.78,19.35c0-.14.07-.31.27-.33s.15.12.13.21,0,.31-.27.32-.13-.11-.13-.2"/><path class="cls-107" d="M7.92,8.17c0,.13-.09.3-.3.32s-.14-.1-.12-.18S7.59,8,7.78,8s.14.1.14.21"/><path class="cls-108" d="M13.78,12c-.14,0-.26-.09-.22-.23s.19-.12.32-.12.29,0,.36.17-.3.13-.46.18"/><path class="cls-109" d="M10.51,16.18c.11.19.19.4.44.49v0a.25.25,0,0,1-.36.07H10.5c-.09-.2-.21-.4,0-.59"/><path class="cls-110" d="M9.71,19.5a.38.38,0,0,1-.29.37c-.13,0-.15-.09-.13-.17a.36.36,0,0,1,.32-.35c.1,0,.09.1.1.15"/><path class="cls-111" d="M4.94,15.19c0-.11-.11-.17-.1-.27a.68.68,0,0,1,.62,0l.06.05c0,.23,0,.27-.37.29a.27.27,0,0,1-.21-.07"/><path class="cls-112" d="M6.34,8.73c0,.13,0,.29-.22.32S6,8.94,6,8.84s0-.28.22-.3.15.09.16.19"/><path class="cls-113" d="M9.2,8.37c-.13,0-.17,0-.17-.11a.4.4,0,0,1,.3-.37A.11.11,0,0,1,9.49,8a.48.48,0,0,1-.29.37"/><path class="cls-114" d="M10.89,11.43l-.19.11a.44.44,0,0,1-.32,0,.14.14,0,0,1-.13-.16,1.54,1.54,0,0,1,.7-.24c.08,0,.1,0,.11.11a.19.19,0,0,1-.17.18"/><path class="cls-115" d="M3.43,16.84c-.16,0-.33,0-.35-.19s.14-.15.26-.14.32,0,.33.19-.14.13-.24.14"/><path class="cls-116" d="M13,13a1.17,1.17,0,0,0,0-.11c.14-.19.37-.17.58-.21.05.08.18.14.09.26a.34.34,0,0,1-.35.1L13,13"/><path class="cls-117" d="M7.1,9c0,.11,0,.27-.24.27s-.14-.11-.13-.2,0-.26.22-.28.15.09.15.21"/><path class="cls-118" d="M12.65,18.55c0,.12-.06.26-.23.25s-.15-.13-.14-.23,0-.26.19-.26.16.14.18.24"/><path class="cls-119" d="M14.13,10.72c-.13,0-.29,0-.3-.15s.15-.16.27-.16.29,0,.29.15-.14.15-.26.16"/><path class="cls-120" d="M15.15,12c-.17,0-.34,0-.38-.2s.12-.14.22-.13.36,0,.38.21-.13.1-.22.12"/><path class="cls-121" d="M13.83,13.51c-.15,0-.29-.12-.21-.27s.27-.09.41,0,.18.09.2.19a.44.44,0,0,1-.4.12"/><path class="cls-122" d="M8.16,19.28c.12,0,.15.06.14.12a.37.37,0,0,1-.31.34c-.1,0-.15,0-.13-.13a.41.41,0,0,1,.3-.33"/><path class="cls-123" d="M13.54,12.7c-.16.15-.4.11-.58.21-.13-.11-.09-.21,0-.31a.59.59,0,0,1,.56.1"/><path class="cls-124" d="M2.69,15.54a.45.45,0,0,1-.42-.21c0-.07.11-.16.22-.13s.37.06.4.24-.13.09-.2.1"/><path class="cls-125" d="M8.41,8.43c.11,0,.15.08.13.16s-.1.31-.31.32-.12-.09-.1-.17.09-.28.28-.31"/><path class="cls-126" d="M4.83,14.77a.47.47,0,0,1-.57-.17c0-.16.17-.12.28-.14a2,2,0,0,1,.34,0c.19.12.18.21,0,.28"/><path class="cls-127" d="M10.53,18.87c0,.14-.06.28-.24.31s-.16-.07-.15-.16.07-.29.26-.32.12.1.13.17"/><path class="cls-128" d="M10.57,11c.15,0,.31,0,.38.12a2.38,2.38,0,0,1-.7.22.92.92,0,0,0,0-.16c.06-.13.13-.22.31-.18"/><path class="cls-129" d="M4.53,17.59c.12,0,.25,0,.22.15s-.18.16-.32.16-.23,0-.21-.15.19-.15.31-.16"/><path class="cls-130" d="M3.51,15.84c.14,0,.3,0,.31.2s-.14.13-.24.11-.32,0-.32-.2.14-.11.25-.11"/><path class="cls-131" d="M15.29,13.71a.15.15,0,0,1-.19.11c-.16-.05-.34-.08-.36-.26s.1-.12.18-.1a.45.45,0,0,1,.37.25"/><path class="cls-132" d="M6,12a.22.22,0,0,1,.2-.25c0,.23.15.43.12.65A.3.3,0,0,1,6,12.09V12"/><path class="cls-133" d="M14,11.1c.13,0,.3,0,.29.16a.28.28,0,0,1-.27.17c-.12,0-.27,0-.27-.19s.15-.13.25-.14"/><path class="cls-134" d="M2.66,13a.43.43,0,0,1-.37-.28.1.1,0,0,1,.12-.12.43.43,0,0,1,.38.28c0,.08,0,.11-.13.12"/><path class="cls-135" d="M14.16,13c-.11,0-.17-.13-.11-.23s.16-.1.27-.08a.42.42,0,0,1,.3.13c0,.26-.26.21-.46.18"/><path class="cls-136" d="M3.06,13.78c-.16,0-.31-.09-.35-.26s.06-.12.14-.11.35.09.38.27-.08.1-.17.1"/><path class="cls-137" d="M11.84,18.41c0,.14,0,.28-.22.29s-.15-.12-.14-.21,0-.26.19-.28.15.12.17.2"/><path class="cls-138" d="M9.19,19a.35.35,0,0,1-.27.32c-.12,0-.14-.06-.13-.14a.35.35,0,0,1,.28-.32c.1,0,.12.06.12.14"/><path class="cls-139" d="M5.33,14.39c.27,0,.54-.07.69.2a1.05,1.05,0,0,1-.7.05.13.13,0,0,1-.09-.16.11.11,0,0,1,.1-.09"/><path class="cls-140" d="M15.47,14.25c.17,0,.33.1.36.28s-.06.1-.14.11-.41-.19-.39-.3.08-.09.17-.09"/><path class="cls-141" d="M4.92,14.53c-.22.05-.46-.06-.67.07-.14-.2-.09-.28.19-.29s.26.12.41.06a.07.07,0,0,1,.07,0,.12.12,0,0,1,0,.14"/><path class="cls-142" d="M13,17.65c0,.1,0,.22-.16.22s-.19-.12-.19-.23,0-.2.14-.21.19.11.21.22"/><path class="cls-143" d="M5,9.71c0,.1,0,.24-.17.23s-.19-.14-.19-.26,0-.22.18-.21.15.14.18.24"/><path class="cls-144" d="M2.93,14.64a.34.34,0,0,1,.37.22c0,.07-.08.11-.15.1s-.36-.05-.4-.24.11-.07.18-.08"/><path class="cls-145" d="M5.78,9.67c0,.12,0,.24-.17.25s-.17-.11-.17-.21,0-.23.16-.25.17.11.18.21"/><path class="cls-146" d="M5.22,14.05l0-.16a.69.69,0,0,1,.68,0c0,.06.08.11,0,.17a.65.65,0,0,1-.58,0H5.27l0,0"/><path class="cls-147" d="M12.92,9.79c-.1,0-.22,0-.21-.12s.15-.19.29-.2.21,0,.21.12-.16.17-.29.2"/><path class="cls-148" d="M4.44,17.21c-.13,0-.28,0-.28-.15s.13-.14.24-.14.28,0,.29.14-.13.14-.25.15"/><path class="cls-149" d="M13.34,10.27a.27.27,0,0,1-.27.17c-.12,0-.25,0-.25-.13s.16-.15.28-.17a.21.21,0,0,1,.24.13"/><path class="cls-150" d="M4.1,15.4c.09.13,0,.21-.12.23s-.44,0-.53-.22a.71.71,0,0,1,.65,0"/><path class="cls-151" d="M8,18.82a.37.37,0,0,1-.31.28A.1.1,0,0,1,7.53,19a.34.34,0,0,1,.32-.29c.08,0,.11.07.11.13"/><path class="cls-152" d="M8.05,16.67c-.17-.22-.43-.07-.64-.12a.49.49,0,0,1,.33-.22c.28,0,.4.09.31.34"/><path class="cls-153" d="M10.83,8.34a.39.39,0,0,1-.31.28c-.08,0-.15,0-.14-.1a.36.36,0,0,1,.33-.31c.09,0,.13,0,.12.13"/><path class="cls-154" d="M15.61,13.3a.35.35,0,0,1-.34-.23c0-.05,0-.09.08-.1a.44.44,0,0,1,.46.16c0,.13-.09.14-.2.17"/><path class="cls-155" d="M6.6,11.32l.12-.06c.06.21.13.41.19.62-.18,0-.23-.09-.32-.18a.42.42,0,0,1,0-.38"/><path class="cls-156" d="M9.89,8.64a.34.34,0,0,1-.3.29c-.09,0-.15,0-.13-.11a.36.36,0,0,1,.3-.31c.1,0,.12,0,.13.13"/><path class="cls-157" d="M5.88,13.88H5.2c-.06-.09.06-.14.07-.22.25,0,.48,0,.61.22"/><path class="cls-158" d="M5.32,15.57a1,1,0,0,1,.38-.06c.07,0,.16,0,.2.06v.06c.07.13-.05.15-.15.17a.7.7,0,0,1-.47-.06c0-.07,0-.11,0-.17"/><path class="cls-159" d="M14.69,12.3c.16,0,.32,0,.35.18s-.11.11-.21.1-.34-.05-.37-.19.14-.07.23-.09"/><path class="cls-160" d="M9,17.23l-.17.25h0c-.23,0-.31-.14-.25-.33a.09.09,0,0,0,0,0L8.69,17c.23-.09.26.05.29.19"/><path class="cls-81" d="M14.61,14.69c0-.1.08-.12.16-.11a.34.34,0,0,1,.32.25c0,.09-.07.13-.16.11a.39.39,0,0,1-.32-.25"/><path class="cls-60" d="M15.37,15.6c0,.1,0,.15-.11.14a.33.33,0,0,1-.33-.27.09.09,0,0,1,.09-.11.39.39,0,0,1,.35.24"/><path class="cls-161" d="M13.81,17.6c0,.09,0,.2-.15.2s-.19-.13-.19-.24,0-.2.13-.19.19.12.21.23"/><path class="cls-162" d="M4.6,10.81a.24.24,0,0,1-.21-.23c0-.1,0-.2.14-.2s.19.12.21.23a.16.16,0,0,1-.14.2"/><path class="cls-163" d="M3.76,10.51a.28.28,0,0,1,.23.28.12.12,0,0,1-.13.14c-.17,0-.22-.14-.24-.27s0-.15.14-.15"/><path class="cls-91" d="M3,11.54a.33.33,0,0,1,.29.26.1.1,0,0,1-.12.12.3.3,0,0,1-.3-.26c0-.07,0-.12.13-.12"/><path class="cls-164" d="M3.34,12.72c-.14,0-.26-.11-.28-.25s0-.14.15-.12a.33.33,0,0,1,.28.26c0,.08-.06.11-.15.11"/><path class="cls-165" d="M5.46,18c-.11,0-.21,0-.19-.12s.13-.17.27-.18.21,0,.2.11-.15.17-.28.19"/><path class="cls-166" d="M3.75,14c-.08-.06-.1-.14,0-.21a.25.25,0,0,1,.24,0c.14.05.27.09.31.24a.51.51,0,0,1-.53,0"/><path class="cls-167" d="M12.91,12.36c.07.33-.21.27-.42.28l-.15-.06s0,0-.05,0,0,0,0-.06a.08.08,0,0,1,0,0,.77.77,0,0,1,.58-.12h0"/><path class="cls-168" d="M13.31,11.37c.16.2,0,.24-.18.27a.37.37,0,0,1-.36-.09c.1-.25.31-.23.54-.18"/><path class="cls-169" d="M14.43,16.36a.31.31,0,0,1,.26.24c0,.07,0,.16-.1.17s-.24-.12-.28-.25,0-.14.12-.16"/><path class="cls-170" d="M5.6,18.7c-.1,0-.18,0-.16-.12s.17-.2.32-.21.16,0,.14.11-.15.2-.3.22"/><path class="cls-171" d="M7.05,19.05a.37.37,0,0,1-.32.27c-.08,0-.15,0-.13-.12a.34.34,0,0,1,.32-.26c.09,0,.13,0,.13.11"/><path class="cls-172" d="M12,8.88a.34.34,0,0,1-.31.22c-.09,0-.15,0-.14-.1s.15-.23.33-.24.13,0,.12.12"/><path class="cls-173" d="M5.16,15.2c0,.06,0,.1.07.15-.2.15-.45,0-.66.1H4.52c-.07-.25,0-.3.42-.27h.22"/><path class="cls-174" d="M13.71,16.51a.25.25,0,0,1,.22.25c0,.08,0,.17-.12.16s-.21-.12-.22-.25,0-.15.12-.16"/><path class="cls-175" d="M6.65,10.94c-.05.11-.16.06-.24.07a.39.39,0,0,1-.07-.57c.14.15.07.39.31.5"/><path class="cls-176" d="M5.27,15.46v.11a.58.58,0,0,1-.75-.11h0a1.24,1.24,0,0,1,.74,0"/><path class="cls-74" d="M12.21,9.54a.33.33,0,0,1-.33.19c-.09,0-.14-.05-.13-.12a.3.3,0,0,1,.3-.2.13.13,0,0,1,.16.13"/><path class="cls-177" d="M2.47,13.94c0,.07.21.1.12.21s-.21,0-.31,0-.24-.08-.23-.22a.42.42,0,0,1,.42,0"/><path class="cls-178" d="M5.22,14.05l0,0,0,.11a.55.55,0,0,1-.59,0c0-.09,0-.15.06-.22a1.14,1.14,0,0,1,.45.06"/><path class="cls-179" d="M11.48,11.48l.1.07a.78.78,0,0,1-.69.21c0-.09,0-.15.06-.22a.25.25,0,0,1,.22-.12.48.48,0,0,1,.31.06"/><path class="cls-180" d="M4.72,14.21H5.3c.1,0-.08.13,0,.18l0,0c-.13,0-.26,0-.37,0H4.84l-.12-.16"/><path class="cls-181" d="M11.05,11.93a.16.16,0,0,1-.15-.12,2.78,2.78,0,0,1,.76-.16.08.08,0,0,1,0,.12l-.23.16a.77.77,0,0,1-.37,0"/><path class="cls-182" d="M6,15.85l-.18.06c-.11,0-.22.06-.32,0s-.16-.07-.18-.16c.21-.05.46.11.62-.11l.13.1a.75.75,0,0,0-.07.12"/><path class="cls-183" d="M4.44,14.92c.08.24-.12.22-.29.21A.36.36,0,0,1,3.87,15c.16-.24.37-.12.57-.06"/><path class="cls-184" d="M4.82,13.67c0,.09.06.2-.05.28a.64.64,0,0,1-.53-.22,2.2,2.2,0,0,0,.58-.06"/><path class="cls-185" d="M11.77,11.64a.7.7,0,0,1,.38-.11l.2.1c-.11.25-.34.22-.58.18h0c0-.06,0-.12,0-.18"/><path class="cls-186" d="M6,14.7c0,.2-.21.2-.38.18a1.65,1.65,0,0,1-.32-.07l0,0a.12.12,0,0,1,0-.09,1.16,1.16,0,0,1,.69,0"/><path class="cls-187" d="M5.56,15.18,5.65,15c.25,0,.51-.06.68.16H5.56"/><path class="cls-188" d="M12.87,12.35a1.94,1.94,0,0,1-.58.12c-.06-.12,0-.18.12-.23s.31-.08.44.06l0,0"/><path class="cls-189" d="M10.19,17.73c0-.15-.22-.23-.31-.36.09-.17.22-.11.35-.05l0,0c0,.12.08.27-.06.38"/><path class="cls-190" d="M4.44,14.92c-.19,0-.39-.06-.57.06-.13-.16,0-.23.14-.24a.46.46,0,0,1,.43.18"/><path class="cls-191" d="M11.71,11.1l-.08.16c-.16.05-.3.16-.48.11s-.09,0-.08-.1,0,0,0-.06a.73.73,0,0,1,.56-.16l.07,0"/><path class="cls-192" d="M12.53,12.78c.14.1,0,.19,0,.29a.62.62,0,0,1-.59-.05c.19-.1.49,0,.59-.24"/><path class="cls-193" d="M6,14.7a2.41,2.41,0,0,0-.71.05h0l0-.17H6s.06.07,0,.11"/><path class="cls-194" d="M4.1,15.4H3.45c.1-.24.35-.24.65,0"/><path class="cls-195" d="M5,11.76a1.81,1.81,0,0,1,.12.55c-.31-.21-.34-.37-.12-.55"/><path class="cls-196" d="M14.16,13c.17,0,.36,0,.46-.18.1.05.16.13.09.22s-.15.08-.25.07a.46.46,0,0,1-.3-.11"/><path class="cls-197" d="M11.64,11.05l-.56.16c0-.14.11-.19.24-.23s0,0,.07,0,.21,0,.25.11"/><path class="cls-198" d="M8.55,17.15a.46.46,0,0,0,.25.33v.06c-.12,0-.28.08-.36-.06s0-.24.11-.33"/><path class="cls-199" d="M13.31,11.37a.94.94,0,0,0-.54.18c-.16-.21,0-.24.2-.27a.33.33,0,0,1,.34.09"/><path class="cls-200" d="M7.4,16.17H6.72c0-.07,0-.09.09-.09.22,0,.44-.15.59.09"/><path class="cls-201" d="M12.61,13.29l.05,0c-.23,0-.49,0-.65.19-.1-.23.07-.28.27-.29a1.91,1.91,0,0,1,.33.06"/><path class="cls-202" d="M3.75,14h.53c.07.17-.07.18-.2.17A.36.36,0,0,1,3.75,14"/><path class="cls-203" d="M6.15,16.17c.15-.06.06-.11,0-.16A2.69,2.69,0,0,1,6.77,16a.43.43,0,0,1,0,.07c-.08.13-.23.12-.36.14H6.15"/><path class="cls-204" d="M11.64,11.65a2.33,2.33,0,0,1-.74.16v-.05l.69-.21a.06.06,0,0,1,.07,0s0,0,0,0l0,0"/><path class="cls-205" d="M5.33,14.1c.2,0,.38-.09.58,0-.13.22-.28.24-.58,0"/><path class="cls-206" d="M1.07,13.47c.1,0,.2.06.24.15s0,.09-.08.08-.21,0-.24-.14,0-.09.08-.09"/><path class="cls-207" d="M16.44,11.81c0,.08-.07.09-.14.08s-.2,0-.22-.11.07-.08.13-.08a.23.23,0,0,1,.23.11"/><path class="cls-208" d="M13.78,12c.12-.12.34-.05.46-.18,0,.22-.1.27-.46.18"/><path class="cls-209" d="M17,13.5c0,.06-.08.06-.12.06s-.21-.05-.22-.16.06-.07.11-.06.2.06.23.16"/><path class="cls-210" d="M4.83,14.87,5,14.81a.59.59,0,0,1,.37,0h0c0,.06.12,0,.12.11H4.84a.09.09,0,0,1,0-.05"/><path class="cls-211" d="M8.11,7.11a.25.25,0,0,1-.15.2c-.08,0-.11,0-.1-.1A.23.23,0,0,1,8,7c.06,0,.08,0,.08.1"/><path class="cls-212" d="M12.29,12.58h.05c-.15.13-.38.12-.56.21.06-.26.3-.21.51-.21"/><path class="cls-213" d="M7,8.22c-.06,0-.1-.05-.09-.09s0-.17.14-.19A.08.08,0,0,1,7.09,8c0,.08,0,.16-.14.19"/><path class="cls-214" d="M2.46,16.83c0,.07-.08.08-.14.08s-.17,0-.2-.09,0-.1.11-.1.19,0,.23.11"/><path class="cls-215" d="M15.87,12.63c-.09,0-.19,0-.2-.13s.06-.08.12-.06.19,0,.2.13-.07.06-.12.06"/><path class="cls-216" d="M5.64,12.39c.06.15.17.29.07.46-.15-.14-.22-.29-.07-.46"/><path class="cls-217" d="M1.31,15.1c.1,0,.21,0,.23.14s-.07.07-.12.07a.21.21,0,0,1-.22-.12c0-.08.07-.07.11-.09"/><path class="cls-218" d="M11.75,19.19a.08.08,0,0,1,.09.09c0,.07,0,.15-.09.18s-.1,0-.11-.1a.17.17,0,0,1,.11-.17"/><path class="cls-219" d="M16,13.88c.08,0,.17,0,.19.14s0,.08-.1.06-.18-.05-.2-.14,0-.06.11-.06"/><path class="cls-220" d="M11.77,11.81c.2-.06.42,0,.58-.18l.05,0v.11a1.39,1.39,0,0,1-.5.15l-.12-.05a.09.09,0,0,1,0,0"/><path class="cls-221" d="M2.54,16.12c-.08,0-.17,0-.19-.11s.07-.08.12-.08.18,0,.19.1-.06.08-.12.09"/><path class="cls-222" d="M8.7,7.62c.08,0,.11,0,.09.09s0,.16-.16.18-.08,0-.07-.09a.22.22,0,0,1,.14-.18"/><path class="cls-223" d="M6.1,7.66c.09,0,.08.07.07.13s0,.15-.13.15S6,7.87,6,7.82s0-.15.13-.16"/><path class="cls-224" d="M2,13.07a.25.25,0,0,1,.2.15s0,.07-.06.06-.2,0-.22-.15,0-.05.08-.06"/><path class="cls-225" d="M15,11c.08,0,.18,0,.19.1s-.08.08-.15.08-.15,0-.17-.09S15,11,15,11"/><path class="cls-226" d="M15.1,10.22c.08,0,.16,0,.17.09s-.06.09-.13.08-.19,0-.19-.1.09-.06.15-.07"/><path class="cls-227" d="M3.69,17.32c0,.07-.07.08-.13.09a.14.14,0,0,1-.17-.08c0-.07.07-.08.13-.09a.14.14,0,0,1,.17.08"/><path class="cls-228" d="M10.26,19.84c0,.06,0,.16-.16.16s-.06-.06,0-.1,0-.17.15-.17.06.06.06.11"/><path class="cls-229" d="M4.55,8.87c0,.07,0,.15-.12.14S4.34,9,4.34,8.89s0-.13.11-.13.07.08.1.11"/><path class="cls-230" d="M10.29,7.79c.08.14,0,.21-.13.26l-.08,0c0-.13.08-.19.21-.23"/><path class="cls-231" d="M1.7,12.27a.07.07,0,0,1-.09.06c-.09,0-.17-.06-.19-.15s0-.09.1-.07a.29.29,0,0,1,.18.16"/><path class="cls-232" d="M9.93,7a.23.23,0,0,1-.17.28s-.07,0-.07-.06S9.77,7,9.93,7"/><path class="cls-233" d="M10.27,16.73c-.07-.14-.11-.3-.33-.34.34-.08.36.12.37.32,0,0,0,0,0,0"/><path class="cls-234" d="M12.68,19.33a.1.1,0,0,1,.1.11c0,.07,0,.15-.12.16s-.08-.05-.08-.1,0-.14.1-.17"/><path class="cls-235" d="M13.77,9.26c-.06,0-.12,0-.13-.06s.06-.1.13-.11.12,0,.13.05-.07.1-.13.12"/><path class="cls-236" d="M2.11,14.58c0,.07,0,.07-.1.07a.26.26,0,0,1-.2-.11s0-.08.09-.08a.24.24,0,0,1,.21.12"/><path class="cls-237" d="M16.8,15c0,.06,0,.09-.08.08s-.19-.06-.22-.16,0-.06.08-.05a.26.26,0,0,1,.22.13"/><path class="cls-238" d="M14.07,18.19c.09,0,.11,0,.12.11s0,.12,0,.13-.12-.05-.14-.11,0-.1.07-.13"/><path class="cls-239" d="M11.41,7.58a.19.19,0,0,1-.18.15.06.06,0,0,1-.06-.08.2.2,0,0,1,.19-.15c.05,0,.06,0,.05.08"/><path class="cls-240" d="M3.75,18.11a.16.16,0,0,1-.18.08s-.12,0-.11-.07.1-.1.19-.09.1,0,.1.08"/><path class="cls-241" d="M13.83,13.51l.4-.12c0,.3-.23.17-.4.12"/><path class="cls-242" d="M16.13,16.2c0,.05,0,.07-.08.06s-.15-.07-.16-.15,0-.06.08-.05a.16.16,0,0,1,.16.14"/><path class="cls-243" d="M12.47,8.41c-.05,0-.08,0-.07-.07a.17.17,0,0,1,.17-.12s.08,0,.07.07-.08.11-.17.12"/><path class="cls-244" d="M15.67,15.13a.25.25,0,0,1,.19.13c0,.05,0,.09-.09.07a.18.18,0,0,1-.17-.14s0,0,.07-.06"/><path class="cls-245" d="M13.29,18.42s0,.1-.09.09-.11-.08-.1-.15,0-.1.09-.09.1.08.1.15"/><path class="cls-246" d="M2.47,13.94H2.05c.13-.16.16-.16.42,0"/><path class="cls-247" d="M13.85,10s-.11,0-.1-.06.07-.1.14-.1.14,0,.14.08-.1.08-.18.08"/><path class="cls-248" d="M3.33,10.06s0,.11-.08.1A.14.14,0,0,1,3.13,10a.08.08,0,0,1,.07-.1c.1,0,.11.07.13.12"/><path class="cls-249" d="M4.08,9.81c.09,0,.12,0,.12.11s0,.11-.06.12A.11.11,0,0,1,4,9.94c0-.06,0-.1.06-.13"/><path class="cls-250" d="M5.47,8.88c0,.06,0,.13-.09.13s-.11-.07-.1-.14,0-.11.11-.11.07.07.08.12"/><path class="cls-251" d="M7.15,19.73s-.1,0-.09-.05a.18.18,0,0,1,.16-.17s.07,0,.07.06-.07.12-.14.16"/><path class="cls-252" d="M12.64,9.16s-.1,0-.09-.06.06-.11.14-.11.1,0,.09.08-.08.08-.14.09"/><path class="cls-253" d="M8.82,16.61l0,.16c-.12-.06-.16-.18-.25-.27a.23.23,0,0,1,.27.11"/><path class="cls-254" d="M2.42,11.15s0,.06-.07.06a.16.16,0,0,1-.15-.11c0-.06,0-.1.07-.08a.18.18,0,0,1,.15.13"/><path class="cls-255" d="M5,19.05a.15.15,0,0,1-.15.11c-.06,0-.1,0-.09-.08s.07-.08.13-.1a.09.09,0,0,1,.11.07"/><path class="cls-256" d="M15.25,17.21c0,.05,0,.09,0,.09a.14.14,0,0,1-.15-.11.07.07,0,0,1,0-.09c.1,0,.12.06.14.11"/><path class="cls-257" d="M4.79,18.24s.11,0,.1.07-.07.09-.14.09-.1,0-.1-.07.07-.08.14-.09"/><path class="cls-258" d="M15.61,13.3l.2-.17c.1,0,.1.09,0,.14a.17.17,0,0,1-.25,0"/><path class="cls-259" d="M2.59,12.05q0,.09-.09.06c-.06,0-.13-.06-.13-.14s0-.05.09,0a.18.18,0,0,1,.13.12"/><path class="cls-260" d="M14.37,17.34s0,.09-.07.08-.1-.05-.11-.11a.08.08,0,0,1,.08-.09c.07,0,.09.06.1.12"/><path class="cls-261" d="M11,16.61c-.12-.1,0-.23-.06-.35.1.06,0,.2.12.24l-.06.11"/><path class="cls-262" d="M11.14,17.46c0-.11,0-.22,0-.33a.25.25,0,0,1,0,.33"/><path class="cls-263" d="M12.15,11.5c-.07,0-.14,0-.19-.07h.39l-.2.07"/><path class="cls-264" d="M10.38,11.54h.32a.27.27,0,0,1-.32,0"/><path class="cls-265" d="M13.29,10.72H13a.3.3,0,0,1,.33,0"/><path class="cls-266" d="M11.05,11.93h.37a.38.38,0,0,1-.37,0"/><path class="cls-267" d="M11.9,11.91a1,1,0,0,1,.5-.15c-.1.22-.3.18-.5.15"/><path class="cls-268" d="M5.27,15.46H4.53c0-.17.19-.09.3-.1a2.64,2.64,0,0,1,.4,0,.09.09,0,0,1,0,.11"/><path class="cls-269" d="M11.46,11.38c-.11,0-.23,0-.31-.06l.48-.06c0,.08-.11.09-.17.12"/><path class="cls-270" d="M11.13,11.48c.09-.08.21-.05.32,0l0,0h-.35"/><path class="cls-271" d="M5.33,14.81H5c.11-.09.24,0,.36-.05h0v.06"/></g></g></g></g><path class="cls-272" d="M20.63,5.07a1.36,1.36,0,0,0-1.14-.23L12.16,6.61V20.8l8-1.93a1.26,1.26,0,0,0,1-1.21V6A1.22,1.22,0,0,0,20.63,5.07Z"/><path d="M12.16,7,5.61,5.36A1.18,1.18,0,0,0,4.16,6.52v11a1.2,1.2,0,0,0,.89,1.15l7.11,1.84Z"/><g class="cls-273"><g id="Illustration_1-2" data-name="Illustration 1"><g class="cls-274"><g class="cls-275"><path class="cls-7" d="M12,16.79a1.35,1.35,0,0,1,.4-.08A.56.56,0,0,1,13,17c.09.25-.14.34-.34.42a.59.59,0,0,1-.73-.18c-.12-.18-.16-.35.1-.46"/><path class="cls-8" d="M16.56,19.43a.47.47,0,0,1,.09-.54.46.46,0,0,1,.56-.19c.19.1.31.29.16.5a.66.66,0,0,0,0,.15.55.55,0,0,1-.28.26.42.42,0,0,1-.51-.08.07.07,0,0,1,0-.1"/><path class="cls-9" d="M11.43,14.46c0-.2-.09-.46.25-.51a.62.62,0,0,1,.62.3.33.33,0,0,1,0,.45.42.42,0,0,1-.5,0,3,3,0,0,1-.3-.19s-.06,0-.05,0"/><path class="cls-10" d="M13.59,11.54a.52.52,0,0,1,.26.62c0,.13-.08.28-.31.28s-.36-.08-.41-.25,0-.19-.16-.23,0-.15,0-.22.28-.38.58-.2"/><path class="cls-11" d="M12.33,12.42a.37.37,0,0,1,.53-.14.51.51,0,0,1,.26.65c-.1.24-.33.24-.56.17s-.4-.33-.23-.68"/><path class="cls-12" d="M21.32,16.23c0,.2,0,.44-.32.48a.58.58,0,0,1-.57-.32.32.32,0,0,1,0-.47A.44.44,0,0,1,21,16a1.5,1.5,0,0,1,.25.19.11.11,0,0,1,.09.09"/><path class="cls-13" d="M17.67,19.31c-.12-.3-.17-.57.21-.77s.52-.08.53.26a2.85,2.85,0,0,1,0,.41l0,.05c-.21.2-.42.32-.68,0"/><path class="cls-14" d="M16.15,19.48c-.23,0-.52.17-.66-.12s0-.45.25-.59a.42.42,0,0,1,.5,0c.18.12.13.28.09.43s-.2.18-.19.31Z"/><path class="cls-15" d="M14.5,18.68h0c.24-.18.52-.32.78-.07s0,.4-.15.54a.52.52,0,0,1-.78-.1l0,0a.27.27,0,0,1,.16-.32"/><path class="cls-11" d="M12.45,13.18c.16.22.36.45.05.68a.4.4,0,0,1-.55-.1c-.23-.23-.31-.47,0-.7a.34.34,0,0,1,.5.12"/><path class="cls-16" d="M16.77,11.2c-.42.44-.55.45-.88.08-.14-.22,0-.39.13-.54a.62.62,0,0,1,.17-.11.66.66,0,0,1,.48,0c.21.16.28.35.1.56"/><path class="cls-17" d="M12.79,11.33a.59.59,0,0,1-.24-.63.44.44,0,0,1,.36-.31c.2,0,.29.12.34.27a3.58,3.58,0,0,1,.09.35c-.09.24-.19.44-.55.32"/><path class="cls-18" d="M11.34,17.62a4.19,4.19,0,0,1-.5,0,.43.43,0,0,1-.35-.34c0-.19.15-.24.31-.28s.44-.07.64.07c.28.31.26.44-.1.58"/><path class="cls-19" d="M20.84,12.17a.74.74,0,0,1,.69-.16c.19.05.36.14.37.33s-.18.26-.37.28a1.38,1.38,0,0,1-.2,0,.72.72,0,0,1-.33,0c-.21-.1-.32-.24-.16-.44"/><path class="cls-20" d="M15.75,11.27c-.09.14-.16.31-.38.34s-.38-.24-.43-.45a.57.57,0,0,1,0-.29.49.49,0,0,1,.11-.14.7.7,0,0,1,.53-.06.35.35,0,0,1,.12.07.41.41,0,0,1,0,.53"/><path class="cls-21" d="M12.28,18.59a1,1,0,0,1-.6.09c-.18-.05-.36-.13-.37-.31s.13-.27.33-.28a2.92,2.92,0,0,1,.51,0c.38.2.4.3.13.54"/><path class="cls-22" d="M17.05,20.07c.13.27,0,.46-.24.63s-.26.2-.44.09a.29.29,0,0,1-.12-.39,1.79,1.79,0,0,1,.12-.24c0-.12.16-.16.26-.21s.35-.12.42.12"/><path class="cls-23" d="M20.54,12.9a.67.67,0,0,1-.79.12c-.24-.09-.41-.26-.18-.5a2,2,0,0,1,.8-.08.38.38,0,0,1,.31.28c0,.09,0,.15-.14.18"/><path class="cls-24" d="M17.32,10.79c.23,0,.53,0,.54.27s-.23.52-.62.54a.69.69,0,0,1-.34-.41.5.5,0,0,1,.19-.38c.07,0,.14-.08.23,0"/><path class="cls-25" d="M19.25,11c-.24,0-.5-.06-.46-.36s.45-.41.69-.36a.28.28,0,0,1,.19.46c-.1.14-.3.15-.43.26Z"/><path class="cls-26" d="M15.75,20.13a.63.63,0,0,1-.61.52c-.21,0-.29-.14-.26-.32a.65.65,0,0,1,.64-.48c.2,0,.25.14.23.28"/><path class="cls-27" d="M10.76,15.28a.86.86,0,0,1-.48-.08c-.22-.13-.46-.3-.31-.53s.42-.14.64,0a.24.24,0,0,1,.31.14c.07.19.14.39-.16.48"/><path class="cls-28" d="M12.21,11.92a.23.23,0,0,1-.33.22.5.5,0,0,1-.37-.5c0-.16,0-.33.26-.37a.37.37,0,0,1,.4.21.32.32,0,0,1,.05.25.14.14,0,0,1,0,.19"/><path class="cls-29" d="M14,10.69l-.16-.21a.6.6,0,0,1,.05-.45c.11-.12.16-.35.41-.27s.24.38.24.6,0,.18-.08.25-.27.19-.46.08"/><path class="cls-30" d="M10.79,14.16c-.31,0-.61-.32-.6-.55s.12-.25.33-.23.59.34.56.57-.18.2-.29.21"/><path class="cls-31" d="M11.55,12.65c0,.16,0,.36-.2.44a.46.46,0,0,1-.42-.12.52.52,0,0,1-.2-.5.23.23,0,0,1,.22-.19.52.52,0,0,1,.5.28l.1.1Z"/><path class="cls-32" d="M20.63,18.53a.48.48,0,0,1,.22.31c0,.22.07.48-.23.56s-.39-.15-.47-.35a.37.37,0,0,1-.06-.33.35.35,0,0,1,.54-.19"/><path class="cls-33" d="M18.4,19.88a.73.73,0,0,1-.08.56.4.4,0,0,1-.48.21c-.21-.08-.16-.24-.17-.4s.14-.13,0-.22a.09.09,0,0,1,0-.1.74.74,0,0,1,.21-.18c.2-.06.37-.08.48.13"/><path class="cls-34" d="M21.88,16.57a.65.65,0,0,1,.55.53c0,.18-.11.27-.31.28a.63.63,0,0,1-.53-.54c0-.19.09-.28.29-.27"/><path class="cls-35" d="M16.54,9.54l.2,0c.15,0,.3-.07.41.06a.31.31,0,0,1,0,.38l-.14.22,0,.05a.18.18,0,0,1-.08.09c-.24.07-.48.15-.56-.18s.15-.39.15-.59Z"/><path class="cls-36" d="M17.59,10.33a.71.71,0,0,1,.7-.58c.15,0,.27.13.25.29a.71.71,0,0,1-.69.48c-.18,0-.26-.13-.26-.19"/><path class="cls-37" d="M13.9,20.21c-.2,0-.31-.11-.31-.28s.37-.46.63-.44.31.09.3.28a.6.6,0,0,1-.62.44"/><path class="cls-38" d="M13.34,19.34a.75.75,0,0,1-.42.2c-.2,0-.41,0-.5-.16s.05-.33.24-.41a1.39,1.39,0,0,1,.19-.06.57.57,0,0,1,.34,0c.29.1.38.25.15.47"/><path class="cls-39" d="M20,11.29a.32.32,0,0,1,.25-.22c.28-.08.57-.07.68.18s-.17.35-.42.39-.39.07-.54-.05-.11-.22,0-.3"/><path class="cls-40" d="M20.72,17.47c-.24.2-.43.1-.59-.09s-.26-.43,0-.63a.37.37,0,0,1,.56.09,1.92,1.92,0,0,1,0,.63"/><path class="cls-41" d="M11.55,14.89c.37,0,.65.06.75.4s-.26.27-.48.28-.24-.07-.37,0a.29.29,0,0,1-.13,0c-.12-.26-.1-.48.23-.59"/><path class="cls-42" d="M18.75,12.16c0-.29.18-.46.52-.48a.2.2,0,0,1,.22-.08.51.51,0,0,1,.36.4.26.26,0,0,1-.22.29,1.48,1.48,0,0,1-.88-.13"/><path class="cls-43" d="M12.21,11.92a1.28,1.28,0,0,0,0-.19c.17-.11.17-.36.43-.39s.46.19.41.47L13,12c-.19.27-.39.26-.57,0-.06-.1-.09-.15-.19,0"/><path class="cls-44" d="M17.51,21.62c.09-.22.14-.49.48-.51s.23.15.21.29a.52.52,0,0,1-.46.53c-.21,0-.2-.17-.23-.31"/><path class="cls-45" d="M13.8,9c.08-.21.12-.46.44-.46s.26.19.22.33-.1.49-.44.48-.2-.21-.22-.35"/><path class="cls-46" d="M16.12,8.55c-.07.21-.15.46-.49.48-.18,0-.21-.12-.21-.26s.32-.56.52-.53.19.16.18.31"/><path class="cls-47" d="M20.08,13.6c-.08-.44.37-.36.61-.47a.51.51,0,0,1,.32.08c.13.18.41.36,0,.54a1.7,1.7,0,0,1-.94-.15"/><path class="cls-48" d="M19.25,21c.07-.19.08-.44.39-.44s.26.21.24.36-.07.45-.37.45-.23-.21-.26-.37"/><path class="cls-49" d="M14.43,10.56l.1-.2c.18,0,.31-.24.53-.08a.14.14,0,0,1,.11.07.32.32,0,0,1-.07.41c0,.05,0,.11,0,.17a1.79,1.79,0,0,1-.35.11h-.07a.13.13,0,0,1-.12,0,.48.48,0,0,1-.11-.48"/><path class="cls-50" d="M23.65,14.74c.31,0,.55.18.6.45s-.14.21-.29.18-.54-.16-.6-.45.15-.18.29-.18"/><path class="cls-51" d="M18.37,19.21a.59.59,0,0,1,.35-.22c.41.17.46.48.11.76a.48.48,0,0,1-.42,0c-.28-.19-.18-.39,0-.59Z"/><path class="cls-52" d="M19.54,18.48l.16-.08c.31,0,.37.13.4.34A.48.48,0,0,1,20,19a.34.34,0,0,1-.45.16c-.21-.07-.22-.23-.24-.39a.35.35,0,0,1,.22-.33"/><path class="cls-53" d="M12.81,9.67c0,.22-.08.43-.33.41s-.29-.25-.26-.44.11-.39.36-.36.24.24.23.39"/><path class="cls-54" d="M19.43,11.62l-.16.06c-.45-.27-.45-.37,0-.67h0c.25,0,.48,0,.57.27s-.12.34-.38.34"/><path class="cls-55" d="M16.5,21.51A.6.6,0,0,1,16,22c-.19,0-.2-.16-.16-.28a.56.56,0,0,1,.53-.49c.19,0,.18.16.17.29"/><path class="cls-56" d="M20.18,17.84c.19-.06.34-.34.59-.09a.43.43,0,0,1,0,.66c-.45.15-.53-.18-.68-.41a.15.15,0,0,1,.06-.16"/><path class="cls-57" d="M15.71,10.75l-.12,0c-.11-.15,0-.3,0-.44s.05-.21.21-.2.39-.08.52.11,0,.35-.1.5l-.12.09a.37.37,0,0,1-.39,0"/><path class="cls-58" d="M12,13a.73.73,0,0,1-.4-.35h0c0-.16,0-.34.17-.41s.35.09.46.23c.18.4.14.49-.23.52"/><path class="cls-59" d="M16.56,19.43v.08a.3.3,0,0,1,0,.43,1,1,0,0,1-.33.21c-.16,0-.33,0-.39-.13s.08-.41.29-.54h0a.86.86,0,0,1,.42-.06"/><path class="cls-60" d="M8.64,14.19c0-.14.18-.14.32-.12s.58.34.53.51-.17.14-.3.13-.59-.32-.55-.52"/><path class="cls-61" d="M21.32,16.23l-.09-.09a.66.66,0,0,1,.11-.36A.61.61,0,0,1,22,16a.15.15,0,0,1,0,.18c0,.13,0,.27-.16.31s-.37-.11-.52-.22"/><path class="cls-62" d="M14.53,9.43c.08-.21.17-.43.45-.42s.24.19.2.34-.14.43-.43.42-.2-.2-.22-.34"/><path class="cls-63" d="M13.33,11c.09-.26.24-.42.58-.26.14.06.14.17.18.28a.27.27,0,0,1,0,.09.44.44,0,0,1-.08.11.42.42,0,0,1-.15.11c0,.1-.16.12-.26.15-.33-.06-.36-.25-.27-.48"/><path class="cls-64" d="M20.76,20c0-.19.08-.38.3-.36s.31.24.3.44-.05.38-.32.34-.26-.25-.28-.42"/><path class="cls-51" d="M18.42,20.69c0-.19.09-.42.4-.42s.23.18.21.33-.11.44-.39.44-.23-.18-.22-.35"/><path class="cls-30" d="M10.84,14.84a.26.26,0,0,0-.23-.18s.08,0,.09-.07c.1-.4.23-.44.63-.2l.1.07s0,0,.05,0v.31c-.2.23-.43.08-.64,0"/><path class="cls-65" d="M13.1,9.89c0-.19.09-.41.37-.4s.25.2.23.35-.06.42-.35.42-.24-.2-.25-.37"/><path class="cls-66" d="M15.8,10.09l-.16.19a.13.13,0,0,1-.1,0c-.2-.15-.44-.28-.37-.56l.15-.17a.3.3,0,0,1,.36-.12.25.25,0,0,1,.18.3c0,.11,0,.21-.06.32"/><path class="cls-67" d="M20.46,11.76c.22.06.36.18.3.4s-.2.2-.36.21a.82.82,0,0,1-.27,0c-.22-.07-.36-.18-.31-.4a.48.48,0,0,1,.64-.19"/><path class="cls-68" d="M16.86,21a.45.45,0,0,1,.43-.39c.22,0,.23.16.21.29a.46.46,0,0,1-.46.45c-.18,0-.21-.14-.18-.35"/><path class="cls-69" d="M22.53,13.1C22.3,13,22,13,22,12.76s.28-.24.45-.22.46.11.44.36-.24.17-.38.2"/><path class="cls-70" d="M10.08,17c-.24,0-.49-.12-.51-.34s.19-.24.4-.21.46.13.47.35-.2.19-.36.2"/><path class="cls-37" d="M14.38,19c-.22.45-.46.53-.87.31-.14-.36.11-.48.44-.55a.41.41,0,0,1,.44.25Z"/><path class="cls-71" d="M21.61,11.34c.18,0,.39.09.37.28s-.27.25-.49.23-.4-.07-.37-.27.26-.24.49-.24"/><path class="cls-72" d="M14.77,21a.19.19,0,0,1,.19.22.66.66,0,0,1-.55.47c-.17,0-.22-.1-.22-.22a.63.63,0,0,1,.58-.47"/><path class="cls-73" d="M17.71,20v0a.55.55,0,0,1-.59,0,.3.3,0,0,1,0-.39.71.71,0,0,1,.34-.24h.25a.4.4,0,0,1,.16.22.56.56,0,0,1-.13.42"/><path class="cls-74" d="M11.93,19.61c.17,0,.34.08.29.25s-.29.28-.52.29-.35-.07-.32-.24.31-.29.55-.3"/><path class="cls-75" d="M11.32,15.46l.1,0a.09.09,0,0,1,.06.06c0,.1.12.2.08.31a.42.42,0,0,1-.62,0c-.15-.17-.5-.31-.11-.55a.35.35,0,0,1,.49.12"/><path class="cls-76" d="M21.49,11.08c-.19,0-.39-.07-.36-.26s.3-.26.52-.27.37.08.34.26-.3.24-.5.27"/><path class="cls-77" d="M22.7,11.79c.25,0,.49.11.5.33s-.25.24-.42.19-.49,0-.47-.32.23-.19.39-.2"/><path class="cls-78" d="M12.35,16a.25.25,0,0,1,.19.32c-.18.25-.54.13-.77.27a.28.28,0,0,1-.22-.11.39.39,0,0,1-.07-.29c.21-.33.55-.24.87-.19"/><path class="cls-79" d="M18.73,18.93c-.29-.43-.21-.7.23-.89a1,1,0,0,1,.23.89c-.15.15-.31.09-.46,0"/><path class="cls-80" d="M23.46,16.15c.26,0,.57.29.55.49s-.11.16-.23.16-.58-.29-.57-.48.11-.18.25-.17"/><path class="cls-81" d="M9.09,12.91a.19.19,0,0,1,.24-.19.54.54,0,0,1,.5.48c0,.13-.08.22-.23.19a.6.6,0,0,1-.51-.48"/><path class="cls-82" d="M19.86,19.93c0-.18.11-.37.32-.35s.29.23.26.43-.07.35-.29.33-.26-.25-.29-.41"/><path class="cls-83" d="M15.31,21a.55.55,0,0,1,.5-.42c.18,0,.24.12.2.26a.52.52,0,0,1-.49.43c-.18,0-.22-.12-.21-.27"/><path class="cls-84" d="M17.93,11.42a.57.57,0,0,1,.72-.23.28.28,0,0,1,.19.42s0,0-.06,0a.94.94,0,0,1-.6,0c-.15,0-.29-.09-.25-.27"/><path class="cls-85" d="M17.74,8.67a.56.56,0,0,1-.56.43C17,9.1,17,8.94,17,8.82a.52.52,0,0,1,.56-.39c.21,0,.14.14.15.24"/><path class="cls-86" d="M10.31,19c-.15-.05-.27-.14-.19-.28s.34-.18.55-.15.33.06.34.23-.07.25-.27.24a.58.58,0,0,1-.43,0"/><path class="cls-87" d="M19.05,8.86c.12,0,.23.08.2.21a.56.56,0,0,1-.52.42c-.15,0-.24-.05-.25-.2s.32-.45.57-.43"/><path class="cls-88" d="M11.5,10.79c0,.14-.07.32-.29.28s-.33-.26-.33-.46.07-.31.29-.28.28.26.33.46"/><path class="cls-89" d="M17.42,9.55a.54.54,0,0,1,.5-.42c.17,0,.27.09.23.23a.54.54,0,0,1-.52.41c-.15,0-.21-.09-.21-.22"/><path class="cls-90" d="M11.78,10.63c0-.15.09-.33.29-.3s.32.26.3.46-.08.32-.3.27-.28-.24-.29-.43"/><path class="cls-74" d="M13.29,20.43c.16,0,.28.06.25.2S13.27,21,13,21s-.29-.08-.25-.23a.51.51,0,0,1,.53-.35"/><path class="cls-91" d="M23.12,18.08a.51.51,0,0,1-.39-.49c0-.13.07-.2.23-.19a.54.54,0,0,1,.44.51c0,.14-.1.19-.28.17"/><path class="cls-92" d="M11.83,18.84c.18,0,.38.06.33.26s-.28.27-.5.25-.36-.08-.33-.26.28-.25.5-.25"/><path class="cls-93" d="M16.55,9.54c-.17,0-.38.2-.51,0A.37.37,0,0,1,16.19,9c.11-.07.24-.21.39-.13s.11.26.06.4a2.29,2.29,0,0,1-.1.23Z"/><path class="cls-94" d="M10.22,12.19a.52.52,0,0,1-.37-.51.2.2,0,0,1,.26-.18.47.47,0,0,1,.39.51c0,.13-.09.2-.28.18"/><path class="cls-95" d="M21.9,18.82c0-.14.07-.26.24-.24a.43.43,0,0,1,.39.46c0,.14-.06.26-.24.24S22,19,21.9,18.82"/><path class="cls-96" d="M20.31,10.89c-.17,0-.36-.05-.32-.23s.24-.29.47-.3.34.06.33.23-.27.28-.48.3"/><path class="cls-97" d="M20.36,9.59c.17,0,.33.06.28.22s-.28.32-.54.32-.29-.07-.25-.21.27-.32.51-.33"/><path class="cls-98" d="M9.84,13.73a.5.5,0,0,1,.39.42c0,.16-.14.21-.29.17s-.46-.19-.46-.45.11-.18.36-.14"/><path class="cls-99" d="M21.63,19.12c0,.14-.08.29-.29.24a.41.41,0,0,1-.3-.48.22.22,0,0,1,.27-.22c.27.05.31.25.32.46"/><path class="cls-100" d="M19.7,18.35a.56.56,0,0,1-.3-.67.3.3,0,0,1,.38-.24,1,1,0,0,1,.13.9.2.2,0,0,1-.21,0"/><path class="cls-101" d="M19.58,20.05c-.28.26-.46.15-.6-.13a.5.5,0,0,1,.21-.6c.46.11.36.45.39.73"/><path class="cls-74" d="M12.87,20.22c-.19,0-.33-.07-.3-.22a.45.45,0,0,1,.49-.31c.16,0,.31,0,.29.19s-.25.32-.48.34"/><path class="cls-102" d="M14,11.2l.09-.07a.61.61,0,0,1,.54.71c-.29.24-.47.16-.59-.15s0-.33,0-.49"/><path class="cls-94" d="M10.75,11.61c0-.14.07-.28.25-.24a.42.42,0,0,1,.35.48.2.2,0,0,1-.26.21.42.42,0,0,1-.34-.45"/><path class="cls-103" d="M22,16.14V16c-.1-.06-.14-.12,0-.2a.79.79,0,0,1,.76,0c.09.12.15.25,0,.36a.4.4,0,0,1-.43,0c-.11,0-.2-.1-.32-.06"/><path class="cls-104" d="M21.57,18.39c-.39,0-.52-.17-.56-.46s.11-.34.36-.35c0,0,.06,0,.09.06.1.24.26.48.11.75"/><path class="cls-105" d="M22.73,16.47a.48.48,0,0,1,.41.42c0,.16-.09.23-.26.19a.48.48,0,0,1-.43-.44c0-.14.08-.2.28-.17"/><path class="cls-106" d="M14.56,7.51c-.08.18-.13.41-.4.41S14,7.75,14,7.63s.1-.42.39-.41.17.16.17.29"/><path class="cls-107" d="M17.24,23c.07-.17.15-.39.43-.4s.18.15.15.25-.16.43-.42.45-.18-.16-.16-.3"/><path class="cls-108" d="M9.78,17.19c.19,0,.34.15.27.34s-.27.14-.43.12a.5.5,0,0,1-.47-.26c.11-.29.41-.15.63-.2"/><path class="cls-109" d="M14.58,11.84c-.13-.27-.2-.56-.54-.71a.09.09,0,0,0,0-.05.33.33,0,0,1,.49-.06l.12,0c.1.28.24.56-.08.8"/><path class="cls-110" d="M16,7.41A.5.5,0,0,1,16.43,7c.17,0,.18.12.16.23a.5.5,0,0,1-.47.44c-.14,0-.11-.14-.12-.21"/><path class="cls-111" d="M21.94,13.75c-.06.14.14.24.11.37a.9.9,0,0,1-.83-.06L21.14,14c0-.31.05-.37.53-.35a.34.34,0,0,1,.27.12"/><path class="cls-112" d="M19.41,22.36c0-.16.07-.38.32-.4s.21.16.2.29-.07.39-.33.4-.19-.15-.19-.29"/><path class="cls-113" d="M15.54,22.56c.18,0,.23.08.21.17a.53.53,0,0,1-.43.48c-.15,0-.22-.07-.2-.18a.68.68,0,0,1,.42-.47"/><path class="cls-114" d="M13.6,18.25l.25-.14a.66.66,0,0,1,.44,0c.12.05.18.12.15.24a2.21,2.21,0,0,1-.95.26.16.16,0,0,1-.15-.17.28.28,0,0,1,.26-.22"/><path class="cls-115" d="M24.13,11.67c.22,0,.44.08.45.28s-.2.19-.35.16-.44-.07-.44-.28.21-.16.34-.16"/><path class="cls-116" d="M10.92,15.88A.88.88,0,0,0,11,16c-.2.24-.51.19-.79.23-.07-.12-.23-.22-.1-.37a.44.44,0,0,1,.48-.1l.36.09"/><path class="cls-117" d="M18.41,22c.05-.15.1-.36.36-.35s.17.17.15.29-.1.35-.33.36-.19-.15-.18-.3"/><path class="cls-118" d="M12,8.4c0-.16.1-.34.33-.31s.19.19.17.33-.06.35-.29.33S12,8.54,12,8.4"/><path class="cls-119" d="M9.19,18.88c.17,0,.37.06.37.23s-.21.2-.38.19-.37-.05-.37-.23.21-.18.38-.19"/><path class="cls-120" d="M8,17.11c.22.05.45.09.48.31s-.18.18-.31.16-.48-.09-.49-.33.2-.12.32-.14"/><path class="cls-121" d="M9.87,15.12c.19.08.37.2.25.39s-.37.1-.55,0-.24-.14-.25-.28a.66.66,0,0,1,.55-.12"/><path class="cls-122" d="M18.05,7.87c-.16,0-.19-.09-.18-.18a.51.51,0,0,1,.45-.42c.14,0,.2.07.17.19a.56.56,0,0,1-.44.41"/><path class="cls-123" d="M10.18,16.26c.22-.19.54-.11.79-.23.16.16.11.3-.05.42a.81.81,0,0,1-.74-.19"/><path class="cls-125" d="M16.6,22.57c-.15,0-.18-.13-.15-.23s.16-.41.45-.41c.12,0,.15.14.12.24s-.16.37-.42.4"/><path class="cls-126" d="M22.05,14.33a.64.64,0,0,1,.75.28c0,.22-.24.16-.39.17A1.7,1.7,0,0,1,22,14.7c-.24-.18-.23-.31.09-.37"/><path class="cls-127" d="M14.84,8.18c0-.18.1-.36.35-.39s.21.11.18.23-.12.39-.38.42-.14-.15-.15-.26"/><path class="cls-128" d="M14,18.81c-.2,0-.41,0-.5-.2.28-.19.64-.14,1-.23l0,.22a.34.34,0,0,1-.43.21"/><path class="cls-129" d="M22.74,10.54c-.16,0-.33-.08-.28-.23s.26-.21.45-.19.3.07.26.23-.27.18-.43.19"/><path class="cls-130" d="M23.93,13c-.19,0-.41-.08-.4-.3s.21-.16.34-.13.42.07.4.3-.19.14-.34.13"/><path class="cls-131" d="M7.93,14.71a.2.2,0,0,1,.27-.13c.21.07.45.14.45.39s-.14.14-.25.11a.59.59,0,0,1-.47-.37"/><path class="cls-132" d="M20.17,18a.3.3,0,0,1-.29.33c0-.31-.16-.6-.1-.9a.39.39,0,0,1,.4.4,1,1,0,0,0,0,.17"/><path class="cls-133" d="M9.34,18.37c-.17,0-.39-.07-.37-.24a.34.34,0,0,1,.38-.2c.16,0,.35.1.34.28s-.21.16-.35.16"/><path class="cls-135" d="M9.38,15.76c.14.08.21.19.13.31s-.23.13-.38.09a.64.64,0,0,1-.39-.2c.1-.35.37-.27.64-.2"/><path class="cls-137" d="M13,8.68c0-.19.09-.38.33-.37s.19.18.16.3-.07.34-.28.35-.18-.17-.21-.28"/><path class="cls-138" d="M16.64,8.16a.49.49,0,0,1,.4-.41c.16,0,.18.1.16.2a.46.46,0,0,1-.42.41c-.12,0-.14-.1-.14-.2"/><path class="cls-139" d="M21.34,14.79c-.36,0-.74,0-.91-.34a1.41,1.41,0,0,1,.95,0,.18.18,0,0,1,.11.22.14.14,0,0,1-.15.11"/><path class="cls-140" d="M7.75,14c-.22-.06-.43-.17-.45-.41s.09-.14.2-.13.52.29.49.44-.12.12-.24.1"/><path class="cls-141" d="M21.9,14.64c.3,0,.61.13.9,0,.18.29.1.4-.28.38-.2,0-.33-.18-.53-.13a.08.08,0,0,1-.1,0,.18.18,0,0,1,0-.2"/><path class="cls-142" d="M11.36,9.59c0-.14.05-.3.24-.29s.24.19.24.34-.05.27-.22.26-.24-.17-.26-.31"/><path class="cls-143" d="M21.32,21.17c0-.13.05-.31.25-.28s.23.2.22.36-.05.29-.25.27-.2-.21-.22-.35"/><path class="cls-145" d="M20.25,21.15c0-.16.06-.32.25-.33s.22.18.22.31,0,.32-.25.32-.21-.17-.22-.3"/><path class="cls-146" d="M21.45,15.26v.23a.92.92,0,0,1-.91-.07c0-.07-.1-.15,0-.23a.92.92,0,0,1,.78,0h.08a.13.13,0,0,1,.06.07"/><path class="cls-147" d="M10.7,20.27c.15,0,.3.05.27.19s-.21.24-.41.23-.28,0-.26-.18.23-.21.4-.24"/><path class="cls-148" d="M22.82,11.05c.18,0,.37.06.36.24s-.19.17-.33.16-.39,0-.38-.22.19-.18.35-.18"/><path class="cls-149" d="M10.19,19.58a.36.36,0,0,1,.39-.22c.16,0,.33.05.32.21s-.23.19-.39.2a.29.29,0,0,1-.32-.19"/><path class="cls-150" d="M23.1,13.54c-.12-.18,0-.29.17-.3s.59,0,.7.36a1,1,0,0,1-.87-.06"/><path class="cls-151" d="M18.28,8.51a.49.49,0,0,1,.44-.34.13.13,0,0,1,.15.17.48.48,0,0,1-.46.36.14.14,0,0,1-.13-.19"/><path class="cls-152" d="M17.93,11.42c.2.31.57.14.85.23a.64.64,0,0,1-.47.26c-.38,0-.53-.16-.38-.49"/><path class="cls-153" d="M13.35,22.45a.53.53,0,0,1,.45-.35c.11,0,.2,0,.17.15a.5.5,0,0,1-.47.39c-.12,0-.16-.07-.15-.19"/><path class="cls-154" d="M7.46,15.23a.45.45,0,0,1,.43.35c0,.06,0,.12-.11.13a.6.6,0,0,1-.6-.27c0-.17.14-.18.28-.21"/><path class="cls-155" d="M19.33,18.83l-.17.07c-.07-.29-.13-.57-.2-.86.25,0,.31.14.41.27a.6.6,0,0,1,0,.52"/><path class="cls-156" d="M14.65,22.13a.44.44,0,0,1,.43-.36c.12,0,.19.07.16.16a.5.5,0,0,1-.44.4c-.13,0-.15-.08-.15-.2"/><path class="cls-157" d="M20.55,15.42l.91.07c.07.13-.09.19-.11.29-.34,0-.65,0-.8-.36"/><path class="cls-158" d="M21.48,13.19a1.33,1.33,0,0,1-.52,0c-.1,0-.21,0-.26-.1v-.08c-.07-.18.09-.2.22-.22a.9.9,0,0,1,.62.14c0,.09-.05.14-.06.22"/><path class="cls-159" d="M8.59,16.68c-.21,0-.42-.06-.44-.27s.16-.14.28-.13.46.11.48.3-.19.08-.32.1"/><path class="cls-160" d="M16.74,10.57l.26-.32h0c.31.07.39.23.3.48a.2.2,0,0,0,0,.07l-.2.06c-.32.1-.35-.09-.38-.28"/><path class="cls-81" d="M8.94,13.45c0,.14-.11.15-.22.13a.46.46,0,0,1-.4-.38c0-.12.11-.16.23-.12a.51.51,0,0,1,.39.37"/><path class="cls-60" d="M8,12.13c0-.13,0-.2.16-.18a.47.47,0,0,1,.42.4.11.11,0,0,1-.14.14A.5.5,0,0,1,8,12.13"/><path class="cls-161" d="M10.32,9.57c0-.11,0-.27.21-.25s.24.19.24.34,0,.28-.2.26-.24-.19-.25-.35"/><path class="cls-162" d="M22,19.72a.35.35,0,0,1,.26.34c0,.13,0,.27-.21.25s-.25-.18-.26-.33.05-.23.21-.26"/><path class="cls-163" d="M23,20.22a.41.41,0,0,1-.28-.4.17.17,0,0,1,.19-.19.36.36,0,0,1,.29.4c0,.1,0,.19-.2.19"/><path class="cls-91" d="M24.17,18.9a.43.43,0,0,1-.35-.39c0-.1.05-.17.17-.15a.4.4,0,0,1,.37.38c0,.1,0,.17-.19.16"/><path class="cls-164" d="M23.83,17.26c.19.07.34.17.36.37s-.09.18-.22.14a.43.43,0,0,1-.35-.38c0-.1.09-.15.21-.13"/><path class="cls-165" d="M21.55,9.83c.14,0,.27,0,.24.18s-.21.22-.38.21-.28,0-.27-.16.22-.22.41-.23"/><path class="cls-166" d="M23.41,15.49c.1.09.12.2,0,.29a.36.36,0,0,1-.32,0c-.19-.08-.36-.16-.39-.36a.66.66,0,0,1,.7.05"/><path class="cls-167" d="M11,16.78c-.06-.45.31-.34.59-.34l.2.1a0,0,0,0,1,.07,0s0,.05,0,.07l0,.08a1,1,0,0,1-.79.1l-.06,0"/><path class="cls-168" d="M10.34,18.08c-.19-.28,0-.33.27-.35a.51.51,0,0,1,.47.16c-.15.33-.44.28-.74.19"/><path class="cls-169" d="M9.36,11.19A.39.39,0,0,1,9,10.85c0-.1,0-.23.14-.22s.32.18.36.36,0,.19-.18.2"/><path class="cls-170" d="M21.42,8.92c.13,0,.24.05.2.18s-.25.25-.45.25-.2,0-.18-.16.22-.27.43-.27"/><path class="cls-171" d="M19.52,8.3A.48.48,0,0,1,20,8c.11,0,.19.07.16.17a.46.46,0,0,1-.45.33c-.13,0-.17-.06-.16-.16"/><path class="cls-172" d="M11.81,21.58a.49.49,0,0,1,.45-.26c.11,0,.2.05.17.16a.4.4,0,0,1-.46.29c-.12,0-.17-.07-.16-.19"/><path class="cls-173" d="M21.65,13.72c0-.09,0-.15-.08-.22.28-.18.61,0,.9-.07h.07c.06.34-.07.41-.6.33l-.29,0"/><path class="cls-174" d="M10.34,11.07a.34.34,0,0,1-.27-.37c0-.1,0-.22.17-.2a.32.32,0,0,1,.28.36c0,.1,0,.2-.18.21"/><path class="cls-175" d="M19.22,19.34c.08-.14.22-.07.33-.06a.52.52,0,0,1,0,.77c-.17-.21-.06-.54-.36-.71"/><path class="cls-176" d="M21.53,13.34a.76.76,0,0,0,0-.15.79.79,0,0,1,1,.23h0a1.72,1.72,0,0,1-1-.09"/><path class="cls-74" d="M11.62,20.68a.46.46,0,0,1,.48-.23.14.14,0,0,1,.15.18.39.39,0,0,1-.42.24.19.19,0,0,1-.21-.19"/><path class="cls-178" d="M21.45,15.26l-.06-.07,0-.14a.69.69,0,0,1,.78,0c.07.12,0,.21-.09.29a1.54,1.54,0,0,1-.6-.13"/><path class="cls-179" d="M12.81,18.12,12.68,18a1,1,0,0,1,1-.21c0,.12-.05.2-.11.29a.31.31,0,0,1-.3.14.6.6,0,0,1-.41-.11"/><path class="cls-180" d="M22.14,15.1,21.37,15c-.14-.07.11-.17,0-.25l.07,0c.17,0,.35,0,.49.09l.09,0,.15.24"/><path class="cls-181" d="M13.43,17.55a.21.21,0,0,1,.19.17,3.57,3.57,0,0,1-1,.16.12.12,0,0,1,0-.17l.33-.2a1.21,1.21,0,0,1,.5,0"/><path class="cls-182" d="M20.64,12.74l.25-.06c.15,0,.3-.06.43.05s.21.12.22.24c-.28,0-.59-.2-.84.08l-.16-.15a.86.86,0,0,0,.1-.16"/><path class="cls-183" d="M22.59,14.16c-.08-.33.18-.29.4-.26a.5.5,0,0,1,.36.23c-.23.32-.5.14-.76,0"/><path class="cls-184" d="M21.94,15.82c0-.13-.05-.27.11-.37a.82.82,0,0,1,.68.35,3,3,0,0,0-.79,0"/><path class="cls-185" d="M12.44,17.87a1,1,0,0,1-.53.11l-.25-.16c.17-.33.48-.25.79-.18h0a.18.18,0,0,1,0,.24"/><path class="cls-186" d="M20.42,14.29c.08-.25.3-.23.53-.2s.28.09.42.13l0,.06a.14.14,0,0,1-.06.11,1.42,1.42,0,0,1-.93-.1"/><path class="cls-187" d="M21.11,13.69a2.43,2.43,0,0,1-.14.2c-.33,0-.68,0-.89-.29l1,.09"/><path class="cls-188" d="M11,16.8a2.07,2.07,0,0,1,.79-.1c.07.16,0,.24-.18.29s-.44.07-.59-.13a.14.14,0,0,1,0-.06"/><path class="cls-189" d="M15.17,9.76c.05.22.28.34.38.52-.13.23-.3.13-.47,0a.05.05,0,0,1,0,0c0-.17-.08-.37.11-.52"/><path class="cls-190" d="M22.59,14.16c.25,0,.52.13.76,0,.17.23,0,.32-.21.31a.57.57,0,0,1-.55-.28"/><path class="cls-191" d="M12.46,18.6l.13-.21c.21,0,.41-.17.65-.09.06,0,.11.07.1.15l0,.07a.9.9,0,0,1-.77.16.6.6,0,0,1-.08-.08"/><path class="cls-192" d="M11.53,16.24c-.17-.14,0-.26,0-.38a.83.83,0,0,1,.79.12c-.26.12-.66-.08-.82.26"/><path class="cls-193" d="M20.42,14.29a2.58,2.58,0,0,0,1,0h0l0,.22-1-.07a.11.11,0,0,1,0-.16"/><path class="cls-194" d="M23.1,13.54l.87.06c-.17.31-.51.29-.87-.06"/><path class="cls-195" d="M21.57,18.39a2.72,2.72,0,0,1-.11-.75c.39.32.42.53.11.75"/><path class="cls-196" d="M9.38,15.76c-.23,0-.48,0-.64.2-.12-.09-.19-.19-.1-.32A.34.34,0,0,1,9,15.57a.63.63,0,0,1,.4.19"/><path class="cls-197" d="M12.54,18.68l.77-.16c0,.19-.16.25-.34.29s-.06.05-.1.06-.28,0-.33-.19"/><path class="cls-198" d="M17.31,10.72a.61.61,0,0,0-.3-.48v-.07c.17,0,.39-.09.48.11a.33.33,0,0,1-.18.44"/><path class="cls-199" d="M10.34,18.08a1.24,1.24,0,0,0,.74-.19c.21.31-.08.33-.29.35a.46.46,0,0,1-.45-.16"/><path class="cls-200" d="M18.75,12.16l.91.07c0,.1,0,.12-.13.12-.29.05-.61.16-.78-.19"/><path class="cls-201" d="M11.48,15.55l-.06-.06c.31,0,.66.08.88-.2.12.33-.11.38-.39.37a2.26,2.26,0,0,1-.43-.11"/><path class="cls-202" d="M23.41,15.49l-.7-.05c-.08-.24.1-.23.27-.21a.51.51,0,0,1,.43.26"/><path class="cls-203" d="M20.42,12.29c-.2.07-.08.14,0,.22a3.93,3.93,0,0,1-.84,0l.06-.08c.11-.17.31-.15.49-.16h.29"/><path class="cls-204" d="M12.62,17.87a3.32,3.32,0,0,1,1-.15v.08l-1,.21c-.06,0-.07,0-.09-.06s0-.05,0-.06l0,0"/><path class="cls-205" d="M21.31,15.18c-.26,0-.52.08-.78,0,.2-.28.4-.29.78,0"/><path class="cls-207" d="M6.2,17.17c0-.11.11-.12.19-.1s.27,0,.29.18-.1.1-.18.09a.32.32,0,0,1-.3-.17"/><path class="cls-208" d="M9.78,17.19c-.17.16-.46,0-.63.2,0-.3.15-.36.63-.2"/><path class="cls-209" d="M5.65,14.82c0-.09.11-.08.17-.06s.28.08.28.23-.1.09-.16.06-.26-.09-.29-.23"/><path class="cls-210" d="M22.06,14.19l-.18.07a1,1,0,0,1-.5,0h0c0-.09-.16-.06-.14-.16l.82.06a.17.17,0,0,1,0,.07"/><path class="cls-212" d="M11.84,16.55h-.07c.22-.17.52-.13.77-.23-.11.35-.42.25-.7.24"/><path class="cls-213" d="M18.53,23c.09,0,.14.07.12.14s-.06.22-.21.23a.1.1,0,0,1-.1-.13.26.26,0,0,1,.19-.24"/><path class="cls-215" d="M7.05,16.11c.11,0,.25.06.25.2s-.09.1-.16.07-.26-.06-.26-.2.1-.07.17-.07"/><path class="cls-216" d="M20.72,17.47c-.07-.2-.19-.41,0-.63.19.21.26.41,0,.63"/><path class="cls-218" d="M13.23,7.63c-.09,0-.11-.06-.11-.13s0-.21.15-.24.13.07.13.14a.22.22,0,0,1-.17.23"/><path class="cls-219" d="M7,14.41c-.11,0-.23-.08-.24-.21s0-.1.14-.08.24.09.26.21-.07.08-.16.08"/><path class="cls-220" d="M12.45,17.64c-.27.06-.57,0-.79.18,0,0-.05,0-.07,0s0-.09,0-.14a1.83,1.83,0,0,1,.69-.16l.16.08v.07"/><path class="cls-222" d="M16.13,23.64c-.11,0-.14-.06-.11-.13s.09-.22.24-.23.1.06.08.13a.31.31,0,0,1-.21.23"/><path class="cls-223" d="M19.61,23.85c-.1,0-.09-.11-.07-.18s0-.21.19-.2.1.1.08.18,0,.19-.2.2"/><path class="cls-225" d="M8,18.37c-.11,0-.25,0-.24-.16s.11-.1.2-.09.2.06.22.15-.1.09-.18.1"/><path class="cls-226" d="M7.83,19.46c-.1,0-.21,0-.22-.14s.1-.11.19-.1.24,0,.24.16-.12.08-.21.08"/><path class="cls-227" d="M23.84,11c0-.1.1-.11.18-.11s.2,0,.21.12-.09.1-.17.11-.19,0-.22-.12"/><path class="cls-228" d="M15.3,6.9c0-.09.07-.21.22-.2s.08.09.07.14-.07.22-.22.21S15.3,7,15.3,6.9"/><path class="cls-229" d="M21.82,22.36c0-.09,0-.2.17-.18s.11.1.11.17,0,.18-.16.17-.08-.11-.12-.16"/><path class="cls-230" d="M14,23.25c-.09-.2.05-.28.21-.34s.09,0,.09.05-.12.25-.3.29"/><path class="cls-232" d="M14.43,24.35c0-.21.08-.3.25-.36s.1,0,.09.09-.13.25-.34.27"/><path class="cls-233" d="M15,11.11c.07.2.11.43.4.5-.46.07-.47-.2-.46-.47,0,0,0,0,.06,0"/><path class="cls-234" d="M12,7.35a.13.13,0,0,1-.12-.16c0-.1,0-.21.17-.21s.1.08.1.14,0,.2-.15.23"/><path class="cls-235" d="M9.52,20.9c.07,0,.16,0,.17.09s-.1.13-.2.14-.15,0-.16-.08.1-.13.19-.15"/><path class="cls-237" d="M6,12.81c0-.08.07-.11.11-.09s.26.1.28.24,0,.07-.1.06A.37.37,0,0,1,6,12.81"/><path class="cls-238" d="M10,8.75c-.12,0-.14-.08-.16-.16s0-.16.09-.18.15.09.17.17,0,.13-.1.17"/><path class="cls-239" d="M12.5,23.41a.26.26,0,0,1,.26-.17.07.07,0,0,1,.07.1c-.05.1-.12.2-.26.18s-.08-.05-.07-.11"/><path class="cls-240" d="M23.84,9.9a.2.2,0,0,1,.24-.09c.07,0,.16,0,.14.1S24.08,10,24,10a.12.12,0,0,1-.12-.12"/><path class="cls-241" d="M9.87,15.12l-.55.12c.07-.4.33-.19.55-.12"/><path class="cls-242" d="M7.06,11.25a.09.09,0,0,1,.12-.08c.11.05.2.11.2.22s-.07.08-.12.06a.24.24,0,0,1-.2-.2"/><path class="cls-243" d="M11.16,22.18c.08,0,.11.06.09.1a.21.21,0,0,1-.24.15.09.09,0,0,1-.09-.1.25.25,0,0,1,.24-.15"/><path class="cls-244" d="M7.57,12.74a.3.3,0,0,1-.23-.2c0-.07,0-.11.12-.08a.26.26,0,0,1,.22.2c0,.08-.06.07-.11.08"/><path class="cls-245" d="M11.1,8.52a.12.12,0,0,1,.13-.12.16.16,0,0,1,.11.21.12.12,0,0,1-.13.12c-.11,0-.12-.12-.11-.21"/><path class="cls-247" d="M9.48,19.85s.15,0,.14.09-.12.13-.21.13S9.23,20,9.24,20s.13-.11.24-.1"/><path class="cls-248" d="M23.58,20.87c0-.07,0-.14.12-.12a.17.17,0,0,1,.14.16c0,.07,0,.13-.11.13s-.13-.1-.15-.17"/><path class="cls-249" d="M22.55,21.13c-.13,0-.16-.08-.16-.15s0-.16.1-.17.13.08.15.15a.17.17,0,0,1-.09.17"/><path class="cls-250" d="M20.59,22.26c0-.09.05-.18.13-.17s.14.11.12.2-.06.15-.16.13-.09-.1-.09-.16"/><path class="cls-251" d="M19.45,7.37c.06,0,.13,0,.12.07a.26.26,0,0,1-.24.22.07.07,0,0,1-.08-.09.26.26,0,0,1,.2-.2"/><path class="cls-252" d="M11,21.15c.05,0,.13,0,.12.08s-.1.15-.21.15-.13-.05-.11-.12.12-.1.2-.11"/><path class="cls-253" d="M16.9,11.43l0-.22c.16.1.2.26.3.39a.3.3,0,0,1-.34-.17"/><path class="cls-255" d="M22.2,8.5a.23.23,0,0,1,.21-.14c.09,0,.14.05.12.12a.2.2,0,0,1-.18.12.12.12,0,0,1-.15-.1"/><path class="cls-256" d="M8.35,10c0-.06,0-.12.07-.12s.16.08.18.17a.09.09,0,0,1-.08.11c-.12,0-.15-.09-.17-.16"/><path class="cls-257" d="M22.46,9.62c-.07,0-.15,0-.13-.1s.1-.11.19-.11.15,0,.13.11-.1.1-.19.1"/><path class="cls-258" d="M7.46,15.23l-.28.21c-.13,0-.12-.13-.06-.2a.25.25,0,0,1,.34,0"/><path class="cls-260" d="M9.54,9.88c0-.06,0-.13.11-.11s.12.08.12.16a.09.09,0,0,1-.11.11c-.09,0-.11-.09-.12-.16"/><path class="cls-261" d="M14,11.2c.15.15,0,.32,0,.49-.13-.1,0-.27-.13-.35L14,11.2"/><path class="cls-262" d="M13.88,10c0,.15,0,.3-.05.45a.33.33,0,0,1,.05-.45"/><path class="cls-263" d="M11.91,18c.09,0,.19,0,.25.1l-.52,0,.27-.06"/><path class="cls-264" d="M14.29,18.14l-.44,0a.41.41,0,0,1,.44,0"/><path class="cls-265" d="M10.31,19l.43,0a.38.38,0,0,1-.43,0"/><path class="cls-266" d="M13.43,17.55l-.5,0a.5.5,0,0,1,.5,0"/><path class="cls-267" d="M12.29,17.49a1.35,1.35,0,0,1-.69.16c.16-.3.42-.22.69-.16"/><path class="cls-268" d="M21.53,13.34l1,.09c-.07.22-.27.09-.42.1a4.89,4.89,0,0,1-.54,0c-.06,0-.05-.1,0-.16"/><path class="cls-269" d="M12.83,18.25c.14,0,.31,0,.41.12l-.65,0c0-.1.15-.1.24-.14"/><path class="cls-270" d="M13.28,18.15c-.14.1-.29.05-.44,0l0-.06.47,0"/><path class="cls-271" d="M21.38,14.23l.51,0c-.15.11-.33,0-.49,0h0v-.07"/></g></g></g></g></g><g id="Illustration_2" data-name="Illustration 2"><g class="cls-276"><polygon class="cls-277" points="15.98 19 16.67 18.81 16.13 18.14 15.98 19"/><g class="cls-276"><path class="cls-277" d="M19.75,15.71a1.2,1.2,0,0,0,0-1.42.7.7,0,0,0-1.14,0L16.48,17l-.11.6h0l.76,1,.48-.13Z"/></g></g></g></svg>