<svg id="ICONS" xmlns="http://www.w3.org/2000/svg" xmlns:xlink="http://www.w3.org/1999/xlink" viewBox="0 0 24 24"><defs><style>.cls-1{fill:none;}.cls-2{clip-path:url(#clip-path);}.cls-3{clip-path:url(#clip-path-2);}.cls-4{fill:#1852a3;}.cls-5{fill:#f74724;}.cls-6{fill:#0399d9;}.cls-7{fill:#1f94c3;}.cls-8{fill:#198fcf;}.cls-9{fill:#fe9935;}.cls-10{fill:#f75421;}.cls-11{fill:#f7361d;}.cls-12{fill:#ea3b20;}.cls-13{fill:#23a08b;}.cls-14{fill:#1f94c4;}.cls-15{fill:#1f53a2;}.cls-16{fill:#61a74b;}.cls-17{fill:#219d97;}.cls-18{fill:#b04651;}.cls-19{fill:#f73e1f;}.cls-20{fill:#73a648;}.cls-21{fill:#27a37e;}.cls-22{fill:#39a953;}.cls-23{fill:#f7311d;}.cls-24{fill:#089ad9;}.cls-25{fill:#1a90cf;}.cls-26{fill:#249ca5;}.cls-27{fill:#0599d9;}.cls-28{fill:#1c91d0;}.cls-29{fill:#f9842b;}.cls-30{fill:#f75521;}.cls-31{fill:#fe9a37;}.cls-32{fill:#28a576;}.cls-33{fill:#2ca96a;}.cls-34{fill:#ea3c21;}.cls-35{fill:#e93c22;}.cls-36{fill:#44a950;}.cls-37{fill:#f98f2c;}.cls-38{fill:#0391d4;}.cls-39{fill:#4ea74d;}.cls-40{fill:#1d91cd;}.cls-41{fill:#f75525;}.cls-42{fill:#269ea0;}.cls-43{fill:#29a483;}.cls-44{fill:#8ea444;}.cls-45{fill:#f8712b;}.cls-46{fill:#259e9c;}.cls-47{fill:#c3a242;}.cls-48{fill:#f86328;}.cls-49{fill:#f8792b;}.cls-50{fill:#2196bf;}.cls-51{fill:#45a951;}.cls-52{fill:#f73b20;}.cls-53{fill:#f99437;}.cls-54{fill:#26a289;}.cls-55{fill:#2092d0;}.cls-56{fill:#f74127;}.cls-57{fill:#079ad9;}.cls-58{fill:#fe9b39;}.cls-59{fill:#2aa198;}.cls-60{fill:#1e96b8;}.cls-61{fill:#f98f31;}.cls-62{fill:#269bb3;}.cls-63{fill:#24a088;}.cls-64{fill:#57a74c;}.cls-65{fill:#f74924;}.cls-66{fill:#72a74a;}.cls-67{fill:#0a61b1;}.cls-68{fill:#51aa53;}.cls-69{fill:#f73724;}.cls-70{fill:#f74f24;}.cls-71{fill:#eb4026;}.cls-72{fill:#0287cd;}.cls-73{fill:#3ea951;}.cls-74{fill:#56a950;}.cls-75{fill:#0168b9;}.cls-76{fill:#f86524;}.cls-77{fill:#fe9b38;}.cls-78{fill:#0b9cda;}.cls-79{fill:#f87d2c;}.cls-80{fill:#f8432f;}.cls-81{fill:#40a84f;}.cls-82{fill:#2ba96a;}.cls-83{fill:#c83f3a;}.cls-84{fill:#31ae55;}.cls-85{fill:#2193d0;}.cls-86{fill:#30ab68;}.cls-87{fill:#1d91cc;}.cls-88{fill:#fe9c3a;}.cls-89{fill:#e33f2a;}.cls-90{fill:#2aa57e;}.cls-91{fill:#1c90cf;}.cls-92{fill:#faaa36;}.cls-93{fill:#3caa54;}.cls-94{fill:#30a851;}.cls-95{fill:#069ad9;}.cls-96{fill:#f99933;}.cls-97{fill:#f87b29;}.cls-98{fill:#f86827;}.cls-99{fill:#2399b4;}.cls-100{fill:#fe9c3b;}.cls-101{fill:#f9992d;}.cls-102{fill:#fe9936;}.cls-103{fill:#2da29b;}.cls-104{fill:#f75729;}.cls-105{fill:#294b96;}.cls-106{fill:#259bad;}.cls-107{fill:#2ea879;}.cls-108{fill:#9fa648;}.cls-109{fill:#f8742c;}.cls-110{fill:#f73b25;}.cls-111{fill:#e03b27;}.cls-112{fill:#54ab54;}.cls-113{fill:#0678c2;}.cls-114{fill:#f86329;}.cls-115{fill:#2699be;}.cls-116{fill:#dd402f;}.cls-117{fill:#20509f;}.cls-118{fill:#0591d4;}.cls-119{fill:#31ae5a;}.cls-120{fill:#0770bd;}.cls-121{fill:#7ba647;}.cls-122{fill:#f74927;}.cls-123{fill:#baa03d;}.cls-124{fill:#2ea48f;}.cls-125{fill:#e53b24;}.cls-126{fill:#3fad59;}.cls-127{fill:#6daa51;}.cls-128{fill:#0c9bda;}.cls-129{fill:#f9812a;}.cls-130{fill:#804468;}.cls-131{fill:#fe9d3c;}.cls-132{fill:#047bc4;}.cls-133{fill:#eaa143;}.cls-134{fill:#249bac;}.cls-135{fill:#2ea96f;}.cls-136{fill:#c1a03c;}.cls-137{fill:#0a9bda;}.cls-138{fill:#c3a03e;}.cls-139{fill:#2897cd;}.cls-140{fill:#f99531;}.cls-141{fill:#a2a94f;}.cls-142{fill:#f9812e;}.cls-143{fill:#e99c39;}.cls-144{fill:#eb452c;}.cls-145{fill:#47aa53;}.cls-146{fill:#e94a33;}.cls-147{fill:#7fa546;}.cls-148{fill:#35b058;}.cls-149{fill:#45a74d;}.cls-150{fill:#f73320;}.cls-151{fill:#0d88cd;}.cls-152{fill:#f86d27;}.cls-153{fill:#f73927;}.cls-154{fill:#f59d3b;}.cls-155{fill:#7ca648;}.cls-156{fill:#0768b8;}.cls-157{fill:#23a27a;}.cls-158{fill:#1d91d0;}.cls-159{fill:#f9a33b;}.cls-160{fill:#fab43d;}.cls-161{fill:#fe9e3e;}.cls-162{fill:#39ab57;}.cls-163{fill:#e7a142;}.cls-164{fill:#095fb1;}.cls-165{fill:#6f4a77;}.cls-166{fill:#2193d1;}.cls-167{fill:#34ab57;}.cls-168{fill:#30ae51;}.cls-169{fill:#eb3f26;}.cls-170{fill:#90a444;}.cls-171{fill:#1f92d0;}.cls-172{fill:#f86e28;}.cls-173{fill:#82a646;}.cls-174{fill:#c2a343;}.cls-175{fill:#e09d3a;}.cls-176{fill:#a54151;}.cls-177{fill:#d4a140;}.cls-178{fill:#894665;}.cls-179{fill:#76a84d;}.cls-180{fill:#9da444;}.cls-181{fill:#ee9c39;}.cls-182{fill:#714571;}.cls-183{fill:#b2a342;}.cls-184{fill:#95a445;}.cls-185{fill:#1156a8;}.cls-186{fill:#27a191;}.cls-187{fill:#a7a444;}.cls-188{fill:#d33d31;}.cls-189{fill:#0777c2;}.cls-190{fill:#baa23f;}.cls-191{fill:#89a546;}.cls-192{fill:#f9a134;}.cls-193{fill:#0584ca;}.cls-194{fill:#e1422f;}.cls-195{fill:#29a577;}.cls-196{fill:#874c6d;}.cls-197{fill:#59a84f;}.cls-198{fill:#0b8cd0;}.cls-199{fill:#dea243;}.cls-200{fill:#6eaa50;}.cls-201{fill:#97425a;}.cls-202{fill:#e09e3b;}.cls-203{fill:#cdac56;}.cls-204{fill:#4562a3;}.cls-205{fill:#2354a2;}.cls-206{fill:#1b98d6;}.cls-207{fill:#a9a74b;}.cls-208{fill:#f86138;}.cls-209{fill:#0a66b5;}.cls-210{fill:#f97745;}.cls-211{fill:#60b366;}.cls-212{fill:#257cc2;}.cls-213{fill:#f99731;}.cls-214{fill:#83ad56;}.cls-215{fill:#3ba6b1;}.cls-216{fill:#22a5dd;}.cls-217{fill:#67497a;}.cls-218{fill:#76b363;}.cls-219{fill:#f85538;}.cls-220{fill:#f97d38;}.cls-221{fill:#f1ab56;}.cls-222{fill:#98617d;}.cls-223{fill:#e35544;}.cls-224{fill:#57b468;}.cls-225{fill:#38aa8d;}.cls-226{fill:#faa64a;}.cls-227{fill:#f84d3c;}.cls-228{fill:#fea750;}.cls-229{fill:#f73b27;}.cls-230{fill:#259da1;}.cls-231{fill:#309ebe;}.cls-232{fill:#ee5c46;}.cls-233{fill:#a0a547;}.cls-234{fill:#16a0db;}.cls-235{fill:#48a6d9;}.cls-236{fill:#f84736;}.cls-237{fill:#46b164;}.cls-238{fill:#0799d9;}.cls-239{fill:#23a5dd;}.cls-240{fill:#ee5f49;}.cls-241{fill:#27a7de;}.cls-242{fill:#309bcf;}.cls-243{fill:#cba343;}.cls-244{fill:#ed523b;}.cls-245{fill:#fbbc51;}.cls-246{fill:#fab658;}.cls-247{fill:#fa8b3a;}.cls-248{fill:#48b865;}.cls-249{fill:#ee5b45;}.cls-250{fill:#27a384;}.cls-251{fill:#fea751;}.cls-252{fill:#4db56c;}.cls-253{fill:#2b98d3;}.cls-254{fill:#3daf5e;}.cls-255{fill:#0c8ed1;}.cls-256{fill:#fe9d3d;}.cls-257{fill:#2c98d3;}.cls-258{fill:#2e9eb7;}.cls-259{fill:#269cac;}.cls-260{fill:#8c5677;}.cls-261{fill:#d64b40;}.cls-262{fill:#d75950;}.cls-263{fill:#855579;}.cls-264{fill:#5b4c82;}.cls-265{fill:#87a443;}.cls-266{fill:#c84844;}.cls-267{fill:#ba545b;}.cls-268{fill:#b2a94e;}.cls-269{fill:red;}</style><clipPath id="clip-path"><polygon class="cls-1" points="17.1 18.32 5.77 18.08 5.96 8.08 17.29 8.32 17.1 18.32"/></clipPath><clipPath id="clip-path-2"><polygon class="cls-1" points="17.1 18.32 5.77 18.08 5.96 8.08 17.29 8.32 17.1 18.32"/></clipPath></defs><g id="calendar-outline"><g id="Illustration_1" data-name="Illustration 1"><g class="cls-2"><g class="cls-3"><path class="cls-4" d="M9.27,14a.83.83,0,0,1,.21-.06.29.29,0,0,1,.31.16c.05.14-.07.19-.17.25a.31.31,0,0,1-.39-.09c-.07-.09-.09-.19,0-.26"/><path class="cls-5" d="M11.75,15.34a.29.29,0,0,1,0-.31.23.23,0,0,1,.29-.12.19.19,0,0,1,.09.28s0,.05,0,.08-.08.11-.13.16a.23.23,0,0,1-.28,0,0,0,0,0,1,0-.06"/><path class="cls-6" d="M8.9,12.69c0-.11-.06-.25.11-.29a.32.32,0,0,1,.34.15.18.18,0,0,1,0,.25.2.2,0,0,1-.26,0l-.17-.1s0,0,0,0"/><path class="cls-7" d="M10,11a.31.31,0,0,1,.16.34c0,.08,0,.17-.16.17a.2.2,0,0,1-.22-.13s0-.1-.09-.12a.12.12,0,0,1,0-.13c.07-.11.14-.22.3-.13"/><path class="cls-8" d="M9.31,11.52c.07-.1.15-.17.28-.1a.29.29,0,0,1,.15.36c0,.14-.16.15-.29.11s-.21-.17-.14-.37"/><path class="cls-9" d="M14.16,13.38c0,.12,0,.25-.16.28a.29.29,0,0,1-.31-.16.2.2,0,0,1,0-.26.24.24,0,0,1,.27,0l.14.11s0,0,.05,0"/><path class="cls-10" d="M12.33,15.24c-.08-.17-.11-.32.08-.44s.27-.07.29.13a1.85,1.85,0,0,1,0,.23v0c-.1.11-.21.19-.35.05"/><path class="cls-11" d="M11.53,15.38c-.12,0-.27.12-.35,0a.27.27,0,0,1,.11-.35.23.23,0,0,1,.27,0c.09.06.07.15.06.24s-.1.11-.1.18Z"/><path class="cls-12" d="M10.64,15h0c.12-.1.26-.19.4-.06s0,.23-.06.31-.27.11-.41,0l0,0a.15.15,0,0,1,.07-.19"/><path class="cls-8" d="M9.4,11.94c.09.12.2.25,0,.38a.21.21,0,0,1-.3,0c-.13-.13-.18-.26,0-.4s.2-.07.27,0"/><path class="cls-13" d="M11.62,10.69c-.21.26-.28.27-.47.07a.25.25,0,0,1,.06-.31.15.15,0,0,1,.09-.06.31.31,0,0,1,.25,0c.11.09.16.19.07.32"/><path class="cls-14" d="M9.52,10.89a.37.37,0,0,1-.14-.35.24.24,0,0,1,.18-.19c.1,0,.16.06.19.14a1.46,1.46,0,0,1,.05.2c0,.14-.08.26-.28.2"/><path class="cls-15" d="M9,14.49H8.68a.22.22,0,0,1-.19-.18c0-.11.07-.14.15-.16s.23-.06.34,0,.15.24,0,.34"/><path class="cls-16" d="M13.79,11.11a.35.35,0,0,1,.36-.11c.09,0,.19.07.2.17s-.08.15-.18.17l-.11,0a.37.37,0,0,1-.18,0c-.11,0-.17-.12-.09-.24"/><path class="cls-17" d="M11.08,10.76c0,.08-.07.18-.19.2s-.21-.12-.24-.24a.43.43,0,0,1,0-.16.24.24,0,0,1,.06-.08.3.3,0,0,1,.28-.05l.06,0a.26.26,0,0,1,0,.3"/><path class="cls-18" d="M9.47,15a.45.45,0,0,1-.32.07c-.09,0-.19-.06-.2-.17a.16.16,0,0,1,.16-.16l.27,0c.21.1.22.16.09.3"/><path class="cls-19" d="M12,15.68a.3.3,0,0,1-.1.37c-.07.06-.14.12-.24.06a.16.16,0,0,1-.07-.21.59.59,0,0,1,.06-.14c0-.07.08-.09.13-.13s.18-.07.22,0"/><path class="cls-20" d="M13.65,11.53a.33.33,0,0,1-.41.09c-.13,0-.22-.13-.11-.27a1,1,0,0,1,.42-.08.22.22,0,0,1,.17.15.1.1,0,0,1-.07.11"/><path class="cls-21" d="M11.89,10.44c.13,0,.28,0,.3.14a.3.3,0,0,1-.31.32.43.43,0,0,1-.2-.22.29.29,0,0,1,.09-.22s.07-.05.12,0"/><path class="cls-22" d="M12.92,10.5c-.13,0-.27,0-.25-.18s.22-.25.35-.23a.15.15,0,0,1,.11.25c-.05.08-.16.1-.22.17Z"/><path class="cls-23" d="M11.34,15.76a.36.36,0,0,1-.31.32c-.11,0-.15-.08-.15-.18a.36.36,0,0,1,.33-.29c.11,0,.14.07.13.15"/><path class="cls-24" d="M8.57,13.18a.39.39,0,0,1-.26,0c-.11-.07-.25-.15-.17-.29s.21-.09.33,0,.13,0,.17.07.08.21-.07.27"/><path class="cls-25" d="M9.24,11.24c0,.1-.06.16-.17.13a.27.27,0,0,1-.21-.27A.18.18,0,0,1,9,10.88.22.22,0,0,1,9.2,11a.23.23,0,0,1,0,.14.11.11,0,0,1,0,.11"/><path class="cls-26" d="M10.14,10.49l-.09-.11a.39.39,0,0,1,0-.26c0-.07.08-.2.21-.17s.13.21.14.34,0,.1,0,.14-.14.12-.24.06"/><path class="cls-27" d="M8.55,12.55a.36.36,0,0,1-.33-.29c0-.11.06-.15.17-.15a.36.36,0,0,1,.31.31c0,.1-.09.12-.15.13"/><path class="cls-28" d="M8.91,11.67c0,.09,0,.21-.09.25a.2.2,0,0,1-.23-.05.32.32,0,0,1-.12-.28.13.13,0,0,1,.11-.11c.13,0,.2.06.28.14l.05.06Z"/><path class="cls-29" d="M13.86,14.71a.26.26,0,0,1,.13.16c0,.12,0,.27-.11.33s-.21-.08-.26-.19a.23.23,0,0,1,0-.18c.05-.13.13-.2.28-.12"/><path class="cls-30" d="M12.72,15.54a.36.36,0,0,1,0,.32.2.2,0,0,1-.24.13c-.12,0-.1-.13-.11-.22s.07-.08,0-.13,0,0,0-.05a.38.38,0,0,1,.11-.11c.1,0,.19-.06.25.06"/><path class="cls-31" d="M14.46,13.56a.35.35,0,0,1,.31.28.15.15,0,0,1-.16.17c-.12,0-.28-.15-.29-.29s0-.16.14-.16"/><path class="cls-32" d="M11.45,9.76l.1,0c.08,0,.16-.05.22,0a.2.2,0,0,1,0,.21l-.07.13,0,0a.1.1,0,0,1,0,0c-.12,0-.25.1-.3-.09s.07-.22.06-.33Z"/><path class="cls-33" d="M12,10.17c0-.19.22-.37.35-.35s.15.07.14.16a.37.37,0,0,1-.35.29c-.09,0-.14-.06-.14-.1"/><path class="cls-34" d="M10.37,15.86a.14.14,0,0,1-.17-.14c0-.12.18-.27.31-.27s.17,0,.17.15a.31.31,0,0,1-.31.26"/><path class="cls-35" d="M10.05,15.39a.42.42,0,0,1-.22.13c-.1,0-.22,0-.27-.08s0-.18.12-.24l.1,0a.22.22,0,0,1,.18,0c.15,0,.2.13.09.26"/><path class="cls-36" d="M13.3,10.64a.16.16,0,0,1,.12-.13c.15,0,.3-.06.37.08s-.08.2-.21.23-.2,0-.29,0-.06-.12,0-.17"/><path class="cls-37" d="M13.88,14.1c-.12.13-.23.08-.32,0s-.15-.24,0-.35.21-.07.3,0a1.06,1.06,0,0,1,.05.35"/><path class="cls-38" d="M9,12.94c.19,0,.34,0,.4.2s-.13.16-.24.17-.13,0-.2,0a.11.11,0,0,1-.07,0c-.07-.14-.06-.26.11-.33"/><path class="cls-39" d="M12.68,11.17a.27.27,0,0,1,.27-.29.09.09,0,0,1,.11-.05.27.27,0,0,1,.2.21.16.16,0,0,1-.11.18c-.16,0-.32,0-.47-.05"/><path class="cls-40" d="M9.24,11.24v-.11c.08-.07.07-.21.21-.23s.25.09.23.25l0,.08c-.09.16-.2.16-.3,0s-.06-.08-.1,0"/><path class="cls-41" d="M12.31,16.54c0-.12.06-.27.24-.3s.12.08.12.16-.06.28-.23.31-.11-.09-.13-.17"/><path class="cls-42" d="M10,9.54c0-.12,0-.26.22-.27s.14.09.12.18,0,.28-.22.28S10,9.62,10,9.54"/><path class="cls-43" d="M11.2,9.21c0,.13-.07.27-.25.29s-.11-.06-.11-.14S11,9,11.09,9s.11.09.11.17"/><path class="cls-44" d="M13.43,11.94c-.06-.25.18-.21.31-.29a.23.23,0,0,1,.16,0c.08.1.24.19,0,.31a.86.86,0,0,1-.5-.06"/><path class="cls-45" d="M13.21,16.14c0-.11,0-.25.19-.26s.14.11.14.2,0,.25-.19.26-.12-.11-.14-.2"/><path class="cls-46" d="M10.37,10.4s0-.08,0-.11.16-.15.28-.06a.07.07,0,0,1,.06,0,.18.18,0,0,1,0,.23v.1a.67.67,0,0,1-.18.07h0a0,0,0,0,1-.06,0,.27.27,0,0,1-.07-.27"/><path class="cls-47" d="M15.34,12.47a.32.32,0,0,1,.33.24c0,.08-.07.12-.14.11s-.3-.08-.33-.24.07-.1.14-.11"/><path class="cls-48" d="M12.69,15.16a.34.34,0,0,1,.18-.13c.22.08.25.25.08.42a.22.22,0,0,1-.22,0c-.16-.09-.11-.21,0-.33Z"/><path class="cls-49" d="M13.28,14.71l.09-.05c.16,0,.2.06.22.18a.25.25,0,0,1,0,.17.16.16,0,0,1-.23.1c-.11,0-.12-.12-.14-.2a.19.19,0,0,1,.1-.2"/><path class="cls-50" d="M9.49,10c0,.13,0,.25-.17.24s-.15-.13-.15-.24.05-.22.19-.21.13.13.13.21"/><path class="cls-51" d="M13,10.84l-.08,0c-.25-.14-.25-.2,0-.38h0c.13,0,.25,0,.31.13s-.05.2-.19.2"/><path class="cls-52" d="M11.77,16.52c0,.13-.16.3-.26.28s-.11-.08-.1-.15a.31.31,0,0,1,.27-.29c.1,0,.1.08.09.16"/><path class="cls-53" d="M13.6,14.33c.1,0,.18-.2.31-.07a.25.25,0,0,1,0,.37c-.23.1-.29-.08-.37-.21a.08.08,0,0,1,0-.09"/><path class="cls-54" d="M11,10.47H11c-.06-.08,0-.17,0-.25s0-.12.1-.12.2-.05.28.05,0,.2,0,.29l-.06.05a.18.18,0,0,1-.21,0"/><path class="cls-55" d="M9.13,11.85a.33.33,0,0,1-.22-.18h0c0-.09,0-.19.08-.24s.18,0,.25.11c.1.23.08.28-.11.3"/><path class="cls-56" d="M11.75,15.34v0c.08.08.06.16,0,.25a.55.55,0,0,1-.17.13c-.08,0-.17,0-.2-.06a.26.26,0,0,1,.13-.32h0a.46.46,0,0,1,.23-.05"/><path class="cls-57" d="M7.42,12.63c0-.08.09-.08.17-.08s.31.18.29.28-.08.08-.16.08-.31-.16-.3-.28"/><path class="cls-58" d="M14.16,13.38l-.05,0a.3.3,0,0,1,.05-.21c.15-.09.26,0,.36.08a.08.08,0,0,1,0,.1c0,.08,0,.15-.07.18s-.2-.05-.28-.11"/><path class="cls-59" d="M10.39,9.76c0-.12.07-.25.22-.25s.13.1.12.18-.07.25-.22.25-.11-.1-.12-.18"/><path class="cls-60" d="M9.8,10.69c0-.15.11-.24.3-.16s.08.09.1.14v.06l0,.06a.23.23,0,0,1-.07.07c0,.06-.08.07-.14.09s-.19-.13-.15-.26"/><path class="cls-61" d="M14,15.53c0-.1,0-.21.14-.21s.17.13.17.24,0,.22-.15.2-.15-.13-.16-.23"/><path class="cls-48" d="M12.76,16c0-.1,0-.24.2-.25s.13.1.12.19,0,.24-.19.26-.13-.1-.13-.2"/><path class="cls-27" d="M8.6,12.93a.14.14,0,0,0-.13-.09s0,0,0-.05c0-.23.11-.26.32-.13l.06,0a0,0,0,0,0,0,0l0,.18c-.1.14-.23.06-.34,0"/><path class="cls-62" d="M9.65,10.06c0-.1,0-.23.18-.23s.14.1.13.19,0,.24-.17.25-.13-.11-.14-.21"/><path class="cls-63" d="M11.07,10.09,11,10.2a.05.05,0,0,1-.05,0c-.11-.08-.24-.14-.21-.3l.07-.1c0-.07.11-.11.19-.08a.13.13,0,0,1,.1.16,1.1,1.1,0,0,1,0,.18"/><path class="cls-64" d="M13.57,10.89c.13,0,.2.09.17.22s-.09.11-.18.13h-.14c-.12,0-.19-.09-.17-.22s.18-.16.32-.12"/><path class="cls-65" d="M12,16.22a.26.26,0,0,1,.21-.24c.12,0,.13.08.12.16a.26.26,0,0,1-.23.27c-.09,0-.11-.07-.1-.19"/><path class="cls-66" d="M14.7,11.58c-.12,0-.27,0-.27-.17s.13-.15.22-.14.25,0,.25.19-.12.1-.2.12"/><path class="cls-67" d="M8.26,14.15C8.13,14.13,8,14.1,8,14s.09-.14.21-.13.24.06.26.19-.1.11-.19.12"/><path class="cls-34" d="M10.59,15.19c-.11.26-.23.31-.45.2s0-.27.21-.32a.22.22,0,0,1,.24.12Z"/><path class="cls-68" d="M14.17,10.61c.09,0,.21,0,.2.15s-.13.15-.25.15-.21,0-.2-.14.13-.15.25-.16"/><path class="cls-69" d="M10.85,16.26c.06,0,.1,0,.1.12s-.16.28-.28.28-.11-.05-.11-.12.16-.28.29-.28"/><path class="cls-70" d="M12.37,15.62v0a.29.29,0,0,1-.32,0,.2.2,0,0,1,0-.22.41.41,0,0,1,.17-.15h.13a.22.22,0,0,1,.09.12.35.35,0,0,1-.05.24"/><path class="cls-71" d="M9.31,15.59c.09,0,.18,0,.16.13s-.14.17-.27.18-.18,0-.17-.12.16-.18.28-.19"/><path class="cls-72" d="M8.87,13.26l.05,0s0,0,0,0,.07.11,0,.17a.21.21,0,0,1-.33,0c-.08-.09-.27-.16-.07-.31a.17.17,0,0,1,.26,0"/><path class="cls-73" d="M14.1,10.48c-.1,0-.21,0-.2-.14s.15-.16.27-.17.19,0,.18.13-.15.15-.25.18"/><path class="cls-74" d="M14.76,10.83c.13,0,.26.05.27.17s-.13.15-.22.13-.25,0-.25-.17.11-.11.2-.13"/><path class="cls-75" d="M9.43,13.53c.1,0,.11.09.11.17s-.28.09-.4.17a.11.11,0,0,1-.12,0,.3.3,0,0,1,0-.16c.11-.19.29-.15.46-.13"/><path class="cls-76" d="M12.87,15c-.16-.23-.13-.39.1-.51a.64.64,0,0,1,.15.49c-.08.09-.16.07-.25,0"/><path class="cls-77" d="M15.28,13.27a.34.34,0,0,1,.31.26c0,.07-.05.09-.12.1s-.32-.15-.32-.25.06-.11.13-.11"/><path class="cls-78" d="M7.62,11.89c0-.06,0-.12.12-.11A.29.29,0,0,1,8,12a.09.09,0,0,1-.11.11.33.33,0,0,1-.29-.26"/><path class="cls-79" d="M13.5,15.52c0-.11,0-.21.15-.21s.16.12.16.23,0,.2-.15.2-.14-.13-.16-.22"/><path class="cls-80" d="M11.13,16.27a.3.3,0,0,1,.25-.26c.1,0,.13.06.12.14a.3.3,0,0,1-.25.26c-.1,0-.12-.06-.12-.14"/><path class="cls-81" d="M12.23,10.78a.28.28,0,0,1,.38-.15.16.16,0,0,1,.11.22l0,0a.45.45,0,0,1-.32,0c-.08,0-.15,0-.14-.14"/><path class="cls-82" d="M12.05,9.23a.31.31,0,0,1-.28.26c-.1,0-.1-.09-.09-.15A.28.28,0,0,1,12,9.1c.11,0,.08.08.08.13"/><path class="cls-83" d="M8.44,15.27c-.08,0-.14-.07-.11-.15s.18-.11.29-.1.17,0,.18.11,0,.15-.13.15a.26.26,0,0,1-.23,0"/><path class="cls-84" d="M12.75,9.29c.06,0,.12,0,.11.12a.3.3,0,0,1-.26.25c-.08,0-.13,0-.14-.1s.16-.27.29-.27"/><path class="cls-85" d="M8.83,10.62c0,.08,0,.18-.15.17s-.18-.13-.18-.25,0-.18.14-.17.16.14.19.25"/><path class="cls-86" d="M11.91,9.74a.31.31,0,0,1,.25-.26.11.11,0,0,1,.13.13.3.3,0,0,1-.26.25c-.08,0-.12,0-.12-.12"/><path class="cls-87" d="M9,10.52c0-.08,0-.18.15-.17s.17.13.17.25,0,.18-.15.16S9,10.63,9,10.52"/><path class="cls-71" d="M10.05,16c.09,0,.15,0,.14.1a.28.28,0,0,1-.27.23.11.11,0,0,1-.14-.12.28.28,0,0,1,.27-.21"/><path class="cls-88" d="M15.16,14.37a.28.28,0,0,1-.22-.26.1.1,0,0,1,.11-.12.3.3,0,0,1,.25.28c0,.08-.05.11-.14.1"/><path class="cls-89" d="M9.24,15.16c.09,0,.2,0,.18.13s-.14.16-.26.16-.19,0-.18-.14.14-.15.26-.15"/><path class="cls-90" d="M11.45,9.76c-.09,0-.19.12-.27,0a.21.21,0,0,1,.07-.26c.05-.05.12-.13.2-.09s.06.14,0,.22,0,.1,0,.14Z"/><path class="cls-91" d="M8.2,11.45A.28.28,0,0,1,8,11.18a.1.1,0,0,1,.13-.11.27.27,0,0,1,.22.27c0,.08,0,.12-.14.11"/><path class="cls-92" d="M14.54,14.83c0-.08,0-.15.12-.14a.23.23,0,0,1,.22.24.12.12,0,0,1-.12.15c-.17,0-.19-.14-.22-.25"/><path class="cls-93" d="M13.47,10.4c-.09,0-.19,0-.17-.12s.12-.17.24-.18.18,0,.17.12-.13.16-.24.18"/><path class="cls-94" d="M13.46,9.67c.09,0,.17,0,.15.11s-.13.19-.27.2-.16,0-.14-.11.13-.19.26-.2"/><path class="cls-95" d="M8,12.33a.3.3,0,0,1,.22.23c0,.09-.07.12-.15.1s-.25-.09-.25-.24,0-.1.18-.09"/><path class="cls-96" d="M14.4,15c0,.09,0,.17-.14.15s-.17-.15-.17-.26,0-.15.13-.14.18.14.18.25"/><path class="cls-97" d="M13.37,14.63a.31.31,0,0,1-.18-.37.17.17,0,0,1,.19-.15.59.59,0,0,1,.09.51s-.06,0-.1,0"/><path class="cls-98" d="M13.36,15.59c-.15.16-.25.1-.33-.05a.3.3,0,0,1,.1-.34c.24,0,.2.24.23.39"/><path class="cls-71" d="M9.82,15.9c-.09,0-.17,0-.16-.11a.23.23,0,0,1,.25-.19c.08,0,.17,0,.16.1s-.13.19-.25.2"/><path class="cls-99" d="M10.13,10.78l0,0a.35.35,0,0,1,.3.39c-.14.14-.24.1-.31-.07s0-.18,0-.27"/><path class="cls-91" d="M8.46,11.11c0-.08,0-.16.12-.14a.22.22,0,0,1,.2.25c0,.08,0,.15-.13.13a.22.22,0,0,1-.19-.24"/><path class="cls-100" d="M14.51,13.31v-.09s-.07-.07,0-.12a.41.41,0,0,1,.4,0c0,.06.09.13,0,.2a.21.21,0,0,1-.23,0,.25.25,0,0,0-.17,0"/><path class="cls-101" d="M14.35,14.6c-.2,0-.28-.08-.31-.25s.05-.19.18-.21a.09.09,0,0,1,0,0c.06.14.15.27.08.43"/><path class="cls-102" d="M14.91,13.47a.28.28,0,0,1,.23.23c0,.09-.05.13-.14.12a.27.27,0,0,1-.23-.24c0-.08,0-.11.14-.11"/><path class="cls-103" d="M10.34,8.67c0,.11-.05.24-.19.25s-.11-.09-.1-.16,0-.24.2-.24.09.08.09.15"/><path class="cls-104" d="M12.2,17.31c0-.09.07-.22.22-.23s.1.08.08.14-.06.24-.2.26-.1-.08-.1-.17"/><path class="cls-105" d="M8.11,14.29c.1,0,.19.07.15.18s-.14.09-.22.09-.21,0-.26-.14.22-.1.33-.13"/><path class="cls-106" d="M10.48,11.12c-.07-.15-.12-.31-.3-.39v0a.17.17,0,0,1,.26-.05h.06c.06.16.14.31,0,.46"/><path class="cls-107" d="M11.1,8.57a.29.29,0,0,1,.21-.27c.09,0,.1.07.09.13a.28.28,0,0,1-.23.26c-.07,0-.06-.08-.07-.12"/><path class="cls-108" d="M14.41,12c0,.08.08.12.07.2a.43.43,0,0,1-.44,0l0,0c0-.18,0-.21.27-.22a.19.19,0,0,1,.14.07"/><path class="cls-109" d="M13.33,16.91c0-.1,0-.22.16-.24s.11.08.11.16,0,.22-.16.23-.11-.08-.11-.15"/><path class="cls-110" d="M11.3,17.14c.09,0,.12,0,.12.09a.31.31,0,0,1-.22.28.08.08,0,0,1-.11-.09.36.36,0,0,1,.21-.28"/><path class="cls-111" d="M10.15,14.77l.13-.09a.31.31,0,0,1,.23,0,.11.11,0,0,1,.09.13,1.24,1.24,0,0,1-.5.17A.1.1,0,0,1,10,14.9a.14.14,0,0,1,.13-.13"/><path class="cls-112" d="M15.51,10.72c.11,0,.23,0,.24.15s-.1.11-.18.1-.23,0-.24-.15.11-.09.18-.1"/><path class="cls-113" d="M8.67,13.51l0,.09c-.1.14-.26.12-.41.15s-.12-.12-.06-.2a.22.22,0,0,1,.25-.08l.19,0"/><path class="cls-114" d="M12.79,16.72c0-.09,0-.21.18-.21s.1.09.09.16,0,.2-.17.21-.1-.08-.1-.16"/><path class="cls-115" d="M9,9.26c0-.09,0-.2.16-.19s.11.1.1.18,0,.2-.14.2S9,9.34,9,9.26"/><path class="cls-116" d="M7.85,15.26c.09,0,.2,0,.2.12s-.11.12-.19.12-.2,0-.21-.12.11-.11.2-.12"/><path class="cls-117" d="M7.14,14.3c.12,0,.24,0,.26.16s-.08.11-.15.1-.26,0-.27-.17.1-.08.16-.09"/><path class="cls-118" d="M8.09,13.12c.11,0,.21.1.15.21s-.19.07-.29,0a.18.18,0,0,1-.14-.14.3.3,0,0,1,.28-.09"/><path class="cls-119" d="M12.19,8.77c-.08,0-.1,0-.09-.1a.26.26,0,0,1,.22-.25c.07,0,.11,0,.09.1a.3.3,0,0,1-.22.25"/><path class="cls-120" d="M8.29,13.75c.11-.11.29-.08.41-.15.09.08.07.16,0,.23a.39.39,0,0,1-.4-.08"/><path class="cls-121" d="M16,11.73a.31.31,0,0,1,.3.17s-.09.11-.16.09-.26-.05-.28-.19.09-.06.14-.07"/><path class="cls-122" d="M11.86,17.11a.1.1,0,0,1-.09-.12c0-.12.07-.24.22-.25s.09.08.07.13-.07.22-.2.24"/><path class="cls-123" d="M14.49,12.29a.32.32,0,0,1,.4.14c0,.12-.12.09-.2.1a1,1,0,0,1-.24,0c-.13-.09-.13-.16,0-.21"/><path class="cls-124" d="M10.51,9.05c0-.11.05-.21.18-.24s.11.06.1.13-.06.22-.19.24-.08-.07-.09-.13"/><path class="cls-125" d="M10.37,15.07c-.1,0-.22,0-.27-.1a1.39,1.39,0,0,1,.5-.15s0,.08,0,.12-.1.16-.22.13"/><path class="cls-126" d="M14.74,10.13c-.09,0-.18,0-.15-.12s.13-.13.23-.12.16,0,.14.12-.13.11-.22.12"/><path class="cls-127" d="M15.44,11.49c-.1,0-.22,0-.22-.16s.1-.1.17-.09.23,0,.23.16-.1.08-.18.09"/><path class="cls-128" d="M7.06,13c0-.08.08-.1.14-.08s.24.06.25.2-.07.09-.13.07A.32.32,0,0,1,7.06,13"/><path class="cls-129" d="M13.6,14.43a.16.16,0,0,1-.14.19c0-.18-.1-.33-.08-.51.15,0,.2.1.22.22v.1"/><path class="cls-130" d="M7.91,15c-.09,0-.21,0-.2-.13s.1-.13.2-.12.18,0,.18.15S8,15,7.91,15"/><path class="cls-131" d="M16,13.69a.3.3,0,0,1,.25.22.07.07,0,0,1-.09.09.31.31,0,0,1-.26-.22c0-.06,0-.08.1-.09"/><path class="cls-132" d="M7.86,13.5a.12.12,0,0,1,.07.17c0,.07-.11.08-.19.06a.32.32,0,0,1-.21-.1c0-.2.18-.16.33-.13"/><path class="cls-133" d="M15.73,13.08a.27.27,0,0,1,.24.2c0,.06-.05.09-.1.08s-.25-.07-.27-.21.06-.07.13-.07"/><path class="cls-134" d="M9.57,9.38c0-.11,0-.21.17-.22s.1.1.09.17,0,.19-.14.21-.1-.1-.12-.16"/><path class="cls-135" d="M11.46,9a.28.28,0,0,1,.2-.24c.08,0,.09.06.09.11a.26.26,0,0,1-.21.24c-.07,0-.08-.05-.08-.11"/><path class="cls-136" d="M14.13,12.57c-.19,0-.39,0-.49-.16a.72.72,0,0,1,.5,0,.11.11,0,0,1,.06.12s0,.07-.07.07"/><path class="cls-137" d="M6.94,12.53a.29.29,0,0,1-.24-.22c0-.06,0-.08.1-.08s.28.15.27.23-.06.07-.13.07"/><path class="cls-138" d="M14.42,12.47c.15,0,.32.06.47,0,.1.15.07.22-.14.22s-.18-.1-.28-.06,0,0-.05,0a.11.11,0,0,1,0-.11"/><path class="cls-139" d="M8.72,10c0-.08,0-.17.12-.17S9,9.88,9,10s0,.16-.1.16S8.74,10,8.72,10"/><path class="cls-140" d="M14.3,16.17c0-.07,0-.17.13-.16s.12.1.12.19,0,.17-.12.17-.11-.12-.13-.2"/><path class="cls-141" d="M15.83,12.42a.25.25,0,0,1-.26-.18c0-.05.06-.08.11-.07s.26,0,.28.18-.08.06-.13.07"/><path class="cls-142" d="M13.74,16.2c0-.09,0-.19.12-.2s.12.09.12.17,0,.18-.12.19-.11-.09-.12-.16"/><path class="cls-143" d="M14.2,12.83V13a.44.44,0,0,1-.48,0s-.06-.08,0-.13a.46.46,0,0,1,.41,0h0s0,0,0,0"/><path class="cls-144" d="M8.69,16c.07,0,.15,0,.14.09s-.1.15-.21.15-.15,0-.14-.09S8.6,16,8.69,16"/><path class="cls-145" d="M14.8,10.41c.09,0,.19,0,.19.13s-.09.1-.17.1-.2,0-.2-.11.09-.11.18-.12"/><path class="cls-146" d="M8.4,15.62c0-.09.1-.12.19-.13s.18,0,.18.11-.12.11-.2.12a.14.14,0,0,1-.17-.1"/><path class="cls-147" d="M15,11.81c-.07-.1,0-.16.08-.17s.31,0,.38.18a.47.47,0,0,1-.46,0"/><path class="cls-148" d="M12.33,9.12a.27.27,0,0,1,.22-.21.08.08,0,0,1,.09.1.25.25,0,0,1-.23.21c-.06,0-.08-.05-.08-.1"/><path class="cls-149" d="M12.23,10.78c.12.17.31.06.46.1a.36.36,0,0,1-.24.16c-.2,0-.28-.07-.22-.26"/><path class="cls-150" d="M10.14,17.14a.29.29,0,0,1,.23-.21c.06,0,.11,0,.09.08a.27.27,0,0,1-.23.24c-.07,0-.09,0-.09-.11"/><path class="cls-151" d="M6.83,13.26a.24.24,0,0,1,.24.18s0,.07-.06.08a.32.32,0,0,1-.32-.13c0-.1.07-.11.14-.13"/><path class="cls-152" d="M13.18,14.91,13.1,15c0-.16-.09-.32-.13-.48.13,0,.16.07.22.14a.33.33,0,0,1,0,.29"/><path class="cls-153" d="M10.82,16.93a.24.24,0,0,1,.21-.22c.07,0,.11,0,.09.09a.28.28,0,0,1-.22.23c-.06,0-.08,0-.08-.1"/><path class="cls-154" d="M13.73,13h.48c0,.07,0,.11-.05.17-.18,0-.34,0-.43-.18"/><path class="cls-155" d="M14.15,11.66a.63.63,0,0,1-.27,0c-.05,0-.11,0-.14,0v0c0-.1,0-.12.11-.13a.43.43,0,0,1,.33.06c0,.05,0,.08,0,.12"/><path class="cls-156" d="M7.47,14c-.11,0-.23,0-.24-.14s.08-.08.14-.08.25,0,.27.15-.11,0-.17.07"/><path class="cls-157" d="M11.58,10.33c0-.06.09-.12.13-.19h0c.17,0,.22.12.18.26v0l-.1,0c-.17.07-.19,0-.21-.15"/><path class="cls-78" d="M7.56,12.2c0,.08-.06.09-.11.09a.27.27,0,0,1-.23-.21c0-.06.06-.09.12-.07a.29.29,0,0,1,.22.19"/><path class="cls-57" d="M7,11.49c0-.07,0-.12.08-.11a.27.27,0,0,1,.24.21c0,.05,0,.1-.07.09A.3.3,0,0,1,7,11.49"/><path class="cls-158" d="M8.17,10c0-.06,0-.15.11-.14s.13.09.13.18,0,.16-.1.15-.13-.1-.14-.19"/><path class="cls-159" d="M14.59,15.33a.2.2,0,0,1,.15.19c0,.07,0,.15-.11.15s-.13-.1-.14-.18a.13.13,0,0,1,.1-.16"/><path class="cls-160" d="M15.18,15.58a.22.22,0,0,1-.16-.22.09.09,0,0,1,.1-.11c.12,0,.15.12.16.22s0,.11-.1.11"/><path class="cls-88" d="M15.74,14.8a.24.24,0,0,1-.2-.21.07.07,0,0,1,.08-.09.23.23,0,0,1,.21.21s0,.09-.09.09"/><path class="cls-161" d="M15.51,13.88c.1,0,.18.09.2.2s0,.11-.11.09a.26.26,0,0,1-.2-.21c0-.05,0-.08.11-.08"/><path class="cls-162" d="M14.09,9.76c.08,0,.15,0,.13.1s-.1.13-.19.13-.15,0-.14-.09.11-.13.2-.14"/><path class="cls-163" d="M15.24,12.9s.07.11,0,.16a.17.17,0,0,1-.17,0c-.1,0-.19-.08-.21-.19s.24-.05.37,0"/><path class="cls-164" d="M8.73,14c-.05-.25.15-.2.3-.21l.11,0h0s0,0,0,0l0,0a.53.53,0,0,1-.41.08h0"/><path class="cls-165" d="M8.43,14.78c-.11-.16,0-.19.13-.21a.27.27,0,0,1,.26.07c-.07.19-.23.18-.39.14"/><path class="cls-166" d="M7.71,10.92a.22.22,0,0,1-.17-.19c0-.05,0-.12.06-.12s.18.09.2.19,0,.11-.09.12"/><path class="cls-167" d="M14,9.25c.07,0,.13,0,.11.1s-.12.15-.23.16-.11,0-.1-.09A.22.22,0,0,1,14,9.25"/><path class="cls-168" d="M13,9a.27.27,0,0,1,.23-.21.08.08,0,0,1,.09.09.26.26,0,0,1-.23.2C13,9.06,13,9,13,9"/><path class="cls-169" d="M9.31,16.71a.22.22,0,0,1,.22-.16c.06,0,.11,0,.1.08a.22.22,0,0,1-.23.18c-.07,0-.1,0-.09-.1"/><path class="cls-170" d="M14.26,12c0-.06,0-.09,0-.12.14-.12.32,0,.47-.07h0c0,.19,0,.23-.31.21h-.15"/><path class="cls-171" d="M8.23,10.82a.19.19,0,0,1-.16-.2c0-.06,0-.13.09-.12s.15.1.15.19,0,.12-.08.13"/><path class="cls-172" d="M13.14,15.21c0-.09.11-.05.18-.05a.3.3,0,0,1,0,.43c-.09-.11,0-.3-.21-.38"/><path class="cls-173" d="M14.19,11.75v-.09a.39.39,0,0,1,.53.1h0a.77.77,0,0,1-.52,0"/><path class="cls-71" d="M9.18,16.2a.23.23,0,0,1,.24-.14c.07,0,.1,0,.09.09s-.11.14-.21.15a.11.11,0,0,1-.12-.1"/><path class="cls-174" d="M16.14,13c0-.05-.14-.08-.08-.16s.15,0,.22,0,.17.06.16.17a.29.29,0,0,1-.3,0"/><path class="cls-175" d="M14.2,12.83l0,0v-.09a.35.35,0,0,1,.41,0c0,.07,0,.12,0,.17a.7.7,0,0,1-.32-.06"/><path class="cls-176" d="M9.73,14.72l-.07-.06a.52.52,0,0,1,.49-.15c0,.07,0,.12,0,.17a.19.19,0,0,1-.16.09.34.34,0,0,1-.22,0"/><path class="cls-177" d="M14.56,12.72h-.41c-.08,0,0-.1,0-.14l0,0a.61.61,0,0,1,.27,0h0l.09.13"/><path class="cls-178" d="M10,14.38a.13.13,0,0,1,.11.09,1.69,1.69,0,0,1-.54.12.08.08,0,0,1,0-.09l.17-.13a.57.57,0,0,1,.26,0"/><path class="cls-179" d="M13.7,11.44l.13,0c.08,0,.15-.05.23,0s.11.06.12.13c-.15,0-.32-.1-.44.07l-.09-.08,0-.09"/><path class="cls-180" d="M14.77,12.18c-.06-.19.08-.17.2-.16a.25.25,0,0,1,.2.12c-.12.19-.26.09-.4,0"/><path class="cls-181" d="M14.47,13.14c0-.08,0-.16,0-.22a.42.42,0,0,1,.37.18,1.2,1.2,0,0,0-.42,0"/><path class="cls-182" d="M9.53,14.59a.53.53,0,0,1-.27.08l-.14-.08c.08-.19.24-.16.41-.13h0a.12.12,0,0,1,0,.14"/><path class="cls-183" d="M13.63,12.32c0-.15.15-.14.27-.13a2,2,0,0,1,.23.06l0,0a.11.11,0,0,1,0,.07.75.75,0,0,1-.49,0"/><path class="cls-184" d="M14,12a.75.75,0,0,0-.07.12c-.18,0-.36,0-.48-.14L14,12"/><path class="cls-185" d="M8.76,14A1,1,0,0,1,9.17,14c.05.09,0,.13-.08.17s-.23.05-.31,0l0,0"/><path class="cls-186" d="M10.73,9.93c0,.12.16.18.22.28s-.16.08-.25,0v0c0-.09-.06-.21,0-.29"/><path class="cls-187" d="M14.77,12.18c.13,0,.27.05.4,0,.09.12,0,.17-.11.18a.3.3,0,0,1-.29-.14"/><path class="cls-188" d="M9.56,15l.06-.12c.11,0,.21-.11.34-.07a.08.08,0,0,1,.06.08v0a.48.48,0,0,1-.4.12l0-.05"/><path class="cls-189" d="M9,13.7c-.09-.08,0-.15,0-.22a.4.4,0,0,1,.42,0c-.14.07-.35,0-.43.17"/><path class="cls-190" d="M13.63,12.32c.17,0,.34,0,.5,0h0l0,.13h-.53s0-.06,0-.09"/><path class="cls-191" d="M15,11.81h.46c-.08.18-.26.18-.46,0"/><path class="cls-192" d="M14.35,14.6a2,2,0,0,1-.08-.43c.22.17.24.29.08.43"/><path class="cls-193" d="M7.86,13.5c-.12,0-.26,0-.33.13-.07-.05-.11-.1-.06-.18s.11,0,.17,0a.3.3,0,0,1,.22.1"/><path class="cls-194" d="M9.61,15.05l.4-.12c0,.11-.08.14-.17.17s0,0-.06,0-.14,0-.17-.09"/><path class="cls-195" d="M11.89,10.4a.34.34,0,0,0-.18-.26v0c.09,0,.2-.06.26.05a.2.2,0,0,1-.08.25"/><path class="cls-196" d="M8.43,14.78a.62.62,0,0,0,.39-.14c.11.17,0,.19-.15.21a.24.24,0,0,1-.24-.07"/><path class="cls-197" d="M12.68,11.17h.49c0,.05,0,.07-.07.07s-.31.11-.42-.08"/><path class="cls-198" d="M9,13.31l0,0c.17,0,.35,0,.46-.14.07.18-.05.22-.19.22a.86.86,0,0,1-.23,0"/><path class="cls-199" d="M15.24,12.9h-.37c0-.14,0-.14.14-.13a.25.25,0,0,1,.23.13"/><path class="cls-200" d="M13.57,11.19c-.1,0,0,.08,0,.12a1.71,1.71,0,0,1-.45,0l0,0c.06-.1.16-.09.26-.11h.15"/><path class="cls-201" d="M9.62,14.58a1.57,1.57,0,0,1,.53-.11v0l-.49.15s0,0-.05,0a0,0,0,0,1,0,0l0,0"/><path class="cls-202" d="M14.12,12.79c-.14,0-.27.07-.41,0,.1-.16.2-.17.41,0"/><path class="cls-203" d="M17.13,13.34a.24.24,0,0,1-.17-.12,0,0,0,0,1,.06-.06c.07,0,.14,0,.17.12s0,.06-.06.06"/><path class="cls-204" d="M6.23,14.39c0-.06,0-.07.09-.06s.14,0,.16.09-.05.06-.09.06-.14,0-.16-.09"/><path class="cls-205" d="M8.11,14.29c-.09.09-.24,0-.33.13,0-.17.07-.2.33-.13"/><path class="cls-206" d="M5.87,13.08c0-.05,0-.05.08,0s.15,0,.16.13-.05.05-.09,0a.16.16,0,0,1-.15-.12"/><path class="cls-207" d="M14.49,12.21l-.09,0a.36.36,0,0,1-.27,0h0c0-.05-.09,0-.08-.09h.43a.06.06,0,0,1,0,0"/><path class="cls-208" d="M12.05,18.13c0-.05,0-.13.11-.15s.08,0,.07.07,0,.14-.12.16-.06,0-.06-.08"/><path class="cls-209" d="M9.18,13.86h0c.11-.1.27-.09.4-.16,0,.21-.22.16-.36.16"/><path class="cls-210" d="M12.89,17.29a.08.08,0,0,1,.07.08c0,.06,0,.13-.11.14a.06.06,0,0,1-.06-.07.18.18,0,0,1,.1-.15"/><path class="cls-211" d="M16.2,10.74c0-.06.05-.07.09-.06s.13,0,.14.07,0,.07-.08.07-.13,0-.15-.08"/><path class="cls-212" d="M6.64,13.77c.06,0,.14,0,.14.1s0,.06-.08.05-.14,0-.15-.11,0,0,.09,0"/><path class="cls-213" d="M13.88,14.1c0-.11-.11-.22-.05-.35.11.11.15.22.05.35"/><path class="cls-214" d="M17,12.08c-.06,0-.14,0-.16-.1s.05-.06.09-.06.13,0,.15.1,0,.05-.08.06"/><path class="cls-215" d="M9.65,8.79a.06.06,0,0,1-.06-.07c0-.06,0-.12.07-.14s.07,0,.07.07a.14.14,0,0,1-.08.14"/><path class="cls-216" d="M6.57,12.81c-.06,0-.13,0-.14-.11a.05.05,0,0,1,.07,0c.07,0,.13,0,.15.11s0,.05-.08.05"/><path class="cls-217" d="M9.53,14.46c-.14,0-.3,0-.41.13l0,0v-.08c.11-.09.24-.07.36-.11l.09,0v0"/><path class="cls-218" d="M16.12,11.29c.06,0,.13,0,.14.08s-.05.06-.09.06-.12,0-.13-.08,0-.06.08-.06"/><path class="cls-219" d="M11.64,17.73c-.05,0-.08,0-.06-.07s0-.13.12-.14.05,0,.05.07a.18.18,0,0,1-.11.14"/><path class="cls-220" d="M13.48,17.74c-.06,0-.05-.06-.05-.1s0-.12.1-.12.06.06.05.1,0,.11-.1.12"/><path class="cls-221" d="M16.5,13.63a.16.16,0,0,1-.14-.11s0,0,.05,0,.14,0,.15.12,0,0-.06,0"/><path class="cls-222" d="M7.23,15c-.06,0-.13,0-.14-.08s.06-.06.11-.06.11,0,.12.08-.05.05-.09.06"/><path class="cls-223" d="M7.15,15.63c-.05,0-.11,0-.12-.07s0-.07.1-.06.13,0,.12.08-.06.05-.1.05"/><path class="cls-224" d="M15.33,10.35c0-.06.05-.07.09-.07a.1.1,0,0,1,.12.06c0,.05,0,.06-.09.07s-.1,0-.12-.06"/><path class="cls-225" d="M10.72,8.31c0-.05,0-.13.11-.12s0,0,0,.08,0,.12-.11.12,0,0,0-.08"/><path class="cls-226" d="M14.6,16.83s0-.12.08-.11a.09.09,0,0,1,.07.09c0,.05,0,.1-.08.1s-.05-.05-.07-.08"/><path class="cls-227" d="M10.52,17.58c0-.12,0-.16.1-.2s.05,0,.05,0a.18.18,0,0,1-.15.18"/><path class="cls-228" d="M16.66,14.26s0-.06.07,0,.12,0,.13.12,0,.07-.07.05a.22.22,0,0,1-.13-.12"/><path class="cls-229" d="M10.77,18.19a.17.17,0,0,1,.12-.22s0,0,0,.05a.18.18,0,0,1-.17.17"/><path class="cls-230" d="M10.67,10.7c0,.11.07.23.22.26-.24.06-.25-.09-.26-.25s0,0,0,0"/><path class="cls-231" d="M9,8.66a.07.07,0,0,1-.07-.08c0-.06,0-.12.08-.12s.06,0,.06.07,0,.11-.07.13"/><path class="cls-232" d="M8.08,16.39s.08,0,.09.05,0,.07-.1.08-.08,0-.08,0,0-.08.09-.09"/><path class="cls-233" d="M16.41,12.48c0-.06,0-.06.07-.06a.17.17,0,0,1,.14.09s0,.06-.06.06a.2.2,0,0,1-.15-.09"/><path class="cls-234" d="M6,11.94s0-.07.06-.06.14,0,.15.12,0,.05,0,.05A.24.24,0,0,1,6,11.94"/><path class="cls-235" d="M8,9.52c-.07,0-.08,0-.09-.09s0-.09,0-.1.08,0,.09.09,0,.07,0,.1"/><path class="cls-236" d="M9.72,17.72a.14.14,0,0,1,.13-.11s.06,0,0,.06-.05.11-.13.11,0,0,0-.06"/><path class="cls-237" d="M15.3,9.73a.13.13,0,0,1,.13-.06s.08,0,.07.06-.07.07-.13.07-.07,0-.07-.07"/><path class="cls-238" d="M8.09,13.12l-.28.09c0-.23.17-.13.28-.09"/><path class="cls-239" d="M6.51,11s0-.06,0,0,.11,0,.12.11a0,0,0,0,1-.06,0c-.07,0-.11-.05-.11-.11"/><path class="cls-240" d="M9,17.06a0,0,0,0,1,0,.06.11.11,0,0,1-.12.09s-.06,0-.05-.05a.13.13,0,0,1,.12-.1"/><path class="cls-241" d="M6.82,11.85a.17.17,0,0,1-.13-.11s0-.06.06-.05.11.05.12.11,0,0,0,0"/><path class="cls-242" d="M8.55,9.35s0-.07.07-.07.07.06.06.12,0,.08-.06.07-.07-.06-.07-.12"/><path class="cls-243" d="M16.14,13h.3c-.09.12-.11.12-.3,0"/><path class="cls-244" d="M8,15.8s.08,0,.07,0,0,.08-.1.08-.1,0-.09-.07S8,15.8,8,15.8"/><path class="cls-245" d="M15.48,15.93s0-.08.06-.07a.09.09,0,0,1,.08.09.07.07,0,0,1,0,.08c-.07,0-.07-.06-.09-.1"/><path class="cls-246" d="M15,16.11c-.07,0-.09,0-.09-.08s0-.09.05-.1S15,16,15,16a.09.09,0,0,1,0,.1"/><path class="cls-247" d="M14,16.81s0-.1.06-.1.08.06.07.11,0,.09-.08.08-.05-.06-.05-.09"/><path class="cls-248" d="M12.92,8.44s.06,0,.06,0a.15.15,0,0,1-.12.13s0,0,0,0a.15.15,0,0,1,.11-.12"/><path class="cls-249" d="M8.88,16.49s.06,0,.06,0,0,.08-.1.09-.07,0-.06-.07.05-.06.1-.06"/><path class="cls-250" d="M11.69,10.81v-.12c.09.05.12.14.18.21a.16.16,0,0,1-.19-.09"/><path class="cls-251" d="M16.14,15.11a0,0,0,0,1,.05,0c.06,0,.09,0,.11.09a0,0,0,0,1-.06.06.14.14,0,0,1-.1-.1"/><path class="cls-252" d="M14.4,9a.11.11,0,0,1,.11-.09,0,0,0,0,1,.06.06.1.1,0,0,1-.09.07c-.05,0-.07,0-.08,0"/><path class="cls-253" d="M7.14,10.25s0-.07,0-.07a.1.1,0,0,1,.1.09.05.05,0,0,1,0,.07c-.06,0-.08,0-.1-.09"/><path class="cls-254" d="M14.57,9.62s-.08,0-.08-.06.06-.06.1-.07.08,0,.08.06-.06.06-.1.07"/><path class="cls-255" d="M6.83,13.26l-.14.13c-.07,0-.07-.08,0-.12a.13.13,0,0,1,.18,0"/><path class="cls-256" d="M16,14.41s0-.06.06-.05.1.06.1.11,0,0-.07,0a.18.18,0,0,1-.09-.1"/><path class="cls-257" d="M7.77,10.17s0-.07.05-.06.07,0,.08.08,0,.07-.06.07-.06,0-.07-.09"/><path class="cls-258" d="M10.13,10.78c.09.08,0,.18,0,.27s0-.15-.08-.19l0-.08"/><path class="cls-259" d="M10.06,10.12c0,.09,0,.17,0,.26a.2.2,0,0,1,0-.26"/><path class="cls-260" d="M9.26,14.69s.1,0,.13.06H9.11l.15-.05"/><path class="cls-261" d="M10.51,14.69h-.23a.18.18,0,0,1,.23,0"/><path class="cls-262" d="M8.44,15.27h.23a.19.19,0,0,1-.23,0"/><path class="cls-263" d="M10,14.38H9.78a.24.24,0,0,1,.26,0"/><path class="cls-264" d="M9.44,14.38a.76.76,0,0,1-.36.11c.07-.17.22-.14.36-.11"/><path class="cls-265" d="M14.19,11.75h.52c0,.13-.14.07-.21.07h-.29a.08.08,0,0,1,0-.09"/><path class="cls-266" d="M9.75,14.79c.07,0,.16,0,.22.06l-.35,0c0-.06.08-.06.13-.09"/><path class="cls-267" d="M10,14.72a.27.27,0,0,1-.23,0l0,0H10"/><path class="cls-268" d="M14.13,12.25h.27c-.08.07-.17,0-.26,0h0v0"/></g></g></g><rect class="cls-269" x="5.77" y="7.08" width="12.27" height="5"/><path d="M16.37,5.85h-.78V5.08a.79.79,0,0,0-1.58,0v.77H9.29V5.08a.79.79,0,0,0-1.57,0v.77H6.93A2.34,2.34,0,0,0,4.57,8.16v9.25a2.34,2.34,0,0,0,2.36,2.32h9.44a2.34,2.34,0,0,0,2.36-2.32V8.16A2.33,2.33,0,0,0,16.37,5.85ZM6.93,7.39h.79v.77a.79.79,0,0,0,1.57,0V7.39H14v.77a.79.79,0,0,0,1.58,0V7.39h.78a.78.78,0,0,1,.79.77v3.09h-11V8.16A.78.78,0,0,1,6.93,7.39Zm9.44,10.79H6.93a.77.77,0,0,1-.78-.77V12.79h11v4.62A.77.77,0,0,1,16.37,18.18Z"/><ellipse cx="8.51" cy="14.98" rx="0.79" ry="0.79"/><path d="M14.8,14.18H11.65a.8.8,0,0,0,0,1.59H14.8a.8.8,0,0,0,0-1.59Z"/></g></svg>