<svg id="ICONS" xmlns="http://www.w3.org/2000/svg" xmlns:xlink="http://www.w3.org/1999/xlink" viewBox="0 0 24 24"><defs><style>.cls-1{fill:none;}.cls-2{clip-path:url(#clip-path);}.cls-3{clip-path:url(#clip-path-2);}.cls-4{clip-path:url(#clip-path-3);}.cls-5{fill:#1852a3;}.cls-6{fill:#f74724;}.cls-7{fill:#0399d9;}.cls-8{fill:#1f94c3;}.cls-9{fill:#198fcf;}.cls-10{fill:#fe9935;}.cls-11{fill:#f75421;}.cls-12{fill:#f7361d;}.cls-13{fill:#ea3b20;}.cls-14{fill:#23a08b;}.cls-15{fill:#1f94c4;}.cls-16{fill:#1f53a2;}.cls-17{fill:#61a74b;}.cls-18{fill:#219d97;}.cls-19{fill:#b04651;}.cls-20{fill:#f73e1f;}.cls-21{fill:#73a648;}.cls-22{fill:#27a37e;}.cls-23{fill:#39a953;}.cls-24{fill:#f7311d;}.cls-25{fill:#089ad9;}.cls-26{fill:#1a90cf;}.cls-27{fill:#249ca5;}.cls-28{fill:#0599d9;}.cls-29{fill:#1c91d0;}.cls-30{fill:#f9842b;}.cls-31{fill:#f75521;}.cls-32{fill:#fe9a37;}.cls-33{fill:#28a576;}.cls-34{fill:#2ca96a;}.cls-35{fill:#ea3c21;}.cls-36{fill:#e93c22;}.cls-37{fill:#44a950;}.cls-38{fill:#f98f2c;}.cls-39{fill:#0391d4;}.cls-40{fill:#4ea74d;}.cls-41{fill:#1d91cd;}.cls-42{fill:#f75525;}.cls-43{fill:#8ea444;}.cls-44{fill:#f8712b;}.cls-45{fill:#259e9c;}.cls-46{fill:#c3a242;}.cls-47{fill:#f86328;}.cls-48{fill:#f8792b;}.cls-49{fill:#2196bf;}.cls-50{fill:#45a951;}.cls-51{fill:#f73b20;}.cls-52{fill:#f99437;}.cls-53{fill:#26a289;}.cls-54{fill:#2092d0;}.cls-55{fill:#f74127;}.cls-56{fill:#079ad9;}.cls-57{fill:#fe9b39;}.cls-58{fill:#2aa198;}.cls-59{fill:#1e96b8;}.cls-60{fill:#f98f31;}.cls-61{fill:#269bb3;}.cls-62{fill:#24a088;}.cls-63{fill:#57a74c;}.cls-64{fill:#f74924;}.cls-65{fill:#72a74a;}.cls-66{fill:#0a61b1;}.cls-67{fill:#51aa53;}.cls-68{fill:#f73724;}.cls-69{fill:#f74f24;}.cls-70{fill:#eb4026;}.cls-71{fill:#0287cd;}.cls-72{fill:#3ea951;}.cls-73{fill:#56a950;}.cls-74{fill:#0168b9;}.cls-75{fill:#f86524;}.cls-76{fill:#fe9b38;}.cls-77{fill:#0b9cda;}.cls-78{fill:#f87d2c;}.cls-79{fill:#f8432f;}.cls-80{fill:#40a84f;}.cls-81{fill:#c83f3a;}.cls-82{fill:#2193d0;}.cls-83{fill:#30ab68;}.cls-84{fill:#1d91cc;}.cls-85{fill:#fe9c3a;}.cls-86{fill:#e33f2a;}.cls-87{fill:#2aa57e;}.cls-88{fill:#1c90cf;}.cls-89{fill:#faaa36;}.cls-90{fill:#3caa54;}.cls-91{fill:#30a851;}.cls-92{fill:#069ad9;}.cls-93{fill:#f99933;}.cls-94{fill:#f87b29;}.cls-95{fill:#f86827;}.cls-96{fill:#2399b4;}.cls-97{fill:#fe9c3b;}.cls-98{fill:#f9992d;}.cls-99{fill:#fe9936;}.cls-100{fill:#f75729;}.cls-101{fill:#294b96;}.cls-102{fill:#259bad;}.cls-103{fill:#9fa648;}.cls-104{fill:#f8742c;}.cls-105{fill:#f73b25;}.cls-106{fill:#e03b27;}.cls-107{fill:#54ab54;}.cls-108{fill:#0678c2;}.cls-109{fill:#f86329;}.cls-110{fill:#dd402f;}.cls-111{fill:#20509f;}.cls-112{fill:#0591d4;}.cls-113{fill:#0770bd;}.cls-114{fill:#7ba647;}.cls-115{fill:#f74927;}.cls-116{fill:#baa03d;}.cls-117{fill:#e53b24;}.cls-118{fill:#3fad59;}.cls-119{fill:#6daa51;}.cls-120{fill:#0c9bda;}.cls-121{fill:#f9812a;}.cls-122{fill:#804468;}.cls-123{fill:#fe9d3c;}.cls-124{fill:#047bc4;}.cls-125{fill:#eaa143;}.cls-126{fill:#c1a03c;}.cls-127{fill:#0a9bda;}.cls-128{fill:#c3a03e;}.cls-129{fill:#2897cd;}.cls-130{fill:#f99531;}.cls-131{fill:#a2a94f;}.cls-132{fill:#f9812e;}.cls-133{fill:#e99c39;}.cls-134{fill:#eb452c;}.cls-135{fill:#47aa53;}.cls-136{fill:#e94a33;}.cls-137{fill:#7fa546;}.cls-138{fill:#45a74d;}.cls-139{fill:#f73320;}.cls-140{fill:#0d88cd;}.cls-141{fill:#f86d27;}.cls-142{fill:#f73927;}.cls-143{fill:#f59d3b;}.cls-144{fill:#7ca648;}.cls-145{fill:#0768b8;}.cls-146{fill:#23a27a;}.cls-147{fill:#1d91d0;}.cls-148{fill:#f9a33b;}.cls-149{fill:#fab43d;}.cls-150{fill:#fe9e3e;}.cls-151{fill:#39ab57;}.cls-152{fill:#e7a142;}.cls-153{fill:#095fb1;}.cls-154{fill:#6f4a77;}.cls-155{fill:#2193d1;}.cls-156{fill:#eb3f26;}.cls-157{fill:#90a444;}.cls-158{fill:#1f92d0;}.cls-159{fill:#f86e28;}.cls-160{fill:#82a646;}.cls-161{fill:#c2a343;}.cls-162{fill:#e09d3a;}.cls-163{fill:#a54151;}.cls-164{fill:#d4a140;}.cls-165{fill:#894665;}.cls-166{fill:#76a84d;}.cls-167{fill:#9da444;}.cls-168{fill:#ee9c39;}.cls-169{fill:#714571;}.cls-170{fill:#b2a342;}.cls-171{fill:#95a445;}.cls-172{fill:#1156a8;}.cls-173{fill:#27a191;}.cls-174{fill:#a7a444;}.cls-175{fill:#d33d31;}.cls-176{fill:#0777c2;}.cls-177{fill:#baa23f;}.cls-178{fill:#89a546;}.cls-179{fill:#f9a134;}.cls-180{fill:#0584ca;}.cls-181{fill:#e1422f;}.cls-182{fill:#29a577;}.cls-183{fill:#874c6d;}.cls-184{fill:#59a84f;}.cls-185{fill:#0b8cd0;}.cls-186{fill:#dea243;}.cls-187{fill:#6eaa50;}.cls-188{fill:#97425a;}.cls-189{fill:#e09e3b;}.cls-190{fill:#cdac56;}.cls-191{fill:#4562a3;}.cls-192{fill:#2354a2;}.cls-193{fill:#1b98d6;}.cls-194{fill:#a9a74b;}.cls-195{fill:#f86138;}.cls-196{fill:#0a66b5;}.cls-197{fill:#f97745;}.cls-198{fill:#60b366;}.cls-199{fill:#257cc2;}.cls-200{fill:#f99731;}.cls-201{fill:#83ad56;}.cls-202{fill:#22a5dd;}.cls-203{fill:#67497a;}.cls-204{fill:#76b363;}.cls-205{fill:#f85538;}.cls-206{fill:#f97d38;}.cls-207{fill:#f1ab56;}.cls-208{fill:#98617d;}.cls-209{fill:#e35544;}.cls-210{fill:#57b468;}.cls-211{fill:#faa64a;}.cls-212{fill:#f84d3c;}.cls-213{fill:#fea750;}.cls-214{fill:#f73b27;}.cls-215{fill:#259da1;}.cls-216{fill:#ee5c46;}.cls-217{fill:#a0a547;}.cls-218{fill:#16a0db;}.cls-219{fill:#f84736;}.cls-220{fill:#0799d9;}.cls-221{fill:#23a5dd;}.cls-222{fill:#ee5f49;}.cls-223{fill:#27a7de;}.cls-224{fill:#cba343;}.cls-225{fill:#ed523b;}.cls-226{fill:#fbbc51;}.cls-227{fill:#fab658;}.cls-228{fill:#fa8b3a;}.cls-229{fill:#ee5b45;}.cls-230{fill:#27a384;}.cls-231{fill:#fea751;}.cls-232{fill:#2b98d3;}.cls-233{fill:#0c8ed1;}.cls-234{fill:#fe9d3d;}.cls-235{fill:#2c98d3;}.cls-236{fill:#2e9eb7;}.cls-237{fill:#269cac;}.cls-238{fill:#8c5677;}.cls-239{fill:#d64b40;}.cls-240{fill:#d75950;}.cls-241{fill:#855579;}.cls-242{fill:#5b4c82;}.cls-243{fill:#87a443;}.cls-244{fill:#c84844;}.cls-245{fill:#ba545b;}.cls-246{fill:#b2a94e;}.cls-247{fill:#fff;stroke:#000;stroke-miterlimit:10;stroke-width:0.75px;}.cls-248{clip-path:url(#clip-path-4);}.cls-249{clip-path:url(#clip-path-5);}.cls-250{clip-path:url(#clip-path-6);}.cls-251{clip-path:url(#clip-path-7);}.cls-252{clip-path:url(#clip-path-8);}.cls-253{clip-path:url(#clip-path-9);}</style><clipPath id="clip-path"><path d="M20.43,17.25c0-2.79-1.36-5.08-3-5.08s-3,2.29-3,5.08S20.43,20,20.43,17.25Z"/></clipPath><clipPath id="clip-path-2"><rect class="cls-1" x="15.93" y="14.71" width="6.88" height="11.02"/></clipPath><clipPath id="clip-path-3"><rect class="cls-1" x="15.93" y="14.71" width="6.88" height="11.02"/></clipPath><clipPath id="clip-path-4"><path d="M10.43,17.16c0-2.93-1.41-5.33-3.13-5.33s-3.13,2.4-3.13,5.33S10.43,20.08,10.43,17.16Z"/></clipPath><clipPath id="clip-path-5"><rect class="cls-1" x="5.73" y="14.49" width="7.18" height="11.54"/></clipPath><clipPath id="clip-path-6"><rect class="cls-1" x="5.73" y="14.49" width="7.18" height="11.54"/></clipPath><clipPath id="clip-path-7"><path d="M16.17,16.76c0-3.49-1.81-6.37-4-6.37s-4,2.88-4,6.37S16.17,20.26,16.17,16.76Z"/></clipPath><clipPath id="clip-path-8"><rect class="cls-1" x="10.17" y="13.58" width="9.18" height="13.82"/></clipPath><clipPath id="clip-path-9"><rect class="cls-1" x="10.17" y="13.58" width="9.18" height="13.82"/></clipPath></defs><path d="M20.43,17.25c0-2.79-1.36-5.08-3-5.08s-3,2.29-3,5.08S20.43,20,20.43,17.25Z"/><g class="cls-2"><g id="Illustration_1" data-name="Illustration 1"><g class="cls-3"><g class="cls-4"><path class="cls-5" d="M20.73,19.3a.75.75,0,0,1-.12.07.18.18,0,0,1-.19-.16.25.25,0,0,1,.1-.28c.09-.07.17-.07.24.08a.26.26,0,0,1,0,.29"/><path class="cls-6" d="M19.21,17.87a.5.5,0,0,1,0,.34c0,.12-.1.2-.18.14a.28.28,0,0,1-.06-.3A.28.28,0,0,0,19,18a.43.43,0,0,1,.08-.18c.06-.07.11-.05.17,0a.13.13,0,0,1,0,.06"/><path class="cls-7" d="M21,20.72c0,.12,0,.28-.07.32s-.16,0-.21-.15a.34.34,0,0,1,0-.28c0-.09.1-.08.16,0l.1.11s0,0,0,0"/><path class="cls-8" d="M20.35,22.63a.48.48,0,0,1-.09-.37c0-.09,0-.18.09-.19s.12,0,.14.14,0,.11.05.13a.22.22,0,0,1,0,.14c0,.13-.08.25-.19.15"/><path class="cls-9" d="M20.74,22c0,.11-.09.18-.17.11a.46.46,0,0,1-.1-.39c0-.16.1-.17.18-.13s.13.18.09.41"/><path class="cls-10" d="M17.77,20.08c0-.12,0-.27.09-.31s.15.06.19.17a.33.33,0,0,1,0,.29c-.05.08-.11.06-.16,0l-.09-.11s0,0,0-.05"/><path class="cls-11" d="M18.86,18a.5.5,0,0,1,0,.48c-.11.13-.17.08-.18-.13a2.26,2.26,0,0,1,0-.26v0c.06-.13.12-.22.21-.06"/><path class="cls-12" d="M19.35,17.82c.07,0,.16-.13.21,0a.41.41,0,0,1-.07.38c0,.07-.1.11-.16.05a.35.35,0,0,1,0-.27c0-.08.06-.12.06-.2Z"/><path class="cls-13" d="M19.89,18.24a0,0,0,0,0,0,0c-.07.12-.16.22-.25.08a.34.34,0,0,1,0-.35c.08-.14.16-.12.25,0v0a.25.25,0,0,1,0,.21"/><path class="cls-9" d="M20.68,21.56a.4.4,0,0,1,0-.42c.05-.09.12-.05.18,0a.39.39,0,0,1,0,.43c-.06.07-.12.08-.16-.05"/><path class="cls-14" d="M19.35,23c.12-.29.16-.3.28-.09a.47.47,0,0,1,0,.35l-.06.07a.12.12,0,0,1-.15,0,.33.33,0,0,1,0-.35"/><path class="cls-15" d="M20.62,22.73a.54.54,0,0,1,.09.37.25.25,0,0,1-.11.21c-.06,0-.1-.06-.12-.15s0-.14,0-.21.05-.29.17-.22"/><path class="cls-16" d="M20.93,18.75a.85.85,0,0,1,.16,0c.06,0,.1.08.12.19a.17.17,0,0,1-.1.19c-.06,0-.13.06-.2,0s-.1-.27,0-.37"/><path class="cls-17" d="M18,22.58c-.05.12-.13.16-.22.13a.2.2,0,0,1-.12-.18.18.18,0,0,1,.11-.2l.07,0a.09.09,0,0,1,.1,0,.2.2,0,0,1,.06.26"/><path class="cls-18" d="M19.67,22.9c0-.09,0-.2.11-.23s.13.13.15.26a.54.54,0,0,1,0,.18.3.3,0,0,1,0,.1.14.14,0,0,1-.16.06.08.08,0,0,1,0,0,.42.42,0,0,1,0-.33"/><path class="cls-19" d="M20.6,18.19c.06-.05.12-.11.19-.09a.21.21,0,0,1,.13.19c0,.1,0,.16-.1.18l-.16.05c-.13-.11-.14-.17-.06-.33"/><path class="cls-20" d="M19,17.5a.56.56,0,0,1,.06-.41c0-.06.08-.13.14-.08a.3.3,0,0,1,.05.25l0,.15a.27.27,0,0,1-.08.14c-.05,0-.11.09-.14-.05"/><path class="cls-21" d="M18.1,22.11c.06-.15.16-.16.25-.11a.21.21,0,0,1,.07.3.33.33,0,0,1-.25.09c-.06,0-.1-.06-.11-.16a.16.16,0,0,1,0-.12"/><path class="cls-22" d="M19.18,23.28c-.07,0-.17,0-.18-.15s.06-.34.19-.36a.46.46,0,0,1,.12.23.49.49,0,0,1-.06.25s0,.05-.07,0"/><path class="cls-23" d="M18.56,23.23c.08,0,.16,0,.15.2s-.13.28-.21.26-.11-.15-.07-.28.09-.11.13-.19Z"/><path class="cls-24" d="M19.46,17.4c0-.18.1-.36.18-.36s.09.08.09.19-.11.34-.19.33-.09-.08-.08-.16"/><path class="cls-25" d="M21.17,20.18a.18.18,0,0,1,.16,0,.32.32,0,0,1,.11.32c-.05.16-.13.1-.21,0s-.08,0-.1-.07-.05-.23,0-.3"/><path class="cls-26" d="M20.79,22.33c0-.11,0-.18.1-.15a.35.35,0,0,1,.13.29c0,.1,0,.21-.08.25s-.1,0-.13-.12a.24.24,0,0,1,0-.15.13.13,0,0,1,0-.12"/><path class="cls-27" d="M20.25,23.18l.05.12a.66.66,0,0,1,0,.28c0,.09-.05.23-.13.19s-.08-.22-.09-.36a.29.29,0,0,1,0-.16c0-.06.08-.13.15-.07"/><path class="cls-28" d="M21.19,20.87c.1,0,.2.17.2.32s0,.16-.1.16-.2-.19-.19-.33,0-.14.09-.15"/><path class="cls-29" d="M21,21.85c0-.1,0-.23.05-.28s.1,0,.14.05a.48.48,0,0,1,.08.3c0,.07,0,.12-.07.13S21.06,22,21,21.9l0-.06Z"/><path class="cls-30" d="M17.93,18.62a.48.48,0,0,1-.07-.18c0-.14,0-.3.06-.36s.13.08.16.2a.44.44,0,0,1,0,.2c0,.14-.07.22-.17.14"/><path class="cls-31" d="M18.62,17.68a.87.87,0,0,1,0-.36c0-.1.07-.18.14-.15s.06.14.07.24,0,.09,0,.14a.13.13,0,0,1,0,.06.35.35,0,0,1-.07.12c-.06.05-.11.07-.15-.05"/><path class="cls-32" d="M17.59,19.9c-.09,0-.19-.16-.19-.31s0-.17.09-.18.17.15.18.3,0,.19-.08.19"/><path class="cls-33" d="M19.46,24l-.06,0s-.1.06-.13,0a.3.3,0,0,1,0-.23l0-.14v0l0-.05c.07-.06.15-.12.18.08s0,.25,0,.38Z"/><path class="cls-34" d="M19.1,23.57c0,.22-.12.42-.2.39s-.09-.06-.09-.16.13-.35.21-.33a.11.11,0,0,1,.08.1"/><path class="cls-35" d="M20.05,17.26c.06,0,.1,0,.1.16s-.1.3-.19.3-.1,0-.1-.16.09-.3.19-.3"/><path class="cls-36" d="M20.24,17.77c0-.06.08-.13.14-.14s.13,0,.16.08a.25.25,0,0,1-.07.26s0,0-.06.05a.1.1,0,0,1-.11,0c-.09,0-.12-.14-.06-.29"/><path class="cls-37" d="M18.32,23.09a.15.15,0,0,1-.07.14c-.09.07-.18.07-.22-.08a.18.18,0,0,1,.12-.25c.06-.13.12-.07.18,0a.15.15,0,0,1,0,.19"/><path class="cls-38" d="M17.93,19.28c.07-.13.14-.08.19,0a.42.42,0,0,1,0,.39c-.06.11-.13.08-.19,0a2.47,2.47,0,0,1,0-.39"/><path class="cls-39" d="M20.92,20.45c-.11,0-.2,0-.24-.21s.07-.18.14-.19.08,0,.12,0,0,0,0,0,0,.29-.07.37"/><path class="cls-40" d="M18.69,22.49c0,.18-.05.29-.15.32s0,.07-.07.06a.29.29,0,0,1-.13-.23c0-.09,0-.16.07-.19s.19-.07.28,0"/><path class="cls-41" d="M20.79,22.33v.12c-.05.08-.05.23-.13.26s-.15-.1-.14-.27,0-.06,0-.1.12-.17.18,0,0,.09.07,0"/><path class="cls-42" d="M18.86,16.56c0,.14,0,.31-.14.34s-.08-.09-.08-.18,0-.31.14-.35.07.1.08.19"/><path class="cls-43" d="M18.23,21.66c0,.27-.11.24-.18.32a.11.11,0,0,1-.11,0c0-.1-.14-.2,0-.33a.3.3,0,0,1,.3.05"/><path class="cls-44" d="M18.32,17c0,.12,0,.28-.12.29s-.08-.11-.08-.21,0-.28.11-.3.07.12.09.22"/><path class="cls-45" d="M20.11,23.28l0,.13s-.09.16-.16.07,0,0,0,0a.31.31,0,0,1,0-.25v-.11S20,23,20,23h.06a.46.46,0,0,1,.05.29"/><path class="cls-46" d="M17.06,21.11c-.1,0-.18-.08-.2-.25s0-.13.09-.12a.25.25,0,0,1,.2.25c0,.11,0,.12-.09.12"/><path class="cls-47" d="M18.64,18.09a.25.25,0,0,1-.1.15c-.14-.08-.16-.27-.06-.46a.1.1,0,0,1,.14,0c.09.1.06.23,0,.36Z"/><path class="cls-48" d="M18.29,18.6l-.05.06c-.1,0-.13-.06-.14-.19a.58.58,0,0,1,0-.19c0-.12.07-.16.14-.12s.08.13.09.22a.36.36,0,0,1-.06.22"/><path class="cls-49" d="M20.65,23.76c0-.14,0-.28.1-.27s.09.14.09.26,0,.25-.11.24-.08-.14-.08-.23"/><path class="cls-50" d="M18.49,22.86l.05-.05c.15.15.15.21,0,.42h0c-.08,0-.15,0-.19-.13s0-.22.12-.23"/><path class="cls-51" d="M19.18,16.58c0-.16.1-.34.16-.33s.07.09.06.17,0,.3-.16.32-.06-.09-.06-.16"/><path class="cls-52" d="M18.1,19c-.06,0-.1.22-.19.08a.45.45,0,0,1,0-.41c.14-.11.18.09.23.23a.12.12,0,0,1,0,.1"/><path class="cls-53" d="M19.7,23.22h0a.62.62,0,0,1,0,.27c0,.06,0,.13-.07.14s-.12.06-.17-.05a.34.34,0,0,1,0-.31l0-.06s.08-.06.13,0"/><path class="cls-54" d="M20.84,21.65c.07,0,.11.11.14.2h0c0,.1,0,.21-.05.26s-.11,0-.15-.12c-.06-.24-.05-.3.06-.33"/><path class="cls-55" d="M19.21,17.87v-.05a.32.32,0,0,1,0-.27.36.36,0,0,1,.1-.14c.05,0,.1,0,.12.06a.45.45,0,0,1-.07.35h0c0,.05-.09,0-.14.05"/><path class="cls-56" d="M21.87,20.76c0,.08-.05.09-.1.08s-.19-.18-.18-.29.05-.1.1-.09.19.17.18.3"/><path class="cls-57" d="M17.77,20.08l0,.05a.58.58,0,0,1,0,.23c-.09.1-.15,0-.22-.08a.14.14,0,0,1,0-.11c0-.08,0-.17,0-.2s.12.05.17.11"/><path class="cls-58" d="M20.1,24c0,.13,0,.27-.13.28s-.08-.11-.07-.2,0-.27.13-.28.07.11.07.2"/><path class="cls-59" d="M20.45,23c0,.17-.07.27-.18.19s-.05-.1-.06-.16a.06.06,0,0,1,0-.06.24.24,0,0,1,0-.08.43.43,0,0,1,0-.07.2.2,0,0,1,.08-.11c.11,0,.12.14.1.29"/><path class="cls-60" d="M17.86,17.71c0,.12,0,.24-.09.23s-.1-.13-.1-.25,0-.24.09-.23.09.15.1.25"/><path class="cls-47" d="M18.59,17.17c0,.12,0,.27-.12.28s-.08-.1-.07-.19,0-.28.11-.3.08.11.08.21"/><path class="cls-28" d="M21.15,20.46c0,.05,0,.1.08.09s0,0,0,.05c0,.26-.07.29-.2.16l0,0s0,0,0,0V20.5c.06-.16.13-.08.2,0"/><path class="cls-61" d="M20.55,23.64c0,.11,0,.25-.11.26s-.08-.11-.08-.2,0-.27.1-.28.08.11.09.22"/><path class="cls-62" d="M19.68,23.64l.05-.13s0,0,0,0a.38.38,0,0,1,.13.33s0,.08,0,.12-.06.11-.11.09-.07-.1-.07-.18,0-.14,0-.2"/><path class="cls-63" d="M18.15,22.82c-.07,0-.11-.1-.1-.24s.06-.13.11-.14a.11.11,0,0,1,.08,0c.08,0,.12.09.11.23s-.11.19-.2.15"/><path class="cls-64" d="M19.08,16.91c0,.1,0,.23-.13.26s-.07-.08-.07-.17,0-.28.14-.3.06.07.06.21"/><path class="cls-65" d="M17.46,22.09c.07,0,.17,0,.17.18a.14.14,0,0,1-.14.16c-.06,0-.15-.05-.15-.21s.08-.11.12-.13"/><path class="cls-66" d="M21.35,19.1a.19.19,0,0,1,.17.19c0,.1-.06.16-.13.15s-.15-.06-.16-.2.06-.13.12-.14"/><path class="cls-35" d="M19.92,18c.06-.29.13-.35.27-.24s0,.31-.13.37-.11,0-.14-.14Z"/><path class="cls-67" d="M17.8,23.13a.13.13,0,0,1-.13-.15c0-.15.08-.17.15-.17s.13,0,.13.15-.08.17-.15.17"/><path class="cls-68" d="M19.75,16.84s-.07-.05-.07-.13.1-.32.17-.32.07.05.07.13-.09.32-.17.32"/><path class="cls-69" d="M18.83,17.58v0c.07-.05.13-.09.19,0a.33.33,0,0,1,0,.24.4.4,0,0,1-.1.17h-.08a.23.23,0,0,1-.06-.12.77.77,0,0,1,0-.27"/><path class="cls-70" d="M20.69,17.54c-.06,0-.11,0-.1-.14s.09-.19.16-.2.11,0,.11.13a.2.2,0,0,1-.17.21"/><path class="cls-71" d="M21,20.09h0l0,0a.54.54,0,0,1,0-.19c.05-.14.12-.13.2,0s.16.16,0,.33-.11.06-.16-.05"/><path class="cls-72" d="M17.84,23.29c.06,0,.13,0,.12.14s-.09.18-.16.19-.12,0-.11-.14.09-.16.15-.19"/><path class="cls-73" d="M17.44,22.91a.18.18,0,0,1-.17-.19c0-.1.07-.16.13-.14s.16,0,.16.18-.07.13-.12.15"/><path class="cls-74" d="M20.64,19.81c-.06,0-.07-.1-.06-.19s.16-.1.24-.2.05,0,.07.06a.48.48,0,0,1,0,.18c-.06.21-.17.17-.28.15"/><path class="cls-75" d="M18.53,18.28c.11.26.09.43-.05.57a1.06,1.06,0,0,1-.09-.54c0-.1.09-.08.14,0"/><path class="cls-76" d="M17.09,20.23c-.08,0-.19-.15-.19-.28s0-.1.07-.1.19.15.2.26,0,.12-.08.12"/><path class="cls-77" d="M21.76,21.57c0,.08,0,.14-.07.13s-.16-.11-.17-.28,0-.14.06-.13.16.12.18.28"/><path class="cls-78" d="M18.15,17.71c0,.12,0,.24-.1.24s-.09-.13-.09-.26,0-.22.09-.22.09.14.1.24"/><path class="cls-79" d="M19.58,16.84c0,.14-.06.25-.15.28s-.08-.06-.07-.15.05-.27.14-.29.08.06.08.16"/><path class="cls-80" d="M19,22.91c0,.17-.12.23-.22.18a.21.21,0,0,1-.07-.25s0,0,0,0a.19.19,0,0,1,.19-.06.13.13,0,0,1,.09.16"/><path class="cls-81" d="M21.22,17.87a.13.13,0,0,1,.07.16c0,.13-.1.13-.17.12S21,18.13,21,18s0-.16.08-.17a.11.11,0,0,1,.14,0"/><path class="cls-82" d="M21,23c0-.09,0-.2.09-.19s.11.15.11.27,0,.2-.08.19-.1-.15-.12-.27"/><path class="cls-83" d="M19.18,24.05c0,.14-.06.25-.15.28s-.09,0-.08-.13.06-.25.15-.28.08,0,.08.13"/><path class="cls-84" d="M21,23.11c0,.1,0,.21-.08.2s-.11-.14-.11-.27,0-.2.09-.18.1.14.1.25"/><path class="cls-70" d="M20.23,17.1c-.05,0-.09,0-.08-.12a.27.27,0,0,1,.16-.26c.05,0,.1,0,.09.13s-.08.23-.17.25"/><path class="cls-85" d="M17.15,19a.31.31,0,0,1,.14.28c0,.08,0,.13-.07.13s-.16-.17-.16-.3,0-.12.09-.11"/><path class="cls-86" d="M20.74,18c-.06,0-.12,0-.11-.14s.08-.18.15-.18.12,0,.11.15-.08.16-.15.17"/><path class="cls-87" d="M19.46,24c.05,0,.11-.15.16,0a.36.36,0,0,1,0,.29c0,.05-.07.14-.12.1s0-.16,0-.25l0-.15Z"/><path class="cls-88" d="M21.41,22.07a.35.35,0,0,1,.14.3c0,.08,0,.14-.08.12s-.13-.14-.14-.29,0-.13.08-.13"/><path class="cls-89" d="M17.52,18.5c0,.09,0,.17-.07.16s-.13-.13-.13-.27,0-.16.07-.16.11.14.13.27"/><path class="cls-90" d="M18.22,23.35c.06,0,.12,0,.11.13a.21.21,0,0,1-.14.21c-.06,0-.11,0-.11-.13a.19.19,0,0,1,.14-.21"/><path class="cls-91" d="M18.24,24.16c-.06,0-.11,0-.1-.12s.08-.21.17-.23.09,0,.08.13-.08.21-.15.22"/><path class="cls-92" d="M21.5,21.1c-.06,0-.12-.1-.13-.25s0-.13.08-.12a.24.24,0,0,1,.16.26c0,.09,0,.12-.11.11"/><path class="cls-93" d="M17.6,18.3c0-.09,0-.18.09-.16s.1.16.11.28,0,.17-.08.15-.11-.14-.12-.27"/><path class="cls-94" d="M18.24,18.69a.51.51,0,0,1,.11.4c0,.11,0,.19-.11.17a1,1,0,0,1-.07-.56s0,0,.07,0"/><path class="cls-95" d="M18.23,17.63c.09-.18.15-.12.2.05a.53.53,0,0,1-.05.38c-.15,0-.13-.26-.15-.43"/><path class="cls-70" d="M20.38,17.21c.05,0,.1,0,.09.12s-.06.2-.14.22-.1,0-.1-.11.07-.21.15-.23"/><path class="cls-96" d="M20.25,22.86l0,.05c-.12,0-.19-.18-.19-.42s.15-.12.19.07,0,.2,0,.3"/><path class="cls-88" d="M21.26,22.45c0,.09,0,.18-.07.17s-.13-.14-.13-.28,0-.16.08-.15.12.14.12.26"/><path class="cls-97" d="M17.56,20.17v.11s0,.06,0,.12-.16.08-.24,0a.24.24,0,0,1,0-.22.08.08,0,0,1,.13,0s.07.05.11,0"/><path class="cls-98" d="M17.64,18.75c.12,0,.17.08.19.26s0,.22-.11.24,0,0,0,0a.88.88,0,0,1-.05-.46"/><path class="cls-99" d="M17.32,20c-.07,0-.13-.09-.15-.24s0-.15.08-.14.14.11.15.26,0,.13-.08.12"/><path class="cls-100" d="M18.91,15.71c0,.1,0,.24-.12.26s-.07-.08-.06-.15,0-.27.12-.3.06.09.06.19"/><path class="cls-101" d="M21.44,18.94a.15.15,0,0,1-.1-.19c0-.11.08-.11.14-.1s.12,0,.15.14-.13.11-.19.15"/><path class="cls-102" d="M20,22.49c0,.16.08.34.19.42v0c0,.1-.09.13-.16.06h0a.67.67,0,0,1,0-.5"/><path class="cls-103" d="M17.63,21.65c0-.09-.05-.14,0-.22s.18-.06.26,0l0,0c0,.2,0,.23-.16.25a.14.14,0,0,1-.09-.07"/><path class="cls-104" d="M18.23,16.18c0,.11,0,.24-.09.27s-.07-.09-.07-.18,0-.24.1-.26.06.08.06.17"/><path class="cls-105" d="M19.47,15.87c-.06,0-.08,0-.08-.09s0-.27.13-.32.07,0,.07.1a.45.45,0,0,1-.12.31"/><path class="cls-106" d="M20.19,18.47l-.08.09s-.09,0-.14,0-.06-.06,0-.14.19-.15.3-.2,0,0,.05.09,0,.14-.08.16"/><path class="cls-107" d="M17,23.05a.15.15,0,0,1-.15-.16c0-.1.06-.12.11-.11s.14,0,.15.15S17,23,17,23.05"/><path class="cls-108" d="M21.1,19.81a.29.29,0,0,0,0-.09c.06-.16.16-.14.25-.18s.08.13,0,.22-.09.11-.15.09l-.12,0"/><path class="cls-109" d="M18.56,16.38c0,.1,0,.23-.1.23s-.06-.1-.06-.17,0-.22.1-.24.06.08.06.18"/><path class="cls-110" d="M21.58,17.87s-.12,0-.12-.13.06-.14.12-.14.12,0,.12.13-.06.12-.12.14"/><path class="cls-111" d="M22,18.91a.18.18,0,0,1-.16-.17c0-.1.05-.12.1-.12s.15,0,.16.18-.06.09-.1.11"/><path class="cls-112" d="M21.46,20.23a.17.17,0,0,1-.09-.23c0-.13.11-.08.17,0a.23.23,0,0,1,.09.16c-.05.1-.11.11-.17.1"/><path class="cls-113" d="M21.33,19.54c-.07.13-.17.09-.25.18a.24.24,0,0,1,0-.26.16.16,0,0,1,.24.08"/><path class="cls-114" d="M16.66,22a.21.21,0,0,1-.18-.18c0-.06.05-.13.1-.11s.16.06.17.21-.06.07-.09.08"/><path class="cls-115" d="M19.13,15.92s.06.07.05.14,0,.26-.13.27-.06-.08-.05-.14,0-.24.13-.27"/><path class="cls-116" d="M17.58,21.3c-.1.07-.18,0-.24-.14s.07-.11.12-.12.1,0,.14,0,.09.18,0,.24"/><path class="cls-117" d="M20.06,18.13c.06,0,.13,0,.16.1s-.2.12-.3.19v-.13c0-.11.06-.19.14-.16"/><path class="cls-118" d="M17.45,23.69c.06,0,.11,0,.1.13s-.08.14-.14.13-.1,0-.09-.13.08-.12.13-.13"/><path class="cls-119" d="M17,22.2a.15.15,0,0,1,.13.17c0,.1-.06.11-.1.1s-.14,0-.14-.17.06-.09.11-.1"/><path class="cls-120" d="M22.09,20.4q0,.12-.09.09a.23.23,0,0,1-.15-.22c0-.08,0-.1.08-.08a.26.26,0,0,1,.16.21"/><path class="cls-121" d="M18.1,18.92c0-.11,0-.19.08-.21,0,.19.07.36.05.55-.09,0-.12-.1-.13-.23v-.11"/><path class="cls-122" d="M21.55,18.19a.12.12,0,0,1,.12.13c0,.06-.06.16-.12.14a.13.13,0,0,1-.11-.15c0-.12.06-.11.11-.12"/><path class="cls-123" d="M16.65,19.79a.27.27,0,0,1-.16-.24c0-.06,0-.11.06-.1s.13.1.16.24,0,.09-.06.1"/><path class="cls-124" d="M21.6,19.81a.18.18,0,0,1-.05-.19c0-.08.07-.08.12-.07s.1,0,.13.11-.11.18-.2.15"/><path class="cls-125" d="M16.82,20.46a.24.24,0,0,1-.15-.22c0-.06,0-.1.06-.09s.15.08.17.23a.07.07,0,0,1-.08.08"/><path class="cls-126" d="M17.8,21c.11,0,.23-.06.3.17-.1.11-.2.06-.31,0a.2.2,0,0,1,0-.14s0-.07.05-.07"/><path class="cls-127" d="M22.16,20.86c.08,0,.14.08.16.23s0,.09-.06.09-.18-.15-.17-.25,0-.07.07-.07"/><path class="cls-128" d="M17.62,21.1c-.09,0-.19-.06-.28.06-.07-.18-.05-.25.08-.25s.11.1.17.05,0,0,0,0a.15.15,0,0,1,0,.13"/><path class="cls-129" d="M21.11,23.74c0,.09,0,.19-.07.19s-.08-.11-.08-.2,0-.17.06-.17.08.09.09.18"/><path class="cls-130" d="M17.65,17c0,.08,0,.2-.07.19s-.08-.11-.08-.21,0-.19.07-.19.07.12.08.21"/><path class="cls-131" d="M16.77,21.19c.08,0,.13.08.16.19a.06.06,0,0,1-.07.08.19.19,0,0,1-.17-.2c0-.1,0-.07.08-.07"/><path class="cls-132" d="M18,17c0,.1,0,.21-.07.22s-.07-.1-.07-.18,0-.2.07-.21.07.09.07.17"/><path class="cls-133" d="M17.75,20.69v-.14a.18.18,0,0,1,.3,0,.22.22,0,0,1,0,.14.18.18,0,0,1-.25,0h0l0,0"/><path class="cls-134" d="M21.07,17.08c-.05,0-.1,0-.09-.11s.06-.16.12-.17.09,0,.09.1a.17.17,0,0,1-.12.18"/><path class="cls-135" d="M17.42,23.37c-.06,0-.12,0-.12-.13s.05-.12.1-.12.12,0,.12.12a.11.11,0,0,1-.1.13"/><path class="cls-136" d="M21.25,17.48c0,.1-.06.14-.12.15s-.11,0-.11-.12.07-.12.12-.14.09,0,.11.11"/><path class="cls-137" d="M17.27,21.83c0,.11,0,.18-.05.2S17,22,17,21.84s.18-.07.28,0"/><path class="cls-138" d="M19,22.91c-.07-.18-.18-.06-.28-.1a.3.3,0,0,1,.15-.19c.12,0,.17.08.13.29"/><path class="cls-139" d="M20.17,15.85c0,.11-.06.2-.14.23S20,16.06,20,16s.06-.24.14-.27.06,0,.06.12"/><path class="cls-140" d="M22.22,20.05c-.07,0-.12-.07-.14-.19a.08.08,0,0,1,0-.09c.08,0,.15,0,.2.14s0,.12-.09.14"/><path class="cls-141" d="M18.34,18.38l.06-.06c0,.18.05.35.08.52s-.1-.07-.14-.14a.69.69,0,0,1,0-.32"/><path class="cls-142" d="M19.76,16.1c0,.12-.05.22-.13.25s-.06,0-.05-.1.05-.23.13-.26.05,0,.05.11"/><path class="cls-143" d="M18,20.55h-.3c0-.08,0-.13,0-.19s.21,0,.27.19"/><path class="cls-144" d="M17.79,22a.28.28,0,0,1,.17-.05s.07,0,.09.05A.09.09,0,0,1,18,22c0,.11,0,.13-.06.14a.16.16,0,0,1-.2-.05c0-.06,0-.09,0-.14"/><path class="cls-145" d="M21.83,19.2c.06,0,.13,0,.15.15s-.05.1-.09.09a.16.16,0,0,1-.16-.16c0-.12.06-.06.1-.08"/><path class="cls-146" d="M19.37,23.38c0,.07-.05.14-.07.21h0c-.1,0-.13-.12-.1-.28s0,0,0,0l.06-.06c.1-.07.12.05.13.16"/><path class="cls-77" d="M21.79,21.23c0-.09,0-.1.07-.09a.22.22,0,0,1,.14.21c0,.08,0,.11-.07.09a.26.26,0,0,1-.14-.21"/><path class="cls-56" d="M22.12,22c0,.07,0,.12-.05.12s-.12-.1-.14-.24,0-.1,0-.09.13.09.15.21"/><path class="cls-147" d="M21.45,23.7c0,.07,0,.17-.07.17s-.08-.11-.08-.2,0-.17.06-.17.08.1.09.2"/><path class="cls-148" d="M17.49,17.94c-.06,0-.09-.1-.1-.19s0-.17.07-.17.08.1.09.19,0,.15-.06.17"/><path class="cls-149" d="M17.13,17.68a.28.28,0,0,1,.09.24c0,.06,0,.13,0,.12s-.1-.12-.1-.23,0-.12.06-.13"/><path class="cls-85" d="M16.79,18.56c.07,0,.11.1.13.22s0,.11-.05.11-.12-.11-.13-.23,0-.1.05-.1"/><path class="cls-150" d="M16.94,19.56a.23.23,0,0,1-.12-.21c0-.09,0-.12.07-.1a.25.25,0,0,1,.12.22c0,.06,0,.09-.07.09"/><path class="cls-151" d="M17.85,24.07s-.08,0-.08-.1.06-.15.12-.15.09,0,.09.09-.07.15-.13.16"/><path class="cls-152" d="M17.12,20.64a.19.19,0,0,1,0-.18.07.07,0,0,1,.1,0,.27.27,0,0,1,.14.21c-.08.11-.15.05-.23,0"/><path class="cls-153" d="M21.06,19.25c0,.28-.09.23-.18.24l-.06,0s0,0,0,0v-.09c.08-.1.16-.14.25-.1h0"/><path class="cls-154" d="M21.23,18.41c.07.17,0,.21-.07.24a.13.13,0,0,1-.16-.08c0-.21.14-.19.23-.16"/><path class="cls-155" d="M21.71,22.65c.06,0,.1.09.12.2s0,.14,0,.14-.11-.1-.13-.21,0-.12.05-.13"/><path class="cls-156" d="M20.68,16.31c0,.1-.07.17-.14.18s-.06,0-.05-.09.06-.19.14-.2.05,0,.05.11"/><path class="cls-157" d="M17.73,21.66c0,.06,0,.09,0,.13s-.2,0-.29.09h0c0-.2,0-.25.18-.23h.1"/><path class="cls-158" d="M21.4,22.77c.07,0,.1.11.1.22s0,.14-.05.13-.09-.1-.1-.21,0-.12,0-.14"/><path class="cls-159" d="M18.37,18.05c0,.09-.07.05-.11.06a.57.57,0,0,1,0-.48c.07.12,0,.33.14.42"/><path class="cls-160" d="M17.77,21.89V22c-.12.1-.23.12-.32-.1h0a.27.27,0,0,1,.32,0"/><path class="cls-70" d="M20.76,16.86c0,.11-.08.17-.14.17s-.06-.05-.06-.11.07-.16.13-.16.07,0,.07.1"/><path class="cls-161" d="M16.57,20.59c0,.06.09.09.05.18s-.09.05-.13,0a.18.18,0,0,1-.1-.19c.06-.07.12-.05.18,0"/><path class="cls-162" d="M17.75,20.69l0,0,0,.09c-.09.11-.17.09-.26,0a.22.22,0,0,1,0-.18c.07,0,.13,0,.19.05"/><path class="cls-163" d="M20.44,18.51l0,.06c-.08.17-.18.2-.3.18a.38.38,0,0,1,0-.19c0-.07.05-.09.09-.1a.12.12,0,0,1,.13.05"/><path class="cls-164" d="M17.54,20.82h.24s0,.12,0,.16l0,0c-.06,0-.11,0-.16,0h0a.58.58,0,0,1-.05-.14"/><path class="cls-165" d="M20.26,18.89a.1.1,0,0,1-.06-.1.7.7,0,0,1,.32-.14.09.09,0,0,1,0,.1l-.1.14a.22.22,0,0,1-.16,0"/><path class="cls-166" d="M18.07,22.22l-.08,0s-.09.06-.14,0a.23.23,0,0,1-.07-.14c.09,0,.19.09.27-.09a.22.22,0,0,0,.05.08l0,.11"/><path class="cls-167" d="M17.41,21.43c0,.2,0,.19-.12.17s-.09,0-.12-.12.16-.11.24-.05"/><path class="cls-168" d="M17.58,20.36c0,.09,0,.17,0,.24s-.18-.05-.23-.19a.37.37,0,0,0,.25-.05"/><path class="cls-169" d="M20.57,18.65a.24.24,0,0,1,.17-.1l.08.09c-.05.21-.15.18-.25.15h0a.2.2,0,0,1,0-.15"/><path class="cls-170" d="M18.1,21.24c0,.17-.09.16-.16.15a.84.84,0,0,1-.14-.06v0a.08.08,0,0,1,0-.07.24.24,0,0,1,.29,0"/><path class="cls-171" d="M17.9,21.65l0-.13c.1,0,.22-.05.29.14H17.9"/><path class="cls-172" d="M21,19.25a.49.49,0,0,1-.25.1.21.21,0,0,1,.05-.2c.07,0,.14-.06.19.06s0,0,0,0"/><path class="cls-173" d="M19.89,23.81a1.36,1.36,0,0,0-.13-.3c0-.15.09-.1.15-.05v0c0,.11,0,.23,0,.33"/><path class="cls-174" d="M17.41,21.43c-.08,0-.16-.06-.24.05-.06-.14,0-.2.06-.2s.15,0,.18.15"/><path class="cls-175" d="M20.55,18.19a.74.74,0,0,0,0,.14c-.07,0-.13.13-.21.08s0,0,0-.08v0a.23.23,0,0,1,.24-.14l0,.05"/><path class="cls-176" d="M20.9,19.62c.06.08,0,.16,0,.24s-.18.08-.26-.05c.08-.08.22,0,.26-.19"/><path class="cls-177" d="M18.1,21.24c-.1,0-.2,0-.3,0h0v-.14h.32a.1.1,0,0,1,0,.09"/><path class="cls-178" d="M17.27,21.83H17c0-.2.15-.2.28,0"/><path class="cls-179" d="M17.64,18.75a2.4,2.4,0,0,1,.05.46.37.37,0,0,1-.05-.46"/><path class="cls-180" d="M21.6,19.81c.07,0,.15,0,.2-.15a.21.21,0,0,1,0,.19c0,.07-.07.07-.11.06a.14.14,0,0,1-.13-.1"/><path class="cls-181" d="M20.52,18.15l-.24.13a.16.16,0,0,1,.1-.19s0,0,0,0,.09,0,.11.1"/><path class="cls-182" d="M19.19,23.32a.47.47,0,0,0,.1.28v0c-.05,0-.12.07-.15,0a.3.3,0,0,1,.05-.28"/><path class="cls-183" d="M21.23,18.41c-.08,0-.17,0-.23.16-.07-.18,0-.21.09-.23s.11,0,.14.07"/><path class="cls-184" d="M18.69,22.49H18.4c0-.06,0-.08,0-.08s.19-.13.25.08"/><path class="cls-185" d="M20.93,20l0,0c-.1,0-.21,0-.27.16-.05-.19,0-.24.11-.25s.09,0,.14.05"/><path class="cls-186" d="M17.12,20.64h.23c0,.14,0,.15-.09.14s-.11,0-.14-.14"/><path class="cls-187" d="M18.15,22.49c.07,0,0-.09,0-.14a.86.86,0,0,1,.27-.05s0,0,0,.06-.1.1-.15.12h-.1"/><path class="cls-188" d="M20.51,18.65a.58.58,0,0,1-.31.14v-.05l.3-.17s0,0,0,0,0,0,0,0h0"/><path class="cls-189" d="M17.8,20.73c.08,0,.16-.07.25,0-.06.19-.12.2-.25,0"/><path class="cls-190" d="M16,20.2a.18.18,0,0,1,.1.13s0,.07,0,.06-.08,0-.1-.12,0-.07,0-.07"/><path class="cls-191" d="M22.58,18.79c0,.07,0,.08-.06.07s-.09,0-.1-.1,0-.06.06-.06.08,0,.1.09"/><path class="cls-192" d="M21.44,18.94c0-.1.14,0,.19-.15,0,.19,0,.23-.19.15"/><path class="cls-193" d="M22.81,20.22c0,.06,0,.06,0,.05a.13.13,0,0,1-.09-.13c0-.06,0-.06,0-.05a.14.14,0,0,1,.1.13"/><path class="cls-194" d="M17.59,21.38l.05-.05a.15.15,0,0,1,.16,0h0c0,.06.06,0,.05.1h-.26s0,0,0-.05"/><path class="cls-195" d="M19,14.8c0,.06,0,.14-.07.17s-.05,0,0-.08,0-.15.07-.17,0,0,0,.08"/><path class="cls-196" d="M20.79,19.44h0c-.07.12-.17.1-.24.18,0-.22.12-.18.21-.18"/><path class="cls-197" d="M18.5,15.75a.06.06,0,0,1,0-.08c0-.07,0-.15.06-.16s0,0,0,.07,0,.14-.06.17"/><path class="cls-198" d="M16.56,23c0,.07,0,.08,0,.07s-.08,0-.09-.08,0-.07,0-.08.08,0,.09.09"/><path class="cls-199" d="M22.34,19.49s-.09,0-.09-.12,0-.06.05-.05a.12.12,0,0,1,.09.12s0,0-.05,0"/><path class="cls-200" d="M17.93,19.28a.74.74,0,0,1,0,.39.44.44,0,0,1,0-.39"/><path class="cls-201" d="M16.07,21.58s.09,0,.1.11,0,.07-.05.07a.11.11,0,0,1-.1-.11c0-.06,0-.06.05-.07"/><path class="cls-202" d="M22.39,20.54a.11.11,0,0,1,.08.12s0,.07,0,.05a.13.13,0,0,1-.09-.12c0-.05,0-.05.05-.05"/><path class="cls-203" d="M20.57,18.79c.08-.05.18,0,.25-.15h0v.09c-.06.1-.14.09-.21.13l-.06,0v0"/><path class="cls-204" d="M16.6,22.44a.1.1,0,0,1-.08-.09c0-.06,0-.07.05-.07a.1.1,0,0,1,.08.09c0,.06,0,.06,0,.07"/><path class="cls-205" d="M19.25,15.23a.06.06,0,0,1,0,.08c0,.07,0,.14-.07.16s0,0,0-.08a.26.26,0,0,1,.06-.16"/><path class="cls-206" d="M18.13,15.27s0,.06,0,.11,0,.13-.05.13,0-.06,0-.11,0-.12.06-.13"/><path class="cls-207" d="M16.34,19.86q.07,0,.09.12s0,.06,0,.06-.08,0-.09-.13,0-.05,0-.05"/><path class="cls-208" d="M22,18.13s.08,0,.08.08a.06.06,0,0,1-.06.07s-.06,0-.07-.08,0-.06.05-.07"/><path class="cls-209" d="M22,17.44s.07,0,.08.08,0,.07-.06.07-.08,0-.08-.09,0-.05.06-.06"/><path class="cls-210" d="M17.09,23.46c0,.06,0,.07-.05.07s-.07,0-.07-.06,0-.07.05-.08.06,0,.07.07"/><path class="cls-211" d="M17.46,16.3c0,.05,0,.12-.05.12a.13.13,0,0,1,0-.1c0-.06,0-.11.05-.11s0,.06,0,.09"/><path class="cls-212" d="M19.93,15.38a.18.18,0,0,1-.05.22l0,0a.21.21,0,0,1,.09-.19"/><path class="cls-213" d="M16.24,19.18s0,.06,0,.05a.13.13,0,0,1-.08-.13s0-.07,0-.05a.17.17,0,0,1,.08.13"/><path class="cls-214" d="M19.78,14.71a.26.26,0,0,1-.07.24s0,0,0,0,0-.17.11-.19"/><path class="cls-215" d="M19.92,23c0-.12,0-.26-.14-.29.15-.06.16.1.16.27,0,0,0,0,0,0"/><path class="cls-216" d="M21.43,16.63s-.05,0-.06-.05,0-.09.06-.1.05,0,.06.05a.11.11,0,0,1-.06.1"/><path class="cls-217" d="M16.42,21.13c0,.06,0,.07-.05.06a.08.08,0,0,1-.08-.08c0-.05,0-.08,0-.07a.11.11,0,0,1,.1.09"/><path class="cls-218" d="M22.74,21.49c0,.05,0,.07,0,.06a.15.15,0,0,1-.09-.13s0-.05,0-.05.08.06.1.12"/><path class="cls-219" d="M20.42,15.2c0,.07,0,.12-.08.13s0,0,0-.07,0-.12.08-.12,0,0,0,.06"/><path class="cls-220" d="M21.46,20.23l.17-.1c0,.26-.1.14-.17.1"/><path class="cls-221" d="M22.45,22.51s0,.06,0,0a.18.18,0,0,1-.07-.13s0-.05,0,0,.06.05.07.12"/><path class="cls-222" d="M20.87,15.91s0,0,0-.06a.12.12,0,0,1,.08-.11s0,0,0,.06,0,.1-.08.11"/><path class="cls-223" d="M22.25,21.61a.12.12,0,0,1,.08.11s0,.07,0,.06a.15.15,0,0,1-.07-.12c0-.05,0-.05,0-.05"/><path class="cls-224" d="M16.57,20.59h-.18c.05-.13.07-.13.18,0"/><path class="cls-225" d="M21.47,17.27s0,0,0-.05a.08.08,0,0,1,.06-.09.07.07,0,0,1,.06.07.06.06,0,0,1-.07.07"/><path class="cls-226" d="M16.94,17.3c0,.05,0,.1,0,.09s0-.05,0-.1,0-.08,0-.09.05.06.06.1"/><path class="cls-227" d="M17.26,17.09s0,.05,0,.09,0,.1,0,.11-.05,0-.05-.09a.13.13,0,0,1,0-.11"/><path class="cls-228" d="M17.86,16.3c0,.06,0,.11,0,.11s-.05-.06,0-.12,0-.09,0-.09,0,.07,0,.1"/><path class="cls-229" d="M20.94,16.54s0,0,0-.05,0-.09.07-.1,0,0,0,.07a.07.07,0,0,1-.06.08"/><path class="cls-230" d="M19.3,22.86V23a.94.94,0,0,1-.1-.23s.08,0,.11.09"/><path class="cls-231" d="M16.55,18.23s0,.05,0,.05-.06-.05-.07-.1,0-.07,0-.06.05.05.07.11"/><path class="cls-232" d="M22.07,23.37s0,.07,0,.08-.06-.05-.06-.1,0-.07,0-.07,0,0,.06.09"/><path class="cls-233" d="M22.22,20.05l.09-.14s0,.08,0,.12-.07.07-.11,0"/><path class="cls-234" d="M16.62,19c0,.05,0,.07,0,.06a.15.15,0,0,1,0-.12s0-.05,0,0a.13.13,0,0,1,.06.1"/><path class="cls-235" d="M21.69,23.47s0,.08,0,.08,0-.05-.05-.1,0-.07,0-.07,0,.05,0,.09"/><path class="cls-236" d="M20.25,22.86c-.05-.09,0-.2,0-.3.05.05,0,.17.05.21s0,.06,0,.09"/><path class="cls-237" d="M20.3,23.58V23.3a.34.34,0,0,1,0,.28"/><path class="cls-238" d="M20.73,18.52s-.06,0-.08-.05h.17l-.09.05"/><path class="cls-239" d="M20,18.56h.14c-.05.06-.09.06-.14,0"/><path class="cls-240" d="M21.22,17.87h-.14c.05-.05.1-.05.14,0"/><path class="cls-241" d="M20.26,18.89h.16a.1.1,0,0,1-.16,0"/><path class="cls-242" d="M20.63,18.87a.29.29,0,0,1,.21-.12c0,.19-.13.15-.21.12"/><path class="cls-243" d="M17.77,21.89h-.32c0-.14.09-.07.13-.08a.55.55,0,0,1,.18,0,.11.11,0,0,1,0,.1"/><path class="cls-244" d="M20.44,18.43c-.05,0-.1,0-.14-.06l.21,0c0,.06-.05.07-.07.1"/><path class="cls-245" d="M20.29,18.51c.05-.07.1,0,.14,0v0h-.15"/><path class="cls-246" d="M17.8,21.33h-.16c0-.07.1,0,.15,0h0v0"/></g></g></g></g><ellipse class="cls-247" cx="17.43" cy="11.37" rx="1.5" ry="1.6"/><path d="M10.43,17.16c0-2.93-1.41-5.33-3.13-5.33s-3.13,2.4-3.13,5.33S10.43,20.08,10.43,17.16Z"/><g class="cls-248"><g id="Illustration_1-2" data-name="Illustration 1"><g class="cls-249"><g class="cls-250"><path class="cls-5" d="M10.75,19.3c-.05,0-.09.07-.13.07a.18.18,0,0,1-.2-.17.27.27,0,0,1,.1-.29c.1-.07.18-.07.25.08a.29.29,0,0,1,0,.31"/><path class="cls-6" d="M9.16,17.8a.63.63,0,0,1,0,.36c0,.12-.11.2-.19.15A.3.3,0,0,1,8.9,18s0-.06,0-.1A.33.33,0,0,1,9,17.71c.06-.07.12-.06.17,0a.08.08,0,0,1,0,.07"/><path class="cls-7" d="M11,20.78c0,.13,0,.29-.07.34s-.17,0-.22-.16a.37.37,0,0,1,0-.29c0-.09.11-.08.17,0l.1.11s0,0,0,0"/><path class="cls-8" d="M10.35,22.79a.5.5,0,0,1-.1-.39c0-.09,0-.19.1-.2s.12,0,.14.14,0,.12.06.15a.23.23,0,0,1,0,.14c0,.13-.08.26-.19.16"/><path class="cls-9" d="M10.75,22.15c0,.12-.09.2-.17.12a.49.49,0,0,1-.11-.41c0-.16.11-.17.19-.14s.14.2.09.43"/><path class="cls-10" d="M7.66,20.12c0-.14,0-.29.09-.33s.15.06.2.18a.37.37,0,0,1,0,.31c0,.08-.12.06-.17,0s-.06-.07-.09-.11a0,0,0,0,1,0-.05"/><path class="cls-11" d="M8.79,17.93a.53.53,0,0,1,0,.51c-.11.13-.18.08-.19-.14a2.17,2.17,0,0,1,0-.26v0c.06-.14.13-.23.22-.07"/><path class="cls-12" d="M9.3,17.75c.08,0,.17-.14.22,0a.43.43,0,0,1-.07.4c0,.07-.1.12-.16,0s0-.18,0-.28.07-.13.06-.22Z"/><path class="cls-13" d="M9.87,18.18s0,0,0,0-.17.23-.26.08a.38.38,0,0,1,0-.36c.09-.15.18-.13.27,0v0a.24.24,0,0,1,0,.21"/><path class="cls-9" d="M10.69,21.67a.48.48,0,0,1,0-.45c.07-.09.14,0,.19,0a.41.41,0,0,1,0,.46c-.06.07-.12.08-.17,0"/><path class="cls-14" d="M9.3,23.16c.13-.3.17-.32.29-.09a.45.45,0,0,1,0,.36.13.13,0,0,1-.05.07c-.06,0-.11.07-.16,0a.35.35,0,0,1,0-.37"/><path class="cls-15" d="M10.62,22.88a.59.59,0,0,1,.1.4.29.29,0,0,1-.11.22c-.07,0-.1-.07-.12-.16a1.7,1.7,0,0,1,0-.22c0-.16.05-.3.17-.24"/><path class="cls-16" d="M11,18.72h.17c.06,0,.11.09.12.2a.17.17,0,0,1-.1.2c-.07,0-.14.07-.21,0s-.1-.28,0-.39"/><path class="cls-17" d="M7.92,22.73c-.06.13-.14.17-.23.14a.19.19,0,0,1-.13-.19.18.18,0,0,1,.12-.21l.06,0a.11.11,0,0,1,.11,0,.22.22,0,0,1,.07.28"/><path class="cls-18" d="M9.64,23.07c0-.1,0-.21.12-.24s.13.13.15.27a.59.59,0,0,1,0,.19.17.17,0,0,1,0,.1c0,.07-.11.09-.17.06a.08.08,0,0,1,0,0,.44.44,0,0,1,0-.34"/><path class="cls-19" d="M10.61,18.14c.06-.06.12-.12.2-.09a.19.19,0,0,1,.13.19.18.18,0,0,1-.1.19l-.17.05c-.13-.11-.14-.17-.06-.34"/><path class="cls-20" d="M9,17.41A.5.5,0,0,1,9.05,17c0-.07.08-.14.14-.08s.06.15.05.25l0,.15a.23.23,0,0,1-.09.16S9,17.56,9,17.41"/><path class="cls-21" d="M8,22.24c.07-.16.17-.17.26-.11s.14.14.07.31-.17.08-.26.1S8,22.47,8,22.37a.14.14,0,0,1,0-.13"/><path class="cls-22" d="M9.13,23.46c-.08,0-.18,0-.19-.15s.06-.35.19-.38a.49.49,0,0,1,.13.25.51.51,0,0,1-.06.25s0,.06-.07,0"/><path class="cls-23" d="M8.48,23.41c.08,0,.17,0,.16.21s-.14.29-.22.27-.12-.16-.08-.29.1-.11.14-.19Z"/><path class="cls-24" d="M9.41,17.31c0-.19.11-.38.2-.37s.09.08.09.19-.12.36-.2.34-.09-.08-.09-.16"/><path class="cls-25" d="M11.2,20.22c.06,0,.11,0,.16,0a.32.32,0,0,1,.12.33c-.05.17-.14.11-.21,0s-.09,0-.11-.08-.06-.24,0-.31"/><path class="cls-26" d="M10.8,22.47c0-.11,0-.19.11-.16s.12.17.13.31,0,.22-.07.26-.11,0-.14-.12a.45.45,0,0,1,0-.16.28.28,0,0,1,0-.13"/><path class="cls-27" d="M10.24,23.36l.06.13a.72.72,0,0,1,0,.29c0,.09,0,.24-.13.2s-.09-.23-.09-.38a.24.24,0,0,1,0-.17c0-.06.08-.14.15-.07"/><path class="cls-28" d="M11.22,20.94c.1,0,.21.18.21.33s0,.17-.1.17-.21-.19-.2-.35,0-.14.09-.15"/><path class="cls-29" d="M11,22c0-.1,0-.23.06-.29s.1,0,.14.06a.49.49,0,0,1,.08.31c0,.07,0,.13-.07.14s-.13-.07-.17-.16L11,22Z"/><path class="cls-30" d="M7.83,18.59a.4.4,0,0,1-.08-.2c0-.13,0-.3.06-.37s.13.08.17.21a.47.47,0,0,1,0,.21c0,.15-.08.23-.17.15"/><path class="cls-31" d="M8.54,17.6a.92.92,0,0,1,0-.37c0-.11.08-.19.15-.16s.07.15.07.25,0,.1,0,.15a.13.13,0,0,1,0,.06.54.54,0,0,1-.07.13c-.06.05-.12.07-.16-.06"/><path class="cls-32" d="M7.46,19.92c-.08,0-.19-.16-.2-.31s0-.19.1-.2.18.16.19.32,0,.19-.09.19"/><path class="cls-33" d="M9.42,24.23l-.07,0s-.1.06-.14,0a.33.33,0,0,1,0-.24.83.83,0,0,1,0-.15v0a.14.14,0,0,1,0-.07c.08-.05.16-.12.19.09s0,.26,0,.39Z"/><path class="cls-34" d="M9.05,23.77c0,.23-.13.43-.22.41s-.09-.07-.09-.18.13-.36.22-.34a.11.11,0,0,1,.09.11"/><path class="cls-35" d="M10,17.16c.07,0,.11.06.11.17s-.11.32-.2.32-.11,0-.11-.17.1-.31.2-.32"/><path class="cls-36" d="M10.24,17.7c0-.06.07-.14.13-.15s.14,0,.17.08a.27.27,0,0,1-.06.28l-.07,0a.09.09,0,0,1-.11.05c-.1-.05-.13-.15-.06-.3"/><path class="cls-37" d="M8.23,23.27a.18.18,0,0,1-.07.15c-.09.06-.19.07-.24-.09s0-.23.14-.27.12-.07.18,0a.17.17,0,0,1,0,.2"/><path class="cls-38" d="M7.82,19.28c.08-.14.15-.09.2,0a.43.43,0,0,1,0,.41c-.06.11-.14.08-.19,0a2.58,2.58,0,0,1,0-.4"/><path class="cls-39" d="M11,20.51c-.12,0-.22,0-.26-.23s.08-.18.15-.2.08,0,.12,0l0,0a.37.37,0,0,1-.06.4"/><path class="cls-40" d="M8.62,22.64c0,.19,0,.3-.17.33s0,.08-.07.07a.32.32,0,0,1-.13-.25c0-.09,0-.16.07-.2s.2-.06.3.05"/><path class="cls-41" d="M10.8,22.47v.13c-.05.08,0,.24-.13.27s-.16-.1-.15-.29l0-.09c0-.19.12-.19.19,0s0,.09.06,0"/><path class="cls-42" d="M8.79,16.43c0,.14,0,.32-.15.35s-.08-.09-.08-.18,0-.33.15-.36.07.09.08.19"/><path class="cls-43" d="M8.13,21.77c0,.28-.11.25-.19.33s-.07,0-.1,0-.15-.21,0-.35a.3.3,0,0,1,.31.06"/><path class="cls-44" d="M8.23,16.91c0,.13,0,.29-.12.31S8,17.1,8,17s0-.29.11-.31.08.13.1.23"/><path class="cls-45" d="M10.1,23.46l0,.14c-.06,0-.1.17-.18.08s0,0,0,0a.41.41,0,0,1,0-.27v-.11c0-.05.08-.06.11-.09h0s0,0,0,0a.58.58,0,0,1,0,.3"/><path class="cls-46" d="M6.92,21.2c-.11,0-.19-.09-.22-.26s0-.15.1-.14a.29.29,0,0,1,.21.27c0,.12,0,.12-.09.13"/><path class="cls-47" d="M8.57,18a.31.31,0,0,1-.12.15c-.14-.09-.16-.29,0-.49a.1.1,0,0,1,.14,0c.1.11.07.24,0,.38Z"/><path class="cls-48" d="M8.19,18.57l0,.06c-.1,0-.13-.07-.14-.2a.65.65,0,0,1,0-.2c0-.12.08-.16.15-.13s.08.14.09.24a.35.35,0,0,1-.07.23"/><path class="cls-49" d="M10.66,24c0-.15,0-.29.1-.29s.1.15.1.28,0,.26-.12.25-.08-.15-.08-.24"/><path class="cls-50" d="M8.4,23a.12.12,0,0,0,0-.05c.16.16.16.23,0,.44h0c-.08,0-.16,0-.2-.15s0-.23.12-.24"/><path class="cls-51" d="M9.13,16.45c0-.16.1-.36.17-.34s.07.09.06.17-.06.32-.17.34-.06-.09-.06-.17"/><path class="cls-52" d="M8,19c-.07,0-.11.24-.2.09a.49.49,0,0,1,0-.43c.15-.12.18.09.24.24A.11.11,0,0,1,8,19"/><path class="cls-53" d="M9.67,23.41h0a.57.57,0,0,1,0,.29c0,.06,0,.14-.07.14s-.13.07-.18-.05a.38.38,0,0,1,0-.33l0-.06c.05,0,.09-.06.14,0"/><path class="cls-54" d="M10.86,21.76c.07,0,.11.11.14.2h0c0,.1,0,.22,0,.27s-.12,0-.16-.12c-.07-.26-.06-.32.06-.35"/><path class="cls-55" d="M9.16,17.8v-.05a.38.38,0,0,1,0-.28.45.45,0,0,1,.11-.15c.05,0,.11,0,.13.06a.46.46,0,0,1-.08.37h0c0,.06-.09.05-.14.06"/><path class="cls-56" d="M11.94,20.82c0,.09-.06.1-.11.09s-.2-.19-.19-.3,0-.1.1-.1.2.18.2.31"/><path class="cls-57" d="M7.66,20.12l0,.05a.88.88,0,0,1,0,.24c-.09.1-.17,0-.23-.09a.11.11,0,0,1,0-.11c0-.09,0-.17.05-.21s.12.05.18.12"/><path class="cls-58" d="M10.09,24.21c0,.13-.05.28-.14.29s-.08-.11-.07-.21,0-.29.13-.29.07.12.08.21"/><path class="cls-59" d="M10.45,23.12c0,.17-.07.28-.18.19s-.06-.1-.07-.16a.06.06,0,0,1,0-.06.19.19,0,0,1,0-.08.22.22,0,0,1,0-.08.14.14,0,0,1,.08-.11c.11,0,.12.14.1.3"/><path class="cls-60" d="M7.75,17.63c0,.13,0,.25-.09.25s-.11-.14-.11-.27,0-.25.09-.24.1.15.11.26"/><path class="cls-47" d="M8.51,17.07c0,.13,0,.28-.12.3s-.08-.11-.08-.21,0-.29.12-.31.08.11.08.22"/><path class="cls-28" d="M11.19,20.51s0,.1.08.1,0,0,0,.05c0,.27-.07.3-.21.16l0,0s0,0,0,0v-.2c.06-.16.14-.08.22,0"/><path class="cls-61" d="M10.56,23.84c0,.12,0,.26-.12.27s-.09-.11-.08-.21,0-.28.1-.29.09.12.1.23"/><path class="cls-62" d="M9.65,23.84l0-.13,0,0a.39.39,0,0,1,.14.34l0,.12c0,.07-.06.12-.11.1s-.07-.11-.07-.19,0-.14,0-.21"/><path class="cls-63" d="M8.06,23c-.08,0-.13-.1-.11-.25a.16.16,0,0,1,.11-.15h.09c.08,0,.12.1.11.25s-.11.2-.2.15"/><path class="cls-64" d="M9,16.8c0,.1,0,.24-.13.27s-.08-.09-.08-.18,0-.29.14-.32.08.08.07.23"/><path class="cls-65" d="M7.33,22.21c.08,0,.17,0,.18.2s-.09.17-.14.16-.16-.05-.16-.21.07-.12.12-.15"/><path class="cls-66" d="M11.39,19.09a.18.18,0,0,1,.17.19c0,.11-.05.17-.12.16s-.16-.06-.17-.2.06-.14.12-.15"/><path class="cls-35" d="M9.9,18c.06-.31.14-.37.28-.25s0,.32-.13.38-.12,0-.15-.14Z"/><path class="cls-67" d="M7.68,23.31a.14.14,0,0,1-.13-.16c0-.15.09-.18.16-.18s.14,0,.13.16a.16.16,0,0,1-.16.18"/><path class="cls-68" d="M9.72,16.72s-.07,0-.07-.14.1-.32.17-.33.08.05.08.14-.1.33-.18.33"/><path class="cls-69" d="M8.77,17.49v0c.07-.06.13-.1.2,0a.36.36,0,0,1,0,.25.33.33,0,0,1-.11.18l-.08,0a.52.52,0,0,1-.06-.13.68.68,0,0,1,0-.29"/><path class="cls-70" d="M10.7,17.46c-.06,0-.11,0-.1-.15s.09-.2.17-.21.11,0,.11.13-.1.21-.18.23"/><path class="cls-71" d="M11,20.13l0,0s0,0,0,0a.69.69,0,0,1,0-.2c.06-.15.13-.14.21-.05s.17.17,0,.35-.13.06-.17-.05"/><path class="cls-72" d="M7.73,23.47c.06,0,.13,0,.13.16a.19.19,0,0,1-.17.2c-.06,0-.13,0-.12-.16s.09-.16.16-.2"/><path class="cls-73" d="M7.31,23.07c-.09,0-.17,0-.18-.19s.08-.17.14-.14.16,0,.16.18-.07.14-.12.15"/><path class="cls-74" d="M10.65,19.84c-.06,0-.07-.11-.07-.2s.18-.11.25-.21.06,0,.08.06a.48.48,0,0,1,0,.18c-.06.23-.18.18-.29.17"/><path class="cls-75" d="M8.45,18.23c.11.27.09.45,0,.59a1.12,1.12,0,0,1-.1-.56c0-.11.1-.08.15,0"/><path class="cls-76" d="M6.94,20.28c-.08,0-.19-.17-.19-.3s0-.11.07-.11.2.16.21.28,0,.12-.09.13"/><path class="cls-77" d="M11.82,21.68c0,.08,0,.14-.08.13s-.16-.12-.18-.29,0-.15.07-.13.16.12.19.29"/><path class="cls-78" d="M8.05,17.64c0,.12,0,.24-.1.24s-.1-.14-.1-.26,0-.24.09-.23.1.14.11.25"/><path class="cls-79" d="M9.54,16.72c0,.14-.06.27-.16.3s-.08-.07-.07-.16.06-.28.15-.31.08.07.08.17"/><path class="cls-80" d="M8.91,23.08q-.08.27-.24.18c-.07,0-.09-.13-.07-.26s0,0,0,0a.2.2,0,0,1,.2-.06s.1.05.09.17"/><path class="cls-81" d="M11.26,17.8a.14.14,0,0,1,.07.17.14.14,0,0,1-.18.13A.12.12,0,0,1,11,18c0-.11,0-.17.08-.18a.12.12,0,0,1,.15,0"/><path class="cls-82" d="M11.07,23.17c0-.09,0-.21.09-.19s.11.15.12.28,0,.2-.09.2-.1-.16-.12-.29"/><path class="cls-84" d="M11,23.29c0,.1,0,.22-.09.21s-.11-.15-.11-.29,0-.2.09-.19.1.15.11.27"/><path class="cls-70" d="M10.23,17c-.06,0-.1,0-.09-.12a.27.27,0,0,1,.17-.27s.1,0,.09.13-.09.24-.17.26"/><path class="cls-85" d="M7,19a.31.31,0,0,1,.14.3c0,.08,0,.14-.07.14s-.17-.18-.16-.32S7,19,7,19"/><path class="cls-86" d="M10.75,18c-.06,0-.12,0-.11-.15s.08-.19.16-.19.12,0,.11.16-.08.17-.16.18"/><path class="cls-88" d="M11.46,22.2a.33.33,0,0,1,.13.31c0,.08,0,.14-.08.13s-.14-.15-.14-.31,0-.13.09-.13"/><path class="cls-89" d="M7.4,18.46c0,.09,0,.17-.08.17s-.13-.14-.14-.28,0-.18.07-.17.12.15.15.28"/><path class="cls-90" d="M8.13,23.54c.06,0,.12,0,.11.14s-.07.2-.15.21-.12,0-.11-.13.08-.2.15-.22"/><path class="cls-92" d="M11.55,21.18c-.06,0-.13-.1-.14-.26s0-.14.09-.12a.25.25,0,0,1,.16.27c0,.09,0,.12-.11.11"/><path class="cls-93" d="M7.48,18.25c0-.09,0-.19.09-.17s.11.17.11.3,0,.17-.08.16-.11-.15-.12-.29"/><path class="cls-94" d="M8.14,18.66a.48.48,0,0,1,.12.42c0,.11,0,.19-.12.18a1.16,1.16,0,0,1-.07-.59,0,0,0,0,1,.07,0"/><path class="cls-95" d="M8.14,17.55c.09-.19.15-.12.2.05a.54.54,0,0,1-.05.4c-.16,0-.13-.27-.15-.45"/><path class="cls-70" d="M10.37,17.11c.07,0,.11,0,.11.12s-.08.22-.16.23-.1,0-.1-.11.08-.22.15-.24"/><path class="cls-96" d="M10.24,23l0,0c-.12,0-.2-.2-.2-.44s.16-.13.2.07,0,.21,0,.32"/><path class="cls-88" d="M11.3,22.6c0,.09,0,.19-.08.17s-.13-.15-.13-.29,0-.17.08-.15.12.14.13.27"/><path class="cls-97" d="M7.43,20.21v.11s.05.07,0,.13a.15.15,0,0,1-.25,0,.24.24,0,0,1,0-.23.09.09,0,0,1,.14,0s.07,0,.11,0"/><path class="cls-98" d="M7.52,18.72c.13,0,.18.09.2.28s0,.22-.12.24,0,0,0,0a.9.9,0,0,1-.05-.49"/><path class="cls-99" d="M7.18,20A.28.28,0,0,1,7,19.78c0-.1,0-.16.08-.14s.15.11.16.26,0,.14-.09.13"/><path class="cls-100" d="M8.85,15.53c0,.12,0,.26-.14.28s-.06-.08-.05-.16,0-.28.13-.3.06.09.06.18"/><path class="cls-101" d="M11.48,18.92a.16.16,0,0,1-.1-.2.12.12,0,0,1,.14-.11.17.17,0,0,1,.16.15c0,.2-.13.12-.2.16"/><path class="cls-102" d="M10,22.64a.9.9,0,0,0,.2.44v0c0,.11-.1.13-.16.06h0a.69.69,0,0,1,0-.53"/><path class="cls-103" d="M7.51,21.76c0-.1,0-.15,0-.24s.19-.06.28,0l0,.05c0,.2,0,.24-.16.26s-.07,0-.1-.07"/><path class="cls-104" d="M8.14,16c0,.11,0,.25-.1.28S8,16.22,8,16.13s0-.25.1-.27.07.08.07.17"/><path class="cls-105" d="M9.42,15.71c-.06,0-.07,0-.07-.09a.37.37,0,0,1,.13-.34s.08,0,.07.1a.46.46,0,0,1-.13.33"/><path class="cls-106" d="M10.18,18.42l-.08.1a.12.12,0,0,1-.15,0,.14.14,0,0,1,0-.15c.08-.15.2-.16.31-.21s0,0,0,.09,0,.14-.08.16"/><path class="cls-107" d="M6.83,23.22c-.07,0-.15,0-.15-.16s.06-.13.11-.12.15,0,.15.16-.06.11-.11.12"/><path class="cls-108" d="M11.13,19.83a.29.29,0,0,0,0-.09c.06-.17.17-.15.26-.19s.08.13,0,.23a.12.12,0,0,1-.16.1l-.12-.05"/><path class="cls-109" d="M8.48,16.24c0,.1,0,.24-.11.24s-.06-.1-.06-.18,0-.23.11-.25.06.09.06.19"/><path class="cls-110" d="M11.63,17.8c-.05,0-.12,0-.13-.13s.07-.15.12-.15a.12.12,0,0,1,.13.13c0,.13-.06.13-.12.15"/><path class="cls-111" d="M12.09,18.88a.16.16,0,0,1-.16-.17c0-.1.05-.13.09-.12s.16,0,.17.19-.06.09-.1.1"/><path class="cls-112" d="M11.5,20.27a.18.18,0,0,1-.09-.23c0-.15.12-.09.18,0a.23.23,0,0,1,.09.17.15.15,0,0,1-.18.1"/><path class="cls-113" d="M11.37,19.55c-.07.13-.18.1-.26.19a.26.26,0,0,1,0-.28.18.18,0,0,1,.25.09"/><path class="cls-114" d="M6.5,22.07a.21.21,0,0,1-.19-.18c0-.07.05-.14.1-.12s.17.06.18.21-.06.08-.09.09"/><path class="cls-115" d="M9.07,15.76s.06.08.06.14-.05.28-.14.29-.06-.08-.05-.15,0-.25.13-.28"/><path class="cls-116" d="M7.46,21.39c-.11.07-.19,0-.26-.15s.08-.11.13-.12.1,0,.15,0,.09.19,0,.25"/><path class="cls-117" d="M10,18.08c.06,0,.14,0,.17.1s-.21.13-.31.2v-.14c0-.11.06-.19.14-.16"/><path class="cls-118" d="M7.33,23.89s.11,0,.1.14a.15.15,0,0,1-.15.14s-.1,0-.09-.14.08-.13.14-.14"/><path class="cls-119" d="M6.87,22.34c.06,0,.13,0,.14.18a.09.09,0,0,1-.11.1c-.06,0-.14,0-.14-.18s.06-.1.11-.1"/><path class="cls-120" d="M12.16,20.45q0,.12-.09.09a.23.23,0,0,1-.16-.23c0-.08,0-.1.08-.08s.14.09.17.22"/><path class="cls-121" d="M8,18.9c0-.11,0-.2.08-.23,0,.21.07.38.06.59-.09,0-.13-.11-.14-.25V18.9"/><path class="cls-122" d="M11.6,18.13c.06,0,.13,0,.13.15s-.07.16-.13.14a.14.14,0,0,1-.12-.16c0-.12.07-.12.12-.13"/><path class="cls-123" d="M6.49,19.81a.28.28,0,0,1-.17-.25c0-.06,0-.11.06-.1s.14.1.17.24,0,.1-.06.11"/><path class="cls-124" d="M11.65,19.83a.18.18,0,0,1-.05-.19c0-.09.07-.1.12-.08a.2.2,0,0,1,.14.12c0,.23-.12.18-.21.15"/><path class="cls-125" d="M6.66,20.51a.25.25,0,0,1-.15-.23c0-.07,0-.11.06-.09a.23.23,0,0,1,.17.24c0,.06,0,.08-.08.08"/><path class="cls-126" d="M7.69,21.05c.12,0,.24-.06.31.18-.1.12-.21.07-.32,0s0-.08,0-.14a.08.08,0,0,1,.05-.08"/><path class="cls-127" d="M12.24,20.93a.27.27,0,0,1,.16.25c0,.06,0,.09-.06.09s-.19-.17-.18-.26,0-.08.08-.08"/><path class="cls-128" d="M7.5,21.18c-.1,0-.2-.06-.3.06-.06-.18,0-.25.09-.26s.11.11.18.06,0,0,0,0a.19.19,0,0,1,0,.13"/><path class="cls-129" d="M11.14,23.94c0,.1,0,.2-.07.2S11,24,11,23.94s0-.18.07-.19.08.1.09.19"/><path class="cls-130" d="M7.53,16.9c0,.09,0,.21-.08.2s-.08-.12-.08-.22,0-.2.08-.2.07.13.08.22"/><path class="cls-131" d="M6.61,21.27c.09,0,.14.09.16.2s0,.1-.06.09a.19.19,0,0,1-.18-.21c0-.1,0-.07.08-.08"/><path class="cls-132" d="M7.89,16.86c0,.11,0,.22-.08.23s-.08-.11-.08-.19,0-.21.08-.22.07.1.08.18"/><path class="cls-133" d="M7.64,20.75v-.14c.1-.12.2-.1.3,0a.2.2,0,0,1,0,.15c-.09.09-.17.11-.26.05h0a.08.08,0,0,1,0-.05"/><path class="cls-134" d="M11.09,17a.1.1,0,0,1-.09-.11c0-.13.06-.17.13-.18s.1,0,.09.11-.07.15-.13.18"/><path class="cls-135" d="M7.29,23.56c-.06,0-.13,0-.13-.14s.06-.12.11-.12.13,0,.13.12-.06.13-.11.14"/><path class="cls-136" d="M11.28,17.39c0,.11-.06.15-.12.16s-.11,0-.11-.12.07-.13.12-.15.09,0,.11.11"/><path class="cls-137" d="M7.13,22c0,.11,0,.19,0,.2s-.2,0-.24-.19.19-.07.29,0"/><path class="cls-138" d="M8.91,23.08c-.08-.2-.2-.07-.29-.11a.25.25,0,0,1,.15-.19c.12,0,.18.08.14.3"/><path class="cls-139" d="M10.16,15.68a.32.32,0,0,1-.14.25s-.07,0-.07-.09.07-.25.15-.28.06,0,.06.12"/><path class="cls-140" d="M12.3,20.09c-.08,0-.13-.09-.15-.21a.08.08,0,0,1,0-.09c.09,0,.16,0,.21.14s0,.13-.09.16"/><path class="cls-141" d="M8.25,18.33l.06-.06.09.55c-.08,0-.11-.07-.15-.15a.78.78,0,0,1,0-.34"/><path class="cls-142" d="M9.73,16c0,.12-.05.23-.13.26s-.07,0-.06-.1.05-.25.14-.28.05,0,.05.12"/><path class="cls-143" d="M7.93,20.6h-.3c0-.08,0-.12,0-.19s.22,0,.27.19"/><path class="cls-144" d="M7.68,22.1a.28.28,0,0,1,.17-.05s.07,0,.09.05v.06c0,.11,0,.13-.06.15a.19.19,0,0,1-.22-.06c0-.06,0-.1,0-.15"/><path class="cls-145" d="M11.89,19.2c.07,0,.14,0,.15.15s0,.1-.09.1a.19.19,0,0,1-.17-.17c0-.13.07-.06.11-.08"/><path class="cls-146" d="M9.33,23.57c0,.08-.06.15-.08.22h0c-.1,0-.13-.13-.11-.3v0l.06-.05c.11-.08.12,0,.14.16"/><path class="cls-77" d="M11.85,21.32c0-.09,0-.11.07-.1s.13.1.15.23,0,.11-.08.09a.28.28,0,0,1-.14-.22"/><path class="cls-56" d="M12.19,22.13c0,.08,0,.13,0,.13S12,22.15,12,22s0-.1,0-.09.13.09.15.21"/><path class="cls-147" d="M11.49,23.91c0,.07,0,.17-.06.17s-.09-.11-.09-.21,0-.18.06-.18.08.11.09.22"/><path class="cls-148" d="M7.36,17.88a.25.25,0,0,1-.1-.21c0-.08,0-.18.07-.18s.08.11.09.2a.19.19,0,0,1-.06.19"/><path class="cls-149" d="M7,17.61c.07,0,.1.13.11.24S7.07,18,7,18s-.1-.12-.11-.24,0-.13.06-.13"/><path class="cls-85" d="M6.64,18.52c.07,0,.11.11.12.23s0,.12,0,.11-.12-.1-.13-.23,0-.11.06-.11"/><path class="cls-150" d="M6.79,19.57a.3.3,0,0,1-.13-.22c0-.09,0-.12.07-.1s.12.1.13.23,0,.09-.07.09"/><path class="cls-152" d="M7,20.7a.17.17,0,0,1,0-.19.07.07,0,0,1,.1,0,.26.26,0,0,1,.14.22c-.07.11-.15.06-.23,0"/><path class="cls-153" d="M11.09,19.25c0,.29-.09.24-.19.25l-.07-.06s0,0,0,0v-.09c.08-.1.16-.15.26-.11h0"/><path class="cls-154" d="M11.27,18.37c.07.18,0,.22-.08.25s-.12,0-.16-.09.14-.2.24-.16"/><path class="cls-155" d="M11.77,22.8a.27.27,0,0,1,.12.21c0,.07,0,.15-.05.15s-.11-.1-.12-.21,0-.13,0-.15"/><path class="cls-156" d="M10.69,16.17a.21.21,0,0,1-.14.19s-.07,0-.06-.1.07-.2.14-.21.06,0,.06.12"/><path class="cls-157" d="M7.61,21.77c0,.06,0,.09,0,.13s-.2,0-.3.09,0,0,0,0c0-.22,0-.27.19-.24h.1"/><path class="cls-158" d="M11.45,22.93a.25.25,0,0,1,.1.23c0,.07,0,.14-.06.14s-.09-.11-.1-.22,0-.13.06-.15"/><path class="cls-159" d="M8.28,18c0,.1-.07.05-.11.06a.58.58,0,0,1,0-.5c.06.13,0,.34.14.44"/><path class="cls-160" d="M7.66,22v.09c-.13.11-.25.13-.34-.1h0a.3.3,0,0,1,.34,0"/><path class="cls-70" d="M10.78,16.74c0,.12-.08.18-.16.18s-.06-.05,0-.11.07-.17.13-.18.07,0,.08.11"/><path class="cls-161" d="M6.4,20.65c0,.06.1.09.06.19s-.1.05-.14,0-.11-.07-.11-.2a.12.12,0,0,1,.19,0"/><path class="cls-162" d="M7.64,20.75s0,0,0,.05v.09c-.09.12-.17.09-.26,0a.31.31,0,0,1,0-.19c.07,0,.14,0,.21.05"/><path class="cls-163" d="M10.44,18.47l.05.06a.26.26,0,0,1-.31.19.42.42,0,0,1,0-.2c0-.07,0-.09.1-.1a.12.12,0,0,1,.13,0"/><path class="cls-164" d="M7.41,20.89h.26s0,.12,0,.16l0,0s-.11,0-.16,0h0l-.06-.15"/><path class="cls-165" d="M10.25,18.87a.1.1,0,0,1-.06-.1.69.69,0,0,1,.34-.15.12.12,0,0,1,0,.1l-.1.15a.25.25,0,0,1-.17,0"/><path class="cls-166" d="M8,22.35l-.08,0s-.1.06-.15,0a.27.27,0,0,1-.08-.15c.1,0,.21.1.28-.09l.06.08,0,.11"/><path class="cls-167" d="M7.28,21.52c0,.22,0,.2-.12.19A.19.19,0,0,1,7,21.58c.07-.22.16-.11.25-.06"/><path class="cls-168" d="M7.46,20.41a.42.42,0,0,1,0,.25c-.1,0-.18-.05-.23-.2a.42.42,0,0,0,.26-.05"/><path class="cls-169" d="M10.58,18.62c0-.08.11-.09.17-.11l.09.1c-.05.22-.16.19-.26.15h0a.2.2,0,0,1,0-.15"/><path class="cls-170" d="M8,21.33c0,.17-.09.17-.17.16a.84.84,0,0,1-.14-.06v0a.19.19,0,0,1,0-.08.29.29,0,0,1,.31,0"/><path class="cls-171" d="M7.79,21.76c0-.05,0-.09,0-.14s.23-.05.3.15H7.79"/><path class="cls-172" d="M11.07,19.24a.46.46,0,0,1-.26.11.2.2,0,0,1,0-.21c.07,0,.14-.06.2.06s0,0,0,0"/><path class="cls-173" d="M9.87,24c0-.14-.1-.2-.14-.32s.1-.1.15-.05a0,0,0,0,1,0,0c0,.11,0,.24,0,.34"/><path class="cls-174" d="M7.28,21.52c-.08,0-.17-.05-.25.06-.06-.14,0-.2.06-.21s.15,0,.19.15"/><path class="cls-175" d="M10.55,18.14a1,1,0,0,1,0,.14c-.07,0-.13.13-.21.09a.11.11,0,0,1,0-.09v-.05c.07-.11.15-.17.25-.14l0,.05"/><path class="cls-176" d="M10.92,19.63c.06.08,0,.17,0,.25s-.19.09-.27,0c.09-.09.22,0,.27-.21"/><path class="cls-177" d="M8,21.33c-.1,0-.21,0-.32,0h0l0-.15H8a.12.12,0,0,1,0,.1"/><path class="cls-178" d="M7.13,22H6.84c0-.21.16-.22.29,0"/><path class="cls-179" d="M7.52,18.72a2.63,2.63,0,0,1,.05.49.4.4,0,0,1-.05-.49"/><path class="cls-180" d="M11.65,19.83c.07,0,.16,0,.21-.15a.18.18,0,0,1,0,.19c0,.08-.07.07-.11.07a.16.16,0,0,1-.14-.11"/><path class="cls-181" d="M10.52,18.09l-.25.14a.19.19,0,0,1,.1-.2s0,0,0,0,.09,0,.11.1"/><path class="cls-182" d="M9.13,23.5a.51.51,0,0,0,.11.3.43.43,0,0,1,0,.05c-.06,0-.13.07-.17-.05a.38.38,0,0,1,.05-.3"/><path class="cls-183" d="M11.27,18.37c-.09,0-.18,0-.24.16-.08-.19,0-.21.09-.24s.11,0,.15.08"/><path class="cls-184" d="M8.62,22.64H8.31c0-.07,0-.09,0-.09s.2-.13.27.09"/><path class="cls-185" d="M11,20.08l0,0c-.11,0-.23,0-.29.17,0-.2,0-.25.12-.25s.09,0,.14,0"/><path class="cls-186" d="M7,20.7h.23c0,.15,0,.16-.08.15S7,20.8,7,20.7"/><path class="cls-187" d="M8.05,22.63c.07-.05,0-.09,0-.14a.69.69,0,0,1,.28,0,.14.14,0,0,1,0,.06c0,.11-.1.11-.16.13h-.1"/><path class="cls-188" d="M10.52,18.62a.7.7,0,0,1-.33.15v-.05l.31-.19s0,0,0,0a.06.06,0,0,1,0,0h0"/><path class="cls-189" d="M7.69,20.8c.08,0,.17-.08.26-.05-.06.2-.13.21-.26.05"/><path class="cls-190" d="M5.77,20.24a.17.17,0,0,1,.11.13c0,.05,0,.08,0,.07a.13.13,0,0,1-.1-.13s0-.07,0-.07"/><path class="cls-191" d="M12.67,18.76c0,.07,0,.08-.06.08a.11.11,0,0,1-.1-.11c0-.07,0-.06.06-.06s.08,0,.1.09"/><path class="cls-192" d="M11.48,18.92c0-.11.15-.05.2-.16,0,.2,0,.24-.2.16"/><path class="cls-193" d="M12.92,20.26c0,.06,0,.06-.06,0a.15.15,0,0,1-.1-.14c0-.05,0-.06.05-.05a.2.2,0,0,1,.11.14"/><path class="cls-194" d="M7.46,21.48l.06-.05a.15.15,0,0,1,.17,0h0c0,.05.06,0,0,.09H7.46v0"/><path class="cls-195" d="M8.93,14.59c0,.06,0,.14-.06.17s0,0,0-.08,0-.16.08-.18,0,0,0,.09"/><path class="cls-196" d="M10.81,19.44h0c-.07.13-.17.11-.25.19,0-.23.14-.18.23-.19"/><path class="cls-197" d="M8.41,15.58s0,0,0-.09,0-.15.07-.16,0,0,0,.08,0,.14-.06.17"/><path class="cls-198" d="M6.4,23.22c0,.06,0,.07-.06.07s-.08,0-.09-.08,0-.09,0-.09.08,0,.1.1"/><path class="cls-199" d="M12.42,19.49a.11.11,0,0,1-.09-.12s0-.07.05-.05.09,0,.09.12,0,0-.05,0"/><path class="cls-200" d="M7.82,19.28a.78.78,0,0,1,0,.4.43.43,0,0,1,0-.4"/><path class="cls-201" d="M5.88,21.68s.09,0,.1.12,0,.07-.05.07-.09,0-.1-.11,0-.06,0-.08"/><path class="cls-202" d="M12.47,20.6a.12.12,0,0,1,.09.12c0,.05,0,.07,0,.06a.16.16,0,0,1-.1-.13s0,0,.05,0"/><path class="cls-203" d="M10.58,18.76c.08-.05.19,0,.26-.16l0,0v.1c-.06.1-.15.09-.22.13l-.06,0v0"/><path class="cls-204" d="M6.43,22.58a.1.1,0,0,1-.08-.09c0-.07,0-.07.05-.07s.08,0,.09.09,0,.07-.06.07"/><path class="cls-205" d="M9.2,15s.05,0,0,.08,0,.15-.07.16,0,0,0-.08A.3.3,0,0,1,9.2,15"/><path class="cls-206" d="M8,15.07s0,.08,0,.12,0,.14-.06.14,0-.06,0-.11,0-.13.06-.15"/><path class="cls-207" d="M6.17,19.88a.17.17,0,0,1,.09.13s0,.06,0,.06-.09,0-.1-.13a.06.06,0,0,1,0-.06"/><path class="cls-208" d="M12,18.07s.08,0,.08.09a.06.06,0,0,1-.06.07.11.11,0,0,1-.08-.08c0-.07,0-.07.06-.08"/><path class="cls-209" d="M12.07,17.35s.07,0,.08.08,0,.08-.06.08-.08,0-.08-.09,0-.06.06-.07"/><path class="cls-210" d="M7,23.65a.07.07,0,0,1-.06.08s-.07,0-.07-.07,0-.07,0-.08.07,0,.08.07"/><path class="cls-211" d="M7.33,16.15c0,.06,0,.14,0,.13s0-.06,0-.11,0-.11,0-.11,0,.06,0,.09"/><path class="cls-212" d="M9.91,15.19a.19.19,0,0,1-.06.23l0,0a.2.2,0,0,1,.09-.21"/><path class="cls-213" d="M6.06,19.17s0,.07,0,.06a.18.18,0,0,1-.09-.14S6,19,6,19a.23.23,0,0,1,.09.14"/><path class="cls-214" d="M9.75,14.49c0,.14,0,.21-.08.25s0,0,0-.05a.19.19,0,0,1,.11-.2"/><path class="cls-215" d="M9.9,23.13c0-.12-.05-.27-.14-.3.15-.07.16.1.16.28,0,0,0,0,0,0"/><path class="cls-216" d="M11.47,16.5s-.05,0-.06-.05,0-.09.07-.1,0,0,0,0a.1.1,0,0,1-.06.11"/><path class="cls-217" d="M6.24,21.22c0,.06,0,.06,0,.06a.1.1,0,0,1-.09-.09c0-.05,0-.08,0-.07s.08,0,.1.1"/><path class="cls-218" d="M12.84,21.59c0,.05,0,.07,0,.06a.16.16,0,0,1-.1-.14s0-.05,0,0,.08.06.1.12"/><path class="cls-219" d="M10.42,15c0,.07,0,.12-.09.13s0,0,0-.07,0-.13.08-.13,0,0,0,.07"/><path class="cls-220" d="M11.5,20.27l.18-.1c0,.26-.1.14-.18.1"/><path class="cls-221" d="M12.53,22.66s0,.06,0,.05a.16.16,0,0,1-.08-.13s0,0,0,0a.13.13,0,0,1,.07.13"/><path class="cls-222" d="M10.89,15.75s0,0,0-.06,0-.11.08-.11,0,0,0,.06a.12.12,0,0,1-.08.11"/><path class="cls-223" d="M12.33,21.71a.14.14,0,0,1,.08.12s0,.07,0,.06a.12.12,0,0,1-.07-.12c0-.05,0-.05,0-.06"/><path class="cls-224" d="M6.4,20.65H6.21c.06-.14.07-.14.19,0"/><path class="cls-225" d="M11.51,17.18s0,0,0-.06a.1.1,0,0,1,.07-.09.07.07,0,0,1,.06.07c0,.07,0,.08-.08.08"/><path class="cls-226" d="M6.79,17.21c0,.05,0,.09,0,.09a.1.1,0,0,1,0-.1c0-.05,0-.09,0-.1s0,.06.06.11"/><path class="cls-227" d="M7.12,17s.06,0,.06.09,0,.11,0,.11-.05,0-.05-.09a.12.12,0,0,1,0-.11"/><path class="cls-228" d="M7.75,16.16c0,.06,0,.12,0,.12s0-.07,0-.13,0-.1,0-.09,0,.06,0,.1"/><path class="cls-229" d="M11,16.41s-.05,0,0-.05,0-.1.06-.1,0,0,0,.07a.09.09,0,0,1-.06.08"/><path class="cls-230" d="M9.25,23v.15a1.75,1.75,0,0,1-.11-.24c.06,0,.09,0,.12.09"/><path class="cls-231" d="M6.38,18.17s0,.06,0,.06-.06-.05-.07-.1,0-.08,0-.07.06.06.07.11"/><path class="cls-232" d="M12.14,23.56s0,.08,0,.08-.06-.05-.07-.1,0-.07,0-.08.05.05.06.1"/><path class="cls-233" d="M12.3,20.09l.09-.16a.11.11,0,0,1,0,.13c0,.07-.07.08-.11,0"/><path class="cls-234" d="M6.46,19c0,.05,0,.07,0,.05a.14.14,0,0,1-.06-.12c0-.05,0-.05,0,0s0,.06.06.11"/><path class="cls-235" d="M11.74,23.67s0,.08,0,.07,0,0-.05-.09,0-.08,0-.08,0,.05,0,.1"/><path class="cls-236" d="M10.24,23a.85.85,0,0,1,0-.32c0,.06,0,.18.06.22l0,.1"/><path class="cls-237" d="M10.29,23.78c0-.1,0-.2,0-.29a.37.37,0,0,1,0,.29"/><path class="cls-238" d="M10.75,18.48s-.07,0-.09-.05h.18l-.09.05"/><path class="cls-239" d="M10,18.52h.15c0,.06-.1.07-.15,0"/><path class="cls-240" d="M11.26,17.8h-.15a.09.09,0,0,1,.15,0"/><path class="cls-241" d="M10.25,18.87h.17a.1.1,0,0,1-.17,0"/><path class="cls-242" d="M10.64,18.85a.32.32,0,0,1,.22-.13c0,.2-.13.16-.22.13"/><path class="cls-243" d="M7.66,22H7.32c0-.15.09-.08.14-.09a1.08,1.08,0,0,1,.18,0,.15.15,0,0,1,0,.1"/><path class="cls-244" d="M10.44,18.38s-.11,0-.14-.05l.21,0c0,.07,0,.07-.07.1"/><path class="cls-245" d="M10.29,18.47c0-.07.1,0,.15,0v0h-.15"/><path class="cls-246" d="M7.69,21.42H7.52c0-.08.11,0,.16-.05h0v.05"/></g></g></g></g><ellipse class="cls-247" cx="7.3" cy="11" rx="1.56" ry="1.67"/><path d="M16.17,16.76c0-3.49-1.81-6.37-4-6.37s-4,2.88-4,6.37S16.17,20.26,16.17,16.76Z"/><g class="cls-251"><g id="Illustration_1-3" data-name="Illustration 1"><g class="cls-252"><g class="cls-253"><path class="cls-5" d="M16.57,19.33c-.05,0-.11.08-.16.08s-.21,0-.26-.2a.32.32,0,0,1,.14-.35c.12-.08.23-.08.31.1a.3.3,0,0,1,0,.37"/><path class="cls-6" d="M14.55,17.53a.66.66,0,0,1,0,.44c0,.14-.14.24-.23.17a.33.33,0,0,1-.09-.38.37.37,0,0,0,0-.11.55.55,0,0,1,.11-.23c.08-.08.15-.06.22,0a.09.09,0,0,1,0,.07"/><path class="cls-7" d="M16.9,21.11c0,.15.05.35-.09.41s-.21-.05-.28-.2a.43.43,0,0,1,0-.35c.06-.11.14-.09.21,0a1.66,1.66,0,0,1,.14.13s0,0,0,0"/><path class="cls-8" d="M16.07,23.51a.53.53,0,0,1-.13-.47c0-.11,0-.23.12-.24s.16.05.19.17,0,.15.07.18a.25.25,0,0,1,0,.17c0,.16-.1.31-.24.19"/><path class="cls-9" d="M16.58,22.75c0,.14-.12.23-.22.14a.53.53,0,0,1-.13-.5c0-.19.13-.2.23-.16s.18.24.12.52"/><path class="cls-10" d="M12.63,20.31c0-.16,0-.34.12-.39s.19.07.25.21a.44.44,0,0,1,0,.37c-.07.1-.15.07-.22,0a.53.53,0,0,1-.11-.14s0,0,0-.06"/><path class="cls-11" d="M14.08,17.7a.63.63,0,0,1-.06.61q-.21.23-.24-.18c0-.1,0-.21,0-.31v0c.08-.17.17-.28.29-.08"/><path class="cls-12" d="M14.72,17.47c.1,0,.22-.16.29.05a.52.52,0,0,1-.09.49c-.06.08-.13.13-.21,0a.39.39,0,0,1-.05-.34c0-.09.07-.15.07-.25Z"/><path class="cls-13" d="M15.45,18a0,0,0,0,0,0,0c-.1.15-.21.28-.33.1a.42.42,0,0,1,0-.43c.11-.18.22-.16.34,0l0,0a.32.32,0,0,1-.06.26"/><path class="cls-9" d="M16.5,22.17c-.07-.17-.17-.34,0-.53s.17-.07.24,0a.48.48,0,0,1,0,.55c-.08.08-.16.09-.22-.06"/><path class="cls-14" d="M14.72,24c.17-.37.22-.38.38-.11a.53.53,0,0,1,0,.43.31.31,0,0,1-.07.09c-.07,0-.13.08-.2,0a.39.39,0,0,1-.07-.43"/><path class="cls-15" d="M16.42,23.62a.69.69,0,0,1,.12.48.28.28,0,0,1-.15.26c-.08,0-.12-.08-.15-.19s0-.18,0-.27.07-.35.23-.28"/><path class="cls-16" d="M16.83,18.64a.81.81,0,0,1,.22,0c.08,0,.14.1.16.23a.2.2,0,0,1-.13.24c-.09,0-.18.09-.27,0s-.13-.33,0-.46"/><path class="cls-17" d="M13,23.44c-.08.15-.17.2-.29.17a.24.24,0,0,1-.16-.23.21.21,0,0,1,.14-.25l.09,0a.14.14,0,0,1,.14,0,.26.26,0,0,1,.08.33"/><path class="cls-18" d="M15.16,23.85c0-.12.06-.26.15-.29s.17.16.2.33a.81.81,0,0,1,0,.22.56.56,0,0,1,0,.12.2.2,0,0,1-.23.07.12.12,0,0,1-.05-.05.5.5,0,0,1,0-.4"/><path class="cls-19" d="M16.4,17.94c.08-.07.16-.14.25-.11a.23.23,0,0,1,.17.23.2.2,0,0,1-.13.23.79.79,0,0,1-.22.06c-.16-.13-.18-.21-.07-.41"/><path class="cls-20" d="M14.32,17.07a.62.62,0,0,1,.08-.51c0-.08.11-.17.19-.1a.36.36,0,0,1,.06.31c0,.06,0,.12,0,.18a.28.28,0,0,1-.11.19c-.07,0-.14.11-.18-.07"/><path class="cls-21" d="M13.06,22.86c.09-.2.22-.21.34-.14s.18.17.09.37-.22.1-.34.12A.23.23,0,0,1,13,23a.21.21,0,0,1,.05-.15"/><path class="cls-22" d="M14.51,24.31c-.1,0-.23,0-.24-.18s.08-.42.24-.46a.54.54,0,0,1,.16.3.53.53,0,0,1-.07.31s0,.07-.09,0"/><path class="cls-24" d="M14.87,17c0-.22.13-.46.25-.45s.12.1.12.23-.15.43-.26.42-.11-.1-.11-.2"/><path class="cls-25" d="M17.16,20.43c.07,0,.14,0,.2,0a.36.36,0,0,1,.15.4c-.06.2-.17.13-.27,0s-.11,0-.14-.09-.07-.29.06-.38"/><path class="cls-26" d="M16.65,23.13c0-.13,0-.23.13-.19s.16.2.17.37,0,.26-.09.3-.14,0-.18-.14a.31.31,0,0,1,0-.19.16.16,0,0,1,0-.15"/><path class="cls-28" d="M17.18,21.3c.13,0,.27.22.27.39s0,.21-.13.21-.27-.24-.26-.42.07-.17.12-.18"/><path class="cls-29" d="M16.9,22.52c0-.12,0-.28.08-.35s.13,0,.18.07a.63.63,0,0,1,.1.38.18.18,0,0,1-.09.16c-.1,0-.16-.08-.22-.19l-.05-.07Z"/><path class="cls-30" d="M12.84,18.48a.44.44,0,0,1-.1-.23c0-.17,0-.37.08-.45s.17.1.21.25a.42.42,0,0,1,0,.25c0,.18-.1.27-.23.18"/><path class="cls-31" d="M13.75,17.29a.94.94,0,0,1,0-.44c0-.13.1-.23.19-.18s.08.17.09.29-.05.12,0,.18a.19.19,0,0,1,0,.08.85.85,0,0,1-.09.14c-.08.07-.16.09-.21-.07"/><path class="cls-32" d="M12.38,20.08c-.11,0-.25-.2-.25-.38s0-.22.12-.24.23.2.24.39,0,.23-.11.23"/><path class="cls-35" d="M15.66,16.77c.09,0,.13.07.14.2s-.14.38-.25.38-.14-.05-.14-.2.13-.37.25-.38"/><path class="cls-36" d="M15.92,17.42c.06-.08.1-.17.18-.19s.17,0,.22.1a.33.33,0,0,1-.09.34l-.08,0a.15.15,0,0,1-.15.05c-.12-.06-.17-.17-.08-.35"/><path class="cls-37" d="M13.36,24.08a.21.21,0,0,1-.1.18c-.11.08-.24.09-.29-.1a.23.23,0,0,1,.17-.32c.08-.16.16-.08.23,0a.18.18,0,0,1,0,.24"/><path class="cls-38" d="M12.84,19.31c.1-.17.18-.11.26,0a.53.53,0,0,1,0,.49c-.08.14-.17.1-.25,0a3.88,3.88,0,0,1,0-.48"/><path class="cls-39" d="M16.83,20.78c-.15,0-.28,0-.33-.27s.1-.22.19-.25.11,0,.16,0l.06,0a.4.4,0,0,1-.08.47"/><path class="cls-40" d="M13.85,23.33c0,.23-.06.37-.2.4s-.05.09-.09.08a.36.36,0,0,1-.17-.29c0-.11,0-.21.08-.24s.26-.09.38,0"/><path class="cls-41" d="M16.65,23.13v.15c-.07.09-.06.29-.17.33s-.2-.13-.19-.35l0-.11c.07-.23.16-.23.24,0s.05.11.09,0"/><path class="cls-42" d="M14.07,15.89c0,.18,0,.39-.19.43s-.1-.11-.09-.22,0-.39.18-.44.09.12.1.23"/><path class="cls-43" d="M13.24,22.28c0,.34-.15.3-.25.41a.12.12,0,0,1-.13-.05c-.07-.13-.19-.25,0-.42a.44.44,0,0,1,.41.06"/><path class="cls-44" d="M13.35,16.47c0,.15,0,.35-.15.37s-.11-.15-.11-.27,0-.35.14-.37.11.15.12.27"/><path class="cls-45" d="M15.74,24.32l0,.16c-.08,0-.13.2-.22.09s0,0-.06,0a.47.47,0,0,1,0-.33.62.62,0,0,1,0-.13A.76.76,0,0,1,15.6,24h0s0,0,0,0a.57.57,0,0,1,.06.37"/><path class="cls-46" d="M11.68,21.6c-.13,0-.24-.1-.27-.31s.05-.17.12-.16a.34.34,0,0,1,.27.32c0,.14-.06.15-.12.15"/><path class="cls-47" d="M13.79,17.82a.34.34,0,0,1-.15.18c-.18-.1-.21-.34-.07-.58.06-.07.12-.09.18-.05s.09.29,0,.46Z"/><path class="cls-48" d="M13.31,18.46l-.06.06c-.14.06-.17-.07-.18-.24a.44.44,0,0,1,0-.23c0-.15.1-.2.19-.16s.1.17.11.29a.34.34,0,0,1-.08.28"/><path class="cls-50" d="M13.58,23.79l.07-.06c.19.19.2.27,0,.52h0c-.11,0-.2,0-.25-.17s0-.28.15-.29"/><path class="cls-51" d="M14.51,15.91c0-.19.12-.42.21-.4s.09.11.08.21-.07.38-.21.41-.08-.12-.08-.22"/><path class="cls-52" d="M13.06,19c-.08.05-.14.28-.25.1a.51.51,0,0,1,0-.51c.18-.15.23.11.3.28a.19.19,0,0,1,0,.13"/><path class="cls-54" d="M16.72,22.28c.09,0,.14.13.18.24h0c0,.12,0,.26-.06.32s-.15,0-.2-.15c-.09-.3-.07-.37.08-.41"/><path class="cls-55" d="M14.55,17.53v-.05a.4.4,0,0,1,0-.34.66.66,0,0,1,.14-.18c.07,0,.14-.05.17.07a.5.5,0,0,1-.11.44h0c-.06.06-.12.05-.18.06"/><path class="cls-56" d="M18.09,21.15c0,.11-.07.12-.13.11a.39.39,0,0,1-.24-.36c0-.11.07-.12.12-.12s.26.21.25.37"/><path class="cls-57" d="M12.63,20.31l0,.06a.88.88,0,0,1,0,.29c-.12.12-.21,0-.3-.1a.23.23,0,0,1,0-.14c0-.1,0-.21.06-.25s.16.06.23.14"/><path class="cls-59" d="M16.2,23.91c0,.2-.09.33-.24.23s-.07-.12-.09-.2v-.07l0-.1a.35.35,0,0,1,.06-.09c0-.08.07-.1.11-.13s.16.17.13.36"/><path class="cls-60" d="M12.74,17.34c0,.15,0,.29-.12.29s-.13-.17-.14-.32,0-.3.13-.29.12.18.13.32"/><path class="cls-47" d="M13.72,16.66c0,.15,0,.34-.16.35s-.1-.12-.1-.24,0-.35.15-.37.1.13.11.26"/><path class="cls-28" d="M17.14,20.78c0,.07,0,.12.1.12l0,.06c0,.32-.08.36-.26.2l0-.05s0,0,0,0v-.24c.08-.19.18-.09.28,0"/><path class="cls-63" d="M13.14,23.74c-.1,0-.16-.12-.15-.3a.19.19,0,0,1,.15-.18.24.24,0,0,1,.12,0c.09,0,.15.12.14.3s-.15.23-.26.18"/><path class="cls-64" d="M14.37,16.33c0,.12,0,.29-.17.33s-.1-.11-.1-.21.06-.36.18-.38.1.09.09.26"/><path class="cls-65" d="M12.21,22.82c.1,0,.22,0,.23.23a.18.18,0,0,1-.18.2.21.21,0,0,1-.2-.25c0-.15.09-.15.15-.18"/><path class="cls-66" d="M17.39,19.08a.25.25,0,0,1,.23.23c0,.13-.07.2-.17.19s-.19-.07-.21-.24.08-.16.15-.18"/><path class="cls-35" d="M15.49,17.71c.08-.36.18-.44.36-.29a.35.35,0,0,1-.17.46c-.09,0-.15-.05-.19-.18Z"/><path class="cls-67" d="M12.66,24.14a.18.18,0,0,1-.17-.2c0-.18.11-.21.2-.21s.18,0,.17.19-.1.21-.2.22"/><path class="cls-68" d="M15.26,16.24s-.08-.06-.09-.16.13-.39.23-.4.09.06.09.16-.12.4-.23.4"/><path class="cls-69" d="M14,17.17v0c.09-.07.17-.12.25,0a.39.39,0,0,1,0,.3.41.41,0,0,1-.14.21l-.1,0a.24.24,0,0,1-.08-.15.76.76,0,0,1,0-.34"/><path class="cls-70" d="M16.52,17.13a.15.15,0,0,1-.14-.19.25.25,0,0,1,.22-.25c.07,0,.15,0,.14.17a.26.26,0,0,1-.22.27"/><path class="cls-71" d="M16.91,20.32l0,0s0,0,0,0a.64.64,0,0,1-.05-.24c.08-.17.17-.16.27-.06s.22.21.06.42-.15.08-.21-.06"/><path class="cls-73" d="M12.18,23.85a.22.22,0,0,1-.22-.23c0-.13.09-.2.17-.17s.21,0,.21.22-.09.16-.16.18"/><path class="cls-74" d="M16.46,20c-.09,0-.1-.12-.09-.24s.22-.12.31-.24.08,0,.1.07a.4.4,0,0,1,0,.22c-.08.27-.22.22-.36.19"/><path class="cls-75" d="M13.64,18.05c.14.32.12.54-.07.71a1.36,1.36,0,0,1-.13-.68c.06-.12.13-.09.2,0"/><path class="cls-76" d="M11.72,20.5c-.11,0-.25-.19-.25-.35s0-.13.09-.14.26.19.26.34,0,.15-.1.15"/><path class="cls-77" d="M17.94,22.18c0,.09,0,.17-.09.16s-.21-.14-.23-.35,0-.18.09-.16.2.15.23.35"/><path class="cls-78" d="M13.13,17.34c0,.15,0,.3-.13.29s-.13-.16-.12-.31,0-.28.11-.28.12.18.14.3"/><path class="cls-79" d="M15,16.24c0,.17-.08.32-.2.36s-.1-.08-.09-.19.07-.34.19-.37.1.08.1.2"/><path class="cls-80" d="M14.23,23.86c-.06.21-.17.28-.3.22s-.13-.16-.1-.32,0,0,0,0a.24.24,0,0,1,.25-.07.17.17,0,0,1,.12.2"/><path class="cls-81" d="M17.23,17.53a.17.17,0,0,1,.09.21.18.18,0,0,1-.23.15c-.07,0-.14,0-.15-.15s0-.21.1-.21a.17.17,0,0,1,.19,0"/><path class="cls-82" d="M17,24c0-.11,0-.25.11-.24s.15.18.16.34,0,.25-.12.24S17,24.12,17,24"/><path class="cls-84" d="M16.87,24.11c0,.12,0,.26-.12.25s-.14-.18-.13-.34,0-.25.11-.23.13.18.14.32"/><path class="cls-70" d="M15.91,16.57c-.07,0-.12,0-.11-.14s.1-.3.21-.33.13,0,.12.16a.32.32,0,0,1-.22.31"/><path class="cls-85" d="M11.8,19a.38.38,0,0,1,.18.35c0,.1,0,.16-.09.17s-.21-.22-.21-.38,0-.15.12-.14"/><path class="cls-86" d="M16.59,17.71c-.08,0-.17,0-.15-.18s.1-.22.2-.22.16,0,.15.19a.2.2,0,0,1-.2.21"/><path class="cls-88" d="M17.48,22.81c.11.05.17.18.18.37s0,.17-.11.15-.17-.18-.18-.37,0-.16.11-.15"/><path class="cls-89" d="M12.29,18.33c0,.1,0,.2-.09.2s-.17-.17-.18-.34,0-.21.09-.2.16.18.18.34"/><path class="cls-92" d="M17.6,21.58c-.08,0-.16-.12-.18-.3s0-.17.11-.15a.31.31,0,0,1,.22.32c0,.11-.05.15-.15.13"/><path class="cls-93" d="M12.4,18.08c0-.11,0-.23.12-.2s.14.19.14.35,0,.2-.11.19-.14-.18-.15-.34"/><path class="cls-94" d="M13.25,18.56a.56.56,0,0,1,.14.51c0,.13-.05.23-.15.21a1.36,1.36,0,0,1-.08-.7s.05,0,.09,0"/><path class="cls-95" d="M13.24,17.23c.11-.22.2-.14.26.07a.6.6,0,0,1-.07.48c-.2-.06-.16-.33-.19-.55"/><path class="cls-70" d="M16.1,16.71c.08,0,.14,0,.13.15s-.09.26-.2.27-.13,0-.13-.13.1-.27.2-.29"/><path class="cls-96" d="M15.93,23.8a.1.1,0,0,0,0,.05c-.15,0-.26-.22-.25-.52s.19-.15.25.09,0,.25,0,.38"/><path class="cls-88" d="M17.28,23.28c0,.11,0,.23-.1.21s-.16-.18-.17-.35,0-.2.11-.18.15.16.16.32"/><path class="cls-97" d="M12.34,20.42v.13a.12.12,0,0,1,0,.16c-.1.12-.21.09-.32,0a.31.31,0,0,1,0-.28.12.12,0,0,1,.18-.06c.05,0,.09.07.14,0"/><path class="cls-98" d="M12.45,18.64c.16-.05.23.1.25.33s0,.27-.14.29,0,0,0,0a1,1,0,0,1-.07-.58"/><path class="cls-99" d="M12,20.21a.32.32,0,0,1-.19-.3c0-.13,0-.19.1-.17s.19.13.2.32,0,.16-.11.15"/><path class="cls-100" d="M14.15,14.82c0,.14-.05.31-.17.34s-.08-.11-.07-.19.05-.34.16-.37.08.11.08.22"/><path class="cls-101" d="M17.51,18.88a.19.19,0,0,1-.12-.25c0-.13.11-.12.18-.12a.2.2,0,0,1,.2.18c0,.23-.17.14-.26.19"/><path class="cls-102" d="M15.64,23.33c.06.2.1.43.25.52v0c-.06.13-.12.17-.21.08h0a.77.77,0,0,1,0-.63"/><path class="cls-103" d="M12.44,22.28c0-.12-.06-.18-.06-.29s.24-.07.36,0l0,.06c0,.25,0,.29-.21.31a.12.12,0,0,1-.12-.08"/><path class="cls-104" d="M13.24,15.42c0,.13,0,.3-.12.33s-.09-.11-.09-.21,0-.31.12-.33.09.1.09.21"/><path class="cls-105" d="M14.89,15c-.08,0-.11,0-.1-.11s.05-.34.17-.4.09,0,.09.12a.62.62,0,0,1-.16.39"/><path class="cls-106" d="M15.85,18.28l-.1.12a.15.15,0,0,1-.19,0c-.05,0-.08-.08-.07-.17s.26-.19.4-.26.06.06.06.12a.18.18,0,0,1-.1.19"/><path class="cls-107" d="M11.57,24a.19.19,0,0,1-.2-.2.12.12,0,0,1,.15-.14c.08,0,.19,0,.19.19s-.08.14-.14.15"/><path class="cls-108" d="M17.07,20l0-.12c.08-.19.21-.17.33-.22s.1.16.06.28a.16.16,0,0,1-.21.11L17.07,20"/><path class="cls-109" d="M13.68,15.67c0,.12,0,.28-.14.29s-.08-.12-.08-.22,0-.28.14-.3.08.11.08.23"/><path class="cls-110" d="M17.71,17.53c-.07,0-.16,0-.17-.16a.15.15,0,0,1,.16-.17.14.14,0,0,1,.16.16c0,.15-.08.16-.15.17"/><path class="cls-111" d="M18.3,18.83c-.1,0-.2,0-.22-.21s.07-.15.13-.14a.23.23,0,0,1,.22.23c0,.13-.08.11-.13.12"/><path class="cls-112" d="M17.54,20.5a.23.23,0,0,1-.12-.29c0-.17.15-.1.24,0a.26.26,0,0,1,.11.2.2.2,0,0,1-.23.13"/><path class="cls-113" d="M17.37,19.63c-.09.16-.23.12-.33.22a.29.29,0,0,1,0-.32.22.22,0,0,1,.32.1"/><path class="cls-114" d="M11.15,22.65a.25.25,0,0,1-.24-.22c0-.08.06-.17.12-.14s.22.07.23.26-.07.09-.11.1"/><path class="cls-115" d="M14.43,15.09c.07,0,.08.09.07.17s-.05.33-.17.35-.07-.1-.06-.18.05-.3.16-.34"/><path class="cls-116" d="M12.38,21.83c-.15.09-.25,0-.33-.17s.09-.14.16-.15a.32.32,0,0,1,.19,0c.11.12.11.22,0,.29"/><path class="cls-117" d="M15.67,17.87c.08,0,.18,0,.22.12-.11.17-.27.15-.4.24v-.17c0-.13.08-.23.18-.19"/><path class="cls-119" d="M11.62,23a.19.19,0,0,1,.18.21c0,.12-.09.14-.14.12s-.19,0-.18-.21.07-.12.14-.12"/><path class="cls-120" d="M18.38,20.71c0,.1-.06.13-.11.11a.28.28,0,0,1-.21-.28c0-.1.06-.12.11-.1a.34.34,0,0,1,.21.27"/><path class="cls-121" d="M13.06,18.85c0-.13,0-.23.11-.27,0,.24.09.46.07.7-.12,0-.16-.13-.18-.29v-.14"/><path class="cls-122" d="M17.66,17.94c.08,0,.17,0,.17.17s-.08.19-.16.17a.17.17,0,0,1-.15-.19c0-.15.08-.14.14-.15"/><path class="cls-123" d="M11.13,19.94a.33.33,0,0,1-.21-.29c0-.08,0-.14.07-.13a.34.34,0,0,1,.22.3.09.09,0,0,1-.08.12"/><path class="cls-124" d="M17.73,20a.22.22,0,0,1-.07-.24c0-.1.1-.11.16-.08a.21.21,0,0,1,.17.13c0,.28-.15.23-.26.19"/><path class="cls-125" d="M11.36,20.78a.29.29,0,0,1-.2-.27c0-.08,0-.13.08-.12a.3.3,0,0,1,.22.29.09.09,0,0,1-.1.1"/><path class="cls-126" d="M12.66,21.43c.16,0,.32-.08.4.22-.13.13-.27.08-.4.05a.2.2,0,0,1-.06-.17c0-.06,0-.09.06-.1"/><path class="cls-127" d="M18.48,21.28a.32.32,0,0,1,.21.3c0,.08,0,.11-.08.11s-.24-.2-.23-.31.05-.1.1-.1"/><path class="cls-128" d="M12.43,21.58c-.13.05-.27-.07-.38.08-.09-.22-.06-.31.11-.31s.14.12.23.06,0,0,0,0a.26.26,0,0,1,0,.15"/><path class="cls-130" d="M12.47,16.46c0,.1,0,.25-.1.24s-.11-.15-.11-.27,0-.23.1-.23.09.15.11.26"/><path class="cls-131" d="M11.29,21.69c.11,0,.17.11.21.25a.08.08,0,0,1-.09.1c-.09,0-.21-.05-.23-.25s.06-.09.11-.1"/><path class="cls-132" d="M12.92,16.41c0,.13,0,.26-.1.27s-.09-.12-.1-.22,0-.25.1-.27.09.12.1.22"/><path class="cls-133" d="M12.6,21.07V20.9a.25.25,0,0,1,.39,0,.22.22,0,0,1,0,.18.26.26,0,0,1-.34.06h0a.11.11,0,0,1,0-.05"/><path class="cls-134" d="M17,16.54c-.06,0-.13,0-.12-.13s.08-.2.17-.21.12,0,.11.13-.09.17-.16.21"/><path class="cls-136" d="M17.26,17.05c0,.13-.08.18-.16.19s-.14,0-.14-.15.09-.15.16-.18.11,0,.14.14"/><path class="cls-137" d="M12,22.51c.06.13,0,.22-.06.24s-.25,0-.31-.23c.12-.15.25-.09.37,0"/><path class="cls-138" d="M14.23,23.86c-.1-.24-.25-.08-.37-.13,0-.12.1-.21.19-.23s.23.09.18.36"/><path class="cls-139" d="M15.82,15a.33.33,0,0,1-.18.29c-.05,0-.09,0-.08-.1s.08-.3.19-.33.07,0,.07.14"/><path class="cls-140" d="M18.56,20.27c-.1,0-.16-.09-.19-.24s0-.1,0-.11.2,0,.27.17-.06.15-.12.18"/><path class="cls-141" d="M13.39,18.17l.07-.07c0,.22.08.44.11.66-.1,0-.13-.09-.18-.18a.81.81,0,0,1,0-.41"/><path class="cls-142" d="M15.28,15.32c0,.15-.07.27-.17.31s-.09,0-.08-.12.07-.29.18-.33.06.05.07.14"/><path class="cls-143" d="M13,20.89h-.39c0-.09,0-.15,0-.23a.27.27,0,0,1,.35.23"/><path class="cls-144" d="M12.66,22.69a.3.3,0,0,1,.22-.06s.08,0,.11.06v.06c0,.14,0,.16-.08.18a.22.22,0,0,1-.27-.07c0-.07,0-.11,0-.17"/><path class="cls-145" d="M18,19.21c.09,0,.19,0,.2.19s-.06.11-.12.11a.22.22,0,0,1-.21-.21c0-.14.08-.07.13-.09"/><path class="cls-77" d="M18,21.75c0-.11,0-.13.09-.12s.16.12.18.27,0,.13-.09.11a.33.33,0,0,1-.18-.26"/><path class="cls-56" d="M18.43,22.72c0,.1,0,.16-.07.15s-.17-.12-.19-.29,0-.12,0-.12.18.12.21.26"/><path class="cls-148" d="M12.25,17.63c-.09,0-.12-.13-.13-.25s0-.21.09-.21.1.13.12.24a.23.23,0,0,1-.08.22"/><path class="cls-149" d="M11.76,17.3c.09,0,.13.16.14.3s0,.17-.08.15-.13-.15-.14-.29,0-.15.08-.16"/><path class="cls-85" d="M11.32,18.4c.09,0,.15.13.16.28s0,.14-.06.13-.15-.13-.17-.28,0-.13.07-.13"/><path class="cls-150" d="M11.52,19.66a.31.31,0,0,1-.16-.27c0-.11,0-.14.09-.12a.28.28,0,0,1,.16.27q0,.12-.09.12"/><path class="cls-152" d="M11.76,21a.18.18,0,0,1,0-.22.08.08,0,0,1,.13,0,.31.31,0,0,1,.18.26c-.1.14-.2.07-.3,0"/><path class="cls-153" d="M17,19.27c0,.35-.12.29-.24.3l-.09-.07s0,0,0,0a.11.11,0,0,0,0-.05v-.06a.3.3,0,0,1,.34-.13h0"/><path class="cls-154" d="M17.24,18.22c.09.21,0,.26-.1.29s-.15,0-.21-.1c.06-.26.18-.24.31-.19"/><path class="cls-155" d="M17.88,23.53a.26.26,0,0,1,.15.25c0,.07,0,.17-.05.18s-.14-.13-.17-.26,0-.15.07-.17"/><path class="cls-156" d="M16.5,15.58c0,.13-.08.21-.18.23s-.08,0-.08-.11.09-.25.19-.26.08.05.07.14"/><path class="cls-157" d="M12.57,22.29c0,.07,0,.11,0,.16s-.26,0-.38.11h0c0-.26,0-.32.24-.29h.13"/><path class="cls-158" d="M17.47,23.68a.29.29,0,0,1,.13.27c0,.08,0,.18-.07.17s-.12-.13-.13-.27,0-.15.07-.17"/><path class="cls-159" d="M13.42,17.76c0,.12-.09.07-.14.07a.66.66,0,0,1,0-.6c.08.16,0,.42.18.53"/><path class="cls-160" d="M12.63,22.57v.12c-.16.12-.31.15-.43-.12h0a.42.42,0,0,1,.43,0"/><path class="cls-70" d="M16.61,16.27c0,.14-.1.21-.19.21s-.08-.06-.07-.13.09-.2.17-.21.09,0,.09.13"/><path class="cls-161" d="M11,21c0,.07.12.11.07.23s-.12.05-.17,0-.14-.08-.14-.23.16-.06.24,0"/><path class="cls-162" d="M12.6,21.07l0,.05v.11c-.11.15-.22.11-.33,0a.3.3,0,0,1,0-.23c.09,0,.18,0,.26.06"/><path class="cls-163" d="M16.19,18.34l.06.07a.32.32,0,0,1-.4.22.43.43,0,0,1,0-.23.18.18,0,0,1,.12-.13.2.2,0,0,1,.18.07"/><path class="cls-164" d="M12.31,21.24h.33c.06.05,0,.14,0,.19l0,0c-.07,0-.14,0-.21,0h0c0-.05-.05-.11-.07-.17"/><path class="cls-165" d="M16,18.82s-.08-.05-.09-.13a1.07,1.07,0,0,1,.43-.18.15.15,0,0,1,0,.13l-.13.18a.26.26,0,0,1-.21,0"/><path class="cls-166" d="M13,23l-.11.06c-.06,0-.12.06-.18,0a.23.23,0,0,1-.1-.18c.11-.05.26.12.35-.11l.07.11L13,23"/><path class="cls-167" d="M12.15,22c0,.26-.06.24-.16.23a.2.2,0,0,1-.16-.16c.09-.26.21-.13.32-.07"/><path class="cls-168" d="M12.37,20.66a.43.43,0,0,1,0,.3.31.31,0,0,1-.3-.23.66.66,0,0,0,.33-.07"/><path class="cls-169" d="M16.36,18.51a.35.35,0,0,1,.22-.12l.11.11c-.06.27-.2.23-.33.19h0a.31.31,0,0,1,0-.19"/><path class="cls-170" d="M13.07,21.76c0,.21-.12.21-.22.19a1.34,1.34,0,0,1-.18-.07l0,0a.3.3,0,0,1,0-.1.38.38,0,0,1,.4,0"/><path class="cls-171" d="M12.79,22.27l.06-.16c.14,0,.29-.06.39.17h-.45"/><path class="cls-172" d="M17,19.26a.65.65,0,0,1-.34.13.23.23,0,0,1,.07-.25c.09,0,.18-.08.26.07a.09.09,0,0,0,0,.05"/><path class="cls-174" d="M12.15,22c-.11,0-.22-.06-.32.07-.08-.17,0-.24.08-.25s.19,0,.24.18"/><path class="cls-175" d="M16.32,17.94c0,.06,0,.11,0,.17s-.17.16-.28.11a.1.1,0,0,1,0-.11v-.06c.09-.13.2-.21.33-.17l0,.06"/><path class="cls-176" d="M16.8,19.72c.07.11,0,.21,0,.31s-.24.11-.34-.05c.1-.11.28,0,.34-.26"/><path class="cls-177" d="M13.07,21.76c-.14,0-.28-.06-.41.06h0l0-.17h.43a.11.11,0,0,1,0,.11"/><path class="cls-178" d="M12,22.51h-.37c.06-.26.21-.26.37,0"/><path class="cls-179" d="M12.45,18.64a3.68,3.68,0,0,1,.07.58c-.18-.23-.2-.39-.07-.58"/><path class="cls-180" d="M17.73,20c.1,0,.2,0,.26-.19a.23.23,0,0,1,.06.24c0,.09-.09.08-.15.07a.2.2,0,0,1-.17-.12"/><path class="cls-181" d="M16.29,17.88l-.33.17a.24.24,0,0,1,.14-.24s0,0,0,0,.12,0,.15.12"/><path class="cls-183" d="M17.24,18.22a.44.44,0,0,0-.31.19c-.09-.23,0-.26.12-.29s.14,0,.19.1"/><path class="cls-184" d="M13.85,23.33h-.39c0-.08,0-.1,0-.11s.26-.15.34.11"/><path class="cls-185" d="M16.84,20.26l0,0c-.13,0-.28,0-.37.21-.06-.25,0-.3.15-.31a.7.7,0,0,1,.19.06"/><path class="cls-186" d="M11.76,21h.3c0,.18,0,.18-.11.18a.23.23,0,0,1-.19-.18"/><path class="cls-187" d="M13.13,23.32c.09-.06,0-.11,0-.16a.92.92,0,0,1,.36-.07.25.25,0,0,0,0,.07c-.05.14-.13.14-.21.16h-.13"/><path class="cls-188" d="M16.28,18.52a.85.85,0,0,1-.42.17v-.06l.4-.22s0,0,0,.05a.08.08,0,0,1,0,0l0,0"/><path class="cls-189" d="M12.66,21.13c.12,0,.22-.1.34-.06-.08.24-.17.25-.34.06"/><path class="cls-190" d="M10.22,20.45a.25.25,0,0,1,.14.17c0,.05,0,.09,0,.08a.18.18,0,0,1-.14-.15c0-.06,0-.09.05-.1"/><path class="cls-191" d="M19,18.69c0,.08-.05.09-.08.09s-.12,0-.13-.13,0-.08.07-.08a.14.14,0,0,1,.14.12"/><path class="cls-192" d="M17.51,18.88c.07-.13.2-.06.26-.19,0,.23-.05.29-.26.19"/><path class="cls-193" d="M19.35,20.49c0,.06-.05.06-.07.05a.16.16,0,0,1-.13-.16c0-.07,0-.07.07-.06a.2.2,0,0,1,.13.17"/><path class="cls-194" d="M12.38,21.94l.07-.06a.2.2,0,0,1,.21,0h0c0,.07.07,0,.07.11h-.36v0"/><path class="cls-195" d="M14.26,13.69c0,.08,0,.18-.09.21s-.06,0-.05-.1,0-.19.09-.21,0,0,0,.1"/><path class="cls-196" d="M16.65,19.51a0,0,0,0,1,0,0c-.09.14-.22.12-.33.22,0-.28.18-.22.29-.22"/><path class="cls-197" d="M13.59,14.87a.1.1,0,0,1-.05-.1c0-.08,0-.18.08-.2s.06,0,.05.1,0,.17-.08.2"/><path class="cls-198" d="M11,24c0,.08,0,.09-.07.09s-.1,0-.12-.1,0-.1.07-.1.1,0,.12.11"/><path class="cls-199" d="M18.71,19.56c-.05,0-.11,0-.12-.14s0-.08.07-.07.12,0,.12.15,0,.06-.07.06"/><path class="cls-200" d="M12.84,19.31a.78.78,0,0,1,0,.48.5.5,0,0,1,0-.48"/><path class="cls-201" d="M10.36,22.19c.05,0,.12,0,.13.14s0,.08-.07.08-.11,0-.12-.13,0-.07.06-.09"/><path class="cls-202" d="M18.78,20.89a.14.14,0,0,1,.11.14c0,.06,0,.09-.05.07a.16.16,0,0,1-.12-.15c0-.06,0-.06.06-.06"/><path class="cls-203" d="M16.36,18.69c.11-.07.24,0,.33-.19l0,0v.11c-.08.12-.19.11-.29.16l-.07-.05v0"/><path class="cls-204" d="M11.06,23.26a.12.12,0,0,1-.11-.11c0-.08,0-.08.07-.08s.1,0,.11.11,0,.08-.07.08"/><path class="cls-205" d="M14.6,14.23s.06,0,.05.1,0,.17-.09.19-.05,0-.05-.09a.27.27,0,0,1,.09-.2"/><path class="cls-206" d="M13.11,14.27s0,.09,0,.14,0,.17-.08.17,0-.08,0-.14,0-.15.08-.17"/><path class="cls-207" d="M10.72,20a.19.19,0,0,1,.12.15c0,.05,0,.08,0,.07s-.11,0-.12-.16,0-.05,0-.06"/><path class="cls-208" d="M18.22,17.86s.1,0,.1.11a.07.07,0,0,1-.08.08.12.12,0,0,1-.1-.1c0-.08,0-.08.08-.09"/><path class="cls-209" d="M18.27,17a.09.09,0,0,1,.1.09c0,.07,0,.1-.08.09s-.11,0-.11-.1.05-.07.09-.08"/><path class="cls-211" d="M12.21,15.56c0,.08,0,.16-.06.15s-.05-.06-.05-.12,0-.14.06-.14,0,.08.05.11"/><path class="cls-212" d="M15.51,14.41a.23.23,0,0,1-.08.28s0,0,0,0a.23.23,0,0,1,.12-.25"/><path class="cls-213" d="M10.58,19.18c0,.05,0,.08-.05.06a.17.17,0,0,1-.11-.16s0-.09.06-.07a.23.23,0,0,1,.1.17"/><path class="cls-214" d="M15.3,13.58a.29.29,0,0,1-.09.29s-.05,0-.05-.06.05-.21.14-.23"/><path class="cls-215" d="M15.5,23.92c0-.15-.07-.32-.19-.36.19-.09.2.13.21.34,0,0,0,0,0,0"/><path class="cls-216" d="M17.5,16s-.07,0-.07-.06,0-.11.08-.12.06,0,.07,0a.12.12,0,0,1-.08.13"/><path class="cls-217" d="M10.82,21.63c0,.07,0,.08-.06.07s-.09,0-.11-.11,0-.09,0-.08.1,0,.13.12"/><path class="cls-218" d="M19.25,22.07c0,.06,0,.09-.05.08a.2.2,0,0,1-.13-.17c0-.05,0-.06.05-.05s.1.07.13.14"/><path class="cls-219" d="M16.15,14.2c0,.07,0,.14-.1.15s0,0,0-.08,0-.16.11-.16,0,0,0,.09"/><path class="cls-220" d="M17.54,20.5l.23-.13c0,.32-.13.17-.23.13"/><path class="cls-221" d="M18.86,23.35s0,.08-.05.07a.21.21,0,0,1-.09-.16c0-.06,0-.07.05-.06a.17.17,0,0,1,.09.15"/><path class="cls-222" d="M16.76,15.08s-.05-.05,0-.08,0-.13.1-.13,0,0,0,.07a.15.15,0,0,1-.1.14"/><path class="cls-223" d="M18.6,22.22s.08.07.1.14,0,.09-.05.07a.16.16,0,0,1-.1-.14c0-.06,0-.06.05-.07"/><path class="cls-224" d="M11,21h-.24c.07-.17.09-.17.24,0"/><path class="cls-225" d="M17.55,16.79s-.06,0-.06-.06a.11.11,0,0,1,.09-.12.08.08,0,0,1,.07.09c0,.08,0,.09-.1.09"/><path class="cls-226" d="M11.51,16.82c0,.07,0,.12,0,.11s-.06-.06-.07-.12,0-.1,0-.11.06.07.07.12"/><path class="cls-227" d="M11.94,16.56c.06,0,.07.06.08.12s0,.12,0,.13-.06,0-.07-.11a.21.21,0,0,1,0-.14"/><path class="cls-228" d="M12.74,15.57c0,.07,0,.14-.05.14s-.06-.08,0-.15,0-.12.06-.11,0,.08,0,.12"/><path class="cls-229" d="M16.85,15.87s-.05,0-.05-.06,0-.12.09-.12.05,0,.05.08a.11.11,0,0,1-.09.1"/><path class="cls-230" d="M14.66,23.79V24c-.07-.06-.09-.19-.14-.29s.12,0,.15.12"/><path class="cls-231" d="M11,18c0,.05,0,.07,0,.07s-.07-.06-.08-.12,0-.1,0-.09A.2.2,0,0,1,11,18"/><path class="cls-233" d="M18.56,20.27l.12-.18a.12.12,0,0,1,0,.15c0,.08-.09.1-.15,0"/><path class="cls-234" d="M11.09,18.94c0,.07,0,.09-.05.07a.17.17,0,0,1-.07-.15c0-.05,0-.06,0-.05a.19.19,0,0,1,.07.13"/><path class="cls-236" d="M15.93,23.8c-.07-.12,0-.25,0-.38.06.06,0,.21.07.26l0,.12"/><path class="cls-238" d="M16.58,18.36s-.09,0-.12-.07h.23l-.11.07"/><path class="cls-239" d="M15.56,18.4h.19c-.07.07-.13.08-.19,0"/><path class="cls-240" d="M17.23,17.53H17c.07-.06.13-.07.19,0"/><path class="cls-241" d="M16,18.82h.21a.14.14,0,0,1-.21,0"/><path class="cls-242" d="M16.43,18.8a.47.47,0,0,1,.29-.17c-.06.24-.17.2-.29.17"/><path class="cls-243" d="M12.63,22.57H12.2c0-.18.11-.09.17-.1a1,1,0,0,1,.24,0,.23.23,0,0,1,0,.12"/><path class="cls-244" d="M16.18,18.23c-.06,0-.13,0-.18-.06l.28-.06c0,.08-.07.09-.1.12"/><path class="cls-245" d="M16,18.34c0-.09.12-.05.19-.05v.05H16"/><path class="cls-246" d="M12.66,21.87h-.21c.06-.1.14,0,.2-.06h0v.06"/></g></g></g></g><circle class="cls-247" cx="12.17" cy="9.39" r="2"/></svg>