<svg id="ICONS" xmlns="http://www.w3.org/2000/svg" xmlns:xlink="http://www.w3.org/1999/xlink" viewBox="0 0 24 24"><defs><style>.cls-1{fill:none;}.cls-2{clip-path:url(#clip-path);}.cls-3{clip-path:url(#clip-path-2);}.cls-4{clip-path:url(#clip-path-3);}.cls-5{fill:#0399d9;}.cls-6{fill:#1f94c3;}.cls-7{fill:#198fcf;}.cls-8{fill:#fe9935;}.cls-9{fill:#23a08b;}.cls-10{fill:#1f94c4;}.cls-11{fill:#61a74b;}.cls-12{fill:#219d97;}.cls-13{fill:#73a648;}.cls-14{fill:#27a37e;}.cls-15{fill:#39a953;}.cls-16{fill:#089ad9;}.cls-17{fill:#1a90cf;}.cls-18{fill:#249ca5;}.cls-19{fill:#0599d9;}.cls-20{fill:#1c91d0;}.cls-21{fill:#fe9a37;}.cls-22{fill:#28a576;}.cls-23{fill:#2ca96a;}.cls-24{fill:#44a950;}.cls-25{fill:#f98f2c;}.cls-26{fill:#0391d4;}.cls-27{fill:#4ea74d;}.cls-28{fill:#1d91cd;}.cls-29{fill:#269ea0;}.cls-30{fill:#29a483;}.cls-31{fill:#8ea444;}.cls-32{fill:#259e9c;}.cls-33{fill:#c3a242;}.cls-34{fill:#2196bf;}.cls-35{fill:#45a951;}.cls-36{fill:#f99437;}.cls-37{fill:#26a289;}.cls-38{fill:#2092d0;}.cls-39{fill:#079ad9;}.cls-40{fill:#fe9b39;}.cls-41{fill:#2aa198;}.cls-42{fill:#1e96b8;}.cls-43{fill:#269bb3;}.cls-44{fill:#24a088;}.cls-45{fill:#57a74c;}.cls-46{fill:#72a74a;}.cls-47{fill:#51aa53;}.cls-48{fill:#0287cd;}.cls-49{fill:#3ea951;}.cls-50{fill:#56a950;}.cls-51{fill:#fe9b38;}.cls-52{fill:#0b9cda;}.cls-53{fill:#40a84f;}.cls-54{fill:#2ba96a;}.cls-55{fill:#31ae55;}.cls-56{fill:#2193d0;}.cls-57{fill:#30ab68;}.cls-58{fill:#1d91cc;}.cls-59{fill:#fe9c3a;}.cls-60{fill:#2aa57e;}.cls-61{fill:#1c90cf;}.cls-62{fill:#faaa36;}.cls-63{fill:#3caa54;}.cls-64{fill:#30a851;}.cls-65{fill:#069ad9;}.cls-66{fill:#f99933;}.cls-67{fill:#f87b29;}.cls-68{fill:#2399b4;}.cls-69{fill:#fe9c3b;}.cls-70{fill:#f9992d;}.cls-71{fill:#fe9936;}.cls-72{fill:#2da29b;}.cls-73{fill:#259bad;}.cls-74{fill:#2ea879;}.cls-75{fill:#9fa648;}.cls-76{fill:#54ab54;}.cls-77{fill:#2699be;}.cls-78{fill:#0591d4;}.cls-79{fill:#31ae5a;}.cls-80{fill:#7ba647;}.cls-81{fill:#baa03d;}.cls-82{fill:#2ea48f;}.cls-83{fill:#3fad59;}.cls-84{fill:#6daa51;}.cls-85{fill:#0c9bda;}.cls-86{fill:#f9812a;}.cls-87{fill:#fe9d3c;}.cls-88{fill:#eaa143;}.cls-89{fill:#249bac;}.cls-90{fill:#2ea96f;}.cls-91{fill:#c1a03c;}.cls-92{fill:#0a9bda;}.cls-93{fill:#c3a03e;}.cls-94{fill:#2897cd;}.cls-95{fill:#a2a94f;}.cls-96{fill:#e99c39;}.cls-97{fill:#47aa53;}.cls-98{fill:#7fa546;}.cls-99{fill:#35b058;}.cls-100{fill:#45a74d;}.cls-101{fill:#f59d3b;}.cls-102{fill:#7ca648;}.cls-103{fill:#23a27a;}.cls-104{fill:#1d91d0;}.cls-105{fill:#fe9e3e;}.cls-106{fill:#39ab57;}.cls-107{fill:#e7a142;}.cls-108{fill:#2193d1;}.cls-109{fill:#34ab57;}.cls-110{fill:#30ae51;}.cls-111{fill:#90a444;}.cls-112{fill:#1f92d0;}.cls-113{fill:#82a646;}.cls-114{fill:#c2a343;}.cls-115{fill:#e09d3a;}.cls-116{fill:#d4a140;}.cls-117{fill:#76a84d;}.cls-118{fill:#9da444;}.cls-119{fill:#ee9c39;}.cls-120{fill:#b2a342;}.cls-121{fill:#95a445;}.cls-122{fill:#27a191;}.cls-123{fill:#a7a444;}.cls-124{fill:#0777c2;}.cls-125{fill:#baa23f;}.cls-126{fill:#89a546;}.cls-127{fill:#f9a134;}.cls-128{fill:#29a577;}.cls-129{fill:#59a84f;}.cls-130{fill:#0b8cd0;}.cls-131{fill:#dea243;}.cls-132{fill:#6eaa50;}.cls-133{fill:#e09e3b;}.cls-134{fill:#cdac56;}.cls-135{fill:#a9a74b;}.cls-136{fill:#60b366;}.cls-137{fill:#f99731;}.cls-138{fill:#83ad56;}.cls-139{fill:#3ba6b1;}.cls-140{fill:#22a5dd;}.cls-141{fill:#76b363;}.cls-142{fill:#f1ab56;}.cls-143{fill:#57b468;}.cls-144{fill:#38aa8d;}.cls-145{fill:#fea750;}.cls-146{fill:#259da1;}.cls-147{fill:#309ebe;}.cls-148{fill:#a0a547;}.cls-149{fill:#16a0db;}.cls-150{fill:#48a6d9;}.cls-151{fill:#46b164;}.cls-152{fill:#0799d9;}.cls-153{fill:#23a5dd;}.cls-154{fill:#27a7de;}.cls-155{fill:#309bcf;}.cls-156{fill:#cba343;}.cls-157{fill:#48b865;}.cls-158{fill:#27a384;}.cls-159{fill:#fea751;}.cls-160{fill:#4db56c;}.cls-161{fill:#2b98d3;}.cls-162{fill:#3daf5e;}.cls-163{fill:#fe9d3d;}.cls-164{fill:#2c98d3;}.cls-165{fill:#2e9eb7;}.cls-166{fill:#269cac;}.cls-167{fill:#87a443;}.cls-168{fill:#b2a94e;}.cls-169{fill:#fff;stroke:#000;stroke-miterlimit:10;stroke-width:0.75px;}</style><clipPath id="clip-path"><path d="M17,15.94c0-4.19-2.29-7.64-5.06-7.64s-5.07,3.45-5.07,7.64S17,20.13,17,15.94Z"/></clipPath><clipPath id="clip-path-2"><rect class="cls-1" x="7.59" y="14.43" width="11.63" height="16.56" transform="translate(-7.32 6.41) rotate(-21.26)"/></clipPath><clipPath id="clip-path-3"><rect class="cls-1" x="7.59" y="14.43" width="11.62" height="16.56" transform="translate(-7.32 6.41) rotate(-21.26)"/></clipPath></defs><path d="M17,15.94c0-4.19-2.29-7.64-5.06-7.64s-5.07,3.45-5.07,7.64S17,20.13,17,15.94Z"/><g class="cls-2"><g id="Illustration_1" data-name="Illustration 1"><g class="cls-3"><g class="cls-4"><path class="cls-5" d="M10.6,23c-.06-.17-.2-.36-.07-.49s.27-.05.41.09a.45.45,0,0,1,.16.39c0,.15-.12.17-.23.13a1.45,1.45,0,0,1-.22-.09s0,0-.05,0"/><path class="cls-6" d="M10.54,19.93a.66.66,0,0,1,.36.47c0,.12.06.26-.05.32s-.2,0-.29-.11-.08-.15-.16-.16a.27.27,0,0,1-.06-.19c0-.21,0-.4.2-.33"/><path class="cls-7" d="M10.27,21c0-.18,0-.32.2-.26a.63.63,0,0,1,.37.49c0,.23-.07.29-.21.29s-.31-.18-.36-.52"/><path class="cls-8" d="M16,21.92c.07.18.17.38,0,.5s-.26,0-.39-.13a.43.43,0,0,1-.15-.41c0-.14.13-.15.25-.11s.12.07.19.1.05,0,.07.05"/><path class="cls-7" d="M10.61,21.63c.16.15.35.3.28.57s-.17.16-.3.06a.52.52,0,0,1-.26-.6c.06-.13.14-.18.28,0"/><path class="cls-9" d="M11.93,18.81c0,.49-.09.53-.39.3a.56.56,0,0,1-.14-.5.28.28,0,0,1,0-.13c.06-.08.12-.15.23-.12a.45.45,0,0,1,.26.45"/><path class="cls-10" d="M10.08,20a.72.72,0,0,1-.35-.47.38.38,0,0,1,0-.36c.09-.08.19,0,.27.14l.17.28c0,.22.08.43-.14.41"/><path class="cls-11" d="M14.24,18.58a.31.31,0,0,1,.27-.32.29.29,0,0,1,.29.18.27.27,0,0,1-.06.35l-.09.07a.22.22,0,0,1-.17.05.29.29,0,0,1-.24-.33"/><path class="cls-12" d="M11.47,19.14c0,.15,0,.31-.05.39s-.27-.1-.38-.28A.75.75,0,0,1,11,19a.38.38,0,0,1,0-.15.26.26,0,0,1,.23-.19.11.11,0,0,1,.08,0,.64.64,0,0,1,.21.45"/><path class="cls-13" d="M14.37,19.28c0,.26-.16.33-.33.31a.3.3,0,0,1-.27-.38c.07-.16.21-.21.34-.28s.18,0,.26.16a.18.18,0,0,1,0,.19"/><path class="cls-14" d="M12,18.32c.12-.06.26-.14.37.09s.09.51-.09.62a.57.57,0,0,1-.32-.26.61.61,0,0,1-.05-.37s0-.11.09-.08"/><path class="cls-15" d="M13,18c-.13,0-.26.08-.35-.18s.05-.47.19-.49.26.13.26.34-.08.21-.1.34Z"/><path class="cls-16" d="M10.59,23.87a.26.26,0,0,1-.26.06c-.14-.06-.32-.13-.34-.37s.15-.23.3-.18.13,0,.2,0,.21.3.1.45"/><path class="cls-17" d="M10,20.62c.06.15.05.27-.07.28s-.28-.15-.36-.34-.11-.29,0-.38.17,0,.27.08a.62.62,0,0,1,.12.19.25.25,0,0,1,.06.17"/><path class="cls-18" d="M10.41,19.1,10.26,19a.92.92,0,0,1-.15-.4c0-.14,0-.35.09-.34s.26.26.34.45a.36.36,0,0,1,.06.24c0,.11-.06.23-.19.18"/><path class="cls-19" d="M10.19,22.91c-.16.06-.41-.12-.49-.31s0-.26.07-.29.41.14.48.34,0,.22-.06.26"/><path class="cls-20" d="M10,21.42c0,.14.16.3.07.42s-.15.07-.24,0a.65.65,0,0,1-.29-.37.24.24,0,0,1,0-.23c.1-.08.22,0,.34.11a.47.47,0,0,0,.09.06Z"/><path class="cls-21" d="M16.39,22.07c.12-.06.37.11.46.31s0,.26,0,.32-.36-.12-.46-.32-.06-.27,0-.31"/><path class="cls-22" d="M11.2,17.46l.08-.08c.05-.08.11-.14.22-.06a.48.48,0,0,1,.14.33,1.8,1.8,0,0,0,0,.22l0,0a.16.16,0,0,1,0,.1c-.08.12-.17.26-.33,0s-.07-.36-.15-.54Z"/><path class="cls-23" d="M12,17.85c-.11-.3,0-.65.12-.67s.18,0,.23.18,0,.56-.15.59a.17.17,0,0,1-.2-.1"/><path class="cls-24" d="M13.49,18.05a.27.27,0,0,1,0-.25c.11-.13.25-.2.4,0s0,.34-.06.44-.16.16-.28.1a.21.21,0,0,1-.09-.27"/><path class="cls-25" d="M16.18,23.14c0,.24-.17.2-.32.08a.55.55,0,0,1-.25-.53c0-.19.16-.19.31-.07a4.2,4.2,0,0,1,.26.52"/><path class="cls-26" d="M10.83,23.33c.16-.12.33-.12.51.15s0,.3-.13.36-.14,0-.19.06a.11.11,0,0,1-.08,0c-.16-.19-.23-.38-.11-.57"/><path class="cls-27" d="M13.23,19.12c-.1-.26-.08-.44.07-.55,0-.07,0-.12.08-.13a.45.45,0,0,1,.32.25c.05.12.08.23,0,.31s-.27.21-.47.12"/><path class="cls-28" d="M10,20.62,10,20.45c0-.13-.06-.35,0-.44s.3,0,.38.3c0,.05,0,.1,0,.14,0,.28-.09.33-.27.15s-.1-.1-.11,0"/><path class="cls-29" d="M9.68,17.71c0-.2-.11-.43,0-.51s.19.09.23.23.14.44,0,.52-.17-.12-.24-.24"/><path class="cls-30" d="M10.62,16.72c.05.2.1.43,0,.54s-.15-.05-.2-.17-.06-.57.05-.59.15.09.2.22"/><path class="cls-31" d="M14.42,20c-.21-.36,0-.4.11-.56a.19.19,0,0,1,.18,0c.13.12.33.2.21.46a.57.57,0,0,1-.5.12"/><path class="cls-32" d="M10.57,18.88l0-.2c.09-.05.06-.28.23-.2,0,0,.05,0,.08,0a.54.54,0,0,1,.12.36A.88.88,0,0,0,11,19a.88.88,0,0,1-.12.19l0,0s0,0,0,0a.66.66,0,0,1-.24-.38"/><path class="cls-33" d="M16.55,20c.16-.05.32,0,.45.23s0,.22-.07.23a.41.41,0,0,1-.45-.23c-.09-.15,0-.19.07-.23"/><path class="cls-34" d="M9.46,18.54c.08.19.13.39,0,.44s-.23-.14-.29-.31-.09-.37,0-.4.2.14.25.27"/><path class="cls-35" d="M13.36,18.48l-.06.09C13,18.46,13,18.37,13,18h0c.11-.08.23-.12.37.07s.07.33-.05.4"/><path class="cls-36" d="M16.05,23.6c.08-.1,0-.38.26-.23a.59.59,0,0,1,.26.55c-.16.25-.32,0-.48-.17a.21.21,0,0,1,0-.15"/><path class="cls-37" d="M11.25,18.7l-.06,0a.77.77,0,0,1-.17-.38c0-.09,0-.19,0-.22s.15-.17.29-.05a.51.51,0,0,1,.14.46l0,.1c-.05.08-.11.14-.21.07"/><path class="cls-38" d="M10.3,21.61c-.11,0-.21-.09-.32-.19h0c-.06-.13-.15-.28-.07-.39s.19,0,.3.07c.24.3.25.39.08.51"/><path class="cls-39" d="M9.17,23.49a.13.13,0,0,1,.11-.18.48.48,0,0,1,.45.3.13.13,0,0,1-.1.18c-.14.05-.4-.11-.46-.3"/><path class="cls-40" d="M16,21.92l-.07-.05a1,1,0,0,1-.09-.34c.1-.19.25-.11.4,0a.18.18,0,0,1,.05.15c.07.12.12.23,0,.32s-.22,0-.34-.06"/><path class="cls-41" d="M10.19,17.88c0-.19-.08-.41.06-.47s.19.1.22.24.1.4-.05.47-.17-.12-.23-.24"/><path class="cls-42" d="M10.22,19.55c-.06-.25-.05-.42.17-.37s.14.11.19.19a.25.25,0,0,1,0,.07.24.24,0,0,1,0,.12.28.28,0,0,1,0,.13.22.22,0,0,1-.07.2c-.18,0-.26-.12-.3-.34"/><path class="cls-19" d="M10.47,23.47c-.06-.06-.12-.12-.18-.08a.29.29,0,0,0,0-.09c-.11-.37-.06-.44.22-.34l.07,0s0,0,.05,0l.12.27c0,.25-.17.18-.3.18"/><path class="cls-43" d="M9.68,18.65c0-.17-.1-.37,0-.43s.19.1.24.23.13.38,0,.46-.19-.12-.26-.26"/><path class="cls-44" d="M11.05,18.12c0,.07,0,.14,0,.2a.06.06,0,0,1,0,.06c-.15-.07-.31-.12-.38-.38v-.18c0-.12,0-.2.13-.2s.15.09.19.21a2.47,2.47,0,0,1,.1.29"/><path class="cls-45" d="M13.9,18.32c.13,0,.24.07.3.27a.24.24,0,0,1-.1.28l-.13.05c-.13,0-.24-.06-.3-.27s.07-.33.23-.33"/><path class="cls-46" d="M15.39,18.93c-.13,0-.28.06-.37-.15a.22.22,0,0,1,.13-.31.27.27,0,0,1,.35.19c.06.17-.05.21-.11.27"/><path class="cls-47" d="M14.29,17.67a.21.21,0,0,1,.28.14.23.23,0,0,1-.14.33.2.2,0,0,1-.28-.14.23.23,0,0,1,.14-.33"/><path class="cls-48" d="M10.93,23.88H11a.05.05,0,0,1,0,0c.05.09.13.14.16.25s-.13.26-.29.19-.35-.14-.26-.44c.07-.14.15-.16.28,0"/><path class="cls-49" d="M14.14,17.48c-.11,0-.22,0-.27-.13A.27.27,0,0,1,14,17c.08-.05.2,0,.25.13s0,.29-.13.37"/><path class="cls-50" d="M15,17.76a.27.27,0,0,1,.36.16.18.18,0,0,1-.13.27c-.1,0-.24.1-.34-.15s0-.22.11-.28"/><path class="cls-51" d="M17,21.29c.12-.05.38.1.44.28s0,.16-.05.2-.39-.1-.45-.26,0-.19.06-.22"/><path class="cls-52" d="M8.9,22.28c0-.11,0-.2,0-.22s.31.06.42.28.05.21,0,.22-.3-.07-.43-.28"/><path class="cls-53" d="M12.56,18.7c0-.27.08-.4.26-.39s.22.13.25.31c0,0,0,0,0,.05a.31.31,0,0,1-.27.19c-.09,0-.18,0-.23-.16"/><path class="cls-54" d="M11.44,16.39c.05.24,0,.44-.1.52s-.16-.09-.18-.2,0-.41.12-.48.12.09.16.16"/><path class="cls-55" d="M12.14,16.21c.06,0,.13,0,.17.13a.44.44,0,0,1-.09.49c-.07.06-.14,0-.19-.09s0-.47.11-.53"/><path class="cls-56" d="M9.26,19.84c0,.13.08.29,0,.32S9,20,8.9,19.85s-.09-.29,0-.32.23.16.33.31"/><path class="cls-57" d="M11.62,17.23c0-.2,0-.39.08-.49s.16,0,.19.14,0,.4-.09.49-.13,0-.18-.14"/><path class="cls-58" d="M9.34,19.63c0-.14-.09-.3,0-.33s.25.14.31.31.09.29,0,.32-.23-.14-.3-.3"/><path class="cls-59" d="M17.55,23a.43.43,0,0,1-.37-.31c-.05-.11,0-.19,0-.23s.34.15.4.33,0,.18-.07.21"/><path class="cls-60" d="M11.2,17.45c-.09,0-.11.27-.26.1a.52.52,0,0,1-.1-.43c0-.09,0-.24.14-.22s.15.2.17.33,0,.15,0,.23Z"/><path class="cls-61" d="M9.18,21.37c-.15,0-.28-.13-.37-.34s0-.21,0-.22.29.12.38.33,0,.2-.06.23"/><path class="cls-62" d="M17.25,24c-.05-.11-.07-.24,0-.26s.27.11.36.29.07.24,0,.27-.26-.13-.36-.3"/><path class="cls-63" d="M13.5,17.62c-.09,0-.19.06-.24-.11a.31.31,0,0,1,.12-.38c.07,0,.18,0,.24.11a.28.28,0,0,1-.12.38"/><path class="cls-64" d="M13,16.5c.08,0,.17,0,.21.11a.33.33,0,0,1-.13.42c-.08,0-.17,0-.21-.12A.33.33,0,0,1,13,16.5"/><path class="cls-65" d="M9.57,22.79c.1,0,.24.06.35.26s0,.21-.07.22a.4.4,0,0,1-.4-.27c0-.12,0-.18.12-.21"/><path class="cls-66" d="M17.23,24.31c0,.13.07.27-.05.28s-.25-.15-.32-.33-.05-.24,0-.26.25.14.33.31"/><path class="cls-67" d="M16,24.16a.65.65,0,0,1-.39-.49c-.05-.16,0-.29.08-.31a1.49,1.49,0,0,1,.4.74c0,.06,0,.06-.09.06"/><path class="cls-68" d="M10.58,19.55a.29.29,0,0,0,0-.09c.19,0,.4.14.53.47-.05.28-.17.26-.34,0s-.13-.27-.21-.4"/><path class="cls-61" d="M9.21,20.74c0-.13-.07-.26,0-.27s.27.12.35.31.05.24-.05.25-.25-.11-.33-.29"/><path class="cls-69" d="M16.28,21.67l-.06-.15a.13.13,0,0,1-.09-.16.28.28,0,0,1,.38-.17.33.33,0,0,1,.14.3.16.16,0,0,1-.19.15c-.07,0-.13,0-.18,0"/><path class="cls-70" d="M16.93,23.71c-.17.13-.32,0-.44-.25s-.08-.32,0-.4,0,0,.06,0a1.22,1.22,0,0,1,.34.62"/><path class="cls-71" d="M16.76,21.76c.12,0,.25,0,.35.25s0,.22-.05.24-.27-.07-.37-.27,0-.19.07-.22"/><path class="cls-72" d="M9.48,16.23c0,.18.1.39,0,.46s-.16-.09-.19-.21-.11-.38,0-.45.14.1.18.2"/><path class="cls-73" d="M11.13,19.93c-.17-.19-.31-.42-.53-.46,0,0,0,0,0,0,0-.17.07-.24.21-.18h.06a.85.85,0,0,1,.27.7"/><path class="cls-74" d="M10.14,15.77c-.07-.21-.08-.4,0-.5s.14.06.17.15.08.42-.06.51-.1-.1-.13-.16"/><path class="cls-75" d="M15.36,19.64c0,.14.15.17.19.29s-.25.19-.42.16l-.07,0c-.13-.27-.11-.33.12-.44a.16.16,0,0,1,.18,0"/><path class="cls-76" d="M15.62,17.29c.12,0,.24-.05.32.12a.15.15,0,0,1-.11.23c-.1,0-.23.06-.31-.12a.16.16,0,0,1,.1-.23"/><path class="cls-77" d="M8.58,17.68c0-.15-.08-.32,0-.36s.17.12.21.24.1.31,0,.36-.17-.13-.24-.24"/><path class="cls-78" d="M10.11,24a.27.27,0,0,1,.27.26c0,.22-.14.19-.26.16a.3.3,0,0,1-.22-.17.25.25,0,0,1,.21-.25"/><path class="cls-79" d="M11.29,15.63c-.08,0-.13,0-.16-.11a.46.46,0,0,1,.06-.48c.06,0,.12,0,.15.12a.52.52,0,0,1-.05.47"/><path class="cls-80" d="M16.72,18.63a.32.32,0,0,1,.38.14A.13.13,0,0,1,17,19c-.12,0-.28,0-.38-.18s.05-.14.09-.17"/><path class="cls-81" d="M15.63,20.11c.13-.16.28-.13.46.05s-.05.19-.12.24a.66.66,0,0,1-.25.05c-.18-.09-.22-.2-.09-.34"/><path class="cls-82" d="M9.87,16.74c0-.17-.09-.34,0-.43s.14,0,.18.15.08.37,0,.46-.12-.09-.17-.18"/><path class="cls-83" d="M14.53,16.68c-.09,0-.19,0-.22-.12a.2.2,0,0,1,.14-.27.15.15,0,0,1,.21.12c.05.17-.06.22-.13.27"/><path class="cls-84" d="M16,18.49c-.11,0-.23,0-.3-.16s0-.19.11-.19.23-.05.3.15,0,.17-.11.2"/><path class="cls-85" d="M9,24.12c0-.12,0-.18.08-.18a.36.36,0,0,1,.37.22c0,.11,0,.16-.08.16a.38.38,0,0,1-.37-.2"/><path class="cls-86" d="M16.12,23.75c.06.15.07.27,0,.35-.09-.27-.3-.47-.39-.74.14-.06.25.06.34.24l.07.15"/><path class="cls-87" d="M17.92,21.65a.37.37,0,0,1,.37.23c.05.08,0,.17,0,.17a.39.39,0,0,1-.39-.23.11.11,0,0,1,0-.17"/><path class="cls-88" d="M17.29,20.82a.35.35,0,0,1,.35.21c0,.09,0,.16-.05.16a.34.34,0,0,1-.38-.22c0-.08,0-.13.08-.15"/><path class="cls-89" d="M9.2,17.64c-.06-.18-.1-.35,0-.41s.15.11.18.21.1.32,0,.38-.15-.1-.2-.18"/><path class="cls-90" d="M10.72,16.25c-.05-.18-.07-.36,0-.46s.12,0,.15.14a.43.43,0,0,1,0,.45c-.06.05-.11,0-.15-.13"/><path class="cls-91" d="M15.46,20.69c-.17.1-.33.23-.56-.06.09-.21.28-.21.46-.24a.24.24,0,0,1,.13.16c0,.07,0,.11,0,.14"/><path class="cls-92" d="M8.66,23.53a.38.38,0,0,1-.37-.24c0-.09,0-.14.05-.16s.36.11.4.25,0,.12-.08.15"/><path class="cls-93" d="M15.68,20.41c.12-.11.34,0,.41-.25.2.19.2.31,0,.39s-.23-.07-.3,0,0,0-.06,0a.25.25,0,0,1-.06-.17"/><path class="cls-94" d="M8.74,18.85c0-.12-.09-.26,0-.31s.18.1.24.23.08.24,0,.28-.18-.08-.25-.2"/><path class="cls-95" d="M17,19.76c-.12.08-.25,0-.35-.17a.09.09,0,0,1,.05-.15.3.3,0,0,1,.38.17c.07.13,0,.12-.08.15"/><path class="cls-96" d="M15.69,21.06l.09.19a.32.32,0,0,1-.46.18c0-.05-.1-.1-.09-.19a.31.31,0,0,1,.36-.21h.05a.07.07,0,0,1,0,0"/><path class="cls-97" d="M14.76,17.11a.17.17,0,0,1,.26.11c.06.13,0,.19-.1.22s-.19.08-.26-.09,0-.2.1-.24"/><path class="cls-98" d="M15.83,19.16c-.12-.12-.13-.24,0-.3s.3-.12.47.12c-.08.22-.26.21-.44.18"/><path class="cls-99" d="M11.64,16.12c0-.18,0-.33.08-.41s.11,0,.13.11,0,.35-.08.42-.11,0-.13-.12"/><path class="cls-100" d="M12.56,18.7c.22.21.33,0,.5,0a.42.42,0,0,1-.13.35c-.17.12-.31,0-.37-.32"/><path class="cls-101" d="M15.32,21.43l.46-.18c.09.1,0,.19.06.28a.35.35,0,0,1-.52-.1"/><path class="cls-102" d="M14.93,19.28a.45.45,0,0,1-.24.17s-.1.05-.16,0l0-.07a.15.15,0,0,1,0-.24.31.31,0,0,1,.35,0c.06.06,0,.14.06.2"/><path class="cls-103" d="M11.68,18.28v-.34h0q.25,0,.33.33a.14.14,0,0,0,0,.06l-.07.11c-.11.17-.2,0-.28-.15"/><path class="cls-52" d="M9,22.78c0,.12,0,.16-.06.17s-.24-.05-.33-.22,0-.16.06-.16a.39.39,0,0,1,.33.21"/><path class="cls-39" d="M8.1,21.89c0-.1-.06-.18,0-.19s.25.06.35.23,0,.15,0,.16-.25-.05-.35-.2"/><path class="cls-104" d="M8.24,19.11c0-.11-.09-.24,0-.27s.18.1.24.23.1.23,0,.27-.19-.1-.25-.23"/><path class="cls-59" d="M18.36,23.46c-.12,0-.22-.08-.31-.24s0-.16,0-.18.24.08.32.24.05.15,0,.18"/><path class="cls-105" d="M17.58,22.14a.39.39,0,0,1,.31.23c.06.11,0,.17-.05.18a.36.36,0,0,1-.31-.24.12.12,0,0,1,0-.17"/><path class="cls-106" d="M13.69,16.39c.07,0,.15,0,.19.1a.2.2,0,0,1-.1.27c-.07,0-.15.06-.19-.07a.23.23,0,0,1,.1-.3"/><path class="cls-107" d="M16.71,20.74a.24.24,0,0,1,.12.25.12.12,0,0,1-.15.1.37.37,0,0,1-.32-.2c.06-.21.2-.18.35-.15"/><path class="cls-108" d="M8.39,20.75c-.11,0-.2-.07-.28-.21s-.09-.2,0-.23.22.07.31.21.06.17,0,.23"/><path class="cls-109" d="M13.29,15.65c.07,0,.14,0,.17.1a.27.27,0,0,1-.13.33s-.11,0-.14-.09a.26.26,0,0,1,.1-.34"/><path class="cls-110" d="M12.15,15.62a.37.37,0,0,1,.09-.41s.12,0,.14.1,0,.32-.09.4-.11,0-.14-.09"/><path class="cls-111" d="M15.21,19.69c0-.09-.08-.11-.12-.17.06-.23.29-.15.4-.29l0,0c.15.28.12.37-.16.44l-.15.05"/><path class="cls-112" d="M8.81,20.38c-.11,0-.2-.09-.27-.24s-.06-.2,0-.22.2.09.27.24.06.17,0,.22"/><path class="cls-113" d="M15,19.4a1.12,1.12,0,0,1,0-.13c.13-.21.3-.31.56-.07h0a.52.52,0,0,1-.5.19"/><path class="cls-114" d="M17.61,20.47c-.07-.07-.19-.07-.18-.22s.12-.11.2-.09.2,0,.26.2-.16.14-.28.11"/><path class="cls-115" d="M15.69,21.06l0,0-.07-.12c.07-.21.22-.22.39-.16A.33.33,0,0,1,16,21c-.1.07-.22,0-.34,0"/><path class="cls-116" d="M16,20.74l-.39.16c-.09,0,0-.18-.11-.21s0,0,0-.06.16-.1.27,0h.05l.16.16"/><path class="cls-117" d="M14.36,19.12l.1-.12c.06-.05.11-.13.22-.07a.27.27,0,0,1,.19.15c-.11.11-.36,0-.37.29l-.13-.09c0-.05,0-.11,0-.16"/><path class="cls-118" d="M15.82,19.82c-.16-.26,0-.29.1-.32a.24.24,0,0,1,.25.1c0,.34-.18.24-.35.22"/><path class="cls-119" d="M16.14,21.41c-.05-.11-.13-.22-.09-.34a.38.38,0,0,1,.46.12.94.94,0,0,0-.37.22"/><path class="cls-120" d="M14.84,20.5c-.06-.24.05-.28.17-.31a2.09,2.09,0,0,1,.25,0s0,0,0,0a.23.23,0,0,1,0,.11.47.47,0,0,1-.48.16"/><path class="cls-121" d="M14.94,19.81A1.48,1.48,0,0,0,15,20c-.17.07-.32.2-.53,0l.52-.19"/><path class="cls-122" d="M10.62,18c.11.18.26.22.38.35s-.09.19-.21.15l0,0c0-.16-.18-.3-.15-.48"/><path class="cls-123" d="M15.82,19.82c.12-.08.3,0,.35-.22.17.15.14.26,0,.32a.28.28,0,0,1-.37-.1"/><path class="cls-124" d="M11.33,24.49c-.14-.08-.09-.22-.13-.33.11-.12.23-.24.42-.1-.08.16-.34.1-.29.43"/><path class="cls-125" d="M14.84,20.5c.15-.09.35-.06.46-.24h0l.09.19-.5.19a.13.13,0,0,1-.06-.13"/><path class="cls-126" d="M15.83,19.16l.44-.18c0,.31-.13.38-.44.18"/><path class="cls-127" d="M16.93,23.71a4.65,4.65,0,0,1-.34-.62c.31.17.4.35.34.62"/><path class="cls-128" d="M12,18.26a.66.66,0,0,0-.33-.33.14.14,0,0,1,0-.06c.08,0,.15-.18.27,0a.46.46,0,0,1,.08.42"/><path class="cls-129" d="M13.23,19.12l.47-.18c0,.07,0,.11,0,.14s-.23.29-.45,0"/><path class="cls-130" d="M11,23.91l0,0c.14-.09.35-.1.35-.4.17.25.08.35-.05.42a.68.68,0,0,1-.25,0"/><path class="cls-131" d="M16.71,20.74l-.35.15c-.13-.19,0-.23.05-.26a.28.28,0,0,1,.3.11"/><path class="cls-132" d="M14.08,18.79c-.07.11,0,.14.08.19a1.18,1.18,0,0,1-.39.23.28.28,0,0,1,0-.09c0-.17.1-.2.18-.26l.14-.07"/><path class="cls-133" d="M15.59,21c-.14,0-.21.21-.36.22,0-.3.08-.36.36-.22"/><path class="cls-134" d="M18.77,20.66a.28.28,0,0,1-.23-.12c0-.06,0-.11,0-.11a.22.22,0,0,1,.23.1c0,.06,0,.11,0,.13"/><path class="cls-135" d="M15.58,20l-.06.1a.26.26,0,0,1-.25.1h0c0-.07-.1,0-.13-.1l.42-.16,0,.06"/><path class="cls-136" d="M16.28,17c0-.09,0-.12.06-.13s.12,0,.17.06,0,.12,0,.13a.15.15,0,0,1-.2-.06"/><path class="cls-137" d="M16.18,23.14a1,1,0,0,1-.26-.52.59.59,0,0,1,.26.52"/><path class="cls-138" d="M17.86,18.78c-.09,0-.16,0-.22-.09s0-.11.05-.12.14,0,.2.08,0,.1,0,.13"/><path class="cls-139" d="M8.9,16.69c-.05,0-.08,0-.1-.09s-.08-.18,0-.24.09,0,.12.09a.26.26,0,0,1,0,.24"/><path class="cls-140" d="M8.48,24.11a.2.2,0,0,1-.2-.12s0-.1,0-.1a.22.22,0,0,1,.2.12c0,.06,0,.08,0,.1"/><path class="cls-141" d="M16.55,17.91a.15.15,0,0,1,.18.07c.05.08,0,.12,0,.12a.13.13,0,0,1-.18-.06c-.05-.09,0-.11,0-.13"/><path class="cls-142" d="M18.36,21.36a.2.2,0,0,1-.2-.12s0-.08,0-.09a.18.18,0,0,1,.22.12.06.06,0,0,1,0,.09"/><path class="cls-143" d="M15.22,16.78a.1.1,0,0,1,0-.14s.1,0,.15.05,0,.11-.05.14-.09,0-.15,0"/><path class="cls-144" d="M9.61,15.52c0-.09,0-.2,0-.23s.07.06.08.11.06.2,0,.23-.07-.05-.09-.11"/><path class="cls-145" d="M18.9,22.25c0-.07,0-.1,0-.1a.23.23,0,0,1,.2.13c0,.06,0,.11,0,.11a.28.28,0,0,1-.19-.14"/><path class="cls-146" d="M11,19.21c.11.15.21.33.38.32-.2.18-.3-.05-.4-.28,0,0,0-.05,0,0"/><path class="cls-147" d="M8.21,16.76c-.06,0-.1,0-.12-.1s-.06-.18,0-.22.08,0,.1.09.07.17,0,.23"/><path class="cls-148" d="M17.55,19.62c0-.08,0-.1,0-.11a.16.16,0,0,1,.18.07c.05.06,0,.11,0,.12a.2.2,0,0,1-.21-.08"/><path class="cls-149" d="M7.42,23c0-.07,0-.11,0-.11a.23.23,0,0,1,.23.13c0,.05,0,.07,0,.08s-.15,0-.21-.1"/><path class="cls-150" d="M7.79,18.48c-.06,0-.1,0-.13-.09s-.07-.14,0-.18.1,0,.14.1a.18.18,0,0,1,0,.17"/><path class="cls-151" d="M14.81,15.85c0-.09,0-.13.09-.14a.07.07,0,0,1,.1,0c0,.11,0,.15-.08.17s-.08,0-.11-.08"/><path class="cls-152" d="M10.11,24l-.21.25c-.12-.37.08-.26.21-.25"/><path class="cls-153" d="M7.32,21.39c0-.06,0-.1,0-.09a.21.21,0,0,1,.18.13c0,.06,0,.08,0,.09a.19.19,0,0,1-.17-.13"/><path class="cls-154" d="M8.12,22.53a.21.21,0,0,1-.19-.1c0-.06,0-.11,0-.11a.2.2,0,0,1,.18.12c0,.06,0,.07,0,.09"/><path class="cls-155" d="M8.22,18c0-.06,0-.13,0-.13s.11.06.14.15,0,.13,0,.14-.11-.07-.13-.16"/><path class="cls-156" d="M17.61,20.47l.28-.11c0,.22,0,.23-.28.11"/><path class="cls-157" d="M11.77,14.84s.06,0,.08,0,0,.19,0,.24-.06,0-.08,0a.23.23,0,0,1,0-.22"/><path class="cls-158" d="M12.08,19l-.07-.2c.12,0,.2.17.29.25-.07.07-.14,0-.22-.05"/><path class="cls-159" d="M18.93,23.77c0-.05,0-.08,0-.1s.11,0,.15.1,0,.12,0,.12-.11-.05-.16-.12"/><path class="cls-160" d="M13.51,15.09c0-.09,0-.15,0-.18s.09,0,.1.07a.13.13,0,0,1,0,.15s-.07,0-.1,0"/><path class="cls-161" d="M7.44,20c0-.05,0-.1,0-.12s.11,0,.15.1,0,.09,0,.11-.11,0-.15-.09"/><path class="cls-162" d="M14.05,16s-.08,0-.1-.06a.13.13,0,0,1,.05-.15s.08,0,.1.07a.11.11,0,0,1,0,.14"/><path class="cls-163" d="M18.4,22.74q0-.1,0-.09a.18.18,0,0,1,.15.13c0,.06,0,.08,0,.07s-.1-.06-.14-.11"/><path class="cls-164" d="M8,19.57c0-.05,0-.11,0-.12s.09,0,.12.1,0,.12,0,.13-.09,0-.12-.11"/><path class="cls-165" d="M10.58,19.55c.13.09.15.26.21.4-.1,0-.09-.23-.2-.26a.66.66,0,0,0,0-.14"/><path class="cls-166" d="M10.11,18.57l.15.4a.5.5,0,0,1-.15-.4"/><path class="cls-167" d="M15,19.4l.5-.19c.06.21-.09.15-.15.2a1.53,1.53,0,0,1-.27.11A.15.15,0,0,1,15,19.4"/><path class="cls-168" d="M15.27,20.19l.25-.1c0,.13-.15.09-.21.16h0l0-.07"/></g></g></g></g><ellipse class="cls-169" cx="11.92" cy="7.1" rx="2.53" ry="2.4"/></svg>