<svg id="ICONS" xmlns="http://www.w3.org/2000/svg" xmlns:xlink="http://www.w3.org/1999/xlink" viewBox="0 0 24 24"><defs><style>.cls-1,.cls-269,.cls-275{stroke:#000;stroke-miterlimit:10;}.cls-1,.cls-269{stroke-width:0.5px;}.cls-2,.cls-269,.cls-275{fill:none;}.cls-3{clip-path:url(#clip-path);}.cls-4{clip-path:url(#clip-path-2);}.cls-5{clip-path:url(#clip-path-3);}.cls-6{fill:#1852a3;}.cls-7{fill:#f74724;}.cls-8{fill:#0399d9;}.cls-9{fill:#1f94c3;}.cls-10{fill:#198fcf;}.cls-11{fill:#fe9935;}.cls-12{fill:#f75421;}.cls-13{fill:#f7361d;}.cls-14{fill:#ea3b20;}.cls-15{fill:#23a08b;}.cls-16{fill:#1f94c4;}.cls-17{fill:#1f53a2;}.cls-18{fill:#61a74b;}.cls-19{fill:#219d97;}.cls-20{fill:#b04651;}.cls-21{fill:#f73e1f;}.cls-22{fill:#73a648;}.cls-23{fill:#27a37e;}.cls-24{fill:#39a953;}.cls-25{fill:#f7311d;}.cls-26{fill:#089ad9;}.cls-27{fill:#1a90cf;}.cls-28{fill:#249ca5;}.cls-29{fill:#0599d9;}.cls-30{fill:#1c91d0;}.cls-31{fill:#f9842b;}.cls-32{fill:#f75521;}.cls-33{fill:#fe9a37;}.cls-34{fill:#28a576;}.cls-35{fill:#2ca96a;}.cls-36{fill:#ea3c21;}.cls-37{fill:#e93c22;}.cls-38{fill:#44a950;}.cls-39{fill:#f98f2c;}.cls-40{fill:#0391d4;}.cls-41{fill:#4ea74d;}.cls-42{fill:#1d91cd;}.cls-43{fill:#f75525;}.cls-44{fill:#269ea0;}.cls-45{fill:#29a483;}.cls-46{fill:#8ea444;}.cls-47{fill:#f8712b;}.cls-48{fill:#259e9c;}.cls-49{fill:#c3a242;}.cls-50{fill:#f86328;}.cls-51{fill:#f8792b;}.cls-52{fill:#2196bf;}.cls-53{fill:#45a951;}.cls-54{fill:#f73b20;}.cls-55{fill:#f99437;}.cls-56{fill:#26a289;}.cls-57{fill:#2092d0;}.cls-58{fill:#f74127;}.cls-59{fill:#079ad9;}.cls-60{fill:#fe9b39;}.cls-61{fill:#2aa198;}.cls-62{fill:#1e96b8;}.cls-63{fill:#f98f31;}.cls-64{fill:#269bb3;}.cls-65{fill:#24a088;}.cls-66{fill:#57a74c;}.cls-67{fill:#f74924;}.cls-68{fill:#72a74a;}.cls-69{fill:#0a61b1;}.cls-70{fill:#51aa53;}.cls-71{fill:#f73724;}.cls-72{fill:#f74f24;}.cls-73{fill:#eb4026;}.cls-74{fill:#0287cd;}.cls-75{fill:#3ea951;}.cls-76{fill:#56a950;}.cls-77{fill:#0168b9;}.cls-78{fill:#f86524;}.cls-79{fill:#fe9b38;}.cls-80{fill:#0b9cda;}.cls-81{fill:#f87d2c;}.cls-82{fill:#f8432f;}.cls-83{fill:#40a84f;}.cls-84{fill:#2ba96a;}.cls-85{fill:#c83f3a;}.cls-86{fill:#31ae55;}.cls-87{fill:#2193d0;}.cls-88{fill:#30ab68;}.cls-89{fill:#1d91cc;}.cls-90{fill:#fe9c3a;}.cls-91{fill:#e33f2a;}.cls-92{fill:#2aa57e;}.cls-93{fill:#1c90cf;}.cls-94{fill:#faaa36;}.cls-95{fill:#3caa54;}.cls-96{fill:#30a851;}.cls-97{fill:#069ad9;}.cls-98{fill:#f99933;}.cls-99{fill:#f87b29;}.cls-100{fill:#f86827;}.cls-101{fill:#2399b4;}.cls-102{fill:#fe9c3b;}.cls-103{fill:#f9992d;}.cls-104{fill:#fe9936;}.cls-105{fill:#2da29b;}.cls-106{fill:#f75729;}.cls-107{fill:#294b96;}.cls-108{fill:#259bad;}.cls-109{fill:#2ea879;}.cls-110{fill:#9fa648;}.cls-111{fill:#f8742c;}.cls-112{fill:#f73b25;}.cls-113{fill:#e03b27;}.cls-114{fill:#54ab54;}.cls-115{fill:#0678c2;}.cls-116{fill:#f86329;}.cls-117{fill:#2699be;}.cls-118{fill:#dd402f;}.cls-119{fill:#20509f;}.cls-120{fill:#0591d4;}.cls-121{fill:#31ae5a;}.cls-122{fill:#0770bd;}.cls-123{fill:#7ba647;}.cls-124{fill:#f74927;}.cls-125{fill:#baa03d;}.cls-126{fill:#2ea48f;}.cls-127{fill:#e53b24;}.cls-128{fill:#3fad59;}.cls-129{fill:#6daa51;}.cls-130{fill:#0c9bda;}.cls-131{fill:#f9812a;}.cls-132{fill:#804468;}.cls-133{fill:#fe9d3c;}.cls-134{fill:#047bc4;}.cls-135{fill:#eaa143;}.cls-136{fill:#249bac;}.cls-137{fill:#2ea96f;}.cls-138{fill:#c1a03c;}.cls-139{fill:#0a9bda;}.cls-140{fill:#c3a03e;}.cls-141{fill:#2897cd;}.cls-142{fill:#f99531;}.cls-143{fill:#a2a94f;}.cls-144{fill:#f9812e;}.cls-145{fill:#e99c39;}.cls-146{fill:#eb452c;}.cls-147{fill:#47aa53;}.cls-148{fill:#e94a33;}.cls-149{fill:#7fa546;}.cls-150{fill:#35b058;}.cls-151{fill:#45a74d;}.cls-152{fill:#f73320;}.cls-153{fill:#0d88cd;}.cls-154{fill:#f86d27;}.cls-155{fill:#f73927;}.cls-156{fill:#f59d3b;}.cls-157{fill:#7ca648;}.cls-158{fill:#0768b8;}.cls-159{fill:#23a27a;}.cls-160{fill:#1d91d0;}.cls-161{fill:#f9a33b;}.cls-162{fill:#fab43d;}.cls-163{fill:#fe9e3e;}.cls-164{fill:#39ab57;}.cls-165{fill:#e7a142;}.cls-166{fill:#095fb1;}.cls-167{fill:#6f4a77;}.cls-168{fill:#2193d1;}.cls-169{fill:#34ab57;}.cls-170{fill:#30ae51;}.cls-171{fill:#eb3f26;}.cls-172{fill:#90a444;}.cls-173{fill:#1f92d0;}.cls-174{fill:#f86e28;}.cls-175{fill:#82a646;}.cls-176{fill:#c2a343;}.cls-177{fill:#e09d3a;}.cls-178{fill:#a54151;}.cls-179{fill:#d4a140;}.cls-180{fill:#894665;}.cls-181{fill:#76a84d;}.cls-182{fill:#9da444;}.cls-183{fill:#ee9c39;}.cls-184{fill:#714571;}.cls-185{fill:#b2a342;}.cls-186{fill:#95a445;}.cls-187{fill:#1156a8;}.cls-188{fill:#27a191;}.cls-189{fill:#a7a444;}.cls-190{fill:#d33d31;}.cls-191{fill:#0777c2;}.cls-192{fill:#baa23f;}.cls-193{fill:#89a546;}.cls-194{fill:#f9a134;}.cls-195{fill:#0584ca;}.cls-196{fill:#e1422f;}.cls-197{fill:#29a577;}.cls-198{fill:#874c6d;}.cls-199{fill:#59a84f;}.cls-200{fill:#0b8cd0;}.cls-201{fill:#dea243;}.cls-202{fill:#6eaa50;}.cls-203{fill:#97425a;}.cls-204{fill:#e09e3b;}.cls-205{fill:#cdac56;}.cls-206{fill:#4562a3;}.cls-207{fill:#2354a2;}.cls-208{fill:#a9a74b;}.cls-209{fill:#f86138;}.cls-210{fill:#0a66b5;}.cls-211{fill:#f97745;}.cls-212{fill:#60b366;}.cls-213{fill:#257cc2;}.cls-214{fill:#f99731;}.cls-215{fill:#83ad56;}.cls-216{fill:#3ba6b1;}.cls-217{fill:#22a5dd;}.cls-218{fill:#67497a;}.cls-219{fill:#76b363;}.cls-220{fill:#f85538;}.cls-221{fill:#f97d38;}.cls-222{fill:#f1ab56;}.cls-223{fill:#98617d;}.cls-224{fill:#e35544;}.cls-225{fill:#57b468;}.cls-226{fill:#38aa8d;}.cls-227{fill:#faa64a;}.cls-228{fill:#f84d3c;}.cls-229{fill:#fea750;}.cls-230{fill:#f73b27;}.cls-231{fill:#259da1;}.cls-232{fill:#309ebe;}.cls-233{fill:#ee5c46;}.cls-234{fill:#a0a547;}.cls-235{fill:#48a6d9;}.cls-236{fill:#f84736;}.cls-237{fill:#46b164;}.cls-238{fill:#0799d9;}.cls-239{fill:#23a5dd;}.cls-240{fill:#ee5f49;}.cls-241{fill:#27a7de;}.cls-242{fill:#309bcf;}.cls-243{fill:#cba343;}.cls-244{fill:#ed523b;}.cls-245{fill:#fbbc51;}.cls-246{fill:#fab658;}.cls-247{fill:#fa8b3a;}.cls-248{fill:#48b865;}.cls-249{fill:#ee5b45;}.cls-250{fill:#27a384;}.cls-251{fill:#fea751;}.cls-252{fill:#4db56c;}.cls-253{fill:#2b98d3;}.cls-254{fill:#3daf5e;}.cls-255{fill:#0c8ed1;}.cls-256{fill:#fe9d3d;}.cls-257{fill:#2c98d3;}.cls-258{fill:#2e9eb7;}.cls-259{fill:#269cac;}.cls-260{fill:#8c5677;}.cls-261{fill:#d64b40;}.cls-262{fill:#d75950;}.cls-263{fill:#855579;}.cls-264{fill:#5b4c82;}.cls-265{fill:#87a443;}.cls-266{fill:#c84844;}.cls-267{fill:#ba545b;}.cls-268{fill:#b2a94e;}.cls-270{clip-path:url(#clip-path-4);}.cls-271{clip-path:url(#clip-path-5);}.cls-272{clip-path:url(#clip-path-6);}.cls-273{fill:#1b98d6;}.cls-274{fill:#16a0db;}</style><clipPath id="clip-path"><path class="cls-1" d="M11.52,16.69l-5.21,0L5.46,6.26s0,0,0,0a7.31,7.31,0,0,0,4.39.87,7,7,0,0,0,2.61-.87,0,0,0,0,1,0,0Z"/></clipPath><clipPath id="clip-path-2"><rect class="cls-2" x="6.98" y="4" width="18" height="13.67"/></clipPath><clipPath id="clip-path-3"><rect class="cls-2" x="6.98" y="4" width="18" height="13.67"/></clipPath><clipPath id="clip-path-4"><path class="cls-1" d="M17.4,17.92H7a.69.69,0,0,1-.68-.69v-3.9a.69.69,0,0,1,.8-.68l9.7,1.64a.74.74,0,0,1,.26.1,2.51,2.51,0,0,1,.77.83,2.81,2.81,0,0,1,.18,2.22A.67.67,0,0,1,17.4,17.92Z"/></clipPath><clipPath id="clip-path-5"><rect class="cls-2" x="5.98" y="2" width="18" height="17.67"/></clipPath><clipPath id="clip-path-6"><rect class="cls-2" x="5.98" y="2" width="18" height="17.67"/></clipPath></defs><path d="M11.52,16.69l-5.21,0L5.46,6.26s0,0,0,0a7.31,7.31,0,0,0,4.39.87,7,7,0,0,0,2.61-.87,0,0,0,0,1,0,0Z"/><g class="cls-3"><g id="Illustration_1" data-name="Illustration 1"><g class="cls-4"><g class="cls-5"><path class="cls-6" d="M19.54,9.69a1.25,1.25,0,0,1-.32.08c-.21,0-.41,0-.5-.2s.1-.26.26-.34a.51.51,0,0,1,.62.1c.11.13.15.26-.06.36"/><path class="cls-7" d="M15.57,7.91a.35.35,0,0,1,0,.43.39.39,0,0,1-.45.18c-.17-.06-.28-.21-.17-.38s0-.07,0-.11a.45.45,0,0,1,.21-.22.36.36,0,0,1,.43,0,0,0,0,0,1,0,.07"/><path class="cls-8" d="M20.18,11.45c0,.15.09.34-.18.4a.52.52,0,0,1-.54-.19c-.09-.11-.12-.24,0-.34a.38.38,0,0,1,.42,0l.26.14s.05,0,.05,0"/><path class="cls-9" d="M18.55,13.82a.4.4,0,0,1-.25-.46c0-.1.05-.22.24-.23a.31.31,0,0,1,.36.17c0,.07,0,.14.15.17s0,.11,0,.17-.21.3-.48.18"/><path class="cls-10" d="M19.55,13.07a.32.32,0,0,1-.43.14c-.23-.11-.33-.28-.26-.49s.26-.2.46-.16.35.23.23.51"/><path class="cls-11" d="M11.8,10.66c0-.16,0-.34.24-.39a.5.5,0,0,1,.49.21c.1.12.13.26,0,.37a.4.4,0,0,1-.42,0,1,1,0,0,1-.22-.14.08.08,0,0,1-.08-.06"/><path class="cls-12" d="M14.65,8.08c.12.22.18.43-.12.6s-.43.09-.46-.17a1.08,1.08,0,0,1,0-.31v0c.16-.16.33-.27.56-.07"/><path class="cls-13" d="M15.92,7.86c.19,0,.42-.17.56,0s0,.35-.18.47a.38.38,0,0,1-.42,0c-.15-.08-.12-.21-.1-.33s.15-.15.14-.25Z"/><path class="cls-14" d="M17.34,8.37s0,0,0,0c-.19.15-.41.27-.65.09s-.05-.3.09-.42a.46.46,0,0,1,.66,0l0,0c.05.11,0,.19-.11.25"/><path class="cls-10" d="M19.41,12.5c-.15-.17-.34-.33-.1-.53a.39.39,0,0,1,.48,0c.2.16.29.34,0,.54s-.31.09-.42-.06"/><path class="cls-15" d="M15.91,14.27c.33-.36.44-.38.74-.11.13.16,0,.29-.08.43a.57.57,0,0,1-.13.08.55.55,0,0,1-.4,0c-.18-.12-.26-.25-.13-.43"/><path class="cls-16" d="M19.24,13.94a.44.44,0,0,1,.23.47.34.34,0,0,1-.28.26c-.16,0-.24-.08-.3-.19a2,2,0,0,1-.09-.26c.06-.19.13-.36.44-.28"/><path class="cls-17" d="M20.05,9a2.94,2.94,0,0,1,.42,0,.32.32,0,0,1,.31.23c0,.15-.1.19-.24.23s-.36.09-.53,0-.25-.32,0-.45"/><path class="cls-18" d="M12.46,13.76a.62.62,0,0,1-.57.16c-.16,0-.31-.09-.33-.23s.13-.21.29-.24l.17,0a.67.67,0,0,1,.28,0c.18.07.28.16.16.33"/><path class="cls-19" d="M16.77,14.16c.06-.12.11-.25.29-.29s.33.16.39.33a.34.34,0,0,1,0,.22.21.21,0,0,1-.08.11.56.56,0,0,1-.44.08.19.19,0,0,1-.1,0,.29.29,0,0,1,0-.4"/><path class="cls-20" d="M19.2,8.32a.86.86,0,0,1,.5-.11c.16,0,.31.08.32.22s-.08.21-.25.23a3,3,0,0,1-.43.06c-.32-.13-.35-.2-.14-.4"/><path class="cls-21" d="M15.12,7.46c-.12-.21,0-.37.16-.51a.33.33,0,0,1,.37-.09.23.23,0,0,1,.12.3c0,.06-.06.12-.08.18s-.13.13-.21.18-.28.11-.36-.06"/><path class="cls-22" d="M12.66,13.18a.58.58,0,0,1,.65-.14c.21.06.36.18.18.37a1.6,1.6,0,0,1-.65.12.33.33,0,0,1-.29-.2c0-.07,0-.12.11-.15"/><path class="cls-23" d="M15.49,14.62c-.2,0-.45,0-.47-.18s.15-.42.48-.45a.56.56,0,0,1,.31.29.38.38,0,0,1-.13.31c-.06,0-.11.07-.19,0"/><path class="cls-24" d="M13.86,14.56c.2,0,.42,0,.4.25s-.34.35-.55.32-.29-.18-.19-.34.25-.14.34-.23Z"/><path class="cls-25" d="M16.2,7.33a.54.54,0,0,1,.49-.44c.17,0,.24.1.23.23a.53.53,0,0,1-.51.41c-.16,0-.22-.09-.21-.2"/><path class="cls-26" d="M20.68,10.78a.81.81,0,0,1,.41,0c.19.09.4.2.29.39s-.34.13-.53,0a.19.19,0,0,1-.27-.09c-.07-.14-.14-.28.1-.37"/><path class="cls-27" d="M19.68,13.45c0-.13.09-.22.27-.19a.4.4,0,0,1,.33.37.23.23,0,0,1-.18.3.32.32,0,0,1-.35-.14.28.28,0,0,1-.07-.19.12.12,0,0,1,0-.15"/><path class="cls-28" d="M18.27,14.5l.15.15a.47.47,0,0,1,0,.35c-.09.11-.12.29-.33.24s-.22-.28-.23-.45,0-.14,0-.2a.33.33,0,0,1,.37-.09"/><path class="cls-29" d="M20.73,11.64a.54.54,0,0,1,.53.39c0,.15-.08.2-.26.2s-.51-.23-.5-.41.13-.17.23-.18"/><path class="cls-30" d="M20.19,12.85c0-.12-.06-.28.14-.35a.37.37,0,0,1,.35.07.37.37,0,0,1,.2.37.17.17,0,0,1-.17.16.48.48,0,0,1-.44-.18.73.73,0,0,0-.09-.08Z"/><path class="cls-31" d="M12.23,8.85a.37.37,0,0,1-.2-.23c0-.16-.09-.36.15-.44s.34.09.42.24a.27.27,0,0,1,.07.25.3.3,0,0,1-.44.18"/><path class="cls-32" d="M14,7.68a.49.49,0,0,1,0-.44.32.32,0,0,1,.38-.18c.19,0,.16.17.17.29s-.1.11,0,.17a.06.06,0,0,1,0,.08.57.57,0,0,1-.16.15c-.16.06-.31.09-.41-.07"/><path class="cls-33" d="M11.31,10.43a.51.51,0,0,1-.49-.37q0-.21.24-.24a.52.52,0,0,1,.48.39c0,.14-.06.22-.23.22"/><path class="cls-34" d="M16.21,15.53l-.16,0a.32.32,0,0,1-.34,0,.22.22,0,0,1,0-.29,1.62,1.62,0,0,0,.1-.18l0,0s0,0,.06-.07c.19-.07.39-.15.47.11s-.1.3-.08.46Z"/><path class="cls-35" d="M15.29,15a.56.56,0,0,1-.55.48c-.13,0-.23-.08-.22-.2a.57.57,0,0,1,.54-.41c.15,0,.23.08.23.13"/><path class="cls-36" d="M17.75,7.16c.17,0,.26.07.27.2s-.27.37-.49.38-.27-.06-.27-.2.25-.38.49-.38"/><path class="cls-37" d="M18.27,7.8a.66.66,0,0,1,.34-.18c.17,0,.34,0,.43.1s0,.25-.18.33l-.15,0a.49.49,0,0,1-.29.05c-.24-.06-.33-.17-.15-.35"/><path class="cls-38" d="M13.24,14.39c0,.09-.08.15-.19.18s-.47.09-.58-.1.12-.28.33-.32.32-.08.46,0,.1.16,0,.23"/><path class="cls-39" d="M12.22,9.67a.33.33,0,0,1,.5,0c.16.15.25.32.06.49a.34.34,0,0,1-.48,0,1.31,1.31,0,0,1-.08-.48"/><path class="cls-40" d="M20,11.12c-.3.05-.54,0-.65-.26s.21-.22.39-.24.2,0,.31,0a.2.2,0,0,1,.11,0c.12.19.11.36-.16.46"/><path class="cls-41" d="M14.21,13.65c0,.22-.13.36-.41.4a.18.18,0,0,1-.18.07.4.4,0,0,1-.32-.29.2.2,0,0,1,.16-.24,1.37,1.37,0,0,1,.75.06"/><path class="cls-42" d="M19.68,13.45v.15c-.13.09-.11.28-.33.32S19,13.8,19,13.58l.07-.11c.13-.22.3-.23.47,0s.09.11.16,0"/><path class="cls-43" d="M14.64,6.29c-.06.17-.08.38-.37.42s-.2-.11-.19-.21a.4.4,0,0,1,.35-.44c.17,0,.18.12.21.23"/><path class="cls-44" d="M18.54,15.79c-.06.17-.08.36-.34.38S18,16,18,15.93s.06-.38.35-.4.17.15.2.26"/><path class="cls-45" d="M16.62,16.27c.05-.16.1-.36.39-.4.14,0,.18.09.19.19s-.24.46-.4.44-.17-.11-.18-.23"/><path class="cls-46" d="M13,12.61c.1.34-.28.3-.48.4a.41.41,0,0,1-.27,0c-.12-.13-.37-.26,0-.42a1.52,1.52,0,0,1,.79.06"/><path class="cls-47" d="M13.23,6.86c-.05.16,0,.35-.3.37S12.7,7.08,12.7,7s0-.35.29-.37.2.15.24.27"/><path class="cls-48" d="M17.91,14.63l-.07.16c-.15,0-.24.2-.43.09a.11.11,0,0,1-.1-.05.23.23,0,0,1,0-.32s0-.08,0-.13a1.33,1.33,0,0,1,.28-.1h.06a.09.09,0,0,1,.1,0,.34.34,0,0,1,.12.36"/><path class="cls-49" d="M9.94,11.94c-.26,0-.46-.1-.52-.31s.1-.17.22-.15.47.09.53.31-.1.14-.23.15"/><path class="cls-50" d="M14.08,8.2a.55.55,0,0,1-.28.18c-.36-.11-.42-.34-.14-.58a.42.42,0,0,1,.35,0c.25.13.17.29.07.45Z"/><path class="cls-51" d="M13.15,8.83,13,8.89c-.26.06-.32-.07-.36-.23a.42.42,0,0,1,.05-.24.29.29,0,0,1,.37-.15c.18,0,.2.16.23.28a.29.29,0,0,1-.16.28"/><path class="cls-52" d="M19.32,15.22c0-.17,0-.34.26-.33s.25.17.24.32-.07.31-.28.3-.21-.18-.22-.29"/><path class="cls-53" d="M13.67,14.1l.13,0c.39.18.4.26.06.51h0c-.21,0-.4,0-.5-.17s.08-.27.3-.29"/><path class="cls-54" d="M15.49,6.31a.49.49,0,0,1,.42-.4c.17,0,.18.11.16.21a.45.45,0,0,1-.42.4c-.15,0-.16-.11-.16-.21"/><path class="cls-55" d="M12.65,9.36c-.15.05-.26.27-.49.1A.32.32,0,0,1,12.09,9c.37-.14.46.1.6.28a.1.1,0,0,1,0,.13"/><path class="cls-56" d="M16.83,14.56h.1c.11.11.05.23,0,.35s0,.16-.17.16-.32.08-.45-.05-.05-.28.06-.4l.09-.07a.33.33,0,0,1,.33,0"/><path class="cls-57" d="M19.83,12.61a.56.56,0,0,1,.36.24h0c0,.12.06.26-.11.33s-.3-.05-.4-.15c-.17-.3-.14-.37.16-.41"/><path class="cls-58" d="M15.57,7.91v0c-.14-.1-.11-.22-.05-.34a.69.69,0,0,1,.27-.17c.13,0,.27,0,.33.07s0,.32-.2.43h0a.81.81,0,0,1-.35.06"/><path class="cls-59" d="M22.52,11.5c0,.1-.14.11-.26.1s-.5-.22-.47-.36.13-.12.24-.11.51.21.49.37"/><path class="cls-60" d="M11.8,10.66l.08.06a.42.42,0,0,1-.07.29.55.55,0,0,1-.59-.1.11.11,0,0,1,0-.14c0-.1,0-.21.11-.25s.32.06.45.14"/><path class="cls-61" d="M17.9,15.51c0,.16-.12.33-.35.35s-.21-.14-.19-.26.1-.33.34-.34.18.14.2.25"/><path class="cls-62" d="M18.8,14.22c-.05.2-.17.33-.46.23-.12,0-.14-.12-.17-.2a.17.17,0,0,1,0-.07l.06-.09a.58.58,0,0,1,.12-.1c0-.08.13-.1.21-.13.28,0,.31.17.25.36"/><path class="cls-63" d="M12,7.72c0,.15,0,.29-.23.29s-.27-.17-.28-.32,0-.3.24-.28.24.18.27.31"/><path class="cls-50" d="M13.94,7.05c0,.15,0,.33-.3.35s-.21-.12-.21-.24a.34.34,0,0,1,.3-.37c.18,0,.2.13.21.26"/><path class="cls-29" d="M20.65,11.12a.19.19,0,0,0,.2.12.16.16,0,0,0-.07.07c-.06.31-.17.35-.51.19l-.09-.05a0,0,0,0,0-.05,0l0-.25c.15-.19.35-.09.54-.05"/><path class="cls-64" d="M19.07,15.07c0,.15-.05.31-.29.32s-.22-.13-.21-.25,0-.33.26-.35.22.15.24.28"/><path class="cls-65" d="M16.8,15.07l.12-.16a.11.11,0,0,1,.08,0c.18.1.39.19.34.41l-.11.14a.25.25,0,0,1-.29.11.2.2,0,0,1-.17-.22,2.13,2.13,0,0,1,0-.25"/><path class="cls-66" d="M12.8,14.06c-.19,0-.31-.12-.28-.3s.16-.16.29-.18H13c.19,0,.31.12.28.29a.42.42,0,0,1-.52.19"/><path class="cls-67" d="M15.22,6.73a.35.35,0,0,1-.33.32c-.19,0-.2-.11-.19-.21a.37.37,0,0,1,.35-.38c.15,0,.18.1.17.27"/><path class="cls-68" d="M11,13.15c.19,0,.43,0,.44.22s-.21.2-.36.2-.39-.06-.39-.25.19-.14.31-.17"/><path class="cls-69" d="M21.14,9.44c.21,0,.42.07.45.23s-.14.2-.32.19-.39-.07-.42-.24.16-.16.29-.18"/><path class="cls-36" d="M17.42,8.09a.46.46,0,0,1,.71-.29c.13.27-.07.38-.34.45a.36.36,0,0,1-.38-.17Z"/><path class="cls-70" d="M11.87,14.45c-.16,0-.34,0-.33-.2s.21-.21.39-.21.35,0,.33.19-.2.21-.39.22"/><path class="cls-71" d="M17,6.64c-.1,0-.17-.06-.17-.16s.25-.39.43-.4.19.06.19.16-.24.39-.45.4"/><path class="cls-72" d="M14.58,7.56v0a.48.48,0,0,1,.49,0,.21.21,0,0,1,0,.29.52.52,0,0,1-.27.21l-.2,0a.28.28,0,0,1-.15-.15.37.37,0,0,1,.08-.33"/><path class="cls-73" d="M19.43,7.51c-.15,0-.29,0-.26-.18s.23-.23.42-.25.29,0,.28.16-.24.25-.44.27"/><path class="cls-74" d="M20.2,10.67h-.08a.1.1,0,0,1-.06-.05c0-.08-.11-.14-.09-.23a.39.39,0,0,1,.53-.06c.13.12.43.21.12.41a.3.3,0,0,1-.42-.06"/><path class="cls-75" d="M12,14.63c.16,0,.34,0,.32.19s-.24.22-.42.23-.31,0-.3-.17.24-.2.4-.25"/><path class="cls-76" d="M10.92,14.16c-.2,0-.41-.05-.43-.22s.19-.2.34-.18.4,0,.41.23-.18.15-.32.17"/><path class="cls-77" d="M19.31,10.33a.2.2,0,0,1-.18-.24c.14-.2.44-.12.63-.24a.22.22,0,0,1,.19.07.29.29,0,0,1,.08.22c-.16.26-.45.21-.72.19"/><path class="cls-78" d="M13.8,8.43c.26.32.22.53-.14.7a.77.77,0,0,1-.25-.67c.11-.12.25-.09.39,0"/><path class="cls-79" d="M10,10.85c-.21,0-.49-.19-.48-.35s.07-.13.18-.13.5.19.51.33-.09.15-.21.15"/><path class="cls-80" d="M22.23,12.51a.15.15,0,0,1-.19.15c-.25,0-.41-.13-.45-.33s.05-.18.18-.17a.51.51,0,0,1,.46.35"/><path class="cls-81" d="M12.78,7.73c0,.14-.06.29-.24.28s-.25-.16-.25-.31.05-.28.23-.27.23.17.26.3"/><path class="cls-82" d="M16.52,6.63a.45.45,0,0,1-.39.36.15.15,0,0,1-.19-.19.43.43,0,0,1,.39-.36c.15,0,.19.08.19.19"/><path class="cls-83" d="M14.94,14.17a.49.49,0,0,1-.59.22c-.18-.05-.25-.16-.19-.31s0,0,.05,0a.85.85,0,0,1,.5-.07c.12,0,.25.06.23.2"/><path class="cls-84" d="M15.27,16.28a.46.46,0,0,1,.44-.37c.16,0,.17.12.14.21a.41.41,0,0,1-.44.33c-.18,0-.13-.1-.14-.17"/><path class="cls-85" d="M20.83,7.91c.12,0,.23.1.17.21s-.27.16-.45.15-.27,0-.3-.16.05-.2.21-.2a.59.59,0,0,1,.37,0"/><path class="cls-86" d="M14.16,16.21c-.1,0-.19-.05-.18-.15a.44.44,0,0,1,.41-.35c.12,0,.21,0,.22.13s-.24.37-.45.37"/><path class="cls-87" d="M20.35,14.28c0-.11,0-.25.22-.23a.33.33,0,0,1,.31.33.2.2,0,0,1-.22.24c-.24,0-.26-.19-.31-.34"/><path class="cls-88" d="M15.48,15.58a.44.44,0,0,1-.39.35c-.14,0-.23,0-.21-.16a.44.44,0,0,1,.41-.35c.13,0,.18.06.19.16"/><path class="cls-89" d="M20.12,14.42c0,.12-.05.26-.22.25s-.28-.18-.28-.34,0-.25.23-.23.25.18.27.32"/><path class="cls-73" d="M18.24,7c-.13,0-.24,0-.22-.14s.2-.29.42-.33.25,0,.23.16a.43.43,0,0,1-.43.31"/><path class="cls-90" d="M10.18,9.34a.41.41,0,0,1,.36.35c0,.1,0,.16-.18.17s-.42-.22-.41-.37.08-.15.23-.15"/><path class="cls-91" d="M19.57,8.09c-.16,0-.33,0-.3-.18s.21-.21.4-.22.31,0,.29.19-.21.2-.39.21"/><path class="cls-92" d="M16.21,15.54c.14,0,.3-.18.43,0a.27.27,0,0,1-.1.36c-.09.06-.18.18-.32.12s-.11-.19-.07-.3l.06-.19Z"/><path class="cls-93" d="M21.33,13.13a.41.41,0,0,1,.34.37c0,.09-.07.17-.21.15a.36.36,0,0,1-.35-.37c0-.1.06-.16.22-.15"/><path class="cls-94" d="M11.15,8.7c0,.11,0,.21-.19.2a.35.35,0,0,1-.35-.34.16.16,0,0,1,.18-.2c.27,0,.3.18.36.34"/><path class="cls-95" d="M13,14.72c.15,0,.3,0,.28.16s-.18.23-.37.25-.29,0-.29-.15.2-.23.38-.26"/><path class="cls-96" d="M13,15.72c-.15,0-.27,0-.25-.15s.21-.26.43-.28.25,0,.23.15-.21.26-.41.28"/><path class="cls-97" d="M21.55,11.92a.4.4,0,0,1-.35-.3c0-.13.1-.17.23-.15s.39.12.41.32-.08.15-.29.13"/><path class="cls-98" d="M11.36,8.45c0-.11.05-.22.22-.2a.32.32,0,0,1,.29.35.18.18,0,0,1-.21.19c-.24,0-.28-.18-.3-.34"/><path class="cls-99" d="M13,8.93a.43.43,0,0,1,.29.5.24.24,0,0,1-.3.21A.73.73,0,0,1,12.85,9a.2.2,0,0,1,.17,0"/><path class="cls-100" d="M13,7.62c.22-.22.38-.15.51.06a.38.38,0,0,1-.14.48c-.39-.06-.32-.33-.37-.54"/><path class="cls-73" d="M18.61,7.1c.15,0,.28,0,.26.15s-.18.25-.39.27-.26,0-.26-.14.2-.26.39-.28"/><path class="cls-101" d="M18.27,14.11l-.07.06a.51.51,0,0,1-.5-.52c.23-.2.39-.15.51.09s0,.25.06.37"/><path class="cls-93" d="M20.92,13.6c0,.11,0,.22-.19.2a.33.33,0,0,1-.33-.34.17.17,0,0,1,.21-.18.33.33,0,0,1,.31.32"/><path class="cls-102" d="M11.24,10.77v.13c.08,0,.12.09,0,.15a.7.7,0,0,1-.63,0c-.09-.08-.15-.18,0-.28a.41.41,0,0,1,.36,0,.36.36,0,0,0,.27,0"/><path class="cls-103" d="M11.45,9c.33,0,.45.1.5.32s-.07.27-.28.3c0,0-.05,0-.08-.05-.1-.18-.24-.35-.14-.57"/><path class="cls-104" d="M10.61,10.56a.4.4,0,0,1-.37-.3c0-.12.06-.19.2-.17a.4.4,0,0,1,.39.32c0,.1-.06.16-.22.15"/><path class="cls-105" d="M18,17c.05-.15.08-.33.31-.35s.17.12.15.22-.06.33-.3.34S18,17.08,18,17"/><path class="cls-106" d="M14.79,5.23c-.06.14-.1.31-.34.33s-.16-.1-.14-.18.1-.34.32-.37.16.11.16.22"/><path class="cls-107" d="M21.38,9.25c-.16,0-.3-.1-.25-.25s.22-.12.36-.12.32,0,.4.18c-.07.23-.33.14-.51.19"/><path class="cls-108" d="M17.7,13.65c.13.2.21.42.5.52v0a.31.31,0,0,1-.41.07h-.1c-.1-.21-.23-.42,0-.62"/><path class="cls-109" d="M16.8,17.15a.4.4,0,0,1-.33.38c-.14,0-.16-.09-.15-.17a.41.41,0,0,1,.37-.37c.11,0,.1.1.11.16"/><path class="cls-110" d="M11.44,12.61c0-.12-.13-.18-.12-.28a.78.78,0,0,1,.7,0l.07.05c0,.24,0,.29-.42.31a.36.36,0,0,1-.23-.08"/><path class="cls-111" d="M13,5.82c0,.13,0,.3-.24.33s-.19-.11-.19-.21,0-.3.25-.32.17.1.18.2"/><path class="cls-112" d="M16.23,5.44c-.15,0-.2,0-.19-.11a.42.42,0,0,1,.33-.4c.12,0,.19,0,.18.13a.51.51,0,0,1-.32.38"/><path class="cls-113" d="M18.13,8.66l-.21.11a.52.52,0,0,1-.37,0c-.1,0-.16-.09-.14-.18a2,2,0,0,1,.78-.25.12.12,0,0,1,.13.12c0,.1-.07.16-.19.19"/><path class="cls-114" d="M9.74,14.34c-.19,0-.38,0-.39-.19S9.5,14,9.63,14s.37,0,.38.19-.16.14-.27.15"/><path class="cls-115" d="M20.51,10.32l-.05-.11c.15-.2.42-.17.65-.22.06.09.2.15.1.27a.41.41,0,0,1-.4.12l-.3-.06"/><path class="cls-116" d="M13.87,6.07c0,.12-.06.28-.28.29s-.16-.12-.15-.22.07-.27.26-.29.17.1.17.22"/><path class="cls-117" d="M20.11,16.15c0,.12-.07.27-.26.26s-.17-.14-.16-.25,0-.27.22-.27.17.15.2.26"/><path class="cls-118" d="M21.77,7.91c-.14,0-.32,0-.33-.15s.17-.17.3-.17.32,0,.33.15-.16.16-.3.17"/><path class="cls-119" d="M22.92,9.2c-.19,0-.39,0-.42-.21s.13-.15.24-.14.41,0,.43.23-.15.1-.25.12"/><path class="cls-120" d="M21.44,10.85c-.17,0-.33-.13-.24-.28s.3-.1.46-.05.21.1.23.2a.55.55,0,0,1-.45.13"/><path class="cls-121" d="M15.06,16.91c.13,0,.17.06.16.13a.4.4,0,0,1-.35.35c-.12,0-.17,0-.15-.13a.45.45,0,0,1,.34-.35"/><path class="cls-122" d="M21.11,10c-.18.16-.45.11-.65.22-.15-.11-.11-.22,0-.32a.7.7,0,0,1,.63.1"/><path class="cls-123" d="M8.9,13a.54.54,0,0,1-.47-.22c0-.08.13-.17.25-.14s.41.07.45.25S9,13,8.9,13"/><path class="cls-124" d="M15.34,5.5c.13,0,.16.09.14.17s-.1.33-.34.34S15,5.91,15,5.83s.11-.29.32-.33"/><path class="cls-125" d="M11.31,12.17a.58.58,0,0,1-.65-.18c0-.17.2-.13.32-.15a2.34,2.34,0,0,1,.38,0c.22.13.21.23,0,.3"/><path class="cls-126" d="M17.72,16.48c0,.14-.06.29-.27.32s-.18-.07-.16-.16a.34.34,0,0,1,.29-.34c.15,0,.13.1.14.18"/><path class="cls-127" d="M17.77,8.25c.16,0,.34-.05.43.12a2.58,2.58,0,0,1-.79.23.86.86,0,0,0,0-.16.28.28,0,0,1,.35-.19"/><path class="cls-128" d="M11,15.13c.14,0,.28,0,.25.16s-.2.18-.36.17-.26,0-.24-.16.22-.15.35-.17"/><path class="cls-129" d="M9.82,13.29c.16,0,.35,0,.35.21s-.16.14-.27.12-.36,0-.36-.21.16-.11.28-.12"/><path class="cls-130" d="M23.08,11.05a.17.17,0,0,1-.22.12c-.18-.05-.38-.08-.4-.28s.11-.12.21-.1a.5.5,0,0,1,.41.26"/><path class="cls-131" d="M12.65,9.22A.23.23,0,0,1,12.87,9c0,.24.17.45.14.69a.33.33,0,0,1-.36-.28V9.22"/><path class="cls-132" d="M21.68,8.31c.14,0,.33,0,.32.17a.3.3,0,0,1-.31.17c-.14,0-.3-.05-.3-.19s.16-.14.29-.15"/><path class="cls-133" d="M8.87,10.3c-.2,0-.36-.12-.41-.3s0-.13.13-.12a.47.47,0,0,1,.43.29c0,.09,0,.12-.15.13"/><path class="cls-134" d="M21.81,10.33c-.13-.05-.19-.14-.13-.24s.18-.11.3-.08a.49.49,0,0,1,.34.13c-.05.27-.29.22-.51.19"/><path class="cls-135" d="M9.31,11.13c-.17,0-.34-.1-.38-.27s.06-.13.15-.12.4.1.43.29-.09.1-.2.1"/><path class="cls-136" d="M19.2,16c0,.15-.05.3-.25.31s-.17-.13-.16-.22.05-.27.22-.29.16.12.19.2"/><path class="cls-137" d="M16.22,16.61a.37.37,0,0,1-.31.33c-.13,0-.16-.06-.15-.14a.37.37,0,0,1,.33-.34c.1,0,.12.07.13.15"/><path class="cls-138" d="M11.88,11.77c.29,0,.61-.08.77.21a1.25,1.25,0,0,1-.79,0,.14.14,0,0,1-.1-.17s.05-.08.12-.09"/><path class="cls-139" d="M23.28,11.62c.19,0,.37.11.4.3s-.06.11-.15.11-.46-.2-.44-.32.09-.09.19-.09"/><path class="cls-140" d="M11.41,11.92c-.24,0-.51-.07-.75.07-.16-.21-.11-.3.22-.3.16,0,.28.12.45.06a.08.08,0,0,1,.08,0,.12.12,0,0,1,0,.15"/><path class="cls-141" d="M20.54,15.19c0,.11,0,.24-.19.24s-.21-.13-.21-.24,0-.21.16-.22.21.12.24.22"/><path class="cls-142" d="M11.49,6.85c0,.11,0,.25-.2.24s-.2-.14-.2-.27,0-.23.19-.23.18.15.21.26"/><path class="cls-143" d="M9.18,12a.39.39,0,0,1,.41.24c0,.07-.09.11-.17.1s-.41,0-.45-.25.12-.08.21-.09"/><path class="cls-144" d="M12.38,6.8c0,.13,0,.26-.19.27S12,7,12,6.85s0-.25.19-.26.19.12.2.21"/><path class="cls-145" d="M11.75,11.41l0-.17a.84.84,0,0,1,.77,0s.08.11,0,.17a.84.84,0,0,1-.66.06h-.06s-.05,0-.06-.06"/><path class="cls-146" d="M20.41,6.93c-.12,0-.24,0-.23-.13s.16-.2.33-.2.23,0,.23.12-.19.18-.33.21"/><path class="cls-147" d="M10.88,14.74c-.16,0-.32,0-.32-.17s.15-.14.27-.14.32,0,.33.15-.16.15-.28.16"/><path class="cls-148" d="M20.89,7.43c0,.13-.16.18-.31.19s-.29,0-.28-.14.18-.16.31-.18a.27.27,0,0,1,.28.13"/><path class="cls-149" d="M10.48,12.83c.11.14.06.23-.12.24s-.5,0-.61-.23a.89.89,0,0,1,.73,0"/><path class="cls-150" d="M14.83,16.43a.41.41,0,0,1-.35.29c-.11,0-.15-.06-.13-.12a.37.37,0,0,1,.36-.3.11.11,0,0,1,.12.13"/><path class="cls-151" d="M14.94,14.17c-.19-.23-.49-.08-.73-.13a.55.55,0,0,1,.37-.23c.32,0,.46.1.36.36"/><path class="cls-152" d="M18.06,5.41a.43.43,0,0,1-.35.29c-.09,0-.17,0-.15-.11a.39.39,0,0,1,.37-.32c.1,0,.14,0,.13.14"/><path class="cls-153" d="M23.44,10.62a.37.37,0,0,1-.38-.24c0-.05,0-.09.09-.11a.52.52,0,0,1,.51.17c0,.14-.1.15-.22.18"/><path class="cls-154" d="M13.3,8.54l.14-.06c.07.22.14.43.22.65-.21,0-.27-.09-.37-.18a.46.46,0,0,1,0-.41"/><path class="cls-155" d="M17,5.73a.36.36,0,0,1-.34.3c-.1,0-.16,0-.14-.12a.39.39,0,0,1,.34-.33c.1,0,.13,0,.14.15"/><path class="cls-156" d="M12.5,11.24h-.77c-.07-.1.06-.15.07-.23.29,0,.55,0,.7.23"/><path class="cls-157" d="M11.86,13a1.24,1.24,0,0,1,.43-.06c.08,0,.17,0,.23.06v.07c.07.13-.06.16-.17.17a.74.74,0,0,1-.53-.06c0-.07,0-.12,0-.18"/><path class="cls-158" d="M22.41,9.57c.17,0,.35,0,.39.19s-.13.11-.24.11-.38-.06-.42-.2.16-.07.27-.1"/><path class="cls-159" d="M16,14.75l-.2.27h0c-.26,0-.35-.15-.28-.35a.43.43,0,0,1,0-.05l.16-.06c.26-.1.3,0,.34.19"/><path class="cls-80" d="M22.32,12.08c0-.1.08-.12.17-.11a.36.36,0,0,1,.36.27c0,.09-.08.13-.18.1a.4.4,0,0,1-.35-.26"/><path class="cls-59" d="M23.17,13.05c0,.09,0,.15-.12.14a.38.38,0,0,1-.38-.28.09.09,0,0,1,.11-.12.42.42,0,0,1,.39.26"/><path class="cls-160" d="M21.41,15.15c0,.09,0,.21-.16.2s-.21-.13-.22-.24,0-.22.15-.21.21.13.23.25"/><path class="cls-161" d="M11.06,8a.29.29,0,0,1-.25-.25c0-.1,0-.21.17-.21s.21.13.23.24,0,.18-.15.22"/><path class="cls-162" d="M10.11,7.69a.33.33,0,0,1,.26.29.13.13,0,0,1-.15.15A.27.27,0,0,1,10,7.85c0-.08,0-.16.15-.16"/><path class="cls-90" d="M9.25,8.77a.34.34,0,0,1,.31.28c0,.07,0,.13-.12.13A.34.34,0,0,1,9.1,8.9c0-.07,0-.13.15-.13"/><path class="cls-163" d="M9.64,10c-.16,0-.3-.12-.33-.27s.07-.14.18-.12a.34.34,0,0,1,.31.27c0,.08-.06.12-.16.12"/><path class="cls-164" d="M12,15.61c-.11,0-.23,0-.21-.13s.16-.18.3-.19.24,0,.24.12-.17.18-.33.2"/><path class="cls-165" d="M10.1,11.35c-.09-.06-.11-.15,0-.22a.29.29,0,0,1,.26,0c.16.05.31.1.35.25a.59.59,0,0,1-.59,0"/><path class="cls-166" d="M20.4,9.63c.08.35-.23.29-.47.3l-.17-.07a0,0,0,0,1-.06,0s0,0,0,0,0,0,0-.06a.92.92,0,0,1,.65-.13h0"/><path class="cls-167" d="M20.85,8.59c.18.21,0,.26-.2.29a.45.45,0,0,1-.4-.09c.1-.27.35-.25.6-.2"/><path class="cls-168" d="M22.11,13.84a.35.35,0,0,1,.29.25c0,.08,0,.17-.1.18A.33.33,0,0,1,22,14c0-.08,0-.15.14-.17"/><path class="cls-169" d="M12.18,16.3c-.11,0-.21,0-.19-.13s.2-.2.37-.22.17,0,.16.12-.17.21-.34.23"/><path class="cls-170" d="M13.81,16.66a.4.4,0,0,1-.36.29c-.09,0-.17,0-.15-.12a.39.39,0,0,1,.36-.28c.11,0,.15,0,.15.11"/><path class="cls-171" d="M19.41,6a.41.41,0,0,1-.36.23c-.1,0-.17,0-.15-.11s.17-.24.36-.25.15,0,.15.13"/><path class="cls-172" d="M11.68,12.62c0,.07.05.11.08.16-.22.16-.51,0-.74.1l-.06,0c-.07-.26,0-.32.48-.29h.24"/><path class="cls-173" d="M21.3,14c.16,0,.25.13.25.27s0,.17-.13.16a.25.25,0,0,1-.26-.26c0-.08,0-.16.14-.17"/><path class="cls-174" d="M13.35,8.14c0,.12-.17.07-.27.07A.38.38,0,0,1,13,7.62c.16.15.08.41.34.52"/><path class="cls-175" d="M11.8,12.9s0,.07,0,.11A.69.69,0,0,1,11,12.9h0a1.46,1.46,0,0,1,.83,0"/><path class="cls-73" d="M19.62,6.67a.4.4,0,0,1-.38.2c-.1,0-.16,0-.14-.13s.17-.19.33-.2.18,0,.19.13"/><path class="cls-176" d="M8.66,11.3c.06.07.23.1.13.22s-.23.05-.34,0-.28-.07-.27-.22a.51.51,0,0,1,.48,0"/><path class="cls-177" d="M11.75,11.41l.06.06,0,.11a.65.65,0,0,1-.66,0c-.06-.09,0-.16.06-.23a1.46,1.46,0,0,1,.51.06"/><path class="cls-178" d="M18.79,8.71l.11.07a.84.84,0,0,1-.77.22c0-.09,0-.15.07-.23a.27.27,0,0,1,.24-.12.54.54,0,0,1,.35.06"/><path class="cls-179" d="M11.18,11.58h.66c.12.05-.09.14,0,.19l-.06,0a.86.86,0,0,1-.42-.05h-.07l-.15-.17"/><path class="cls-180" d="M18.31,9.18a.18.18,0,0,1-.17-.12A3.48,3.48,0,0,1,19,8.88.09.09,0,0,1,19,9l-.26.17a1,1,0,0,1-.42,0"/><path class="cls-181" d="M12.59,13.31l-.21.06c-.12,0-.24.07-.36,0s-.18-.08-.2-.17c.23,0,.51.11.7-.11l.14.1a.54.54,0,0,0-.07.13"/><path class="cls-182" d="M10.87,12.33c.09.25-.13.23-.32.22a.4.4,0,0,1-.31-.15c.17-.27.4-.14.63-.07"/><path class="cls-183" d="M11.3,11c0,.1.07.21-.06.29a.68.68,0,0,1-.59-.23A2.35,2.35,0,0,0,11.3,11"/><path class="cls-184" d="M19.12,8.88a1,1,0,0,1,.43-.12l.22.11c-.13.26-.39.23-.65.19h0c0-.07-.05-.13,0-.19"/><path class="cls-185" d="M12.67,12.1c-.05.2-.24.2-.42.19l-.37-.08,0,0a.11.11,0,0,1,0-.09,1.38,1.38,0,0,1,.78,0"/><path class="cls-186" d="M12.13,12.6l.11-.16c.27,0,.57-.06.76.17h-.87"/><path class="cls-187" d="M20.35,9.62a2,2,0,0,1-.65.13c-.07-.12,0-.19.13-.24s.36-.08.5.06l0,0"/><path class="cls-188" d="M17.34,15.29c-.05-.17-.25-.25-.35-.38.1-.19.25-.12.39-.06l0,0c0,.13.09.28-.07.41"/><path class="cls-189" d="M10.87,12.33c-.21,0-.44-.07-.63.07-.16-.17-.06-.25.15-.26a.49.49,0,0,1,.48.19"/><path class="cls-190" d="M19.05,8.32,19,8.48c-.18,0-.33.16-.54.11-.05,0-.1-.05-.09-.1s0,0,0-.06A.8.8,0,0,1,19,8.26l.07.06"/><path class="cls-191" d="M20,10.08c.15.1,0,.2,0,.3a.75.75,0,0,1-.67-.05c.21-.11.55,0,.67-.25"/><path class="cls-192" d="M12.67,12.1a2.38,2.38,0,0,0-.8.05h0l0-.18h.83s.06.08,0,.12"/><path class="cls-193" d="M10.48,12.83H9.75c.12-.25.41-.25.73,0"/><path class="cls-194" d="M11.45,9a1.65,1.65,0,0,1,.14.57c-.34-.22-.38-.38-.14-.57"/><path class="cls-195" d="M21.81,10.33c.19,0,.4,0,.51-.19.12,0,.18.13.11.23s-.18.08-.28.08a.49.49,0,0,1-.34-.12"/><path class="cls-196" d="M19,8.26l-.63.17c0-.15.12-.2.26-.24s.05,0,.08,0,.24,0,.29.12"/><path class="cls-197" d="M15.5,14.67a.49.49,0,0,0,.28.35v.06c-.14,0-.32.09-.4-.06s0-.25.12-.35"/><path class="cls-198" d="M20.85,8.59a1,1,0,0,0-.6.2c-.19-.23,0-.26.22-.29a.4.4,0,0,1,.38.09"/><path class="cls-199" d="M14.21,13.65h-.77c0-.08,0-.1.1-.11.24,0,.5-.15.67.11"/><path class="cls-200" d="M20.06,10.61l.06.05c-.26,0-.56,0-.73.2-.11-.24.08-.3.31-.31a2.25,2.25,0,0,1,.36.06"/><path class="cls-201" d="M10.1,11.35h.59c.08.18-.07.19-.22.18a.42.42,0,0,1-.37-.18"/><path class="cls-202" d="M12.8,13.64c.16-.06.06-.11,0-.16a3.26,3.26,0,0,1,.7-.07.43.43,0,0,1,0,.07c-.09.14-.26.13-.41.16H12.8"/><path class="cls-203" d="M19,8.89a2.92,2.92,0,0,1-.83.17V9l.77-.22c.05,0,.07,0,.08.05s0,0,0,0l0,0"/><path class="cls-204" d="M11.87,11.47c.23,0,.43-.1.66-.06-.15.24-.32.25-.66.06"/><path class="cls-205" d="M7.08,10.8a.39.39,0,0,1,.27.16c0,.06,0,.1-.09.09S7,11,7,10.89s0-.08.09-.09"/><path class="cls-206" d="M24.37,9.05c0,.09-.08.1-.15.09S24,9.13,24,9s.08-.08.14-.08.21,0,.26.11"/><path class="cls-207" d="M21.38,9.25c.13-.13.38-.06.51-.19,0,.23-.1.28-.51.19"/><path class="cls-208" d="M11.31,12.27l.14-.06a.79.79,0,0,1,.43,0h0c0,.07.14,0,.13.12h-.69a.13.13,0,0,1,0-.06"/><path class="cls-209" d="M15,4.11c0,.08,0,.18-.17.21s-.12,0-.11-.1A.24.24,0,0,1,14.91,4C15,4,15,4,15,4.11"/><path class="cls-210" d="M19.7,9.87h.06c-.17.14-.43.12-.63.22.07-.28.34-.22.57-.22"/><path class="cls-211" d="M13.7,5.28c-.08,0-.12,0-.11-.1A.19.19,0,0,1,13.75,5a.08.08,0,0,1,.1.09.2.2,0,0,1-.15.2"/><path class="cls-212" d="M8.64,14.33c0,.08-.08.09-.15.09s-.2,0-.22-.1.05-.1.12-.1.21,0,.25.11"/><path class="cls-213" d="M23.73,9.92c-.1,0-.22,0-.23-.14s.08-.08.14-.06.22,0,.23.14-.08.06-.14.06"/><path class="cls-214" d="M12.22,9.67c.07.15.19.3.08.48-.16-.14-.24-.3-.08-.48"/><path class="cls-215" d="M7.35,12.52c.11,0,.23,0,.26.14s-.07.08-.14.08-.21,0-.24-.13.07-.07.12-.09"/><path class="cls-216" d="M19.1,16.81c.07,0,.1.05.1.1s0,.16-.11.19-.11,0-.11-.1a.17.17,0,0,1,.12-.19"/><path class="cls-217" d="M23.87,11.23c.1,0,.2,0,.22.15s0,.08-.11.06-.21,0-.23-.14.06-.07.12-.07"/><path class="cls-218" d="M19.12,9.06c.22-.07.47,0,.65-.19l.06,0V9a1.57,1.57,0,0,1-.56.16l-.15-.05v0"/><path class="cls-219" d="M8.74,13.58c-.09,0-.2,0-.22-.11s.08-.08.14-.08.19,0,.22.11-.07.08-.14.08"/><path class="cls-220" d="M15.67,4.65c.09,0,.12,0,.1.1s-.06.17-.19.19-.08-.05-.08-.1a.27.27,0,0,1,.17-.19"/><path class="cls-221" d="M12.74,4.69c.1,0,.09.08.08.14s0,.16-.15.16-.09-.07-.08-.13,0-.15.15-.17"/><path class="cls-222" d="M8.07,10.39a.26.26,0,0,1,.23.15s0,.07-.08.07-.22,0-.24-.16,0-.06.09-.06"/><path class="cls-223" d="M22.76,8.24c.09,0,.21,0,.21.1s-.08.09-.16.08-.17,0-.19-.09.08-.08.14-.09"/><path class="cls-224" d="M22.86,7.39c.09,0,.19,0,.19.09s-.07.09-.14.09-.21,0-.21-.11.09-.07.16-.07"/><path class="cls-225" d="M10,14.85c0,.07-.08.08-.14.09s-.18,0-.19-.08.07-.09.13-.09a.18.18,0,0,1,.2.08"/><path class="cls-226" d="M17.42,17.5c0,.07,0,.17-.18.17s-.07-.07-.06-.11,0-.17.17-.18.07.07.07.12"/><path class="cls-227" d="M11,6c0,.07,0,.15-.12.15A.12.12,0,0,1,10.76,6c0-.07,0-.14.12-.14S11,5.93,11,6"/><path class="cls-228" d="M17.45,4.83c.09.15,0,.22-.15.27s-.08,0-.08,0,.09-.2.23-.24"/><path class="cls-229" d="M7.79,9.54a.08.08,0,0,1-.1.07c-.1,0-.2-.07-.21-.16s0-.09.11-.07a.28.28,0,0,1,.2.16"/><path class="cls-230" d="M17,4c0,.16-.05.24-.18.29s-.09,0-.08-.06S16.87,4,17,4"/><path class="cls-231" d="M17.43,14.23c-.08-.15-.12-.32-.37-.36.38-.08.4.13.42.34,0,0,0,0-.05,0"/><path class="cls-232" d="M20.14,17c.08,0,.12.06.11.12s0,.16-.13.17-.09-.06-.09-.1,0-.16.11-.19"/><path class="cls-233" d="M21.37,6.38c-.07,0-.14,0-.15-.06s.07-.11.15-.12.13,0,.14,0-.07.11-.14.13"/><path class="cls-234" d="M8.25,12c0,.07-.05.07-.11.07a.26.26,0,0,1-.22-.11c0-.06,0-.09.09-.09a.28.28,0,0,1,.24.13"/><path class="cls-235" d="M21.7,15.77a.13.13,0,0,1,.15.11c0,.06,0,.13-.07.14s-.12,0-.15-.11a.12.12,0,0,1,.07-.14"/><path class="cls-236" d="M18.72,4.61a.22.22,0,0,1-.21.15c-.05,0-.08,0-.06-.07a.21.21,0,0,1,.2-.16c.06,0,.07,0,.07.08"/><path class="cls-237" d="M10.09,15.69a.18.18,0,0,1-.19.08c-.06,0-.14,0-.13-.07s.12-.11.21-.1.11,0,.11.09"/><path class="cls-238" d="M21.44,10.85l.45-.13c0,.32-.26.17-.45.13"/><path class="cls-239" d="M24,13.67c0,.05,0,.08-.09.06s-.17-.06-.18-.15.05-.07.1-.06.16.07.17.15"/><path class="cls-240" d="M19.91,5.48c-.06,0-.09,0-.08-.07A.18.18,0,0,1,20,5.28c.06,0,.09,0,.08.07s-.09.12-.19.13"/><path class="cls-241" d="M23.51,12.55a.27.27,0,0,1,.21.14c0,.05,0,.08-.1.07a.24.24,0,0,1-.2-.14c0-.06,0-.06.09-.07"/><path class="cls-242" d="M20.82,16a.09.09,0,0,1-.1.09.11.11,0,0,1-.1-.15s0-.11.1-.1.11.08.1.16"/><path class="cls-243" d="M8.66,11.3H8.18c.15-.17.18-.17.48,0"/><path class="cls-244" d="M21.46,7.18s-.12,0-.12-.06.09-.11.17-.11.15,0,.15.08-.11.09-.2.09"/><path class="cls-245" d="M9.62,7.21c0,.06,0,.12-.09.11A.14.14,0,0,1,9.4,7.2a.09.09,0,0,1,.08-.11c.11,0,.12.07.14.12"/><path class="cls-246" d="M10.46,7c.11,0,.14,0,.14.11s0,.12-.07.13-.11,0-.13-.11,0-.1.06-.13"/><path class="cls-247" d="M12,6c0,.07,0,.14-.1.14S11.81,6,11.82,6a.12.12,0,0,1,.12-.11c.1,0,.08.08.09.12"/><path class="cls-248" d="M13.92,17.38c-.05,0-.11,0-.1-.05a.2.2,0,0,1,.18-.18c.06,0,.08,0,.08.07s-.07.13-.16.16"/><path class="cls-249" d="M20.09,6.27s-.1,0-.1-.06.07-.12.16-.12.11,0,.1.08-.09.09-.16.1"/><path class="cls-250" d="M15.8,14.1l0,.17c-.14-.06-.19-.19-.28-.28a.27.27,0,0,1,.3.11"/><path class="cls-251" d="M8.6,8.36a.07.07,0,0,1-.08.07.18.18,0,0,1-.17-.12c0-.06,0-.1.09-.09a.23.23,0,0,1,.16.14"/><path class="cls-252" d="M11.55,16.66a.2.2,0,0,1-.17.13c-.07,0-.11,0-.1-.09s.07-.09.14-.1.11,0,.13.06"/><path class="cls-253" d="M23,14.74s0,.09-.06.09a.15.15,0,0,1-.16-.12.07.07,0,0,1,.06-.09c.1,0,.13.06.16.12"/><path class="cls-254" d="M11.26,15.82c.07,0,.13,0,.12.07s-.08.09-.16.1-.12,0-.11-.08.08-.08.15-.09"/><path class="cls-255" d="M23.44,10.62l.22-.18c.11,0,.12.1.06.16a.21.21,0,0,1-.28,0"/><path class="cls-256" d="M8.8,9.31a.09.09,0,0,1-.11.07c-.07,0-.14-.07-.15-.15s.05-.06.1-.05a.24.24,0,0,1,.16.13"/><path class="cls-257" d="M22,14.87c0,.05,0,.09-.08.09a.13.13,0,0,1-.12-.12.08.08,0,0,1,.09-.09c.08,0,.1.06.11.12"/><path class="cls-258" d="M18.27,14.11c-.13-.11-.05-.25-.06-.37.11.06,0,.2.13.25l-.07.12"/><path class="cls-259" d="M18.41,15c0-.11,0-.23,0-.35a.25.25,0,0,1,0,.35"/><path class="cls-260" d="M19.55,8.73a.34.34,0,0,1-.22-.07h.44l-.22.07"/><path class="cls-261" d="M17.55,8.78h.37a.38.38,0,0,1-.37,0"/><path class="cls-262" d="M20.83,7.91h-.37a.38.38,0,0,1,.37,0"/><path class="cls-263" d="M18.31,9.18h.42a.42.42,0,0,1-.42,0"/><path class="cls-264" d="M19.27,9.16A1.26,1.26,0,0,1,19.83,9c-.11.24-.34.2-.56.16"/><path class="cls-265" d="M11.8,12.9H11c0-.18.22-.09.34-.1a3.38,3.38,0,0,1,.45,0c.05,0,.05.07,0,.12"/><path class="cls-266" d="M18.77,8.61c-.12,0-.26,0-.35-.07L19,8.48c0,.09-.12.09-.19.13"/><path class="cls-267" d="M18.4,8.71c.1-.09.24-.05.36-.05l0,.05H18.4"/><path class="cls-268" d="M11.87,12.21h-.42c.12-.09.27,0,.4-.05h0v.06"/></g></g></g></g><path class="cls-269" d="M11.52,16.69l-5.21,0L5.46,6.26s0,0,0,0a7.31,7.31,0,0,0,4.39.87,7,7,0,0,0,2.61-.87,0,0,0,0,1,0,0Z"/><path d="M17.4,17.92H7a.69.69,0,0,1-.68-.69v-3.9a.69.69,0,0,1,.8-.68l9.7,1.64a.74.74,0,0,1,.26.1,2.51,2.51,0,0,1,.77.83,2.81,2.81,0,0,1,.18,2.22A.67.67,0,0,1,17.4,17.92Z"/><g class="cls-270"><g id="Illustration_1-2" data-name="Illustration 1"><g class="cls-271"><g class="cls-272"><path class="cls-6" d="M18.54,9.35a1,1,0,0,1-.32.11.44.44,0,0,1-.5-.26c-.09-.24.1-.34.26-.44a.44.44,0,0,1,.62.13c.11.16.15.34-.06.46"/><path class="cls-7" d="M14.57,7.06a.54.54,0,0,1,0,.55c-.09.19-.27.32-.45.23a.34.34,0,0,1-.17-.49.59.59,0,0,0,0-.14.56.56,0,0,1,.21-.29.3.3,0,0,1,.43,0s0,.07,0,.1"/><path class="cls-8" d="M19.18,11.63c0,.2.09.44-.18.52a.48.48,0,0,1-.54-.25.36.36,0,0,1,0-.44.3.3,0,0,1,.42-.05c.09.05.17.12.26.18s.05,0,.05,0"/><path class="cls-9" d="M17.55,14.7a.56.56,0,0,1-.25-.6c0-.14.05-.29.24-.3a.3.3,0,0,1,.36.22c0,.09,0,.18.15.22s0,.15,0,.22-.21.39-.48.24"/><path class="cls-10" d="M18.55,13.73c-.1.17-.23.29-.43.17a.52.52,0,0,1-.26-.62c.07-.25.26-.26.46-.21s.35.3.23.66"/><path class="cls-11" d="M10.8,10.61c0-.2,0-.44.24-.5a.45.45,0,0,1,.49.27.35.35,0,0,1,0,.47.32.32,0,0,1-.42,0,1.92,1.92,0,0,1-.22-.18.1.1,0,0,1-.08-.08"/><path class="cls-12" d="M13.65,7.27c.12.29.18.56-.12.78s-.43.12-.46-.22a1.88,1.88,0,0,1,0-.41v0c.16-.21.33-.36.56-.1"/><path class="cls-13" d="M14.92,7c.19,0,.42-.21.56.07a.5.5,0,0,1-.18.61.31.31,0,0,1-.42.07c-.15-.11-.12-.27-.1-.43s.15-.19.14-.32Z"/><path class="cls-14" d="M16.34,7.65l0,0c-.19.19-.41.35-.65.13s-.05-.4.09-.56.43-.2.66,0l0,0a.27.27,0,0,1-.11.32"/><path class="cls-10" d="M18.41,13c-.15-.21-.34-.42-.1-.67s.34-.09.48,0,.29.45,0,.7-.31.12-.42-.08"/><path class="cls-15" d="M14.91,15.28c.33-.47.44-.49.74-.15a.45.45,0,0,1-.08.55.49.49,0,0,1-.13.12.44.44,0,0,1-.4,0,.39.39,0,0,1-.13-.55"/><path class="cls-16" d="M18.24,14.85a.64.64,0,0,1,.23.61.39.39,0,0,1-.28.33c-.16.05-.24-.1-.3-.24a3.58,3.58,0,0,1-.09-.35c.06-.23.13-.45.44-.35"/><path class="cls-17" d="M19.05,8.47a2.94,2.94,0,0,1,.42,0,.36.36,0,0,1,.31.31c0,.19-.1.24-.24.3s-.36.11-.53,0c-.26-.29-.25-.42,0-.59"/><path class="cls-18" d="M11.46,14.62a.55.55,0,0,1-.57.2c-.16,0-.31-.11-.33-.29s.13-.27.29-.31l.17,0a.45.45,0,0,1,.28,0c.18.09.28.21.16.43"/><path class="cls-19" d="M15.77,15.13c.06-.15.11-.32.29-.37s.33.21.39.42a.57.57,0,0,1,0,.29.37.37,0,0,1-.08.15.5.5,0,0,1-.44.1l-.1-.07a.45.45,0,0,1,0-.52"/><path class="cls-20" d="M18.2,7.58a.7.7,0,0,1,.5-.14c.16,0,.31.11.32.29a.26.26,0,0,1-.25.3,3,3,0,0,1-.43.08c-.32-.18-.35-.27-.14-.53"/><path class="cls-21" d="M14.12,6.47a.55.55,0,0,1,.16-.65c.1-.11.21-.22.37-.13a.34.34,0,0,1,.12.39c0,.08-.06.16-.08.24s-.13.17-.21.23-.28.14-.36-.08"/><path class="cls-22" d="M11.66,13.87a.49.49,0,0,1,.65-.18c.21.07.36.22.18.48a1.47,1.47,0,0,1-.65.15.34.34,0,0,1-.29-.26.18.18,0,0,1,.11-.19"/><path class="cls-23" d="M14.49,15.73c-.2,0-.45,0-.47-.24a.5.5,0,0,1,.48-.58.65.65,0,0,1,.31.38.57.57,0,0,1-.13.4c-.06,0-.11.09-.19,0"/><path class="cls-24" d="M12.86,15.65c.2,0,.42,0,.4.32a.56.56,0,0,1-.55.42.29.29,0,0,1-.19-.44c.08-.15.25-.18.34-.3Z"/><path class="cls-25" d="M15.2,6.31c0-.28.27-.58.49-.57s.24.12.23.3-.29.55-.51.52a.21.21,0,0,1-.21-.25"/><path class="cls-26" d="M19.68,10.76a.64.64,0,0,1,.41.05c.19.11.4.25.29.5s-.34.17-.53,0c-.13.07-.21,0-.27-.11s-.14-.38.1-.49"/><path class="cls-27" d="M18.68,14.22c0-.18.09-.29.27-.25a.48.48,0,0,1,.33.47c0,.17,0,.34-.18.39s-.27-.05-.35-.18a.4.4,0,0,1-.07-.24.19.19,0,0,1,0-.19"/><path class="cls-28" d="M17.27,15.58l.15.19a.77.77,0,0,1,0,.45c-.09.14-.12.37-.33.31s-.22-.36-.23-.59,0-.18,0-.26.21-.2.37-.1"/><path class="cls-29" d="M19.73,11.88a.59.59,0,0,1,.53.5c0,.19-.08.26-.26.26a.59.59,0,0,1-.5-.53.22.22,0,0,1,.23-.23"/><path class="cls-30" d="M19.19,13.44c0-.16-.06-.36.14-.45a.3.3,0,0,1,.35.09.52.52,0,0,1,.2.48.22.22,0,0,1-.17.21c-.2,0-.32-.1-.44-.24a.43.43,0,0,0-.09-.1Z"/><path class="cls-31" d="M11.23,8.27A.48.48,0,0,1,11,8c0-.21-.09-.47.15-.57s.34.12.42.32a.4.4,0,0,1,.07.32c-.07.23-.2.35-.44.23"/><path class="cls-32" d="M13,6.75a.77.77,0,0,1,0-.56c.08-.17.19-.3.38-.24s.16.22.17.38-.1.15,0,.23a.08.08,0,0,1,0,.09.6.6,0,0,1-.16.19c-.16.09-.31.12-.41-.09"/><path class="cls-33" d="M10.31,10.32a.58.58,0,0,1-.49-.49.25.25,0,0,1,.24-.3c.19,0,.46.25.48.49s-.06.29-.23.3"/><path class="cls-34" d="M15.21,16.91l-.16.05c-.12.05-.24.09-.34,0a.35.35,0,0,1,0-.38,1.6,1.6,0,0,0,.1-.23l0-.05a.11.11,0,0,1,.06-.09c.19-.09.39-.19.47.14s-.1.39-.08.6Z"/><path class="cls-35" d="M14.29,16.21c0,.34-.33.66-.55.62a.24.24,0,0,1-.22-.27c0-.25.33-.55.54-.52a.23.23,0,0,1,.23.17"/><path class="cls-36" d="M16.75,6.09a.23.23,0,0,1,.27.25.57.57,0,0,1-.49.49.23.23,0,0,1-.27-.26.53.53,0,0,1,.49-.48"/><path class="cls-37" d="M17.27,6.91a.61.61,0,0,1,.34-.23c.17,0,.34-.06.43.13s0,.32-.18.42a.69.69,0,0,1-.15.07.43.43,0,0,1-.29.07c-.24-.08-.33-.22-.15-.46"/><path class="cls-38" d="M12.24,15.43a.26.26,0,0,1-.19.23c-.22.1-.47.11-.58-.13s.12-.35.33-.41.32-.1.46,0a.17.17,0,0,1,0,.3"/><path class="cls-39" d="M11.22,9.33c.19-.22.36-.14.5,0s.25.42.06.63-.33.13-.48-.05a2.2,2.2,0,0,1-.08-.62"/><path class="cls-40" d="M19,11.21a.49.49,0,0,1-.65-.34c0-.28.21-.29.39-.32s.2,0,.31,0a.22.22,0,0,1,.11,0,.39.39,0,0,1-.16.6"/><path class="cls-41" d="M13.21,14.47a.47.47,0,0,1-.41.52.15.15,0,0,1-.18.09.44.44,0,0,1-.32-.37c0-.14,0-.26.16-.31s.51-.1.75.07"/><path class="cls-42" d="M18.68,14.22v.19c-.13.12-.11.37-.33.42s-.39-.16-.37-.44l.07-.15c.13-.29.3-.29.47-.05.06.09.09.15.16,0"/><path class="cls-43" d="M13.64,5c-.06.22-.08.49-.37.54s-.2-.13-.19-.27.08-.51.35-.56.18.15.21.29"/><path class="cls-44" d="M17.54,17.24c-.06.21-.08.47-.34.49s-.22-.16-.21-.31.06-.5.35-.51.17.19.2.33"/><path class="cls-45" d="M15.62,17.87c.05-.22.1-.47.39-.52.14,0,.18.11.19.24s-.24.59-.4.57-.17-.14-.18-.29"/><path class="cls-46" d="M12,13.13c.1.44-.28.39-.48.52a.32.32,0,0,1-.27-.06c-.12-.17-.37-.33,0-.54a1.27,1.27,0,0,1,.79.08"/><path class="cls-47" d="M12.23,5.7c-.05.2,0,.45-.3.47S11.7,6,11.7,5.83s0-.45.29-.48.2.19.24.35"/><path class="cls-48" d="M16.91,15.74a1.59,1.59,0,0,1-.07.2c-.15,0-.24.26-.43.12a.1.1,0,0,1-.1-.06.36.36,0,0,1,0-.41c0-.06,0-.11,0-.17a1.47,1.47,0,0,1,.28-.14h.06a.08.08,0,0,1,.1,0,.53.53,0,0,1,.12.47"/><path class="cls-49" d="M8.94,12.27a.51.51,0,0,1-.52-.41c0-.15.1-.22.22-.2s.47.13.53.41-.1.19-.23.2"/><path class="cls-50" d="M13.08,7.42a.55.55,0,0,1-.28.24c-.36-.13-.42-.44-.14-.75A.36.36,0,0,1,13,6.85c.25.16.17.37.07.58Z"/><path class="cls-51" d="M12.15,8.24,12,8.33c-.26.07-.32-.1-.36-.31a.65.65,0,0,1,.05-.31.27.27,0,0,1,.37-.19c.18.05.2.21.23.37a.39.39,0,0,1-.16.35"/><path class="cls-52" d="M18.32,16.5c0-.22,0-.44.26-.43s.25.23.24.42-.07.4-.28.38-.21-.22-.22-.37"/><path class="cls-53" d="M12.67,15.06,12.8,15c.39.23.4.34.06.66h0c-.21,0-.4,0-.5-.22a.29.29,0,0,1,.3-.37"/><path class="cls-54" d="M14.49,5c0-.25.25-.54.42-.52s.18.15.16.27-.15.48-.42.52-.16-.14-.16-.27"/><path class="cls-55" d="M11.65,8.92c-.15.07-.26.36-.49.13a.48.48,0,0,1-.07-.65c.37-.19.46.13.6.36a.14.14,0,0,1,0,.16"/><path class="cls-56" d="M15.83,15.65h.1c.11.14.05.29,0,.44s0,.2-.17.21-.32.1-.45-.07,0-.35.06-.51l.09-.09c.11-.06.22-.1.33,0"/><path class="cls-57" d="M18.83,13.12a.6.6,0,0,1,.36.32h0c0,.16.06.34-.11.42s-.3-.06-.4-.19c-.17-.39-.14-.48.16-.54"/><path class="cls-58" d="M14.57,7.06V7c-.14-.13-.11-.28-.05-.44a1,1,0,0,1,.27-.23c.13,0,.27-.05.33.1a.51.51,0,0,1-.2.56h0c-.1.08-.23.06-.35.08"/><path class="cls-59" d="M21.52,11.69c0,.14-.14.15-.26.14s-.5-.3-.47-.47.13-.15.24-.15.51.27.49.48"/><path class="cls-60" d="M10.8,10.61l.08.08a.67.67,0,0,1-.07.37c-.24.16-.41,0-.59-.13a.15.15,0,0,1,0-.17c0-.14,0-.27.11-.33s.32.08.45.18"/><path class="cls-61" d="M16.9,16.87c0,.21-.12.44-.35.45s-.21-.17-.19-.32.1-.44.34-.45.18.18.2.32"/><path class="cls-62" d="M17.8,15.21c-.05.26-.17.43-.46.3-.12,0-.14-.16-.17-.26a.28.28,0,0,1,0-.09l.06-.12a.46.46,0,0,1,.12-.12c0-.11.13-.13.21-.17.28,0,.31.22.25.46"/><path class="cls-63" d="M11,6.81c0,.19,0,.38-.23.37s-.27-.21-.28-.41,0-.39.24-.36.24.23.27.4"/><path class="cls-50" d="M12.94,6c0,.19,0,.42-.3.45s-.21-.17-.21-.32.07-.44.3-.47.2.17.21.34"/><path class="cls-29" d="M19.65,11.21c0,.09.09.16.2.15s-.06.05-.07.08c-.06.41-.17.46-.51.25l-.09-.06s0,0-.05,0l0-.32c.15-.24.35-.11.54-.06"/><path class="cls-64" d="M18.07,16.31c0,.19-.05.41-.29.42s-.22-.18-.21-.33,0-.42.26-.45.22.19.24.36"/><path class="cls-65" d="M15.8,16.31l.12-.2a.1.1,0,0,1,.08-.05c.18.13.39.24.34.53a1.74,1.74,0,0,1-.11.18.24.24,0,0,1-.29.15c-.14,0-.17-.16-.17-.29s0-.21,0-.32"/><path class="cls-66" d="M11.8,15a.32.32,0,0,1-.28-.38.33.33,0,0,1,.29-.24.88.88,0,0,1,.23,0,.32.32,0,0,1,.28.38.38.38,0,0,1-.52.24"/><path class="cls-67" d="M14.22,5.53a.41.41,0,0,1-.33.41c-.19,0-.2-.13-.19-.27s.1-.45.35-.49.18.13.17.35"/><path class="cls-68" d="M10,13.82c.19,0,.43,0,.44.3s-.21.25-.36.25-.39-.07-.39-.33.19-.18.31-.22"/><path class="cls-69" d="M20.14,9c.21,0,.42.08.45.3s-.14.25-.32.24-.39-.1-.42-.32.16-.2.29-.22"/><path class="cls-36" d="M16.42,7.29c.15-.47.35-.57.71-.38.13.35-.07.49-.34.59s-.29-.07-.38-.22Z"/><path class="cls-70" d="M10.87,15.5c-.16,0-.34-.06-.33-.25s.21-.27.39-.27.35,0,.33.24-.2.27-.39.28"/><path class="cls-71" d="M16,5.41a.19.19,0,0,1-.17-.21.6.6,0,0,1,.43-.51c.14,0,.19.08.19.21a.57.57,0,0,1-.45.51"/><path class="cls-72" d="M13.58,6.6v0a.42.42,0,0,1,.49,0,.35.35,0,0,1,0,.39.59.59,0,0,1-.27.27l-.2,0A.37.37,0,0,1,13.5,7a.58.58,0,0,1,.08-.43"/><path class="cls-73" d="M18.43,6.54c-.15,0-.29-.06-.26-.23s.23-.3.42-.33.29,0,.28.21-.24.32-.44.35"/><path class="cls-74" d="M19.2,10.62l-.08,0s-.05,0-.06,0-.11-.19-.09-.31.33-.21.53-.07.43.27.12.53a.26.26,0,0,1-.42-.08"/><path class="cls-75" d="M11,15.75c.16,0,.34,0,.32.23s-.24.29-.42.31-.31-.05-.3-.23.24-.26.4-.31"/><path class="cls-76" d="M9.92,15.14c-.2,0-.41-.08-.43-.29s.19-.26.34-.23.4,0,.41.29-.18.2-.32.23"/><path class="cls-77" d="M18.31,10.18c-.16,0-.19-.16-.18-.31s.44-.16.63-.31a.21.21,0,0,1,.19.09.44.44,0,0,1,.08.28c-.16.34-.45.28-.72.25"/><path class="cls-78" d="M12.8,7.72c.26.41.22.69-.14.91a1.17,1.17,0,0,1-.25-.87c.11-.16.25-.12.39,0"/><path class="cls-79" d="M9,10.85a.52.52,0,0,1-.48-.44c0-.13.07-.17.18-.18a.6.6,0,0,1,.51.43c0,.15-.09.19-.21.19"/><path class="cls-80" d="M21.23,13c0,.12-.06.22-.19.2a.48.48,0,0,1-.45-.44c0-.13.05-.23.18-.21a.55.55,0,0,1,.46.45"/><path class="cls-81" d="M11.78,6.82c0,.18-.06.37-.24.37s-.25-.21-.25-.41.05-.35.23-.35.23.22.26.39"/><path class="cls-82" d="M15.52,5.41a.51.51,0,0,1-.39.45c-.15,0-.21-.1-.19-.24a.5.5,0,0,1,.39-.47c.15,0,.19.11.19.26"/><path class="cls-83" d="M13.94,15.14a.45.45,0,0,1-.59.29.29.29,0,0,1-.19-.4l.05,0a.68.68,0,0,1,.5-.09c.12,0,.25.08.23.25"/><path class="cls-84" d="M14.27,17.87c.06-.25.18-.45.44-.47s.17.15.14.27a.46.46,0,0,1-.44.43c-.18,0-.13-.14-.14-.23"/><path class="cls-85" d="M19.83,7.06c.12,0,.23.12.17.26s-.27.21-.45.2-.27,0-.3-.2a.2.2,0,0,1,.21-.26.44.44,0,0,1,.37,0"/><path class="cls-86" d="M13.16,17.78a.17.17,0,0,1-.18-.2.51.51,0,0,1,.41-.45.17.17,0,0,1,.22.17.55.55,0,0,1-.45.48"/><path class="cls-87" d="M19.35,15.29c0-.14,0-.32.22-.3s.29.23.31.43-.05.32-.22.31-.26-.25-.31-.44"/><path class="cls-88" d="M14.48,17c-.05.22-.15.41-.39.45s-.23-.07-.21-.21a.5.5,0,0,1,.41-.45c.13,0,.18.08.19.21"/><path class="cls-89" d="M19.12,15.47c0,.15-.05.33-.22.32s-.28-.24-.28-.44,0-.32.23-.29.25.22.27.41"/><path class="cls-73" d="M17.24,5.83c-.13,0-.24,0-.22-.19a.49.49,0,0,1,.42-.42.18.18,0,0,1,.23.21.47.47,0,0,1-.43.4"/><path class="cls-90" d="M9.18,8.9a.5.5,0,0,1,.36.46c0,.13,0,.21-.18.21A.52.52,0,0,1,9,9.09C9,9,9,8.9,9.18,8.9"/><path class="cls-91" d="M18.57,7.29c-.16,0-.33,0-.3-.23s.21-.28.4-.29S19,6.83,19,7s-.21.27-.39.28"/><path class="cls-92" d="M15.21,16.92c.14,0,.3-.24.43,0a.4.4,0,0,1-.1.46c-.09.09-.18.23-.32.16s-.11-.25-.07-.39l.06-.24Z"/><path class="cls-93" d="M20.33,13.8a.52.52,0,0,1,.34.48c0,.12-.07.22-.21.19s-.34-.23-.35-.47.06-.21.22-.2"/><path class="cls-94" d="M10.15,8.08c0,.13,0,.26-.19.25s-.33-.21-.35-.43,0-.26.18-.26.3.23.36.44"/><path class="cls-95" d="M12,15.86c.15,0,.3,0,.28.2a.37.37,0,0,1-.37.33c-.14,0-.29,0-.29-.2s.2-.3.38-.33"/><path class="cls-96" d="M12,17.15c-.15,0-.27,0-.25-.2a.42.42,0,0,1,.43-.36c.14,0,.25.05.23.2a.42.42,0,0,1-.41.36"/><path class="cls-97" d="M20.55,12.24a.46.46,0,0,1-.35-.39c0-.16.1-.22.23-.19a.44.44,0,0,1,.41.41c0,.14-.08.19-.29.17"/><path class="cls-98" d="M10.36,7.76c0-.15.05-.3.22-.26s.28.25.29.45-.07.26-.21.24-.28-.23-.3-.43"/><path class="cls-99" d="M12,8.38a.58.58,0,0,1,.29.64c0,.17-.1.3-.3.27a1.16,1.16,0,0,1-.16-.89.12.12,0,0,1,.17,0"/><path class="cls-100" d="M12,6.68c.22-.29.38-.19.51.08a.56.56,0,0,1-.14.61C12,7.3,12.06,7,12,6.68"/><path class="cls-73" d="M17.61,6c.15,0,.28,0,.26.2a.4.4,0,0,1-.39.35c-.13,0-.26,0-.26-.18A.41.41,0,0,1,17.61,6"/><path class="cls-101" d="M17.27,15.07l-.07.07c-.3,0-.5-.29-.5-.67.23-.26.39-.19.51.11s0,.33.06.49"/><path class="cls-93" d="M19.92,14.41c0,.14,0,.29-.19.26s-.32-.22-.33-.45.07-.25.21-.22a.39.39,0,0,1,.31.41"/><path class="cls-102" d="M10.24,10.75v.17c.08.05.12.11,0,.2a.58.58,0,0,1-.63,0c-.09-.11-.15-.23,0-.36a.3.3,0,0,1,.36-.06c.09,0,.17.08.27,0"/><path class="cls-103" d="M10.45,8.48c.33-.07.45.13.5.42a.29.29,0,0,1-.28.37s-.05,0-.08,0a1,1,0,0,1-.14-.74"/><path class="cls-104" d="M9.61,10.48a.44.44,0,0,1-.37-.39c0-.15.06-.24.2-.21a.43.43,0,0,1,.39.4c0,.14-.06.21-.22.2"/><path class="cls-105" d="M17,18.79c.05-.19.08-.42.31-.45s.17.16.15.28-.06.43-.3.44-.16-.15-.16-.27"/><path class="cls-106" d="M13.79,3.59c-.06.18-.1.4-.34.43s-.16-.13-.14-.24.1-.43.32-.48.16.15.16.29"/><path class="cls-107" d="M20.38,8.79c-.16,0-.3-.13-.25-.32s.22-.17.36-.16a.4.4,0,0,1,.4.23c-.07.3-.33.18-.51.25"/><path class="cls-108" d="M16.7,14.48c.13.25.21.54.5.66v0a.26.26,0,0,1-.41.1h-.1c-.1-.27-.23-.54,0-.8"/><path class="cls-109" d="M15.8,19c0,.25-.11.44-.33.5s-.16-.12-.15-.22.12-.44.37-.48.1.13.11.2"/><path class="cls-110" d="M10.44,13.13c0-.15-.13-.23-.12-.37.23-.18.46-.09.7,0l.07.08c0,.31,0,.37-.42.39a.26.26,0,0,1-.23-.1"/><path class="cls-111" d="M12,4.36c0,.17,0,.38-.24.42s-.19-.14-.19-.27,0-.39.25-.42.17.13.18.27"/><path class="cls-112" d="M15.23,3.86c-.15,0-.2,0-.19-.14a.54.54,0,0,1,.33-.52c.12,0,.19.06.18.17a.62.62,0,0,1-.32.49"/><path class="cls-113" d="M17.13,8l-.21.15a.44.44,0,0,1-.37,0A.18.18,0,0,1,16.41,8a1.64,1.64,0,0,1,.78-.33c.09,0,.12.07.13.15a.25.25,0,0,1-.19.25"/><path class="cls-114" d="M8.74,15.37c-.19,0-.38,0-.39-.25s.15-.2.28-.19S9,15,9,15.18s-.16.17-.27.19"/><path class="cls-115" d="M19.51,10.18a.88.88,0,0,0-.05-.15c.15-.26.42-.23.65-.28.06.11.2.19.1.35a.35.35,0,0,1-.4.14l-.3-.06"/><path class="cls-116" d="M12.87,4.67c0,.16-.06.37-.28.38s-.16-.16-.15-.28.07-.36.26-.38.17.13.17.28"/><path class="cls-117" d="M19.11,17.7c0,.16-.07.35-.26.34s-.17-.18-.16-.31,0-.36.22-.36.17.19.2.33"/><path class="cls-118" d="M20.77,7.06c-.14,0-.32,0-.33-.2s.17-.22.3-.23.32,0,.33.21-.16.2-.3.22"/><path class="cls-119" d="M21.92,8.72c-.19,0-.39-.05-.42-.27s.13-.19.24-.18.41.05.43.29-.15.14-.25.16"/><path class="cls-120" d="M20.44,10.85c-.17-.06-.33-.16-.24-.36s.3-.13.46-.06a.34.34,0,0,1,.23.26.49.49,0,0,1-.45.16"/><path class="cls-121" d="M14.06,18.69a.14.14,0,0,1,.16.17.48.48,0,0,1-.35.45c-.12,0-.17-.06-.15-.18a.54.54,0,0,1,.34-.44"/><path class="cls-122" d="M20.11,9.75c-.18.2-.45.14-.65.28a.26.26,0,0,1,0-.42.57.57,0,0,1,.63.14"/><path class="cls-123" d="M7.9,13.61a.51.51,0,0,1-.47-.29c0-.1.13-.21.25-.18s.41.09.45.33-.15.12-.23.14"/><path class="cls-124" d="M14.34,3.94a.17.17,0,0,1,.14.22c0,.21-.1.42-.34.44S14,4.47,14,4.37s.11-.38.32-.43"/><path class="cls-125" d="M10.31,12.56a.5.5,0,0,1-.65-.23c0-.22.2-.17.32-.19a1.2,1.2,0,0,1,.38,0c.22.16.21.29,0,.38"/><path class="cls-126" d="M16.72,18.14c0,.18-.06.37-.27.41s-.18-.09-.16-.21.08-.4.29-.44.13.13.14.24"/><path class="cls-127" d="M16.77,7.49c.16,0,.34-.06.43.16-.22.21-.53.19-.79.3a1.55,1.55,0,0,0,0-.22c.06-.17.15-.29.35-.24"/><path class="cls-128" d="M10,16.39c.14,0,.28,0,.25.2s-.2.23-.36.22-.26,0-.24-.2.22-.2.35-.22"/><path class="cls-129" d="M8.82,14c.16,0,.35.06.35.27s-.16.18-.27.16-.36,0-.36-.27S8.7,14,8.82,14"/><path class="cls-130" d="M22.08,11.12a.16.16,0,0,1-.22.14c-.18,0-.38-.1-.4-.35s.11-.15.21-.13a.49.49,0,0,1,.41.34"/><path class="cls-131" d="M11.65,8.75c0-.18,0-.31.22-.35,0,.31.17.58.14.89-.23,0-.32-.16-.36-.37V8.75"/><path class="cls-132" d="M20.68,7.58c.14,0,.33,0,.32.21a.28.28,0,0,1-.31.22c-.14,0-.3-.06-.3-.24s.16-.18.29-.19"/><path class="cls-133" d="M7.87,10.14a.49.49,0,0,1-.41-.38c0-.1,0-.17.13-.16A.5.5,0,0,1,8,10c0,.11,0,.15-.15.16"/><path class="cls-134" d="M20.81,10.18a.22.22,0,0,1-.13-.31c.05-.13.18-.14.3-.11a.46.46,0,0,1,.34.18c-.05.35-.29.28-.51.24"/><path class="cls-135" d="M8.31,11.21a.43.43,0,0,1-.38-.35.12.12,0,0,1,.15-.14c.2,0,.4.12.43.36s-.09.13-.2.13"/><path class="cls-136" d="M18.2,17.5c0,.2-.05.39-.25.4s-.17-.17-.16-.28.05-.36.22-.38.16.16.19.26"/><path class="cls-137" d="M15.22,18.3a.46.46,0,0,1-.31.43c-.13,0-.16-.09-.15-.19a.44.44,0,0,1,.33-.43c.1,0,.12.08.13.19"/><path class="cls-138" d="M10.88,12c.29,0,.61-.09.77.28a1,1,0,0,1-.79.06.18.18,0,0,1-.1-.21.14.14,0,0,1,.12-.13"/><path class="cls-139" d="M22.28,11.85c.19.06.37.14.4.38s-.06.15-.15.15-.46-.26-.44-.41.09-.12.19-.12"/><path class="cls-140" d="M10.41,12.23c-.24.07-.51-.08-.75.1-.16-.27-.11-.38.22-.39.16,0,.28.15.45.08a.06.06,0,0,1,.08,0,.18.18,0,0,1,0,.19"/><path class="cls-141" d="M19.54,16.47c0,.14,0,.3-.19.31s-.21-.17-.21-.32,0-.27.16-.28.21.15.24.29"/><path class="cls-142" d="M10.49,5.69c0,.13,0,.31-.2.3s-.2-.18-.2-.34,0-.3.19-.3.18.2.21.34"/><path class="cls-143" d="M8.18,12.38c.22,0,.34.13.41.31s-.09.14-.17.13S8,12.76,8,12.5s.12-.11.21-.12"/><path class="cls-144" d="M11.38,5.63c0,.16,0,.33-.19.34S11,5.81,11,5.69s0-.33.19-.34.19.15.2.28"/><path class="cls-145" d="M10.75,11.58l0-.22a.68.68,0,0,1,.77,0c0,.07.08.14,0,.22a.65.65,0,0,1-.66.07h-.06a.09.09,0,0,1-.06-.07"/><path class="cls-146" d="M19.41,5.79c-.12,0-.24,0-.23-.17s.16-.25.33-.26.23,0,.23.16-.19.22-.33.27"/><path class="cls-147" d="M9.88,15.88c-.16,0-.32,0-.32-.21s.15-.18.27-.18.32,0,.33.18-.16.19-.28.21"/><path class="cls-148" d="M19.89,6.44a.3.3,0,0,1-.31.24c-.14,0-.29,0-.28-.19s.18-.19.31-.22.22,0,.28.17"/><path class="cls-149" d="M9.48,13.42c.11.17.06.29-.12.31a.48.48,0,0,1-.61-.3.67.67,0,0,1,.73,0"/><path class="cls-150" d="M13.83,18.07a.44.44,0,0,1-.35.37c-.11,0-.15-.07-.13-.16a.43.43,0,0,1,.36-.39c.09,0,.13.09.12.18"/><path class="cls-151" d="M13.94,15.14c-.19-.29-.49-.1-.73-.16a.51.51,0,0,1,.37-.29c.32-.06.46.12.36.45"/><path class="cls-152" d="M17.06,3.82a.47.47,0,0,1-.35.38c-.09,0-.17,0-.15-.14a.45.45,0,0,1,.37-.42c.1,0,.14.06.13.18"/><path class="cls-153" d="M22.44,10.56a.39.39,0,0,1-.38-.31.12.12,0,0,1,.09-.14.46.46,0,0,1,.51.22c0,.17-.1.19-.22.23"/><path class="cls-154" d="M12.3,7.87l.14-.08c.07.28.14.56.22.84-.21.06-.27-.12-.37-.24a.72.72,0,0,1,0-.52"/><path class="cls-155" d="M16,4.23a.43.43,0,0,1-.34.4c-.1,0-.16-.06-.14-.16a.45.45,0,0,1,.34-.42c.1,0,.13.06.14.18"/><path class="cls-156" d="M11.5,11.36h-.77c-.07-.13.06-.2.07-.3.29,0,.55,0,.7.3"/><path class="cls-157" d="M10.86,13.65a1.06,1.06,0,0,1,.43-.08c.08,0,.17,0,.23.08v.08c.07.18-.06.21-.17.23a.62.62,0,0,1-.53-.09c0-.08,0-.14,0-.22"/><path class="cls-158" d="M21.41,9.2c.17,0,.35,0,.39.24s-.13.15-.24.15-.38-.08-.42-.27.16-.09.27-.12"/><path class="cls-159" d="M15,15.9l-.2.34h0c-.26,0-.35-.2-.28-.45,0,0,0-.05,0-.07l.16-.08c.26-.13.3.07.34.25"/><path class="cls-80" d="M21.32,12.45c0-.14.08-.16.17-.15a.39.39,0,0,1,.36.35c0,.11-.08.17-.18.14a.47.47,0,0,1-.35-.34"/><path class="cls-59" d="M22.17,13.69c0,.13,0,.21-.12.2a.43.43,0,0,1-.38-.37c0-.08,0-.16.11-.15a.43.43,0,0,1,.39.32"/><path class="cls-160" d="M20.41,16.41c0,.12,0,.27-.16.27s-.21-.17-.22-.32,0-.28.15-.27.21.16.23.32"/><path class="cls-161" d="M10.06,7.18a.33.33,0,0,1-.25-.31c0-.14,0-.28.17-.28s.21.17.23.31a.22.22,0,0,1-.15.28"/><path class="cls-162" d="M9.11,6.77a.39.39,0,0,1,.26.37c0,.1,0,.22-.15.2S9,7.15,9,7s0-.19.15-.2"/><path class="cls-90" d="M8.25,8.17a.37.37,0,0,1,.31.35c0,.1,0,.18-.12.17a.36.36,0,0,1-.34-.35c0-.1,0-.17.15-.17"/><path class="cls-163" d="M8.64,9.78a.44.44,0,0,1-.33-.35c0-.13.07-.18.18-.15a.38.38,0,0,1,.31.35c0,.1-.06.15-.16.15"/><path class="cls-164" d="M11,17c-.11,0-.23,0-.21-.16s.16-.23.3-.24.24,0,.24.15S11.17,17,11,17"/><path class="cls-165" d="M9.1,11.51a.19.19,0,0,1,0-.29.24.24,0,0,1,.26-.05c.16.07.31.13.35.33-.2.18-.39.09-.59,0"/><path class="cls-166" d="M19.4,9.28c.08.45-.23.37-.47.39l-.17-.09s0,0-.06,0,0-.05,0-.08,0-.05,0-.07a.74.74,0,0,1,.65-.16h0"/><path class="cls-167" d="M19.85,7.94c.18.27,0,.33-.2.37a.39.39,0,0,1-.4-.12c.1-.34.35-.32.6-.25"/><path class="cls-168" d="M21.11,14.72a.38.38,0,0,1,.29.32c0,.1,0,.23-.1.23s-.28-.16-.33-.33a.17.17,0,0,1,.14-.22"/><path class="cls-169" d="M11.18,17.9c-.11,0-.21,0-.19-.17a.38.38,0,0,1,.37-.28.14.14,0,0,1,.16.15.34.34,0,0,1-.34.3"/><path class="cls-170" d="M12.81,18.37a.45.45,0,0,1-.36.37.13.13,0,0,1-.15-.16.41.41,0,0,1,.36-.35c.11,0,.15,0,.15.14"/><path class="cls-171" d="M18.41,4.56a.41.41,0,0,1-.36.29c-.1,0-.17,0-.15-.14a.35.35,0,0,1,.36-.32c.1,0,.15.05.15.17"/><path class="cls-172" d="M10.68,13.14c0,.09.05.14.08.21-.22.2-.51,0-.74.13l-.06,0c-.07-.34,0-.41.48-.37h.24"/><path class="cls-173" d="M20.3,14.92a.34.34,0,0,1,.25.35c0,.1,0,.22-.13.21s-.25-.17-.26-.34,0-.2.14-.22"/><path class="cls-174" d="M12.35,7.35c0,.15-.17.09-.27.09A.58.58,0,0,1,12,6.68c.16.2.08.53.34.67"/><path class="cls-175" d="M10.8,13.5c0,.05,0,.1,0,.15-.32.16-.62.19-.85-.15h0a1.19,1.19,0,0,1,.83,0"/><path class="cls-73" d="M18.62,5.45a.39.39,0,0,1-.38.26.13.13,0,0,1-.14-.16.32.32,0,0,1,.33-.27c.11,0,.18,0,.19.17"/><path class="cls-176" d="M7.66,11.43c.06.09.23.14.13.29s-.23.07-.34,0-.28-.11-.27-.3a.42.42,0,0,1,.48,0"/><path class="cls-177" d="M10.75,11.58l.06.07,0,.14a.53.53,0,0,1-.66,0,.26.26,0,0,1,.06-.3,1.12,1.12,0,0,1,.51.08"/><path class="cls-178" d="M17.79,8.09l.11.09a.75.75,0,0,1-.77.29.35.35,0,0,1,.07-.3A.25.25,0,0,1,17.44,8a.45.45,0,0,1,.35.08"/><path class="cls-179" d="M10.18,11.8h.66c.12.07-.09.19,0,.25l-.06.05c-.14,0-.29,0-.42-.06h-.07l-.15-.22"/><path class="cls-180" d="M17.31,8.7a.18.18,0,0,1-.17-.16A2.82,2.82,0,0,1,18,8.31a.14.14,0,0,1,0,.17l-.26.22a.75.75,0,0,1-.42,0"/><path class="cls-181" d="M11.59,14l-.21.08c-.12,0-.24.09-.36,0a.31.31,0,0,1-.2-.23c.23-.06.51.15.7-.14l.14.14a1.11,1.11,0,0,0-.07.16"/><path class="cls-182" d="M9.87,12.76c.09.33-.13.31-.32.29a.35.35,0,0,1-.31-.2c.17-.34.4-.17.63-.09"/><path class="cls-183" d="M10.3,11.06c0,.13.07.27-.06.38a.62.62,0,0,1-.59-.3,1.79,1.79,0,0,0,.65-.08"/><path class="cls-184" d="M18.12,8.31a.72.72,0,0,1,.43-.15l.22.14c-.13.34-.39.29-.65.24h0a.23.23,0,0,1,0-.24"/><path class="cls-185" d="M11.67,12.47c-.05.26-.24.26-.42.24s-.25-.06-.37-.09l0-.06a.19.19,0,0,1,0-.12,1.05,1.05,0,0,1,.78,0"/><path class="cls-186" d="M11.13,13.12l.11-.21c.27,0,.57-.08.76.22h-.87"/><path class="cls-187" d="M19.35,9.27a1.64,1.64,0,0,1-.65.16c-.07-.16,0-.24.13-.31s.36-.1.5.09a.14.14,0,0,1,0,.06"/><path class="cls-188" d="M16.34,16.59c-.05-.22-.25-.32-.35-.49.1-.24.25-.16.39-.07l0,0c0,.18.09.37-.07.53"/><path class="cls-189" d="M9.87,12.76c-.21,0-.44-.08-.63.09-.16-.22-.06-.31.15-.32a.44.44,0,0,1,.48.23"/><path class="cls-190" d="M18.05,7.58,18,7.8c-.18.06-.33.2-.54.13a.12.12,0,0,1-.09-.13s0,0,0-.07A.68.68,0,0,1,18,7.5l.07.08"/><path class="cls-191" d="M19,9.86c.15.13,0,.26,0,.39-.23.07-.47.14-.67-.07.21-.13.55,0,.67-.32"/><path class="cls-192" d="M11.67,12.47c-.27,0-.54-.08-.8.06h0l0-.22h.83s.06.09,0,.15"/><path class="cls-193" d="M9.48,13.42H8.75c.12-.32.41-.33.73,0"/><path class="cls-194" d="M10.45,8.48a2.62,2.62,0,0,1,.14.74c-.34-.29-.38-.5-.14-.74"/><path class="cls-195" d="M20.81,10.18c.19,0,.4,0,.51-.24.12.07.18.17.11.3s-.18.1-.28.09a.43.43,0,0,1-.34-.15"/><path class="cls-196" d="M18,7.51l-.63.22c0-.2.12-.26.26-.32s.05,0,.08-.06.24,0,.29.16"/><path class="cls-197" d="M14.5,15.8a.64.64,0,0,0,.28.45v.07c-.14,0-.32.12-.4-.08a.35.35,0,0,1,.12-.44"/><path class="cls-198" d="M19.85,7.94a.9.9,0,0,0-.6.25c-.19-.3,0-.34.22-.38a.36.36,0,0,1,.38.13"/><path class="cls-199" d="M13.21,14.47h-.77c0-.1,0-.13.1-.13.24-.07.5-.2.67.13"/><path class="cls-200" d="M19.06,10.55l.06,0c-.26,0-.56,0-.73.27-.11-.32.08-.39.31-.4a1.55,1.55,0,0,1,.36.08"/><path class="cls-201" d="M9.1,11.51h.59c.08.23-.07.24-.22.24a.42.42,0,0,1-.37-.23"/><path class="cls-202" d="M11.8,14.46c.16-.08.06-.14,0-.21a2.35,2.35,0,0,1,.7-.08l0,.09c-.09.18-.26.17-.41.2H11.8"/><path class="cls-203" d="M18,8.32a2.23,2.23,0,0,1-.83.22V8.47l.77-.29c.05,0,.07,0,.08.06s0,0,0,.06l0,0"/><path class="cls-204" d="M10.87,11.65c.23,0,.43-.12.66-.07-.15.3-.32.32-.66.07"/><path class="cls-205" d="M6.08,10.8a.35.35,0,0,1,.27.2.08.08,0,0,1-.09.11.3.3,0,0,1-.27-.2c0-.07,0-.11.09-.11"/><path class="cls-206" d="M23.37,8.53c0,.11-.08.13-.15.12s-.23,0-.25-.16.08-.1.14-.1a.26.26,0,0,1,.26.14"/><path class="cls-207" d="M20.38,8.79c.13-.17.38-.08.51-.25,0,.3-.1.36-.51.25"/><path class="cls-273" d="M24,10.84c0,.08-.08.08-.14.07s-.23-.06-.24-.21.07-.1.12-.08.23.08.26.22"/><path class="cls-208" d="M10.31,12.7l.14-.09a.63.63,0,0,1,.43,0h0c0,.08.14,0,.13.14h-.69a.13.13,0,0,1,0-.06"/><path class="cls-209" d="M14,2.15c0,.09,0,.22-.17.26s-.12,0-.11-.12A.31.31,0,0,1,13.91,2c.07,0,.09.05.09.14"/><path class="cls-210" d="M18.7,9.58h.06c-.17.19-.43.17-.63.29.07-.36.34-.28.57-.29"/><path class="cls-211" d="M12.7,3.66c-.08,0-.12-.06-.11-.13s0-.23.16-.25a.1.1,0,0,1,.1.12c0,.11,0,.22-.15.26"/><path class="cls-212" d="M7.64,15.36c0,.1-.08.11-.15.11s-.2,0-.22-.13.05-.12.12-.13a.23.23,0,0,1,.25.15"/><path class="cls-213" d="M22.73,9.65c-.1,0-.22,0-.23-.18s.08-.1.14-.08.22,0,.23.18-.08.08-.14.08"/><path class="cls-214" d="M11.22,9.33c.07.2.19.39.08.62a.46.46,0,0,1-.08-.62"/><path class="cls-215" d="M6.35,13c.11.05.23.06.26.18s-.07.1-.14.1a.22.22,0,0,1-.24-.16c0-.1.07-.1.12-.12"/><path class="cls-216" d="M18.1,18.56a.11.11,0,0,1,.1.13c0,.09,0,.21-.11.24S18,18.88,18,18.8a.22.22,0,0,1,.12-.24"/><path class="cls-217" d="M22.87,11.35c.1,0,.2.06.22.19s0,.1-.11.08-.21-.07-.23-.19.06-.08.12-.08"/><path class="cls-218" d="M18.12,8.54c.22-.09.47,0,.65-.24l.06,0v.15c-.16.15-.38.14-.56.2l-.15-.06V8.54"/><path class="cls-219" d="M7.74,14.39c-.09,0-.2,0-.22-.14s.08-.12.14-.11.19,0,.22.14-.07.1-.14.11"/><path class="cls-220" d="M14.67,2.84c.09,0,.12.05.1.12s-.06.23-.19.25-.08-.06-.08-.12a.33.33,0,0,1,.17-.25"/><path class="cls-221" d="M11.74,2.89c.1,0,.09.11.08.18s0,.21-.15.21-.09-.1-.08-.17,0-.2.15-.22"/><path class="cls-222" d="M7.07,10.26a.28.28,0,0,1,.23.19c0,.05,0,.09-.08.09A.23.23,0,0,1,7,10.33c0-.06,0-.07.09-.07"/><path class="cls-223" d="M21.76,7.48c.09,0,.21,0,.21.14s-.08.1-.16.1-.17,0-.19-.13.08-.09.14-.11"/><path class="cls-224" d="M21.86,6.38c.09,0,.19,0,.19.12s-.07.12-.14.11-.21,0-.21-.13.09-.09.16-.1"/><path class="cls-225" d="M9,16c0,.1-.08.11-.14.12s-.18,0-.19-.1.07-.11.13-.12A.16.16,0,0,1,9,16"/><path class="cls-226" d="M16.42,19.45c0,.09,0,.22-.18.22s-.07-.09-.06-.14,0-.23.17-.23.07.08.07.15"/><path class="cls-227" d="M10,4.54c0,.09,0,.2-.12.19s-.11-.08-.11-.16,0-.17.12-.17.08.1.11.14"/><path class="cls-228" d="M16.45,3.07c.09.2,0,.28-.15.35s-.08,0-.08,0a.29.29,0,0,1,.23-.31"/><path class="cls-229" d="M6.79,9.16c0,.07,0,.1-.1.09s-.2-.09-.21-.21,0-.12.11-.09a.32.32,0,0,1,.2.21"/><path class="cls-230" d="M16,2a.31.31,0,0,1-.18.38s-.09,0-.08-.08A.29.29,0,0,1,16,2"/><path class="cls-231" d="M16.43,15.23c-.08-.2-.12-.42-.37-.47.38-.1.4.17.42.44,0,0,0,0-.05,0"/><path class="cls-232" d="M19.14,18.75a.14.14,0,0,1,.11.16c0,.1,0,.2-.13.21S19,19.05,19,19s0-.2.11-.25"/><path class="cls-233" d="M20.37,5.07c-.07,0-.14,0-.15-.08s.07-.13.15-.15.13,0,.14.07-.07.14-.14.16"/><path class="cls-234" d="M7.25,12.3c0,.09,0,.1-.11.09a.22.22,0,0,1-.22-.14c0-.07,0-.11.09-.11a.27.27,0,0,1,.24.16"/><path class="cls-274" d="M23.78,12.86c0,.08-.05.12-.09.1s-.22-.07-.24-.21,0-.08.08-.07a.29.29,0,0,1,.25.18"/><path class="cls-235" d="M20.7,17.21c.11,0,.13.07.15.14s0,.17-.07.19-.12-.07-.15-.15a.17.17,0,0,1,.07-.18"/><path class="cls-236" d="M17.72,2.79c0,.1-.09.19-.21.2a.07.07,0,0,1-.06-.1c0-.11.08-.2.2-.2s.07,0,.07.1"/><path class="cls-237" d="M9.09,17.11a.16.16,0,0,1-.19.1c-.06,0-.14,0-.13-.09S8.89,17,9,17s.11,0,.11.12"/><path class="cls-238" d="M20.44,10.85l.45-.16c0,.41-.26.22-.45.16"/><path class="cls-239" d="M23,14.5c0,.07,0,.1-.09.08a.23.23,0,0,1-.18-.2c0-.07.05-.08.1-.07a.2.2,0,0,1,.17.19"/><path class="cls-240" d="M18.91,3.92a.08.08,0,0,1-.08-.09A.19.19,0,0,1,19,3.66a.07.07,0,0,1,.08.09.21.21,0,0,1-.19.17"/><path class="cls-241" d="M22.51,13.05a.29.29,0,0,1,.21.18c0,.07,0,.11-.1.1a.27.27,0,0,1-.2-.19c0-.08,0-.08.09-.09"/><path class="cls-242" d="M19.82,17.52c0,.07,0,.13-.1.12s-.12-.1-.1-.2,0-.13.1-.12.11.11.1.2"/><path class="cls-243" d="M7.66,11.43H7.18c.15-.22.18-.22.48,0"/><path class="cls-244" d="M20.46,6.11s-.12,0-.12-.08a.16.16,0,0,1,.17-.14.12.12,0,0,1,.15.11c0,.09-.11.11-.2.11"/><path class="cls-245" d="M8.62,6.15c0,.08,0,.15-.09.14a.16.16,0,0,1-.13-.15c0-.07,0-.14.08-.14s.12.09.14.15"/><path class="cls-246" d="M9.46,5.82A.13.13,0,0,1,9.6,6c0,.07,0,.16-.07.17S9.42,6.07,9.4,6a.18.18,0,0,1,.06-.18"/><path class="cls-247" d="M11,4.55c0,.09,0,.18-.1.18s-.12-.1-.11-.19,0-.15.12-.15.08.1.09.16"/><path class="cls-248" d="M12.92,19.29c-.05,0-.11,0-.1-.06A.24.24,0,0,1,13,19c.06,0,.08,0,.08.08a.24.24,0,0,1-.16.21"/><path class="cls-249" d="M19.09,4.93s-.1,0-.1-.07a.16.16,0,0,1,.16-.16c.07,0,.11,0,.1.11s-.09.11-.16.12"/><path class="cls-250" d="M14.8,15.06l0,.22c-.14-.08-.19-.25-.28-.37a.25.25,0,0,1,.3.15"/><path class="cls-251" d="M7.6,7.63c0,.06,0,.1-.08.1s-.14-.09-.17-.16,0-.13.09-.11a.25.25,0,0,1,.16.17"/><path class="cls-252" d="M10.55,18.37a.2.2,0,0,1-.17.16c-.07,0-.11,0-.1-.11s.07-.11.14-.13.11,0,.13.08"/><path class="cls-253" d="M22,15.88c0,.06,0,.12-.06.12s-.14-.06-.16-.15,0-.11.06-.12.13.07.16.15"/><path class="cls-254" d="M10.26,17.28c.07,0,.13,0,.12.09a.16.16,0,0,1-.16.13c-.06,0-.12,0-.11-.1s.08-.11.15-.12"/><path class="cls-255" d="M22.44,10.56l.22-.23a.12.12,0,0,1,.06.2.18.18,0,0,1-.28,0"/><path class="cls-256" d="M7.8,8.86c0,.08-.06.11-.11.09a.25.25,0,0,1-.15-.19c0-.07,0-.08.1-.06a.25.25,0,0,1,.16.16"/><path class="cls-257" d="M21,16.05c0,.06,0,.12-.08.12s-.11-.08-.12-.15,0-.13.09-.13.1.08.11.16"/><path class="cls-258" d="M17.27,15.07c-.13-.15-.05-.32-.06-.49.11.09,0,.27.13.34l-.07.15"/><path class="cls-259" d="M17.41,16.22c0-.15,0-.3,0-.45a.39.39,0,0,1,0,.45"/><path class="cls-260" d="M18.55,8.11A.3.3,0,0,1,18.33,8h.44l-.22.08"/><path class="cls-261" d="M16.55,8.17h.37a.28.28,0,0,1-.37,0"/><path class="cls-262" d="M19.83,7.06h-.37a.3.3,0,0,1,.37,0"/><path class="cls-263" d="M17.31,8.7h.42a.35.35,0,0,1-.42,0"/><path class="cls-264" d="M18.27,8.67a.93.93,0,0,1,.56-.2c-.11.3-.34.25-.56.2"/><path class="cls-265" d="M10.8,13.5H10c0-.23.22-.11.34-.13a3.38,3.38,0,0,1,.45,0,.14.14,0,0,1,0,.15"/><path class="cls-266" d="M17.77,8c-.12,0-.26,0-.35-.09L18,7.8c0,.1-.12.11-.19.16"/><path class="cls-267" d="M17.4,8.09c.1-.11.24-.07.36-.06l0,.06H17.4"/><path class="cls-268" d="M10.87,12.61h-.42c.12-.11.27,0,.4-.07h0v.08"/></g></g></g></g><path class="cls-269" d="M17.4,17.92H7a.69.69,0,0,1-.68-.69v-3.9a.69.69,0,0,1,.8-.68l9.7,1.64a.74.74,0,0,1,.26.1,2.51,2.51,0,0,1,.77.83,2.81,2.81,0,0,1,.18,2.22A.67.67,0,0,1,17.4,17.92Z"/><ellipse class="cls-1" cx="6.78" cy="20.17" rx="1.33" ry="1.35"/><ellipse class="cls-1" cx="10.33" cy="20.17" rx="1.33" ry="1.35"/><ellipse class="cls-1" cx="13.88" cy="20.17" rx="1.33" ry="1.35"/><ellipse class="cls-1" cx="17.43" cy="20.17" rx="1.33" ry="1.35"/><line class="cls-275" x1="7.48" y1="17.5" x2="6.48" y2="19.5"/><line class="cls-275" x1="7.48" y1="19.5" x2="18.48" y2="19.5"/><line class="cls-275" x1="15.48" y1="17.5" x2="17.48" y2="19.5"/></svg>