<svg id="ICONS" xmlns="http://www.w3.org/2000/svg" viewBox="0 0 24 24"><defs><style>.cls-1{fill:#1852a3;}.cls-2{fill:#f74724;}.cls-3{fill:#0399d9;}.cls-4{fill:#198fcf;}.cls-5{fill:#f75421;}.cls-6{fill:#f7361d;}.cls-7{fill:#ea3b20;}.cls-8{fill:#1f53a2;}.cls-9{fill:#b04651;}.cls-10{fill:#f73e1f;}.cls-11{fill:#f7311d;}.cls-12{fill:#089ad9;}.cls-13{fill:#0599d9;}.cls-14{fill:#1c91d0;}.cls-15{fill:#f75521;}.cls-16{fill:#ea3c21;}.cls-17{fill:#e93c22;}.cls-18{fill:#f98f2c;}.cls-19{fill:#0391d4;}.cls-20{fill:#f75525;}.cls-21{fill:#f8712b;}.cls-22{fill:#f86328;}.cls-23{fill:#f8792b;}.cls-24{fill:#f73b20;}.cls-25{fill:#f99437;}.cls-26{fill:#2092d0;}.cls-27{fill:#f74127;}.cls-28{fill:#079ad9;}.cls-29{fill:#f74924;}.cls-30{fill:#0a61b1;}.cls-31{fill:#f73724;}.cls-32{fill:#f74f24;}.cls-33{fill:#eb4026;}.cls-34{fill:#0287cd;}.cls-35{fill:#0168b9;}.cls-36{fill:#f86524;}.cls-37{fill:#0b9cda;}.cls-38{fill:#f87d2c;}.cls-39{fill:#f8432f;}.cls-40{fill:#c83f3a;}.cls-41{fill:#e33f2a;}.cls-42{fill:#069ad9;}.cls-43{fill:#f87b29;}.cls-44{fill:#f86827;}.cls-45{fill:#f75729;}.cls-46{fill:#294b96;}.cls-47{fill:#f8742c;}.cls-48{fill:#f73b25;}.cls-49{fill:#e03b27;}.cls-50{fill:#0678c2;}.cls-51{fill:#f86329;}.cls-52{fill:#dd402f;}.cls-53{fill:#20509f;}.cls-54{fill:#0591d4;}.cls-55{fill:#0770bd;}.cls-56{fill:#f74927;}.cls-57{fill:#e53b24;}.cls-58{fill:#0c9bda;}.cls-59{fill:#f9812a;}.cls-60{fill:#804468;}.cls-61{fill:#047bc4;}.cls-62{fill:#0a9bda;}.cls-63{fill:#eb452c;}.cls-64{fill:#e94a33;}.cls-65{fill:#f73320;}.cls-66{fill:#0d88cd;}.cls-67{fill:#f86d27;}.cls-68{fill:#f73927;}.cls-69{fill:#0768b8;}.cls-70{fill:#095fb1;}.cls-71{fill:#6f4a77;}.cls-72{fill:#eb3f26;}.cls-73{fill:#f86e28;}.cls-74{fill:#a54151;}.cls-75{fill:#894665;}.cls-76{fill:#714571;}.cls-77{fill:#1156a8;}.cls-78{fill:#d33d31;}.cls-79{fill:#0777c2;}.cls-80{fill:#0584ca;}.cls-81{fill:#e1422f;}.cls-82{fill:#874c6d;}.cls-83{fill:#0b8cd0;}.cls-84{fill:#97425a;}.cls-85{fill:#4562a3;}.cls-86{fill:#2354a2;}.cls-87{fill:#1b98d6;}.cls-88{fill:#f86138;}.cls-89{fill:#0a66b5;}.cls-90{fill:#f97745;}.cls-91{fill:#257cc2;}.cls-92{fill:#f99731;}.cls-93{fill:#22a5dd;}.cls-94{fill:#67497a;}.cls-95{fill:#f85538;}.cls-96{fill:#f97d38;}.cls-97{fill:#98617d;}.cls-98{fill:#e35544;}.cls-99{fill:#f84d3c;}.cls-100{fill:#f73b27;}.cls-101{fill:#ee5c46;}.cls-102{fill:#16a0db;}.cls-103{fill:#f84736;}.cls-104{fill:#0799d9;}.cls-105{fill:#ee5f49;}.cls-106{fill:#27a7de;}.cls-107{fill:#ed523b;}.cls-108{fill:#ee5b45;}.cls-109{fill:#0c8ed1;}.cls-110{fill:#8c5677;}.cls-111{fill:#d64b40;}.cls-112{fill:#d75950;}.cls-113{fill:#855579;}.cls-114{fill:#5b4c82;}.cls-115{fill:#c84844;}.cls-116{fill:#ba545b;}.cls-117{fill-opacity:0;}</style></defs><path class="cls-1" d="M12.81,6.37a2.72,2.72,0,0,1-.35.16.56.56,0,0,1-.59-.09c-.15-.17,0-.3.21-.42a.6.6,0,0,1,.71,0C12.94,6.08,13,6.21,12.81,6.37Z"/><path class="cls-2" d="M8,5.45a.36.36,0,0,1,.05.46.46.46,0,0,1-.47.29c-.2,0-.35-.15-.27-.36,0,0,0-.08,0-.12a.47.47,0,0,1,.19-.28A.45.45,0,0,1,8,5.37,0,0,0,0,1,8,5.45Z"/><path class="cls-3" d="M13.91,8.06c0,.16.18.34-.11.47a.6.6,0,0,1-.64-.08c-.13-.09-.19-.21-.09-.35A.42.42,0,0,1,13.52,8l.33.08A0,0,0,0,1,13.91,8.06Z"/><path class="cls-4" d="M13.58,9.91a.38.38,0,0,1-.45.25c-.28-.06-.43-.21-.4-.45s.24-.27.47-.27C13.58,9.51,13.64,9.59,13.58,9.91Z"/><path class="cls-5" d="M7,5.84c.19.2.3.41,0,.66s-.45.2-.55-.07A1.91,1.91,0,0,1,6.4,6.1v0C6.55,5.84,6.71,5.68,7,5.84Z"/><path class="cls-6" d="M8.37,5.31c.21-.07.43-.28.63-.08s.09.36-.09.54a.46.46,0,0,1-.45.15c-.19,0-.19-.19-.19-.32s.14-.19.1-.3Z"/><path class="cls-7" d="M10.07,5.51l0,0c-.18.2-.39.39-.69.26s-.13-.31,0-.47a.56.56,0,0,1,.74-.13l0,0C10.21,5.32,10.17,5.41,10.07,5.51Z"/><path class="cls-4" d="M13.28,9.35c-.19-.14-.44-.27-.22-.53a.45.45,0,0,1,.54-.07c.27.13.4.3.17.56A.36.36,0,0,1,13.28,9.35Z"/><path class="cls-8" d="M13.21,5.53c.16,0,.31-.08.47-.1a.37.37,0,0,1,.4.17c.07.15-.07.23-.21.31s-.38.17-.6.11S12.92,5.74,13.21,5.53Z"/><path class="cls-9" d="M12.12,5a1,1,0,0,1,.53-.23c.18,0,.36,0,.41.15s-.05.25-.23.3a2.54,2.54,0,0,1-.46.17C12,5.34,11.93,5.27,12.12,5Z"/><path class="cls-10" d="M7.4,5.08c-.18-.19-.09-.38.06-.57a.38.38,0,0,1,.38-.19.24.24,0,0,1,.21.29A1.66,1.66,0,0,1,8,4.82c0,.11-.1.17-.18.24S7.52,5.24,7.4,5.08Z"/><path class="cls-11" d="M8.57,4.69A.58.58,0,0,1,9,4.11c.19,0,.29,0,.31.19a.61.61,0,0,1-.47.55C8.66,4.87,8.58,4.8,8.57,4.69Z"/><path class="cls-12" d="M14.32,7.24a.9.9,0,0,1,.46-.06c.22.05.48.11.41.34s-.35.21-.59.17a.25.25,0,0,1-.32,0C14.18,7.52,14.07,7.39,14.32,7.24Z"/><path class="cls-13" d="M14.56,8.13c.29-.05.63.1.68.28s-.05.24-.24.28-.63-.12-.65-.32S14.46,8.17,14.56,8.13Z"/><path class="cls-14" d="M14.23,9.53c0-.13-.13-.28.08-.4a.43.43,0,0,1,.41,0c.17.07.3.17.31.34a.23.23,0,0,1-.16.21.54.54,0,0,1-.53-.09l-.11-.05Z"/><path class="cls-15" d="M6.21,5.57a.49.49,0,0,1-.06-.47.38.38,0,0,1,.38-.28c.21,0,.21.15.26.27s-.1.14,0,.19a.06.06,0,0,1,0,.07.59.59,0,0,1-.15.2C6.52,5.65,6.36,5.71,6.21,5.57Z"/><path class="cls-16" d="M10.24,4.14c.19,0,.31,0,.35.14s-.22.46-.46.52-.31,0-.35-.15S10,4.2,10.24,4.14Z"/><path class="cls-17" d="M11,4.69a.76.76,0,0,1,.34-.27c.18-.07.37-.13.5,0s0,.27-.12.38a.86.86,0,0,1-.16.1.56.56,0,0,1-.3.12C10.93,5,10.81,4.92,11,4.69Z"/><path class="cls-18" d="M4.67,8.09A.38.38,0,0,1,5.23,8c.21.12.35.28.18.5a.4.4,0,0,1-.54.07A1.44,1.44,0,0,1,4.67,8.09Z"/><path class="cls-19" d="M13.68,7.75c-.32.12-.6.12-.78-.12s.18-.28.37-.35.24,0,.35-.06a.23.23,0,0,1,.14,0C13.93,7.4,14,7.58,13.68,7.75Z"/><path class="cls-20" d="M6.6,4c0,.2,0,.43-.32.53S6,4.43,6,4.31a.43.43,0,0,1,.3-.53C6.5,3.71,6.54,3.86,6.6,4Z"/><path class="cls-21" d="M5.16,4.9c0,.17,0,.38-.25.46s-.29-.1-.31-.23a.33.33,0,0,1,.23-.45C5.05,4.61,5.09,4.78,5.16,4.9Z"/><path class="cls-22" d="M6.4,6.1a.68.68,0,0,1-.27.26c-.42,0-.53-.26-.28-.57a.49.49,0,0,1,.37-.14c.31.07.26.26.18.46Z"/><path class="cls-23" d="M5.51,7l-.13.1c-.27.12-.37,0-.45-.16a.34.34,0,0,1,0-.26c0-.16.16-.24.37-.24s.26.12.31.24A.28.28,0,0,1,5.51,7Z"/><path class="cls-24" d="M7.55,3.79a.53.53,0,0,1,.37-.52c.19,0,.22.07.23.18A.5.5,0,0,1,7.77,4C7.6,4,7.57,3.89,7.55,3.79Z"/><path class="cls-25" d="M5.08,7.65c-.16.1-.24.36-.52.23a.33.33,0,0,1-.19-.52c.37-.24.53,0,.72.15A.11.11,0,0,1,5.08,7.65Z"/><path class="cls-26" d="M13.78,9.36a.65.65,0,0,1,.45.17h0c0,.13.11.27-.06.37s-.34,0-.48-.06C13.44,9.56,13.45,9.48,13.78,9.36Z"/><path class="cls-27" d="M8,5.45V5.39c-.18-.07-.18-.2-.13-.34a.85.85,0,0,1,.25-.25c.14,0,.3-.11.38,0s0,.35-.12.51h0A.93.93,0,0,1,8,5.45Z"/><path class="cls-28" d="M16.52,7.56c0,.11-.13.15-.26.17s-.62-.12-.61-.27.12-.15.24-.18S16.5,7.38,16.52,7.56Z"/><path class="cls-22" d="M6,4.93c0,.17,0,.36-.26.44s-.25-.08-.28-.21a.36.36,0,0,1,.25-.45C5.89,4.65,6,4.8,6,4.93Z"/><path class="cls-13" d="M14.35,7.61a.25.25,0,0,0,.25.08s-.06,0-.06.08c0,.35-.1.41-.53.32l-.1,0-.06,0-.08-.25C13.9,7.55,14.14,7.61,14.35,7.61Z"/><path class="cls-29" d="M7.35,4.29a.4.4,0,0,1-.3.41c-.2.08-.25-.06-.26-.17a.41.41,0,0,1,.31-.48C7.26,4,7.32,4.11,7.35,4.29Z"/><path class="cls-30" d="M14.53,5.73c.23,0,.48,0,.55.13s-.12.25-.32.28-.45,0-.52-.16S14.38,5.78,14.53,5.73Z"/><path class="cls-16" d="M10.09,5.19c.09-.41.29-.54.72-.47.21.25,0,.41-.27.56a.42.42,0,0,1-.46-.09Z"/><path class="cls-31" d="M9.26,3.78A.17.17,0,0,1,9,3.65c0-.16.19-.47.39-.52s.22,0,.25.12S9.49,3.72,9.26,3.78Z"/><path class="cls-32" d="M6.82,5.31v0a.56.56,0,0,1,.54-.13.24.24,0,0,1,.13.3.63.63,0,0,1-.26.28L7,5.8a.31.31,0,0,1-.2-.12A.4.4,0,0,1,6.82,5.31Z"/><path class="cls-33" d="M12.19,4.11c-.16,0-.33,0-.33-.13s.21-.29.41-.36.34,0,.35.11S12.41,4,12.19,4.11Z"/><path class="cls-34" d="M13.76,7.24h-.1s-.06,0-.07,0-.16-.12-.15-.22A.44.44,0,0,1,14,6.8c.18.09.53.12.23.41A.34.34,0,0,1,13.76,7.24Z"/><path class="cls-35" d="M12.69,7.09c-.19,0-.24-.08-.25-.2s.46-.24.64-.41a.26.26,0,0,1,.23,0,.28.28,0,0,1,.13.21C13.33,7,13,7.05,12.69,7.09Z"/><path class="cls-36" d="M6.14,6.41c.36.27.36.5,0,.77a.81.81,0,0,1-.42-.65C5.82,6.38,6,6.38,6.14,6.41Z"/><path class="cls-37" d="M16.42,8.69c0,.1,0,.19-.17.21a.51.51,0,0,1-.58-.25c-.05-.1,0-.2.16-.21A.57.57,0,0,1,16.42,8.69Z"/><path class="cls-38" d="M4.86,5.91c0,.16,0,.32-.2.36S4.33,6.16,4.31,6s0-.3.19-.34S4.8,5.79,4.86,5.91Z"/><path class="cls-39" d="M8.76,3.88a.49.49,0,0,1-.35.46c-.16.06-.25,0-.25-.15a.47.47,0,0,1,.35-.47C8.67,3.66,8.74,3.76,8.76,3.88Z"/><path class="cls-40" d="M13.84,4.2c.14,0,.27,0,.23.17s-.26.24-.47.27-.3,0-.36-.09,0-.22.19-.27A.71.71,0,0,1,13.84,4.2Z"/><path class="cls-33" d="M10.75,3.81c-.15,0-.27,0-.28-.09s.16-.36.4-.45.28,0,.28.12S11,3.74,10.75,3.81Z"/><path class="cls-41" d="M12.47,4.69c-.17,0-.36,0-.36-.12s.18-.28.39-.33.35,0,.36.13S12.67,4.63,12.47,4.69Z"/><path class="cls-42" d="M15.54,8.23A.46.46,0,0,1,15.07,8c-.05-.12.08-.2.22-.21s.47,0,.54.24S15.77,8.2,15.54,8.23Z"/><path class="cls-43" d="M5.39,7.13a.45.45,0,0,1,.44.45c0,.14-.07.26-.29.29-.2-.2-.39-.4-.34-.69A.22.22,0,0,1,5.39,7.13Z"/><path class="cls-44" d="M5.08,5.75c.2-.29.39-.25.59,0a.38.38,0,0,1,0,.52C5.17,6.26,5.19,6,5.08,5.75Z"/><path class="cls-33" d="M11.19,3.87c.17,0,.31,0,.32.09s-.15.32-.37.38-.3,0-.32-.08S11,3.94,11.19,3.87Z"/><path class="cls-45" d="M6.52,2.82c0,.16,0,.35-.3.43S6,3.18,6,3.08a.43.43,0,0,1,.27-.46C6.47,2.57,6.5,2.7,6.52,2.82Z"/><path class="cls-46" d="M14.75,5.47c-.19,0-.36,0-.33-.2s.21-.18.37-.21.36,0,.48.09S14.94,5.37,14.75,5.47Z"/><path class="cls-47" d="M4.68,3.86c0,.15,0,.32-.19.41s-.23-.08-.25-.18,0-.33.2-.4S4.65,3.75,4.68,3.86Z"/><path class="cls-48" d="M8.17,2.7c-.16,0-.22,0-.23-.08a.44.44,0,0,1,.28-.49c.12-.06.22,0,.22.09A.54.54,0,0,1,8.17,2.7Z"/><path class="cls-49" d="M11,5.62l-.2.17a.65.65,0,0,1-.41.09c-.12,0-.19,0-.19-.15a2.41,2.41,0,0,1,.8-.45.15.15,0,0,1,.18.1A.25.25,0,0,1,11,5.62Z"/><path class="cls-50" d="M14,6.8l-.09-.1c.12-.25.42-.29.67-.39.09.08.26.12.18.27a.51.51,0,0,1-.42.21Z"/><path class="cls-51" d="M5.69,3.92c0,.13,0,.31-.24.37s-.2-.09-.21-.19,0-.31.22-.37S5.67,3.79,5.69,3.92Z"/><path class="cls-52" d="M14.88,4c-.16,0-.36.05-.4-.09s.15-.22.3-.25.35-.06.4.08S15,3.93,14.88,4Z"/><path class="cls-53" d="M16.44,5.05c-.21,0-.43,0-.51-.11s.12-.19.24-.21.46-.06.53.13S16.55,5,16.44,5.05Z"/><path class="cls-54" d="M15.17,7.13c-.2,0-.39,0-.32-.24s.31-.17.5-.15a.34.34,0,0,1,.29.15A.66.66,0,0,1,15.17,7.13Z"/><path class="cls-55" d="M14.61,6.31c-.16.21-.47.23-.67.39-.19-.09-.17-.21,0-.35A.83.83,0,0,1,14.61,6.31Z"/><path class="cls-56" d="M7.2,3c.14,0,.2.06.2.14a.41.41,0,0,1-.31.44.13.13,0,0,1-.17-.15A.44.44,0,0,1,7.2,3Z"/><path class="cls-57" d="M10.51,5.27c.18,0,.37-.12.51,0a3.37,3.37,0,0,1-.82.43l0-.17A.32.32,0,0,1,10.51,5.27Z"/><path class="cls-58" d="M17,7a.2.2,0,0,1-.22.17c-.21,0-.44,0-.5-.19s.09-.15.2-.16A.56.56,0,0,1,17,7Z"/><path class="cls-59" d="M5.05,7.51a.24.24,0,0,1,.18-.33c0,.25.29.43.31.69a.36.36,0,0,1-.46-.22Z"/><path class="cls-60" d="M14.87,4.42c.16,0,.37,0,.39.1s-.13.23-.3.25-.35,0-.38-.13S14.73,4.46,14.87,4.42Z"/><path class="cls-61" d="M15.46,6.5c-.14,0-.23-.1-.19-.22s.18-.16.32-.16a.55.55,0,0,1,.4.06C16,6.48,15.72,6.48,15.46,6.5Z"/><path class="cls-62" d="M17.39,7.51c.22,0,.43,0,.51.21s0,.13-.15.16-.55-.1-.55-.23S17.28,7.53,17.39,7.51Z"/><path class="cls-63" d="M13.16,3.27c-.14,0-.28,0-.3-.08s.14-.25.32-.3.27,0,.29.08S13.3,3.2,13.16,3.27Z"/><path class="cls-64" d="M13.79,3.68c0,.15-.14.23-.3.27s-.32,0-.34-.08.16-.21.31-.26A.28.28,0,0,1,13.79,3.68Z"/><path class="cls-65" d="M10.2,2.23a.49.49,0,0,1-.32.39c-.1,0-.2,0-.2-.08A.46.46,0,0,1,10,2.11C10.13,2.07,10.19,2.13,10.2,2.23Z"/><path class="cls-66" d="M17.35,6.42a.46.46,0,0,1-.49-.16s0-.11.08-.13a.6.6,0,0,1,.61,0C17.61,6.32,17.47,6.36,17.35,6.42Z"/><path class="cls-67" d="M5.62,6.65l.13-.1.39.63c-.21.1-.31,0-.44-.11A.43.43,0,0,1,5.62,6.65Z"/><path class="cls-68" d="M9.09,2.81a.4.4,0,0,1-.3.4c-.11,0-.19,0-.19-.09a.45.45,0,0,1,.3-.42C9,2.65,9.06,2.72,9.09,2.81Z"/><path class="cls-69" d="M16,5.56c.19,0,.4-.06.47.11s-.11.15-.23.17-.44,0-.51-.11S15.85,5.61,16,5.56Z"/><path class="cls-37" d="M16.42,8.22c0-.12.07-.15.17-.16a.46.46,0,0,1,.47.19c0,.09-.07.16-.19.16A.49.49,0,0,1,16.42,8.22Z"/><path class="cls-28" d="M17.59,9c0,.09,0,.17-.11.18A.43.43,0,0,1,17,9c0-.06,0-.13.09-.15A.5.5,0,0,1,17.59,9Z"/><path class="cls-70" d="M13.75,6.1c.16.35-.2.36-.46.43l-.2,0s0,0-.07,0l0,0V6.39a1.13,1.13,0,0,1,.7-.28Z"/><path class="cls-71" d="M14,4.91c.25.17.05.27-.15.35a.52.52,0,0,1-.47,0C13.44,5,13.72,4.92,14,4.91Z"/><path class="cls-72" d="M11.82,2.51a.43.43,0,0,1-.34.32c-.11,0-.2,0-.2-.08s.14-.29.35-.35S11.81,2.41,11.82,2.51Z"/><path class="cls-73" d="M5.59,6.21c0,.14-.18.11-.29.14a.4.4,0,0,1-.22-.6C5.3,5.87,5.27,6.16,5.59,6.21Z"/><path class="cls-33" d="M12.21,3.18a.48.48,0,0,1-.37.31c-.11,0-.19,0-.19-.11s.15-.25.33-.3S12.18,3.08,12.21,3.18Z"/><path class="cls-74" d="M11.75,5.52l.14.05a1,1,0,0,1-.81.41c-.06-.08,0-.17,0-.25a.3.3,0,0,1,.24-.19A.61.61,0,0,1,11.75,5.52Z"/><path class="cls-75" d="M11.32,6.13A.2.2,0,0,1,11.11,6a3.83,3.83,0,0,1,.9-.39.1.1,0,0,1,0,.14L11.78,6A1.19,1.19,0,0,1,11.32,6.13Z"/><path class="cls-76" d="M12.15,5.62a1.13,1.13,0,0,1,.45-.23l.28.07c-.09.3-.38.32-.68.35h0A.15.15,0,0,1,12.15,5.62Z"/><path class="cls-77" d="M13.69,6.11a2.39,2.39,0,0,1-.7.28c-.1-.11,0-.2.1-.28s.37-.17.56-.05A.1.1,0,0,1,13.69,6.11Z"/><path class="cls-78" d="M12,5l-.06.2c-.19.1-.34.25-.58.24-.06,0-.12,0-.12-.09V5.33A1,1,0,0,1,11.86,5Z"/><path class="cls-79" d="M13.38,6.68c.18.07,0,.21.06.31a.87.87,0,0,1-.75.1C12.9,6.93,13.31,7,13.38,6.68Z"/><path class="cls-80" d="M15.46,6.5c.21-.08.44-.12.53-.32.14,0,.23.1.18.22s-.18.13-.3.14A.63.63,0,0,1,15.46,6.5Z"/><path class="cls-81" d="M11.86,5l-.67.33c0-.15.09-.24.24-.32s.05,0,.09-.07S11.78,4.9,11.86,5Z"/><path class="cls-82" d="M14,4.91a1.22,1.22,0,0,0-.62.34c-.27-.19,0-.28.18-.36A.49.49,0,0,1,14,4.91Z"/><path class="cls-83" d="M13.59,7.21l.07,0c-.28.09-.62.1-.76.38-.18-.23,0-.33.27-.39A2.86,2.86,0,0,1,13.59,7.21Z"/><path class="cls-84" d="M12,5.66a3.13,3.13,0,0,1-.88.38l0-.06.81-.41a.07.07,0,0,1,.1,0s0,0,0,0Z"/><path class="cls-85" d="M18,4.55c0,.1-.07.13-.14.13s-.26,0-.31-.06.07-.11.14-.12S18,4.47,18,4.55Z"/><path class="cls-86" d="M14.75,5.47c.12-.17.41-.15.52-.32C15.36,5.38,15.22,5.47,14.75,5.47Z"/><path class="cls-87" d="M19.1,6.28c0,.07-.08.09-.14.09s-.27,0-.31-.11.06-.1.13-.09S19,6.18,19.1,6.28Z"/><path class="cls-88" d="M6.51,1.6a.28.28,0,0,1-.14.26c-.1,0-.14,0-.14-.08a.25.25,0,0,1,.16-.27C6.46,1.48,6.5,1.52,6.51,1.6Z"/><path class="cls-89" d="M13,6.51h.07c-.16.19-.45.24-.65.39C12.45,6.58,12.76,6.58,13,6.51Z"/><path class="cls-90" d="M5.33,3.13c-.09,0-.14,0-.14-.08a.2.2,0,0,1,.13-.24.09.09,0,0,1,.13.08A.23.23,0,0,1,5.33,3.13Z"/><path class="cls-91" d="M17.51,5.62c-.12,0-.25,0-.28-.1s.06-.1.13-.1.25,0,.29.1S17.57,5.6,17.51,5.62Z"/><path class="cls-92" d="M4.67,8.09c.11.14.28.27.2.48C4.65,8.46,4.53,8.32,4.67,8.09Z"/><path class="cls-93" d="M18,7c.11,0,.23,0,.27.1s0,.1-.1.09-.25,0-.29-.1S17.89,7,18,7Z"/><path class="cls-94" d="M12.2,5.81c.22-.12.51-.16.68-.35H13l0,.12a1.93,1.93,0,0,1-.59.3l-.17,0A.09.09,0,0,1,12.2,5.81Z"/><path class="cls-95" d="M7.37,2c.1,0,.15,0,.14.08s0,.19-.17.24-.11,0-.11-.08A.28.28,0,0,1,7.37,2Z"/><path class="cls-96" d="M4.13,2.74c.11,0,.11.07.12.12s0,.18-.13.21S4,3,4,3A.18.18,0,0,1,4.13,2.74Z"/><path class="cls-97" d="M16.06,4.08c.1,0,.23,0,.25.06s-.07.11-.16.12-.2,0-.24,0S16,4.11,16.06,4.08Z"/><path class="cls-98" d="M16,3.17c.09,0,.2,0,.23.05s-.06.11-.15.12-.23.05-.25-.06S15.9,3.19,16,3.17Z"/><path class="cls-99" d="M9.39,1.76c.14.14,0,.24-.1.33s-.1,0-.1,0S9.24,1.84,9.39,1.76Z"/><path class="cls-100" d="M8.75,1c.08.16,0,.27-.14.35s-.09,0-.1,0S8.56,1.06,8.75,1Z"/><path class="cls-101" d="M14.09,2.46c-.08,0-.15,0-.18,0s.05-.13.14-.16.14,0,.17,0S14.16,2.42,14.09,2.46Z"/><path class="cls-102" d="M19.23,8c0,.07,0,.11-.08.1s-.26,0-.31-.11,0-.07.08-.08A.34.34,0,0,1,19.23,8Z"/><path class="cls-103" d="M10.75,1.24a.23.23,0,0,1-.2.2c-.06,0-.1,0-.09-.06a.24.24,0,0,1,.2-.21C10.73,1.15,10.75,1.19,10.75,1.24Z"/><path class="cls-104" d="M15.17,7.13l.47-.24C15.68,7.23,15.39,7.14,15.17,7.13Z"/><path class="cls-105" d="M12.27,1.87c-.07,0-.11,0-.11-.06a.22.22,0,0,1,.19-.18c.06,0,.1,0,.1.06S12.37,1.83,12.27,1.87Z"/><path class="cls-106" d="M17.85,8.43a.27.27,0,0,1,.26.09c0,.05,0,.1-.09.1a.23.23,0,0,1-.25-.11S17.81,8.45,17.85,8.43Z"/><path class="cls-107" d="M14.37,3.28s-.13,0-.14,0,.07-.13.16-.15.17,0,.18.05S14.47,3.26,14.37,3.28Z"/><path class="cls-108" d="M12.65,2.65c-.05,0-.12,0-.13,0s.06-.14.15-.17.13,0,.13.07S12.73,2.62,12.65,2.65Z"/><path class="cls-109" d="M17.35,6.42l.2-.24c.13,0,.15.08.1.15A.25.25,0,0,1,17.35,6.42Z"/><path class="cls-110" d="M12.6,5.36c-.09,0-.19,0-.26,0l.49-.11Z"/><path class="cls-111" d="M10.39,5.88l.41-.09A.39.39,0,0,1,10.39,5.88Z"/><path class="cls-112" d="M13.84,4.2l-.41.08A.43.43,0,0,1,13.84,4.2Z"/><path class="cls-113" d="M11.32,6.13l.46-.1A.51.51,0,0,1,11.32,6.13Z"/><path class="cls-114" d="M12.38,5.88a1.32,1.32,0,0,1,.59-.3C12.9,5.85,12.64,5.86,12.38,5.88Z"/><path class="cls-115" d="M11.7,5.42c-.13,0-.28.1-.4,0l.59-.19C11.88,5.33,11.77,5.36,11.7,5.42Z"/><path class="cls-116" d="M11.31,5.61a.62.62,0,0,1,.4-.13l0,0Z"/><g id="phone-outline"><rect class="cls-117" x="5.09" y="5.61" width="16" height="16"/><path d="M16.69,20.28A10.29,10.29,0,0,1,6.42,10,3.07,3.07,0,0,1,9.49,7,2.19,2.19,0,0,1,10,7a3.37,3.37,0,0,1,.48.12.68.68,0,0,1,.44.5l.91,4a.71.71,0,0,1-.17.62c-.09.09-.1.1-.92.52A6.61,6.61,0,0,0,14,16c.43-.82.44-.83.53-.92a.67.67,0,0,1,.62-.17l4,.91a.68.68,0,0,1,.48.44,3.74,3.74,0,0,1,.12.48,2.92,2.92,0,0,1,0,.51A3.06,3.06,0,0,1,16.69,20.28Zm-7.2-12A1.73,1.73,0,0,0,7.76,10,9,9,0,0,0,16.69,19a1.74,1.74,0,0,0,1.73-1.74V17l-3.09-.71-.19.37c-.3.58-.52,1-1.08.77a7.9,7.9,0,0,1-4.79-4.81c-.24-.52.21-.76.79-1.06l.36-.18L9.71,8.28Z"/></g></svg>