<svg id="ICONS" xmlns="http://www.w3.org/2000/svg" xmlns:xlink="http://www.w3.org/1999/xlink" viewBox="0 0 24 24"><defs><style>.cls-1,.cls-271{stroke:#fff;stroke-miterlimit:10;stroke-width:0.5px;}.cls-2,.cls-271{fill:none;}.cls-3{clip-path:url(#clip-path);}.cls-4{clip-path:url(#clip-path-2);}.cls-5{clip-path:url(#clip-path-3);}.cls-6{fill:#1852a3;}.cls-7{fill:#f74724;}.cls-8{fill:#0399d9;}.cls-9{fill:#1f94c3;}.cls-10{fill:#198fcf;}.cls-11{fill:#fe9935;}.cls-12{fill:#f75421;}.cls-13{fill:#f7361d;}.cls-14{fill:#ea3b20;}.cls-15{fill:#23a08b;}.cls-16{fill:#1f94c4;}.cls-17{fill:#1f53a2;}.cls-18{fill:#61a74b;}.cls-19{fill:#219d97;}.cls-20{fill:#b04651;}.cls-21{fill:#f73e1f;}.cls-22{fill:#73a648;}.cls-23{fill:#27a37e;}.cls-24{fill:#39a953;}.cls-25{fill:#f7311d;}.cls-26{fill:#089ad9;}.cls-27{fill:#1a90cf;}.cls-28{fill:#249ca5;}.cls-29{fill:#0599d9;}.cls-30{fill:#1c91d0;}.cls-31{fill:#f9842b;}.cls-32{fill:#f75521;}.cls-33{fill:#fe9a37;}.cls-34{fill:#28a576;}.cls-35{fill:#2ca96a;}.cls-36{fill:#ea3c21;}.cls-37{fill:#e93c22;}.cls-38{fill:#44a950;}.cls-39{fill:#f98f2c;}.cls-40{fill:#0391d4;}.cls-41{fill:#4ea74d;}.cls-42{fill:#1d91cd;}.cls-43{fill:#f75525;}.cls-44{fill:#269ea0;}.cls-45{fill:#29a483;}.cls-46{fill:#8ea444;}.cls-47{fill:#f8712b;}.cls-48{fill:#259e9c;}.cls-49{fill:#c3a242;}.cls-50{fill:#f86328;}.cls-51{fill:#f8792b;}.cls-52{fill:#2196bf;}.cls-53{fill:#45a951;}.cls-54{fill:#f73b20;}.cls-55{fill:#f99437;}.cls-56{fill:#26a289;}.cls-57{fill:#2092d0;}.cls-58{fill:#f74127;}.cls-59{fill:#079ad9;}.cls-60{fill:#fe9b39;}.cls-61{fill:#2aa198;}.cls-62{fill:#1e96b8;}.cls-63{fill:#f98f31;}.cls-64{fill:#269bb3;}.cls-65{fill:#24a088;}.cls-66{fill:#57a74c;}.cls-67{fill:#f74924;}.cls-68{fill:#72a74a;}.cls-69{fill:#0a61b1;}.cls-70{fill:#51aa53;}.cls-71{fill:#f73724;}.cls-72{fill:#f74f24;}.cls-73{fill:#eb4026;}.cls-74{fill:#0287cd;}.cls-75{fill:#3ea951;}.cls-76{fill:#56a950;}.cls-77{fill:#0168b9;}.cls-78{fill:#f86524;}.cls-79{fill:#fe9b38;}.cls-80{fill:#0b9cda;}.cls-81{fill:#f87d2c;}.cls-82{fill:#f8432f;}.cls-83{fill:#40a84f;}.cls-84{fill:#2ba96a;}.cls-85{fill:#c83f3a;}.cls-86{fill:#31ae55;}.cls-87{fill:#2193d0;}.cls-88{fill:#30ab68;}.cls-89{fill:#1d91cc;}.cls-90{fill:#fe9c3a;}.cls-91{fill:#e33f2a;}.cls-92{fill:#2aa57e;}.cls-93{fill:#1c90cf;}.cls-94{fill:#faaa36;}.cls-95{fill:#3caa54;}.cls-96{fill:#30a851;}.cls-97{fill:#069ad9;}.cls-98{fill:#f99933;}.cls-99{fill:#f87b29;}.cls-100{fill:#f86827;}.cls-101{fill:#2399b4;}.cls-102{fill:#fe9c3b;}.cls-103{fill:#f9992d;}.cls-104{fill:#fe9936;}.cls-105{fill:#2da29b;}.cls-106{fill:#f75729;}.cls-107{fill:#294b96;}.cls-108{fill:#259bad;}.cls-109{fill:#2ea879;}.cls-110{fill:#9fa648;}.cls-111{fill:#f8742c;}.cls-112{fill:#f73b25;}.cls-113{fill:#e03b27;}.cls-114{fill:#54ab54;}.cls-115{fill:#0678c2;}.cls-116{fill:#f86329;}.cls-117{fill:#2699be;}.cls-118{fill:#dd402f;}.cls-119{fill:#20509f;}.cls-120{fill:#0591d4;}.cls-121{fill:#31ae5a;}.cls-122{fill:#0770bd;}.cls-123{fill:#7ba647;}.cls-124{fill:#f74927;}.cls-125{fill:#baa03d;}.cls-126{fill:#2ea48f;}.cls-127{fill:#e53b24;}.cls-128{fill:#3fad59;}.cls-129{fill:#6daa51;}.cls-130{fill:#0c9bda;}.cls-131{fill:#f9812a;}.cls-132{fill:#804468;}.cls-133{fill:#fe9d3c;}.cls-134{fill:#047bc4;}.cls-135{fill:#eaa143;}.cls-136{fill:#249bac;}.cls-137{fill:#2ea96f;}.cls-138{fill:#c1a03c;}.cls-139{fill:#0a9bda;}.cls-140{fill:#c3a03e;}.cls-141{fill:#2897cd;}.cls-142{fill:#f99531;}.cls-143{fill:#a2a94f;}.cls-144{fill:#f9812e;}.cls-145{fill:#e99c39;}.cls-146{fill:#eb452c;}.cls-147{fill:#47aa53;}.cls-148{fill:#e94a33;}.cls-149{fill:#7fa546;}.cls-150{fill:#35b058;}.cls-151{fill:#45a74d;}.cls-152{fill:#f73320;}.cls-153{fill:#0d88cd;}.cls-154{fill:#f86d27;}.cls-155{fill:#f73927;}.cls-156{fill:#f59d3b;}.cls-157{fill:#7ca648;}.cls-158{fill:#0768b8;}.cls-159{fill:#23a27a;}.cls-160{fill:#1d91d0;}.cls-161{fill:#f9a33b;}.cls-162{fill:#fab43d;}.cls-163{fill:#fe9e3e;}.cls-164{fill:#39ab57;}.cls-165{fill:#e7a142;}.cls-166{fill:#095fb1;}.cls-167{fill:#6f4a77;}.cls-168{fill:#2193d1;}.cls-169{fill:#34ab57;}.cls-170{fill:#30ae51;}.cls-171{fill:#eb3f26;}.cls-172{fill:#90a444;}.cls-173{fill:#1f92d0;}.cls-174{fill:#f86e28;}.cls-175{fill:#82a646;}.cls-176{fill:#c2a343;}.cls-177{fill:#e09d3a;}.cls-178{fill:#a54151;}.cls-179{fill:#d4a140;}.cls-180{fill:#894665;}.cls-181{fill:#76a84d;}.cls-182{fill:#9da444;}.cls-183{fill:#ee9c39;}.cls-184{fill:#714571;}.cls-185{fill:#b2a342;}.cls-186{fill:#95a445;}.cls-187{fill:#1156a8;}.cls-188{fill:#27a191;}.cls-189{fill:#a7a444;}.cls-190{fill:#d33d31;}.cls-191{fill:#0777c2;}.cls-192{fill:#baa23f;}.cls-193{fill:#89a546;}.cls-194{fill:#f9a134;}.cls-195{fill:#0584ca;}.cls-196{fill:#e1422f;}.cls-197{fill:#29a577;}.cls-198{fill:#874c6d;}.cls-199{fill:#59a84f;}.cls-200{fill:#0b8cd0;}.cls-201{fill:#dea243;}.cls-202{fill:#6eaa50;}.cls-203{fill:#97425a;}.cls-204{fill:#e09e3b;}.cls-205{fill:#cdac56;}.cls-206{fill:#4562a3;}.cls-207{fill:#2354a2;}.cls-208{fill:#1b98d6;}.cls-209{fill:#a9a74b;}.cls-210{fill:#f86138;}.cls-211{fill:#0a66b5;}.cls-212{fill:#f97745;}.cls-213{fill:#60b366;}.cls-214{fill:#257cc2;}.cls-215{fill:#f99731;}.cls-216{fill:#83ad56;}.cls-217{fill:#3ba6b1;}.cls-218{fill:#22a5dd;}.cls-219{fill:#67497a;}.cls-220{fill:#76b363;}.cls-221{fill:#f85538;}.cls-222{fill:#f97d38;}.cls-223{fill:#f1ab56;}.cls-224{fill:#98617d;}.cls-225{fill:#e35544;}.cls-226{fill:#57b468;}.cls-227{fill:#38aa8d;}.cls-228{fill:#faa64a;}.cls-229{fill:#f84d3c;}.cls-230{fill:#fea750;}.cls-231{fill:#f73b27;}.cls-232{fill:#259da1;}.cls-233{fill:#309ebe;}.cls-234{fill:#ee5c46;}.cls-235{fill:#a0a547;}.cls-236{fill:#16a0db;}.cls-237{fill:#48a6d9;}.cls-238{fill:#f84736;}.cls-239{fill:#46b164;}.cls-240{fill:#0799d9;}.cls-241{fill:#23a5dd;}.cls-242{fill:#ee5f49;}.cls-243{fill:#27a7de;}.cls-244{fill:#309bcf;}.cls-245{fill:#cba343;}.cls-246{fill:#ed523b;}.cls-247{fill:#fbbc51;}.cls-248{fill:#fab658;}.cls-249{fill:#fa8b3a;}.cls-250{fill:#48b865;}.cls-251{fill:#ee5b45;}.cls-252{fill:#27a384;}.cls-253{fill:#fea751;}.cls-254{fill:#4db56c;}.cls-255{fill:#2b98d3;}.cls-256{fill:#3daf5e;}.cls-257{fill:#0c8ed1;}.cls-258{fill:#fe9d3d;}.cls-259{fill:#2c98d3;}.cls-260{fill:#2e9eb7;}.cls-261{fill:#269cac;}.cls-262{fill:#8c5677;}.cls-263{fill:#d64b40;}.cls-264{fill:#d75950;}.cls-265{fill:#855579;}.cls-266{fill:#5b4c82;}.cls-267{fill:#87a443;}.cls-268{fill:#c84844;}.cls-269{fill:#ba545b;}.cls-270{fill:#b2a94e;}.cls-272{clip-path:url(#clip-path-4);}.cls-273{clip-path:url(#clip-path-5);}.cls-274{clip-path:url(#clip-path-6);}</style><clipPath id="clip-path"><polygon class="cls-1" points="21.93 18.88 1.93 18.88 1.93 8.54 11.93 11.81 21.93 8.54 21.93 18.88"/></clipPath><clipPath id="clip-path-2"><rect class="cls-2" x="5" y="7" width="14" height="12"/></clipPath><clipPath id="clip-path-3"><rect class="cls-2" x="5" y="7" width="14" height="12"/></clipPath><clipPath id="clip-path-4"><polygon class="cls-1" points="1.93 6.26 1.93 8.67 11.93 13.47 21.93 8.67 21.93 6.26 1.93 6.26"/></clipPath><clipPath id="clip-path-5"><rect class="cls-2" x="5" y="7" width="14" height="10.67"/></clipPath><clipPath id="clip-path-6"><rect class="cls-2" x="5" y="7" width="14" height="10.67"/></clipPath></defs><polygon points="21.93 18.88 1.93 18.88 1.93 8.54 11.93 11.81 21.93 8.54 21.93 18.88"/><g class="cls-3"><g id="Illustration_1" data-name="Illustration 1"><g class="cls-4"><g class="cls-5"><path class="cls-6" d="M14.77,12a.81.81,0,0,1-.25.08.37.37,0,0,1-.39-.18c-.07-.16.07-.23.2-.3a.39.39,0,0,1,.49.09c.08.11.11.23-.05.31"/><path class="cls-7" d="M11.68,10.44a.33.33,0,0,1,0,.37.29.29,0,0,1-.35.16.23.23,0,0,1-.13-.34.25.25,0,0,0,0-.09c0-.09.1-.14.17-.2a.26.26,0,0,1,.33,0s0,0,0,.07"/><path class="cls-8" d="M15.26,13.54c0,.14.08.3-.14.36a.38.38,0,0,1-.41-.18.21.21,0,0,1,0-.3.27.27,0,0,1,.32,0l.21.12s0,0,0,0"/><path class="cls-9" d="M14,15.63a.37.37,0,0,1-.2-.41c0-.09,0-.2.19-.21a.25.25,0,0,1,.28.15c0,.07,0,.13.12.15s0,.1,0,.15-.16.27-.37.17"/><path class="cls-10" d="M14.78,15c-.08.12-.18.21-.34.12a.34.34,0,0,1-.2-.42c0-.17.2-.18.36-.14s.27.2.18.44"/><path class="cls-11" d="M8.75,12.85c0-.14,0-.3.18-.34a.37.37,0,0,1,.39.18c.07.11.1.23,0,.32A.27.27,0,0,1,9,13a1.77,1.77,0,0,1-.17-.12.06.06,0,0,1-.06-.05"/><path class="cls-12" d="M11,10.58c.09.19.14.38-.1.53s-.33.08-.36-.15a2.62,2.62,0,0,1,0-.28v0c.12-.15.25-.24.44-.07"/><path class="cls-13" d="M12,10.38c.15,0,.33-.14.43,0a.31.31,0,0,1-.13.42.28.28,0,0,1-.33,0c-.12-.07-.1-.18-.08-.29s.12-.13.11-.22Z"/><path class="cls-14" d="M13.06,10.84h0c-.15.13-.32.24-.5.09s0-.27.06-.38a.34.34,0,0,1,.52,0l0,0c0,.09,0,.16-.08.22"/><path class="cls-10" d="M14.66,14.46c-.11-.14-.26-.29-.07-.46A.27.27,0,0,1,15,14c.16.14.22.3,0,.47a.21.21,0,0,1-.33,0"/><path class="cls-15" d="M12,16c.25-.32.33-.33.57-.1s0,.26-.06.37a.28.28,0,0,1-.11.08.37.37,0,0,1-.31,0c-.14-.1-.2-.22-.09-.37"/><path class="cls-16" d="M14.53,15.73a.4.4,0,0,1,.19.41.29.29,0,0,1-.22.23c-.13,0-.19-.07-.24-.17a1.55,1.55,0,0,1-.07-.23c.05-.16.1-.31.34-.24"/><path class="cls-17" d="M15.16,11.39h.33a.27.27,0,0,1,.24.21c0,.13-.08.17-.18.21s-.28.07-.42,0-.19-.29,0-.41"/><path class="cls-18" d="M9.26,15.57a.46.46,0,0,1-.44.14c-.13,0-.24-.08-.26-.2s.1-.18.22-.21l.14,0a.38.38,0,0,1,.21,0c.14.06.22.14.13.29"/><path class="cls-19" d="M12.61,15.92c.05-.1.09-.22.23-.25s.26.14.3.28a.34.34,0,0,1,0,.2.3.3,0,0,1-.07.1.44.44,0,0,1-.34.07l-.08-.05a.29.29,0,0,1,0-.35"/><path class="cls-20" d="M14.5,10.79a.69.69,0,0,1,.39-.1c.12,0,.24.08.25.2a.18.18,0,0,1-.19.2,1.86,1.86,0,0,1-.34.06c-.25-.12-.27-.19-.11-.36"/><path class="cls-21" d="M11.33,10c-.09-.17,0-.31.13-.44a.23.23,0,0,1,.28-.08.22.22,0,0,1,.1.26c0,.06-.05.11-.07.16s-.1.12-.16.16-.22.1-.28-.06"/><path class="cls-22" d="M9.41,15.06a.45.45,0,0,1,.52-.12c.15.05.27.15.13.33a1.08,1.08,0,0,1-.51.09.24.24,0,0,1-.22-.17.14.14,0,0,1,.08-.13"/><path class="cls-23" d="M11.62,16.33c-.16,0-.35,0-.37-.16s.12-.37.37-.4a.46.46,0,0,1,.25.26.36.36,0,0,1-.11.27s-.08.06-.14,0"/><path class="cls-24" d="M10.35,16.27c.16,0,.33,0,.31.22s-.27.3-.43.28a.18.18,0,0,1-.14-.3c.06-.1.19-.12.26-.2Z"/><path class="cls-25" d="M12.17,9.93a.44.44,0,0,1,.38-.39.17.17,0,0,1,.18.2.42.42,0,0,1-.39.36c-.13,0-.17-.08-.17-.17"/><path class="cls-26" d="M15.66,13A.54.54,0,0,1,16,13c.15.08.31.18.23.34s-.26.12-.41,0-.17,0-.22-.08-.1-.25.09-.33"/><path class="cls-27" d="M14.88,15.3a.16.16,0,0,1,.21-.17.32.32,0,0,1,.25.32.21.21,0,0,1-.14.27.24.24,0,0,1-.27-.13.19.19,0,0,1,0-.16.11.11,0,0,1,0-.13"/><path class="cls-28" d="M13.78,16.22l.12.13a.47.47,0,0,1,0,.31c-.07.09-.09.25-.26.21s-.17-.25-.18-.4,0-.12,0-.18.17-.14.29-.07"/><path class="cls-29" d="M15.69,13.71a.45.45,0,0,1,.42.34c0,.13-.07.18-.21.17s-.4-.2-.38-.36a.17.17,0,0,1,.17-.15"/><path class="cls-30" d="M15.27,14.77c0-.11,0-.24.11-.31a.29.29,0,0,1,.28.06.37.37,0,0,1,.15.33.16.16,0,0,1-.13.14.35.35,0,0,1-.34-.16l-.07-.07Z"/><path class="cls-31" d="M9.08,11.26a.29.29,0,0,1-.15-.2c0-.15-.08-.32.12-.39s.26.08.32.21a.25.25,0,0,1,.05.22.22.22,0,0,1-.34.16"/><path class="cls-32" d="M10.47,10.23a.48.48,0,0,1,0-.39.26.26,0,0,1,.3-.16c.14,0,.12.15.13.26s-.08.1,0,.15a.09.09,0,0,1,0,.07.4.4,0,0,1-.13.13c-.12.06-.23.08-.31-.06"/><path class="cls-33" d="M8.37,12.65A.45.45,0,0,1,8,12.32c0-.12.06-.19.19-.21a.4.4,0,0,1,.37.34c0,.13,0,.19-.17.2"/><path class="cls-34" d="M12.18,17.13l-.13,0c-.09,0-.19.06-.26,0a.21.21,0,0,1,0-.26,1.09,1.09,0,0,1,.08-.15l0,0s0,0,0-.06.31-.13.37.09-.08.27-.06.41Z"/><path class="cls-35" d="M11.46,16.65c0,.23-.26.45-.42.42s-.19-.07-.18-.18a.47.47,0,0,1,.42-.36c.12,0,.18.08.18.12"/><path class="cls-36" d="M13.37,9.78c.14,0,.21.05.22.17s-.22.33-.39.33-.21,0-.21-.17a.4.4,0,0,1,.38-.33"/><path class="cls-37" d="M13.78,10.33a.53.53,0,0,1,.26-.15c.13,0,.27,0,.34.08s0,.23-.14.29l-.12,0a.34.34,0,0,1-.22,0c-.19-.05-.26-.14-.12-.31"/><path class="cls-38" d="M9.87,16.12a.19.19,0,0,1-.15.16c-.17.07-.37.07-.45-.09s.1-.24.26-.28.24-.07.35,0,.08.14,0,.2"/><path class="cls-39" d="M9.07,12c.15-.15.28-.09.39,0s.2.28,0,.42a.24.24,0,0,1-.37,0A1.54,1.54,0,0,1,9.07,12"/><path class="cls-40" d="M15.16,13.25c-.23,0-.42,0-.51-.23s.16-.19.3-.21.16,0,.24,0l.09,0c.1.17.09.32-.12.41"/><path class="cls-41" d="M10.62,15.47a.32.32,0,0,1-.32.35.12.12,0,0,1-.13.07.34.34,0,0,1-.26-.26.19.19,0,0,1,.13-.21c.2,0,.4-.07.58.05"/><path class="cls-42" d="M14.88,15.3v.13c-.1.08-.09.25-.26.28s-.3-.11-.29-.3l.06-.1c.1-.19.23-.19.36,0s.07.1.13,0"/><path class="cls-43" d="M11,9c-.05.15-.07.34-.29.37s-.15-.09-.15-.19.06-.34.28-.38.13.11.16.2"/><path class="cls-44" d="M14,17.35c0,.15-.06.32-.27.33s-.17-.11-.16-.21,0-.33.27-.34.14.13.16.22"/><path class="cls-45" d="M12.5,17.78c0-.15.08-.32.3-.36s.14.08.15.17-.19.4-.32.39-.12-.1-.13-.2"/><path class="cls-46" d="M9.68,14.56c.08.3-.22.26-.37.35a.25.25,0,0,1-.21,0c-.1-.11-.29-.22,0-.36a1.09,1.09,0,0,1,.62.05"/><path class="cls-47" d="M9.86,9.51c0,.14,0,.31-.23.32s-.18-.12-.18-.23,0-.31.22-.32.16.13.19.23"/><path class="cls-48" d="M13.5,16.33l-.05.14c-.12,0-.19.18-.34.08a.12.12,0,0,1-.08,0,.23.23,0,0,1,0-.28v-.11a1.07,1.07,0,0,1,.22-.1h.05a.08.08,0,0,1,.08,0,.32.32,0,0,1,.09.32"/><path class="cls-49" d="M7.3,14a.4.4,0,0,1-.41-.27c0-.1.08-.15.18-.14s.37.09.41.28S7.4,14,7.3,14"/><path class="cls-50" d="M10.52,10.68a.36.36,0,0,1-.22.16c-.28-.09-.32-.29-.11-.5a.29.29,0,0,1,.27-.05c.2.12.14.26.06.4Z"/><path class="cls-51" d="M9.8,11.24l-.11.06c-.2,0-.25-.07-.27-.21a.32.32,0,0,1,0-.21.21.21,0,0,1,.28-.13c.14,0,.16.14.18.25a.26.26,0,0,1-.12.24"/><path class="cls-52" d="M14.6,16.85c0-.15,0-.3.2-.29s.19.15.19.28-.06.27-.22.26-.17-.15-.17-.25"/><path class="cls-53" d="M10.2,15.87l.1,0c.31.16.31.23,0,.45h0c-.16,0-.31,0-.38-.15s.06-.24.23-.25"/><path class="cls-54" d="M11.62,9c0-.17.19-.37.32-.35s.14.1.13.18a.37.37,0,0,1-.33.35c-.12,0-.12-.09-.12-.18"/><path class="cls-55" d="M9.41,11.7c-.12.05-.21.24-.38.09a.28.28,0,0,1,0-.44c.28-.13.35.09.46.24a.09.09,0,0,1,0,.11"/><path class="cls-56" d="M12.66,16.27h.08c.08.09,0,.19,0,.29s0,.15-.13.15-.25.07-.35,0,0-.24.05-.34l.06-.07c.09,0,.18-.06.26,0"/><path class="cls-57" d="M15,14.55a.46.46,0,0,1,.27.22h0c0,.11,0,.23-.09.29s-.23,0-.31-.13c-.13-.27-.11-.33.13-.37"/><path class="cls-58" d="M11.68,10.44v0c-.11-.09-.09-.19,0-.3a.62.62,0,0,1,.21-.15c.1,0,.21,0,.26.06s0,.28-.16.38h0a.51.51,0,0,1-.27.06"/><path class="cls-59" d="M17.09,13.58c0,.09-.11.1-.2.1s-.4-.21-.37-.32.1-.11.19-.1.39.18.38.32"/><path class="cls-60" d="M8.75,12.85l.06.05a.4.4,0,0,1-.06.26c-.18.1-.32,0-.45-.1a.09.09,0,0,1,0-.11c0-.1,0-.19.09-.23s.24.06.35.13"/><path class="cls-61" d="M13.49,17.1c0,.14-.09.3-.27.31s-.17-.12-.15-.22.08-.3.27-.31.14.13.15.22"/><path class="cls-62" d="M14.2,16c0,.18-.14.29-.37.2s-.1-.1-.13-.17v-.06a.2.2,0,0,1,0-.08.43.43,0,0,1,.1-.09c0-.07.09-.09.16-.11.22,0,.24.15.2.31"/><path class="cls-63" d="M8.92,10.26c0,.13,0,.26-.17.26s-.21-.14-.22-.28,0-.26.19-.25.19.16.2.27"/><path class="cls-50" d="M10.41,9.68c0,.13,0,.29-.23.31S10,9.88,10,9.77s.05-.3.23-.32.16.12.16.23"/><path class="cls-29" d="M15.63,13.25a.17.17,0,0,0,.16.11s0,0-.06.05c-.05.28-.13.32-.4.17l-.07,0a0,0,0,0,0,0,0l0-.21c.12-.17.27-.08.42-.05"/><path class="cls-64" d="M14.4,16.72c0,.13,0,.27-.22.28s-.17-.12-.17-.22,0-.29.21-.3.16.12.18.24"/><path class="cls-65" d="M12.64,16.72l.09-.14a.09.09,0,0,1,.07,0c.13.09.29.17.26.36L13,17a.18.18,0,0,1-.22.1.17.17,0,0,1-.14-.19,1.46,1.46,0,0,1,0-.22"/><path class="cls-66" d="M9.53,15.83c-.15,0-.25-.11-.22-.26s.12-.14.22-.16h.18c.15,0,.24.11.22.26a.31.31,0,0,1-.4.16"/><path class="cls-67" d="M11.41,9.4a.3.3,0,0,1-.26.28c-.14,0-.15-.1-.15-.19a.32.32,0,0,1,.28-.33c.12,0,.14.09.13.24"/><path class="cls-68" d="M8.12,15c.14,0,.33,0,.34.2s-.17.17-.28.17-.3-.05-.3-.22.14-.12.24-.15"/><path class="cls-69" d="M16,11.78c.15,0,.32.05.34.2s-.11.18-.25.17-.3-.07-.32-.22.12-.14.23-.15"/><path class="cls-36" d="M13.12,10.59c.12-.31.27-.38.55-.26.1.24-.05.34-.26.4a.27.27,0,0,1-.3-.14Z"/><path class="cls-70" d="M8.8,16.17c-.12,0-.26,0-.25-.17s.16-.18.3-.18.27,0,.26.16-.16.18-.31.19"/><path class="cls-71" d="M12.77,9.32a.14.14,0,0,1-.13-.15A.41.41,0,0,1,13,8.83c.11,0,.15.05.15.14s-.19.34-.35.35"/><path class="cls-72" d="M10.91,10.12v0a.33.33,0,0,1,.38,0,.2.2,0,0,1,0,.26.42.42,0,0,1-.21.18l-.16,0a.25.25,0,0,1-.11-.14.38.38,0,0,1,.06-.29"/><path class="cls-73" d="M14.68,10.08c-.11,0-.22,0-.2-.16s.18-.2.33-.21.23,0,.21.14-.18.21-.34.23"/><path class="cls-74" d="M15.28,12.86l-.06,0a.06.06,0,0,1-.05,0c0-.07-.08-.13-.07-.21a.28.28,0,0,1,.41,0c.11.1.34.18.1.36a.22.22,0,0,1-.33-.05"/><path class="cls-75" d="M8.89,16.34c.12,0,.26,0,.25.16s-.19.19-.33.2-.24,0-.23-.15.18-.18.31-.21"/><path class="cls-76" d="M8.07,15.92c-.17,0-.33-.05-.34-.2s.15-.17.26-.15.32,0,.32.2-.14.14-.24.15"/><path class="cls-77" d="M14.59,12.56c-.13,0-.15-.11-.14-.21s.34-.11.49-.22a.14.14,0,0,1,.14.06.29.29,0,0,1,.07.2c-.13.23-.35.18-.56.17"/><path class="cls-78" d="M10.3,10.89c.2.28.17.46-.11.61a.72.72,0,0,1-.19-.59c.09-.1.19-.08.3,0"/><path class="cls-79" d="M7.36,13a.4.4,0,0,1-.38-.3c0-.09.06-.11.14-.12a.47.47,0,0,1,.4.29c0,.1-.07.13-.16.13"/><path class="cls-80" d="M16.86,14.47a.13.13,0,0,1-.15.14.36.36,0,0,1-.35-.3.11.11,0,0,1,.14-.14.4.4,0,0,1,.36.3"/><path class="cls-81" d="M9.51,10.27c0,.13,0,.26-.19.25s-.19-.14-.19-.27,0-.24.18-.24.18.15.2.26"/><path class="cls-82" d="M12.42,9.31a.35.35,0,0,1-.31.31c-.11,0-.16-.07-.14-.16a.35.35,0,0,1,.3-.32c.12,0,.15.07.15.17"/><path class="cls-83" d="M11.19,15.93a.36.36,0,0,1-.46.19.19.19,0,0,1-.14-.27s0,0,0,0a.58.58,0,0,1,.39-.06c.1,0,.19.05.18.17"/><path class="cls-84" d="M11.44,17.78a.38.38,0,0,1,.35-.32c.12,0,.13.1.11.18a.34.34,0,0,1-.35.29c-.13,0-.09-.09-.11-.15"/><path class="cls-85" d="M15.77,10.43c.09,0,.18.09.13.18s-.21.15-.35.14-.21,0-.23-.14,0-.17.16-.18a.48.48,0,0,1,.29,0"/><path class="cls-86" d="M10.58,17.72c-.08,0-.15,0-.13-.14a.34.34,0,0,1,.31-.3c.1,0,.16,0,.17.11a.39.39,0,0,1-.35.33"/><path class="cls-87" d="M15.4,16c0-.1,0-.22.17-.21a.27.27,0,0,1,.24.29c0,.11,0,.22-.17.21s-.2-.17-.24-.29"/><path class="cls-88" d="M11.61,17.17a.37.37,0,0,1-.3.31c-.11,0-.18-.05-.16-.15a.33.33,0,0,1,.31-.3c.1,0,.14,0,.15.14"/><path class="cls-89" d="M15.22,16.15c0,.1,0,.22-.18.21s-.21-.15-.21-.29,0-.22.18-.2.19.15.21.28"/><path class="cls-73" d="M13.76,9.6c-.11,0-.19,0-.17-.12a.34.34,0,0,1,.33-.29c.1,0,.19,0,.17.14a.34.34,0,0,1-.33.27"/><path class="cls-90" d="M7.48,11.69a.35.35,0,0,1,.29.31c0,.08,0,.14-.15.14a.37.37,0,0,1-.31-.32c0-.1.06-.14.17-.13"/><path class="cls-91" d="M14.79,10.59c-.12,0-.25,0-.23-.15s.16-.2.31-.2.24,0,.23.16-.17.18-.31.19"/><path class="cls-92" d="M12.18,17.13c.11,0,.23-.16.33,0a.26.26,0,0,1-.08.32c-.06.05-.14.15-.24.11s-.09-.17-.06-.27a1,1,0,0,1,0-.16Z"/><path class="cls-93" d="M16.16,15a.33.33,0,0,1,.26.32c0,.08-.05.15-.16.13a.3.3,0,0,1-.27-.32c0-.09,0-.14.17-.13"/><path class="cls-94" d="M8.24,11.13c0,.09,0,.18-.14.17A.29.29,0,0,1,7.82,11c0-.09,0-.18.14-.18s.24.16.28.3"/><path class="cls-95" d="M9.66,16.41c.12,0,.24,0,.22.14a.28.28,0,0,1-.29.22c-.1,0-.22,0-.22-.13s.16-.21.29-.23"/><path class="cls-96" d="M9.69,17.29c-.11,0-.21,0-.19-.13s.17-.23.34-.25.19,0,.18.13-.17.23-.33.25"/><path class="cls-97" d="M16.33,14a.32.32,0,0,1-.27-.26c0-.11.07-.15.17-.13s.31.1.33.28-.07.13-.23.11"/><path class="cls-98" d="M8.4,10.91c0-.1,0-.2.18-.18s.21.17.22.31-.05.18-.16.17-.22-.16-.24-.3"/><path class="cls-99" d="M9.69,11.33a.38.38,0,0,1,.23.44.19.19,0,0,1-.23.18.69.69,0,0,1-.13-.6.13.13,0,0,1,.13,0"/><path class="cls-100" d="M9.69,10.18c.17-.2.29-.13.4.05a.36.36,0,0,1-.11.42c-.31-.05-.26-.29-.29-.47"/><path class="cls-73" d="M14,9.72c.12,0,.22,0,.2.13s-.14.22-.3.24-.2,0-.2-.12.16-.23.3-.25"/><path class="cls-101" d="M13.78,15.87l0,.06a.42.42,0,0,1-.39-.46c.18-.18.3-.13.39.08s0,.22,0,.32"/><path class="cls-93" d="M15.84,15.43c0,.09,0,.19-.15.18a.29.29,0,0,1-.25-.31c0-.09.05-.17.16-.15a.26.26,0,0,1,.24.28"/><path class="cls-102" d="M8.31,13v.11c.07,0,.1.07,0,.13a.5.5,0,0,1-.5,0c-.06-.08-.11-.16,0-.24a.26.26,0,0,1,.28-.05c.07,0,.13.06.21,0"/><path class="cls-103" d="M8.48,11.4c.25-.05.35.09.39.28s-.06.24-.22.26,0,0-.07,0-.19-.31-.1-.5"/><path class="cls-104" d="M7.82,12.76a.33.33,0,0,1-.29-.26c0-.11,0-.17.16-.15a.31.31,0,0,1,.3.28c0,.09,0,.14-.17.13"/><path class="cls-105" d="M13.57,18.4c0-.13.06-.29.24-.3s.13.11.11.19,0,.29-.23.3-.12-.1-.12-.19"/><path class="cls-106" d="M11.07,8.08c0,.12-.08.27-.26.29s-.12-.09-.11-.16.08-.29.25-.32.12.09.12.19"/><path class="cls-107" d="M16.2,11.61c-.13,0-.23-.09-.19-.22s.16-.11.27-.1.26,0,.32.15-.26.12-.4.17"/><path class="cls-108" d="M13.34,15.47c.1.18.16.37.39.46a0,0,0,0,0,0,0,.22.22,0,0,1-.31.07h-.08c-.08-.18-.18-.37,0-.55"/><path class="cls-109" d="M12.64,18.54a.35.35,0,0,1-.26.34c-.11,0-.12-.08-.11-.15a.33.33,0,0,1,.28-.33c.09,0,.08.09.09.14"/><path class="cls-110" d="M8.47,14.56c0-.1-.1-.16-.1-.25a.59.59,0,0,1,.55,0l.05,0c0,.21,0,.25-.32.27a.27.27,0,0,1-.18-.07"/><path class="cls-111" d="M9.69,8.6c0,.12,0,.26-.19.29s-.14-.1-.14-.19,0-.26.19-.28.13.09.14.18"/><path class="cls-112" d="M12.19,8.27c-.11,0-.15,0-.15-.1a.37.37,0,0,1,.27-.35c.09,0,.14,0,.13.11a.44.44,0,0,1-.25.34"/><path class="cls-113" d="M13.67,11.09l-.16.1a.37.37,0,0,1-.29,0,.13.13,0,0,1-.11-.15,1.45,1.45,0,0,1,.61-.22c.07,0,.09,0,.1.1a.18.18,0,0,1-.15.17"/><path class="cls-114" d="M7.14,16.08c-.14,0-.29,0-.3-.17s.12-.14.22-.13.28,0,.3.17-.13.12-.22.13"/><path class="cls-115" d="M15.53,12.55l0-.1c.12-.17.33-.15.51-.19s.15.13.08.24a.28.28,0,0,1-.31.1l-.23,0"/><path class="cls-116" d="M10.35,8.81c0,.11,0,.25-.21.26S10,9,10,8.88s.05-.24.2-.26.13.09.12.19"/><path class="cls-117" d="M15.21,17.66c0,.11-.05.24-.2.23s-.13-.12-.13-.21,0-.24.17-.24.14.13.16.22"/><path class="cls-118" d="M16.5,10.44c-.11,0-.24,0-.25-.14s.13-.15.23-.15.25,0,.26.13-.13.14-.24.16"/><path class="cls-119" d="M17.39,11.57c-.14,0-.29,0-.32-.19s.1-.13.19-.12.31,0,.33.2-.12.09-.2.11"/><path class="cls-120" d="M16.24,13c-.13,0-.25-.11-.18-.25s.23-.08.36,0,.16.08.17.17a.4.4,0,0,1-.35.11"/><path class="cls-121" d="M11.28,18.34c.11,0,.13.05.13.11a.35.35,0,0,1-.27.31c-.1,0-.14,0-.13-.12a.38.38,0,0,1,.27-.3"/><path class="cls-122" d="M16,12.26c-.14.14-.35.1-.51.19-.11-.1-.08-.19,0-.28a.48.48,0,0,1,.49.09"/><path class="cls-123" d="M6.49,14.88a.38.38,0,0,1-.36-.19c0-.07.1-.15.19-.12s.32.06.35.22-.11.08-.18.09"/><path class="cls-124" d="M11.5,8.32c.1,0,.13.08.11.15s-.08.28-.27.29-.11-.08-.09-.15.08-.26.25-.29"/><path class="cls-125" d="M8.37,14.17A.42.42,0,0,1,7.86,14c0-.15.15-.12.25-.13a1,1,0,0,1,.3,0c.16.11.16.2,0,.26"/><path class="cls-126" d="M13.36,18c0,.12-.06.25-.22.28S13,18.18,13,18.1s.07-.28.23-.3.1.09.12.16"/><path class="cls-127" d="M13.39,10.73c.13,0,.27,0,.33.11-.17.14-.41.13-.61.2,0,0,0-.1,0-.15a.22.22,0,0,1,.27-.16"/><path class="cls-128" d="M8.1,16.77c.11,0,.22,0,.2.14s-.16.16-.28.15-.21,0-.19-.14.17-.13.27-.15"/><path class="cls-129" d="M7.21,15.16c.12,0,.27,0,.27.18s-.12.12-.21.11-.28,0-.28-.18.12-.11.22-.11"/><path class="cls-130" d="M17.52,13.19a.13.13,0,0,1-.17.1c-.14,0-.3-.07-.31-.24s.08-.1.16-.09a.4.4,0,0,1,.32.23"/><path class="cls-131" d="M9.41,11.58a.19.19,0,0,1,.17-.23c0,.21.13.39.11.6a.27.27,0,0,1-.28-.25v-.12"/><path class="cls-132" d="M16.43,10.79c.11,0,.26,0,.25.14a.22.22,0,0,1-.24.15c-.11,0-.23,0-.23-.16s.12-.12.22-.13"/><path class="cls-133" d="M6.47,12.53a.35.35,0,0,1-.32-.26.08.08,0,0,1,.1-.11.37.37,0,0,1,.33.26c0,.07,0,.1-.11.11"/><path class="cls-134" d="M16.53,12.55c-.09,0-.14-.11-.1-.2a.2.2,0,0,1,.24-.08.37.37,0,0,1,.26.12c0,.24-.22.2-.4.16"/><path class="cls-135" d="M6.81,13.26a.36.36,0,0,1-.3-.24c0-.07,0-.11.12-.1s.31.08.34.25-.07.09-.16.09"/><path class="cls-136" d="M14.5,17.53c0,.13,0,.26-.19.27s-.13-.11-.12-.19,0-.24.17-.26.12.11.14.18"/><path class="cls-137" d="M12.19,18.07a.33.33,0,0,1-.25.29c-.1,0-.12-.06-.11-.13a.32.32,0,0,1,.25-.29c.08,0,.1.06.11.13"/><path class="cls-138" d="M8.81,13.82c.23,0,.47-.07.6.19a.88.88,0,0,1-.62,0,.15.15,0,0,1-.08-.15.11.11,0,0,1,.1-.08"/><path class="cls-139" d="M17.68,13.69c.14,0,.28.1.31.26s0,.1-.12.1-.36-.17-.34-.28.07-.08.15-.08"/><path class="cls-140" d="M8.45,14c-.2,0-.41-.06-.59.07-.13-.19-.08-.27.17-.27s.22.11.35.06a.06.06,0,0,1,.07,0,.15.15,0,0,1,0,.13"/><path class="cls-141" d="M15.55,16.83c0,.09,0,.2-.15.2s-.16-.11-.17-.21,0-.18.13-.19.16.1.19.2"/><path class="cls-142" d="M8.51,9.51c0,.08,0,.21-.16.2s-.16-.12-.15-.23,0-.21.15-.2.13.13.16.23"/><path class="cls-143" d="M6.71,14.05a.3.3,0,0,1,.32.21c0,.06-.07.1-.13.09s-.32,0-.35-.22.09-.07.16-.08"/><path class="cls-144" d="M9.2,9.46c0,.11,0,.23-.15.24s-.15-.11-.15-.2,0-.21.14-.23.15.11.16.19"/><path class="cls-145" d="M8.71,13.51l0-.15a.59.59,0,0,1,.6,0c0,.05.07.1,0,.16a.61.61,0,0,1-.51.05H8.75l0,0"/><path class="cls-146" d="M15.45,9.58c-.1,0-.19,0-.19-.12s.13-.17.26-.18.18,0,.18.11-.14.15-.25.19"/><path class="cls-147" d="M8,16.43c-.12,0-.25,0-.25-.15s.12-.12.21-.12.25,0,.26.13-.12.13-.22.14"/><path class="cls-148" d="M15.81,10a.23.23,0,0,1-.23.17c-.11,0-.23,0-.22-.13s.14-.13.24-.15a.18.18,0,0,1,.21.11"/><path class="cls-149" d="M7.72,14.76c.09.11,0,.19-.1.21s-.38,0-.46-.21a.59.59,0,0,1,.56,0"/><path class="cls-150" d="M11.1,17.91a.32.32,0,0,1-.27.26c-.08,0-.11-.05-.1-.11A.3.3,0,0,1,11,17.8c.07,0,.1.05.09.11"/><path class="cls-151" d="M11.19,15.93c-.15-.2-.38-.07-.57-.11a.4.4,0,0,1,.29-.2c.25,0,.36.08.28.31"/><path class="cls-152" d="M13.62,8.24a.35.35,0,0,1-.28.25c-.07,0-.13,0-.11-.09a.32.32,0,0,1,.28-.29c.08,0,.11,0,.11.13"/><path class="cls-153" d="M17.8,12.82a.33.33,0,0,1-.3-.22s0-.08.07-.09a.37.37,0,0,1,.4.15c0,.12-.08.13-.17.16"/><path class="cls-154" d="M9.91,11l.11-.06c.06.19.11.38.17.57-.16,0-.21-.08-.28-.16a.43.43,0,0,1,0-.35"/><path class="cls-155" d="M12.79,8.51a.3.3,0,0,1-.26.27c-.08,0-.13,0-.11-.1a.33.33,0,0,1,.26-.29c.08,0,.11,0,.11.12"/><path class="cls-156" d="M9.29,13.35h-.6c0-.08.05-.13.06-.2.22,0,.43,0,.54.2"/><path class="cls-157" d="M8.79,14.91a1,1,0,0,1,.34-.05c.06,0,.13,0,.18.05a.13.13,0,0,1,0,.06c.06.12,0,.14-.13.15a.5.5,0,0,1-.41-.06c0-.05,0-.1,0-.15"/><path class="cls-158" d="M17,11.89c.13,0,.27,0,.3.16s-.1.11-.18.1-.3-.05-.33-.18.13-.06.21-.08"/><path class="cls-159" d="M12,16.44l-.15.23h0c-.2,0-.27-.14-.22-.31v0l.12-.06c.2-.09.23.05.26.17"/><path class="cls-80" d="M16.93,14.1c0-.1.06-.11.13-.1a.31.31,0,0,1,.29.23c0,.08-.07.12-.15.1a.36.36,0,0,1-.27-.23"/><path class="cls-59" d="M17.59,14.94c0,.09,0,.14-.09.13a.31.31,0,0,1-.3-.25.08.08,0,0,1,.09-.1.33.33,0,0,1,.3.22"/><path class="cls-160" d="M16.22,16.79c0,.08,0,.18-.12.18s-.17-.12-.18-.22,0-.19.12-.18.17.11.18.22"/><path class="cls-161" d="M8.17,10.52A.22.22,0,0,1,8,10.3c0-.08,0-.18.13-.18s.16.11.18.21a.15.15,0,0,1-.12.19"/><path class="cls-162" d="M7.43,10.24a.25.25,0,0,1,.2.25c0,.07,0,.15-.11.14a.24.24,0,0,1-.21-.25c0-.07,0-.14.12-.14"/><path class="cls-90" d="M6.76,11.19a.29.29,0,0,1,.25.24c0,.07,0,.12-.1.11a.26.26,0,0,1-.26-.24c0-.06,0-.11.11-.11"/><path class="cls-163" d="M7.07,12.28a.33.33,0,0,1-.26-.23c0-.09.05-.13.14-.11a.28.28,0,0,1,.24.24c0,.07,0,.1-.12.1"/><path class="cls-164" d="M8.91,17.19c-.09,0-.17,0-.16-.11s.12-.16.23-.16.19,0,.18.1-.13.15-.25.17"/><path class="cls-165" d="M7.43,13.46c-.08-.06-.09-.14,0-.2a.2.2,0,0,1,.2,0c.13,0,.24.09.27.22a.41.41,0,0,1-.45,0"/><path class="cls-166" d="M15.44,11.94c.06.31-.18.26-.37.27l-.13-.06s0,0,0,0,0,0,0-.05v0a.61.61,0,0,1,.51-.11h0"/><path class="cls-167" d="M15.79,11c.14.19,0,.23-.16.26a.33.33,0,0,1-.31-.09c.08-.23.27-.21.47-.17"/><path class="cls-168" d="M16.77,15.64a.27.27,0,0,1,.22.22c0,.06,0,.15-.08.15s-.22-.1-.25-.22,0-.13.11-.15"/><path class="cls-169" d="M9,17.8c-.08,0-.16,0-.14-.11a.27.27,0,0,1,.28-.2c.06,0,.14,0,.12.1s-.12.19-.26.21"/><path class="cls-170" d="M10.31,18.12a.33.33,0,0,1-.28.25c-.07,0-.13,0-.11-.11a.3.3,0,0,1,.27-.24c.09,0,.12,0,.12.1"/><path class="cls-171" d="M14.66,8.74a.31.31,0,0,1-.27.2c-.08,0-.14,0-.12-.1a.27.27,0,0,1,.28-.22c.08,0,.12,0,.11.12"/><path class="cls-172" d="M8.66,14.56c0,.07,0,.1.06.15-.18.14-.4,0-.58.09H8.09c-.05-.23,0-.28.38-.25h.19"/><path class="cls-173" d="M16.13,15.78a.23.23,0,0,1,.2.23c0,.07,0,.15-.1.15S16,16,16,15.93s0-.14.1-.15"/><path class="cls-174" d="M10,10.63c-.05.11-.14.06-.21.07a.36.36,0,0,1-.06-.52c.12.13.06.36.27.45"/><path class="cls-175" d="M8.75,14.81v.1a.5.5,0,0,1-.66-.1h0a1,1,0,0,1,.65,0"/><path class="cls-73" d="M14.83,9.34a.31.31,0,0,1-.3.18c-.07,0-.12,0-.1-.11s.13-.17.26-.18a.11.11,0,0,1,.14.11"/><path class="cls-176" d="M6.3,13.4c0,.07.19.1.11.2s-.18.05-.27,0-.21-.07-.21-.21a.4.4,0,0,1,.37,0"/><path class="cls-177" d="M8.71,13.51l0,0,0,.1a.45.45,0,0,1-.51,0,.17.17,0,0,1,0-.21,1.08,1.08,0,0,1,.4.06"/><path class="cls-178" d="M14.18,11.13l.09.07a.61.61,0,0,1-.6.19c0-.08,0-.14.05-.2a.24.24,0,0,1,.19-.11.41.41,0,0,1,.27.05"/><path class="cls-179" d="M8.27,13.66h.51c.09,0-.07.13,0,.17l-.05,0a.75.75,0,0,1-.33,0h0l-.11-.15"/><path class="cls-180" d="M13.81,11.55c-.07,0-.12,0-.13-.11a2.11,2.11,0,0,1,.66-.15.08.08,0,0,1,0,.11l-.21.15a.58.58,0,0,1-.32,0"/><path class="cls-181" d="M9.36,15.17l-.16.05c-.1,0-.19.06-.28,0s-.14-.07-.16-.16c.18,0,.4.11.54-.09l.11.09-.05.11"/><path class="cls-182" d="M8,14.31c.07.22-.1.21-.24.2a.31.31,0,0,1-.25-.14c.13-.23.32-.12.49-.06"/><path class="cls-183" d="M8.36,13.15c0,.09.05.19,0,.26a.5.5,0,0,1-.46-.2,1.74,1.74,0,0,0,.51-.06"/><path class="cls-184" d="M14.44,11.29a.55.55,0,0,1,.33-.11l.18.1c-.1.23-.3.19-.51.16h0c0-.06,0-.11,0-.16"/><path class="cls-185" d="M9.42,14.11c0,.18-.18.18-.33.16l-.28-.06a.05.05,0,0,1,0,0,.08.08,0,0,1,0-.08,1,1,0,0,1,.6,0"/><path class="cls-186" d="M9,14.55l.08-.14c.21,0,.44-.05.59.15H9"/><path class="cls-187" d="M15.4,11.94a1.45,1.45,0,0,1-.51.11c-.05-.11,0-.17.11-.21s.27-.07.38.05,0,0,0,0"/><path class="cls-188" d="M13.06,16.91c0-.15-.2-.21-.27-.34s.19-.1.3,0l0,0c0,.12.07.25,0,.36"/><path class="cls-189" d="M8,14.31c-.16,0-.34-.06-.49.06-.12-.15,0-.21.12-.22a.38.38,0,0,1,.37.16"/><path class="cls-190" d="M14.39,10.79l-.08.15c-.13,0-.25.14-.41.09s-.08,0-.07-.09a.09.09,0,0,1,0,0,.57.57,0,0,1,.49-.15l.06,0"/><path class="cls-191" d="M15.11,12.34c.11.09,0,.17,0,.26a.51.51,0,0,1-.52,0c.16-.1.43,0,.52-.22"/><path class="cls-192" d="M9.42,14.11a1.85,1.85,0,0,0-.62,0h0l0-.15h.65s.05.06,0,.1"/><path class="cls-193" d="M7.72,14.76H7.16c.09-.22.31-.22.56,0"/><path class="cls-194" d="M8.48,11.4a1.71,1.71,0,0,1,.1.5c-.26-.2-.29-.34-.1-.5"/><path class="cls-195" d="M16.53,12.55c.15,0,.31,0,.4-.16.09,0,.14.12.08.21s-.13.07-.21.06a.37.37,0,0,1-.27-.11"/><path class="cls-196" d="M14.33,10.74l-.49.15c0-.13.09-.18.2-.21s0,0,.07,0,.18,0,.22.11"/><path class="cls-197" d="M11.62,16.37a.44.44,0,0,0,.22.31v.05c-.1,0-.24.08-.31-.06a.22.22,0,0,1,.09-.3"/><path class="cls-198" d="M15.79,11a.84.84,0,0,0-.47.17c-.15-.2,0-.22.17-.25a.3.3,0,0,1,.3.08"/><path class="cls-199" d="M10.62,15.47H10c0-.07,0-.09.08-.09s.39-.14.52.09"/><path class="cls-200" d="M15.17,12.81l.05,0c-.21,0-.43,0-.57.18-.09-.21.06-.26.24-.27a1.4,1.4,0,0,1,.28.06"/><path class="cls-201" d="M7.43,13.46h.45c.07.16,0,.17-.17.16a.31.31,0,0,1-.28-.15"/><path class="cls-202" d="M9.52,15.47c.13-.06.05-.1,0-.15a2.48,2.48,0,0,1,.54-.06l0,.07c-.07.12-.2.11-.32.13H9.52"/><path class="cls-203" d="M14.32,11.29a2,2,0,0,1-.64.15v0l.6-.19s.05,0,.06,0a0,0,0,0,1,0,0h0"/><path class="cls-204" d="M8.81,13.56c.17,0,.33-.09.5-.05-.11.2-.25.22-.5.05"/><path class="cls-205" d="M5.08,13a.32.32,0,0,1,.21.14c0,.05,0,.09-.08.08a.25.25,0,0,1-.2-.14C5,13,5,13,5.08,13"/><path class="cls-206" d="M18.52,11.44c0,.07-.06.08-.11.08s-.18,0-.2-.11.06-.07.11-.07.17,0,.2.1"/><path class="cls-207" d="M16.2,11.61c.1-.12.3,0,.4-.17,0,.2-.08.25-.4.17"/><path class="cls-208" d="M19,13a.08.08,0,0,1-.11.05c-.08,0-.18,0-.19-.14s.06-.07.1-.05.17.05.2.14"/><path class="cls-209" d="M8.37,14.26l.11,0a.53.53,0,0,1,.33,0h0c0,.06.11,0,.1.1H8.37v-.05"/><path class="cls-210" d="M11.24,7.1c0,.07,0,.15-.13.18s-.1,0-.09-.08,0-.17.15-.19.07,0,.07.09"/><path class="cls-211" d="M14.89,12.15h0c-.13.13-.34.11-.49.2.05-.25.26-.2.44-.2"/><path class="cls-212" d="M10.22,8.13A.09.09,0,0,1,10.14,8c0-.08,0-.16.13-.17s.08,0,.07.08a.19.19,0,0,1-.12.18"/><path class="cls-213" d="M6.29,16.07c0,.07-.06.08-.12.08s-.15,0-.17-.09S6,16,6.1,16a.19.19,0,0,1,.19.1"/><path class="cls-214" d="M18,12.2c-.08,0-.17,0-.18-.12A.07.07,0,0,1,18,12c.08,0,.18,0,.18.12s-.06,0-.1.06"/><path class="cls-215" d="M9.07,12c.06.13.15.26.07.42C9,12.27,9,12.14,9.07,12"/><path class="cls-216" d="M5.29,14.48c.08,0,.18,0,.2.12s-.06.07-.11.07-.17,0-.19-.11.06-.07.1-.08"/><path class="cls-217" d="M14.42,18.25a.07.07,0,0,1,.08.08c0,.07,0,.15-.08.17s-.09,0-.09-.09a.15.15,0,0,1,.09-.16"/><path class="cls-218" d="M18.14,13.35c.07,0,.15,0,.17.13s0,.07-.09,0-.16,0-.18-.12.05-.06.1-.06"/><path class="cls-219" d="M14.44,11.44c.17-.06.37,0,.51-.16h0v.1c-.12.11-.29.1-.44.14l-.11,0v-.05"/><path class="cls-220" d="M6.37,15.41c-.08,0-.16,0-.17-.09s.06-.08.1-.07.16,0,.17.09,0,.07-.1.07"/><path class="cls-221" d="M11.75,7.57c.07,0,.1,0,.08.08s0,.16-.14.17-.07,0-.06-.08a.22.22,0,0,1,.12-.17"/><path class="cls-222" d="M9.48,7.6c.07,0,.07.08.06.13s0,.14-.11.14-.07-.07-.07-.12a.16.16,0,0,1,.12-.15"/><path class="cls-223" d="M5.85,12.61a.18.18,0,0,1,.17.13s0,.06,0,.06-.18,0-.2-.14,0-.05.08-.05"/><path class="cls-224" d="M17.27,10.72c.07,0,.16,0,.17.09s-.07.08-.13.07a.15.15,0,0,1-.15-.08c0-.07.06-.07.11-.08"/><path class="cls-225" d="M17.35,10c.07,0,.15,0,.15.08s-.05.08-.11.07-.16,0-.16-.09.07-.06.12-.06"/><path class="cls-226" d="M7.37,16.52c0,.07-.06.08-.11.09s-.14,0-.15-.08.06-.07.11-.08.12,0,.15.07"/><path class="cls-227" d="M13.12,18.85c0,.06,0,.15-.14.15s-.05-.06-.05-.09,0-.16.14-.16,0,.06,0,.1"/><path class="cls-228" d="M8.12,8.73c0,.06,0,.13-.1.13a.1.1,0,0,1-.08-.11c0-.06,0-.12.09-.12s.06.06.09.1"/><path class="cls-229" d="M13.14,7.73c.07.13,0,.19-.11.24l-.07,0c0-.12.07-.18.18-.21"/><path class="cls-230" d="M5.63,11.86c0,.05,0,.07-.08.06a.21.21,0,0,1-.17-.14.06.06,0,0,1,.09-.06.25.25,0,0,1,.16.14"/><path class="cls-231" d="M12.83,7a.21.21,0,0,1-.15.26s-.06,0-.06-.06.07-.18.21-.2"/><path class="cls-232" d="M13.12,16c0-.14-.09-.29-.28-.32.3-.07.31.11.33.29,0,0,0,0-.05,0"/><path class="cls-233" d="M15.23,18.38a.09.09,0,0,1,.09.1c0,.07,0,.14-.1.15s-.07-.05-.07-.09,0-.13.08-.16"/><path class="cls-234" d="M16.19,9.09c-.05,0-.11,0-.12-.06s.06-.09.12-.1.1,0,.11.05-.05.09-.11.11"/><path class="cls-235" d="M6,14c0,.07,0,.07-.09.07a.19.19,0,0,1-.17-.1c0-.05,0-.08.07-.07A.21.21,0,0,1,6,14"/><path class="cls-236" d="M18.84,14.38s0,.08-.07.07-.17,0-.19-.15,0-.05.07-.05a.25.25,0,0,1,.19.13"/><path class="cls-237" d="M16.45,17.33c.08,0,.1.05.11.1s0,.11,0,.13-.1,0-.12-.11a.12.12,0,0,1,.06-.12"/><path class="cls-238" d="M14.13,7.54c0,.07-.07.13-.16.13s-.07,0-.05-.07a.15.15,0,0,1,.16-.13s.05,0,.05.07"/><path class="cls-239" d="M7.42,17.26a.13.13,0,0,1-.15.07s-.11,0-.1-.06.09-.1.17-.09a.08.08,0,0,1,.08.08"/><path class="cls-240" d="M16.24,13l.35-.11c0,.28-.2.15-.35.11"/><path class="cls-241" d="M18.26,15.49s0,.07-.07,0-.14,0-.15-.13,0-.06.08-.05a.16.16,0,0,1,.14.13"/><path class="cls-242" d="M15.06,8.3c-.05,0-.08,0-.07-.06a.14.14,0,0,1,.15-.11s.07,0,.06.06-.07.1-.14.11"/><path class="cls-243" d="M17.85,14.51a.17.17,0,0,1,.16.12s0,.07-.07.06a.16.16,0,0,1-.15-.13c0-.05,0,0,.06-.05"/><path class="cls-244" d="M15.77,17.54c0,.05,0,.09-.08.09a.11.11,0,0,1-.09-.14s0-.09.08-.09.09.08.09.14"/><path class="cls-245" d="M6.3,13.4H5.93c.12-.14.14-.14.37,0"/><path class="cls-246" d="M16.26,9.79s-.09,0-.09,0,.07-.1.13-.1.12,0,.11.08-.08.07-.15.07"/><path class="cls-247" d="M7.05,9.82c0,.06,0,.1-.07.09s-.09-.05-.1-.1a.08.08,0,0,1,.06-.1c.09,0,.09.07.11.11"/><path class="cls-248" d="M7.71,9.59a.11.11,0,0,1,.11.1c0,.05,0,.11-.06.12s-.09-.05-.1-.1,0-.09,0-.12"/><path class="cls-249" d="M8.92,8.73c0,.06,0,.12-.07.12s-.1-.06-.09-.13,0-.1.1-.1.06.07.06.11"/><path class="cls-250" d="M10.4,18.75s-.09,0-.08-.05a.16.16,0,0,1,.14-.16s.06,0,.06.06a.2.2,0,0,1-.12.15"/><path class="cls-251" d="M15.2,9s-.08,0-.08-.05.05-.1.12-.11.09,0,.08.08S15.25,9,15.2,9"/><path class="cls-252" d="M11.86,15.87l0,.15c-.11-.06-.14-.17-.21-.25a.2.2,0,0,1,.23.1"/><path class="cls-253" d="M6.26,10.83s0,.06-.07.06-.1-.06-.12-.11,0-.08.06-.07.1.06.13.12"/><path class="cls-254" d="M8.55,18.12a.15.15,0,0,1-.13.11c-.05,0-.09,0-.08-.08a.13.13,0,0,1,.12-.09.07.07,0,0,1,.09.06"/><path class="cls-255" d="M17.49,16.43s0,.08,0,.08a.12.12,0,0,1-.13-.11s0-.07,0-.07.11.05.13.1"/><path class="cls-256" d="M8.33,17.38c.05,0,.1,0,.09.06a.11.11,0,0,1-.12.08c-.05,0-.09,0-.09-.06s.06-.08.12-.08"/><path class="cls-257" d="M17.8,12.82l.17-.16c.09,0,.09.08.05.13a.16.16,0,0,1-.22,0"/><path class="cls-258" d="M6.41,11.66c0,.06,0,.08-.08.06a.14.14,0,0,1-.11-.13c0-.05,0-.05.07,0a.19.19,0,0,1,.12.11"/><path class="cls-259" d="M16.71,16.54s0,.09-.06.08-.08-.05-.09-.1,0-.09.07-.08.08,0,.08.1"/><path class="cls-260" d="M13.78,15.87c-.1-.09,0-.21,0-.32.09,0,0,.18.11.22l-.06.1"/><path class="cls-261" d="M13.89,16.66c0-.1,0-.21,0-.31a.24.24,0,0,1,0,.31"/><path class="cls-262" d="M14.77,11.15a.27.27,0,0,1-.17-.06H15l-.18.06"/><path class="cls-263" d="M13.22,11.19h.29a.24.24,0,0,1-.29,0"/><path class="cls-264" d="M15.77,10.43h-.29a.28.28,0,0,1,.29,0"/><path class="cls-265" d="M13.81,11.55h.32a.29.29,0,0,1-.32,0"/><path class="cls-266" d="M14.55,11.53a.85.85,0,0,1,.44-.14c-.08.21-.26.17-.44.14"/><path class="cls-267" d="M8.75,14.81H8.1c0-.16.17-.08.26-.09a2.17,2.17,0,0,1,.36,0s0,.06,0,.1"/><path class="cls-268" d="M14.17,11.05c-.1,0-.2,0-.28-.06l.43-.05c0,.07-.1.07-.15.11"/><path class="cls-269" d="M13.88,11.14c.08-.08.19-.05.28-.05l0,0h-.3"/><path class="cls-270" d="M8.81,14.21H8.48c.09-.08.21,0,.31-.05h0a.13.13,0,0,0,0,.06"/></g></g></g></g><polygon class="cls-271" points="21.93 18.88 1.93 18.88 1.93 8.54 11.93 11.81 21.93 8.54 21.93 18.88"/><polygon points="1.93 6.26 1.93 8.67 11.93 13.47 21.93 8.67 21.93 6.26 1.93 6.26"/><g class="cls-272"><g id="Illustration_1-2" data-name="Illustration 1"><g class="cls-273"><g class="cls-274"><path class="cls-6" d="M14.77,11.44a2.33,2.33,0,0,1-.25.07.41.41,0,0,1-.39-.16c-.07-.15.07-.21.2-.27a.42.42,0,0,1,.49.08c.08.1.11.2-.05.28"/><path class="cls-7" d="M11.68,10.06a.27.27,0,0,1,0,.33.31.31,0,0,1-.35.14c-.13,0-.22-.16-.13-.3a.25.25,0,0,0,0-.09c0-.07.1-.12.17-.17a.29.29,0,0,1,.33,0,0,0,0,0,1,0,.06"/><path class="cls-8" d="M15.26,12.82c0,.11.08.26-.14.31a.41.41,0,0,1-.41-.15c-.08-.09-.1-.19,0-.27a.29.29,0,0,1,.32,0l.21.11s0,0,0,0"/><path class="cls-9" d="M14,14.67c-.16-.09-.24-.21-.2-.36s0-.18.19-.19a.25.25,0,0,1,.28.14c0,.05,0,.11.12.13s0,.09,0,.13-.16.24-.37.15"/><path class="cls-10" d="M14.78,14.08a.25.25,0,0,1-.34.11.3.3,0,0,1-.2-.38c0-.15.2-.16.36-.13s.27.18.18.4"/><path class="cls-11" d="M8.75,12.2c0-.12,0-.27.18-.3a.39.39,0,0,1,.39.16.19.19,0,0,1,0,.29.32.32,0,0,1-.33,0,1.51,1.51,0,0,1-.17-.1s-.06,0-.06-.05"/><path class="cls-12" d="M11,10.18c.09.17.14.34-.1.47s-.33.08-.36-.13a2.18,2.18,0,0,1,0-.25v0c.12-.13.25-.21.44-.06"/><path class="cls-13" d="M12,10c.15,0,.33-.13.43,0s0,.27-.13.37a.32.32,0,0,1-.33,0c-.12-.07-.1-.16-.08-.26S12,10.09,12,10Z"/><path class="cls-14" d="M13.06,10.41h0c-.15.12-.32.22-.5.08s0-.24.06-.33a.37.37,0,0,1,.52,0l0,0c0,.08,0,.14-.08.19"/><path class="cls-10" d="M14.66,13.63c-.11-.12-.26-.26-.07-.41a.29.29,0,0,1,.37,0c.16.13.22.27,0,.42a.23.23,0,0,1-.33,0"/><path class="cls-15" d="M12,15c.25-.28.33-.3.57-.09s0,.23-.06.33a.45.45,0,0,1-.42.09c-.14-.09-.2-.2-.09-.33"/><path class="cls-16" d="M14.53,14.76a.34.34,0,0,1,.19.36.28.28,0,0,1-.22.21c-.13,0-.19-.06-.24-.15a1.29,1.29,0,0,1-.07-.21c.05-.14.1-.27.34-.21"/><path class="cls-17" d="M15.16,10.91h.33a.24.24,0,0,1,.24.18c0,.12-.08.15-.18.18s-.28.07-.42,0-.19-.25,0-.35"/><path class="cls-18" d="M9.26,14.62a.5.5,0,0,1-.44.12c-.13,0-.24-.06-.26-.17s.1-.17.22-.19l.14,0a.5.5,0,0,1,.21,0c.14.05.22.13.13.26"/><path class="cls-19" d="M12.61,14.93c.05-.09.09-.2.23-.22s.26.12.3.25a.25.25,0,0,1,0,.17.16.16,0,0,1-.07.09.4.4,0,0,1-.34.06l-.08,0a.23.23,0,0,1,0-.31"/><path class="cls-20" d="M14.5,10.37a.77.77,0,0,1,.39-.09c.12,0,.24.07.25.18s-.06.16-.19.18l-.34,0c-.25-.11-.27-.17-.11-.32"/><path class="cls-21" d="M11.33,9.7c-.09-.16,0-.29.13-.4a.24.24,0,0,1,.28-.07.18.18,0,0,1,.1.23l-.07.15c0,.07-.1.1-.16.14s-.22.08-.28-.05"/><path class="cls-22" d="M9.41,14.17a.46.46,0,0,1,.52-.11c.15,0,.27.13.13.29a1.4,1.4,0,0,1-.51.09.26.26,0,0,1-.22-.16.12.12,0,0,1,.08-.11"/><path class="cls-23" d="M11.62,15.29c-.16,0-.35,0-.37-.14s.12-.33.37-.35a.44.44,0,0,1,.25.23.27.27,0,0,1-.11.23s-.08.06-.14,0"/><path class="cls-24" d="M10.35,15.24c.16,0,.33,0,.31.2s-.27.27-.43.25-.23-.15-.14-.27.19-.11.26-.18Z"/><path class="cls-25" d="M12.17,9.6a.41.41,0,0,1,.38-.34c.13,0,.19.07.18.18a.42.42,0,0,1-.39.32c-.13,0-.17-.08-.17-.16"/><path class="cls-26" d="M15.66,12.29a.54.54,0,0,1,.31,0c.15.06.31.15.23.3s-.26.1-.41,0a.17.17,0,0,1-.22-.07c-.05-.11-.1-.22.09-.29"/><path class="cls-27" d="M14.88,14.38c0-.11.07-.18.21-.15a.29.29,0,0,1,.25.28.18.18,0,0,1-.14.24.24.24,0,0,1-.27-.11.17.17,0,0,1,0-.15.08.08,0,0,1,0-.11"/><path class="cls-28" d="M13.78,15.2l.12.11a.39.39,0,0,1,0,.28c-.07.08-.09.22-.26.18s-.17-.22-.18-.35,0-.11,0-.16a.26.26,0,0,1,.29-.06"/><path class="cls-29" d="M15.69,13c.2,0,.41.17.42.31s-.07.16-.21.15-.4-.18-.38-.32.1-.13.17-.14"/><path class="cls-30" d="M15.27,13.91c0-.1,0-.22.11-.27a.28.28,0,0,1,.28,0,.31.31,0,0,1,.15.29.17.17,0,0,1-.13.13.38.38,0,0,1-.34-.15l-.07-.06Z"/><path class="cls-31" d="M9.08,10.78a.25.25,0,0,1-.15-.17c0-.13-.08-.29.12-.35s.26.08.32.19a.21.21,0,0,1,.05.2c-.05.14-.15.21-.34.13"/><path class="cls-32" d="M10.47,9.87a.37.37,0,0,1,0-.34.27.27,0,0,1,.3-.15c.14,0,.12.14.13.24s-.08.08,0,.13a.06.06,0,0,1,0,.06.38.38,0,0,1-.13.12c-.12,0-.23.06-.31-.06"/><path class="cls-33" d="M8.37,12A.41.41,0,0,1,8,11.73c0-.11.06-.17.19-.19a.41.41,0,0,1,.37.3c0,.12,0,.18-.17.18"/><path class="cls-34" d="M12.18,16l-.13,0c-.09,0-.19.06-.26,0a.16.16,0,0,1,0-.22.64.64,0,0,1,.08-.14l0,0s0,0,0-.06.31-.11.37.09-.08.23-.06.36Z"/><path class="cls-35" d="M11.46,15.58A.44.44,0,0,1,11,16c-.11,0-.19-.07-.18-.17a.47.47,0,0,1,.42-.32c.12,0,.18.07.18.11"/><path class="cls-36" d="M13.37,9.47c.14,0,.21,0,.22.15s-.22.29-.39.3S13,9.87,13,9.76s.2-.29.38-.29"/><path class="cls-37" d="M13.78,10A.72.72,0,0,1,14,9.82c.13,0,.27,0,.34.08s0,.2-.14.26l-.12,0a.34.34,0,0,1-.22,0c-.19-.05-.26-.13-.12-.28"/><path class="cls-38" d="M9.87,15.11c0,.07-.06.11-.15.14s-.37.07-.45-.08.1-.21.26-.25.24-.06.35,0,.08.12,0,.18"/><path class="cls-39" d="M9.07,11.43a.25.25,0,0,1,.39,0c.12.11.2.25,0,.38a.26.26,0,0,1-.37,0,1.27,1.27,0,0,1-.07-.37"/><path class="cls-40" d="M15.16,12.56c-.23,0-.42,0-.51-.21s.16-.17.3-.19.16,0,.24,0a.12.12,0,0,1,.09,0c.1.15.09.28-.12.36"/><path class="cls-41" d="M10.62,14.53c0,.18-.1.28-.32.31a.11.11,0,0,1-.13.06.33.33,0,0,1-.26-.23.16.16,0,0,1,.13-.18,1.13,1.13,0,0,1,.58,0"/><path class="cls-42" d="M14.88,14.38v.11c-.1.08-.09.23-.26.26s-.3-.1-.29-.27l.06-.09c.1-.17.23-.17.36,0s.07.09.13,0"/><path class="cls-43" d="M11,8.79c-.05.13-.07.3-.29.32S10.52,9,10.52,9s.06-.31.28-.34.13.09.16.18"/><path class="cls-44" d="M14,16.2c0,.13-.06.29-.27.3s-.17-.1-.16-.19,0-.3.27-.31.14.12.16.2"/><path class="cls-45" d="M12.5,16.58c0-.13.08-.28.3-.31s.14.06.15.14-.19.36-.32.35-.12-.09-.13-.18"/><path class="cls-46" d="M9.68,13.72c.08.27-.22.23-.37.32a.36.36,0,0,1-.21,0c-.1-.1-.29-.2,0-.32a1.19,1.19,0,0,1,.62,0"/><path class="cls-47" d="M9.86,9.24c0,.11,0,.27-.23.28s-.18-.11-.18-.21,0-.27.22-.29.16.12.19.22"/><path class="cls-48" d="M13.5,15.29c0,.05,0,.09-.05.13s-.19.16-.34.07a.09.09,0,0,1-.08,0,.17.17,0,0,1,0-.24V15.1a2,2,0,0,1,.22-.08h.05a.08.08,0,0,1,.08,0,.26.26,0,0,1,.09.28"/><path class="cls-49" d="M7.3,13.2c-.2,0-.36-.08-.41-.24s.08-.14.18-.12.37.07.41.24-.08.11-.18.12"/><path class="cls-50" d="M10.52,10.27a.44.44,0,0,1-.22.15c-.28-.08-.32-.27-.11-.45a.29.29,0,0,1,.27,0c.2.1.14.22.06.35Z"/><path class="cls-51" d="M9.8,10.77l-.11.05c-.2,0-.25-.06-.27-.18a.26.26,0,0,1,0-.19.22.22,0,0,1,.28-.12.24.24,0,0,1,.18.22.23.23,0,0,1-.12.22"/><path class="cls-52" d="M14.6,15.76c0-.14,0-.27.2-.26s.19.13.19.25-.06.24-.22.23-.17-.13-.17-.22"/><path class="cls-53" d="M10.2,14.89l.1-.05c.31.14.31.21,0,.4h0c-.16,0-.31,0-.38-.13s.06-.21.23-.22"/><path class="cls-54" d="M11.62,8.81c0-.15.19-.33.32-.32s.14.09.13.16a.35.35,0,0,1-.33.32c-.12,0-.12-.09-.12-.16"/><path class="cls-55" d="M9.41,11.18c-.12,0-.21.22-.38.08a.25.25,0,0,1,0-.4c.28-.11.35.09.46.22a.08.08,0,0,1,0,.1"/><path class="cls-56" d="M12.66,15.24h.08c.08.08,0,.17,0,.26s0,.13-.13.13-.25.06-.35,0,0-.21.05-.31l.06-.06a.27.27,0,0,1,.26,0"/><path class="cls-57" d="M15,13.72a.41.41,0,0,1,.27.19h0c0,.1,0,.21-.09.25s-.23,0-.31-.11-.11-.29.13-.32"/><path class="cls-58" d="M11.68,10.06V10a.17.17,0,0,1,0-.26.77.77,0,0,1,.21-.14c.1,0,.21,0,.26.06s0,.25-.16.34h0a.81.81,0,0,1-.27.05"/><path class="cls-59" d="M17.09,12.85c0,.08-.11.09-.2.08s-.4-.17-.37-.28.1-.09.19-.09.39.17.38.29"/><path class="cls-60" d="M8.75,12.2l.06.05a.3.3,0,0,1-.06.22.41.41,0,0,1-.45-.08.08.08,0,0,1,0-.1c0-.09,0-.17.09-.2s.24.05.35.11"/><path class="cls-61" d="M13.49,16c0,.13-.09.26-.27.27s-.17-.1-.15-.19.08-.27.27-.27.14.11.15.19"/><path class="cls-62" d="M14.2,15c0,.17-.14.27-.37.19s-.1-.1-.13-.16v-.06a.25.25,0,0,1,0-.07l.1-.07c0-.06.09-.08.16-.1.22,0,.24.13.2.27"/><path class="cls-63" d="M8.92,9.9c0,.12,0,.23-.17.23s-.21-.13-.22-.25,0-.23.19-.22.19.14.2.24"/><path class="cls-50" d="M10.41,9.38c0,.12,0,.26-.23.28s-.16-.1-.16-.2a.25.25,0,0,1,.23-.28c.14,0,.16.1.16.2"/><path class="cls-29" d="M15.63,12.56a.15.15,0,0,0,.16.09s0,0-.06,0c-.05.25-.13.28-.4.15l-.07,0a0,0,0,0,0,0,0l0-.19c.12-.15.27-.07.42,0"/><path class="cls-64" d="M14.4,15.64c0,.11,0,.25-.22.25s-.17-.1-.17-.19,0-.26.21-.27.16.11.18.21"/><path class="cls-65" d="M12.64,15.64l.09-.12a.09.09,0,0,1,.07,0c.13.08.29.15.26.32l-.09.11a.2.2,0,0,1-.22.09.16.16,0,0,1-.14-.17,1.2,1.2,0,0,1,0-.2"/><path class="cls-66" d="M9.53,14.85c-.15,0-.25-.09-.22-.23s.12-.13.22-.14h.18c.15,0,.24.09.22.23a.32.32,0,0,1-.4.14"/><path class="cls-67" d="M11.41,9.13a.28.28,0,0,1-.26.25C11,9.4,11,9.3,11,9.22a.29.29,0,0,1,.28-.3c.12,0,.14.08.13.21"/><path class="cls-68" d="M8.12,14.14c.14,0,.33,0,.34.18s-.17.15-.28.15-.3-.05-.3-.2.14-.11.24-.13"/><path class="cls-69" d="M16,11.25c.15,0,.32.05.34.18s-.11.15-.25.15-.3-.06-.32-.19.12-.13.23-.14"/><path class="cls-36" d="M13.12,10.19a.36.36,0,0,1,.55-.23c.1.22-.05.3-.26.36a.29.29,0,0,1-.3-.13Z"/><path class="cls-70" d="M8.8,15.15c-.12,0-.26,0-.25-.15s.16-.16.3-.16.27,0,.26.14-.16.16-.31.17"/><path class="cls-71" d="M12.77,9.06c-.08,0-.13-.05-.13-.13s.19-.3.33-.3.15,0,.15.12-.19.31-.35.31"/><path class="cls-72" d="M10.91,9.77v0a.39.39,0,0,1,.38,0,.17.17,0,0,1,0,.24.44.44,0,0,1-.21.16l-.16,0c-.05,0-.1-.07-.11-.13a.31.31,0,0,1,.06-.26"/><path class="cls-73" d="M14.68,9.74c-.11,0-.22,0-.2-.14s.18-.18.33-.19.23,0,.21.12-.18.19-.34.21"/><path class="cls-74" d="M15.28,12.21l-.06,0a0,0,0,0,1-.05,0c0-.06-.08-.11-.07-.18a.3.3,0,0,1,.41-.05c.11.09.34.16.1.32a.23.23,0,0,1-.33,0"/><path class="cls-75" d="M8.89,15.3c.12,0,.26,0,.25.14s-.19.18-.33.19-.24,0-.23-.14.18-.16.31-.19"/><path class="cls-76" d="M8.07,14.93c-.17,0-.33,0-.34-.17s.15-.16.26-.14.32,0,.32.17-.14.13-.24.14"/><path class="cls-77" d="M14.59,11.94a.15.15,0,0,1-.14-.19c.11-.15.34-.09.49-.19a.17.17,0,0,1,.14.06.22.22,0,0,1,.07.17c-.13.21-.35.17-.56.15"/><path class="cls-78" d="M10.3,10.46c.2.24.17.41-.11.54a.58.58,0,0,1-.19-.52c.09-.1.19-.07.3,0"/><path class="cls-79" d="M7.36,12.35c-.17,0-.38-.15-.38-.27S7,12,7.12,12s.39.15.4.26-.07.11-.16.12"/><path class="cls-80" d="M16.86,13.64c0,.07,0,.13-.15.12a.36.36,0,0,1-.35-.26c0-.08,0-.14.14-.13a.39.39,0,0,1,.36.27"/><path class="cls-81" d="M9.51,9.91c0,.11,0,.22-.19.22s-.19-.12-.19-.24,0-.22.18-.22.18.14.2.24"/><path class="cls-82" d="M12.42,9.06a.34.34,0,0,1-.31.27A.11.11,0,0,1,12,9.19a.34.34,0,0,1,.3-.29c.12,0,.15.07.15.16"/><path class="cls-83" d="M11.19,14.94a.38.38,0,0,1-.46.17c-.14,0-.19-.13-.14-.24s0,0,0,0a.58.58,0,0,1,.39-.05c.1,0,.19,0,.18.15"/><path class="cls-84" d="M11.44,16.58a.37.37,0,0,1,.35-.28c.12,0,.13.09.11.16a.33.33,0,0,1-.35.26c-.13,0-.09-.08-.11-.14"/><path class="cls-85" d="M15.77,10.05c.09,0,.18.08.13.16s-.21.13-.35.12-.21,0-.23-.12,0-.16.16-.16a.48.48,0,0,1,.29,0"/><path class="cls-86" d="M10.58,16.53c-.08,0-.15,0-.13-.12s.13-.24.31-.27.16,0,.17.1-.18.29-.35.29"/><path class="cls-87" d="M15.4,15c0-.09,0-.2.17-.19a.25.25,0,0,1,.24.26.16.16,0,0,1-.17.19c-.19,0-.2-.15-.24-.26"/><path class="cls-88" d="M11.61,16a.34.34,0,0,1-.3.27c-.11,0-.18,0-.16-.13a.34.34,0,0,1,.31-.27c.1,0,.14.05.15.13"/><path class="cls-89" d="M15.22,15.13c0,.1,0,.2-.18.19s-.21-.14-.21-.26,0-.19.18-.18.19.14.21.25"/><path class="cls-73" d="M13.76,9.31c-.11,0-.19,0-.17-.11s.15-.23.33-.25.19,0,.17.12-.16.22-.33.24"/><path class="cls-90" d="M7.48,11.17c.16,0,.27.12.29.27s0,.13-.15.13-.32-.17-.31-.29.06-.12.17-.11"/><path class="cls-91" d="M14.79,10.19c-.12,0-.25,0-.23-.13s.16-.18.31-.18.24,0,.23.15-.17.16-.31.16"/><path class="cls-92" d="M12.18,16c.11,0,.23-.14.33,0a.21.21,0,0,1-.08.28c-.06.05-.14.14-.24.1s-.09-.16-.06-.24a.88.88,0,0,1,0-.15Z"/><path class="cls-93" d="M16.16,14.13a.31.31,0,0,1,.26.28c0,.08-.05.14-.16.12a.27.27,0,0,1-.27-.28c0-.08,0-.13.17-.12"/><path class="cls-94" d="M8.24,10.67c0,.08,0,.16-.14.15a.28.28,0,0,1-.28-.26A.12.12,0,0,1,8,10.41c.21,0,.24.14.28.26"/><path class="cls-95" d="M9.66,15.37c.12,0,.24,0,.22.12s-.14.18-.29.2-.22,0-.22-.12.16-.18.29-.2"/><path class="cls-96" d="M9.69,16.15c-.11,0-.21,0-.19-.12s.17-.21.34-.22.19,0,.18.12-.17.2-.33.22"/><path class="cls-97" d="M16.33,13.18a.3.3,0,0,1-.27-.24c0-.09.07-.13.17-.11s.31.09.33.25-.07.11-.23.1"/><path class="cls-98" d="M8.4,10.48c0-.09,0-.18.18-.16s.21.15.22.27a.14.14,0,0,1-.16.15c-.18,0-.22-.14-.24-.26"/><path class="cls-99" d="M9.69,10.85a.33.33,0,0,1,.23.39.18.18,0,0,1-.23.16.57.57,0,0,1-.13-.54.15.15,0,0,1,.13,0"/><path class="cls-100" d="M9.69,9.82c.17-.17.29-.11.4.06a.28.28,0,0,1-.11.36c-.31,0-.26-.25-.29-.42"/><path class="cls-73" d="M14,9.42c.12,0,.22,0,.2.11s-.14.2-.3.21-.2,0-.2-.1.16-.21.3-.22"/><path class="cls-101" d="M13.78,14.89l0,0a.39.39,0,0,1-.39-.41c.18-.16.3-.11.39.07s0,.19,0,.29"/><path class="cls-93" d="M15.84,14.49c0,.09,0,.18-.15.16a.25.25,0,0,1-.25-.27.13.13,0,0,1,.16-.14.26.26,0,0,1,.24.25"/><path class="cls-102" d="M8.31,12.29v.1c.07,0,.1.06,0,.12a.58.58,0,0,1-.5,0c-.06-.07-.11-.14,0-.22a.28.28,0,0,1,.28,0,.37.37,0,0,0,.21,0"/><path class="cls-103" d="M8.48,10.91a.3.3,0,0,1,.39.25c0,.14-.06.21-.22.23l-.07,0c-.07-.14-.19-.28-.1-.45"/><path class="cls-104" d="M7.82,12.12a.31.31,0,0,1-.29-.23c0-.1,0-.15.16-.13s.28.1.3.24,0,.13-.17.12"/><path class="cls-105" d="M13.57,17.14c0-.12.06-.26.24-.27s.13.09.11.17,0,.25-.23.26-.12-.09-.12-.16"/><path class="cls-106" d="M11.07,8c0,.11-.08.24-.26.26s-.12-.08-.11-.15.08-.26.25-.28.12.08.12.17"/><path class="cls-107" d="M16.2,11.1c-.13,0-.23-.08-.19-.19s.16-.1.27-.1.26,0,.32.14-.26.11-.4.15"/><path class="cls-108" d="M13.34,14.53c.1.16.16.33.39.41,0,0,0,0,0,0a.22.22,0,0,1-.31,0h-.08c-.08-.16-.18-.33,0-.49"/><path class="cls-109" d="M12.64,17.26a.32.32,0,0,1-.26.3c-.11,0-.12-.07-.11-.13a.3.3,0,0,1,.28-.29c.09,0,.08.08.09.12"/><path class="cls-110" d="M8.47,13.72c0-.09-.1-.14-.1-.22a.62.62,0,0,1,.55,0l.05,0c0,.19,0,.23-.32.24a.22.22,0,0,1-.18-.06"/><path class="cls-111" d="M9.69,8.42c0,.11,0,.23-.19.26s-.14-.09-.14-.17,0-.23.19-.25.13.08.14.16"/><path class="cls-112" d="M12.19,8.13c-.11,0-.15,0-.15-.09a.34.34,0,0,1,.27-.31c.09,0,.14,0,.13.09a.39.39,0,0,1-.25.31"/><path class="cls-113" d="M13.67,10.63l-.16.1a.48.48,0,0,1-.29,0c-.08,0-.12-.07-.11-.14a1.56,1.56,0,0,1,.61-.19c.07,0,.09,0,.1.09a.16.16,0,0,1-.15.14"/><path class="cls-114" d="M7.14,15.07c-.14,0-.29,0-.3-.15s.12-.12.22-.11.28,0,.3.15-.13.1-.22.11"/><path class="cls-115" d="M15.53,11.94l0-.09c.12-.16.33-.14.51-.17s.15.12.08.21a.34.34,0,0,1-.31.09l-.23,0"/><path class="cls-116" d="M10.35,8.61c0,.1,0,.22-.21.23S10,8.75,10,8.67a.22.22,0,0,1,.2-.23c.12,0,.13.08.12.17"/><path class="cls-117" d="M15.21,16.48c0,.1-.05.21-.2.21s-.13-.11-.13-.2,0-.21.17-.21.14.12.16.2"/><path class="cls-118" d="M16.5,10.05c-.11,0-.24,0-.25-.12s.13-.13.23-.13.25,0,.26.12-.13.12-.24.13"/><path class="cls-119" d="M17.39,11.06c-.14,0-.29,0-.32-.16s.1-.12.19-.11.31,0,.33.17-.12.09-.2.1"/><path class="cls-120" d="M16.24,12.34c-.13,0-.25-.1-.18-.22s.23-.07.36,0,.16.07.17.16a.42.42,0,0,1-.35.09"/><path class="cls-121" d="M11.28,17.08c.11,0,.13,0,.13.1a.32.32,0,0,1-.27.27c-.1,0-.14,0-.13-.1a.37.37,0,0,1,.27-.27"/><path class="cls-122" d="M16,11.68c-.14.12-.35.08-.51.17-.11-.09-.08-.17,0-.26a.53.53,0,0,1,.49.09"/><path class="cls-123" d="M6.49,14a.41.41,0,0,1-.36-.17c0-.07.1-.13.19-.11s.32,0,.35.19-.11.08-.18.09"/><path class="cls-124" d="M11.5,8.17c.1,0,.13.07.11.13s-.08.26-.27.27a.1.1,0,0,1-.09-.14c0-.11.08-.23.25-.26"/><path class="cls-125" d="M8.37,13.37a.45.45,0,0,1-.51-.13c0-.13.15-.11.25-.12a1.53,1.53,0,0,1,.3,0c.16.09.16.17,0,.22"/><path class="cls-126" d="M13.36,16.74c0,.11-.06.23-.22.25a.1.1,0,0,1-.13-.12c0-.12.07-.25.23-.27s.1.08.12.14"/><path class="cls-127" d="M13.39,10.31c.13,0,.27,0,.33.1a1.8,1.8,0,0,1-.61.18s0-.08,0-.13a.24.24,0,0,1,.27-.15"/><path class="cls-128" d="M8.1,15.69c.11,0,.22,0,.2.12s-.16.14-.28.13-.21,0-.19-.12.17-.12.27-.13"/><path class="cls-129" d="M7.21,14.25c.12,0,.27,0,.27.17s-.12.1-.21.09-.28,0-.28-.16.12-.09.22-.1"/><path class="cls-130" d="M17.52,12.51c0,.08-.09.1-.17.08s-.3-.06-.31-.21.08-.09.16-.08a.38.38,0,0,1,.32.21"/><path class="cls-131" d="M9.41,11.07c0-.1,0-.18.17-.2,0,.18.13.35.11.53a.25.25,0,0,1-.28-.22v-.11"/><path class="cls-132" d="M16.43,10.37c.11,0,.26,0,.25.13a.22.22,0,0,1-.24.13c-.11,0-.23,0-.23-.15s.12-.1.22-.11"/><path class="cls-133" d="M6.47,11.91a.33.33,0,0,1-.32-.22c0-.06,0-.11.1-.1a.36.36,0,0,1,.33.23c0,.06,0,.09-.11.09"/><path class="cls-134" d="M16.53,11.94c-.09,0-.14-.11-.1-.19s.15-.08.24-.06.2,0,.26.1-.22.18-.4.15"/><path class="cls-135" d="M6.81,12.56a.33.33,0,0,1-.3-.21c0-.06,0-.1.12-.09s.31.08.34.23-.07.07-.16.07"/><path class="cls-136" d="M14.5,16.36c0,.12,0,.24-.19.24s-.13-.1-.12-.17,0-.21.17-.23.12.1.14.16"/><path class="cls-137" d="M12.19,16.84a.3.3,0,0,1-.25.26c-.1,0-.12-.05-.11-.11a.29.29,0,0,1,.25-.26c.08,0,.1.05.11.11"/><path class="cls-138" d="M8.81,13.06c.23,0,.47-.05.6.17a1,1,0,0,1-.62,0,.14.14,0,0,1-.08-.13.11.11,0,0,1,.1-.08"/><path class="cls-139" d="M17.68,13c.14,0,.28.08.31.23s0,.09-.12.09-.36-.16-.34-.25.07-.07.15-.07"/><path class="cls-140" d="M8.45,13.18c-.2,0-.41,0-.59.06C7.73,13.07,7.78,13,8,13s.22.09.35.05a.08.08,0,0,1,.07,0,.13.13,0,0,1,0,.12"/><path class="cls-141" d="M15.55,15.74c0,.08,0,.18-.15.18s-.16-.1-.17-.19,0-.16.13-.17.16.09.19.18"/><path class="cls-142" d="M8.51,9.23c0,.08,0,.19-.16.18A.17.17,0,0,1,8.2,9.2c0-.08,0-.18.15-.18s.13.12.16.21"/><path class="cls-143" d="M6.71,13.27a.3.3,0,0,1,.32.18c0,.06-.07.09-.13.08s-.32,0-.35-.19.09-.06.16-.07"/><path class="cls-144" d="M9.2,9.19c0,.1,0,.2-.15.21s-.15-.1-.15-.17S8.9,9,9,9s.15.09.16.17"/><path class="cls-145" d="M8.71,12.79l0-.14a.67.67,0,0,1,.6,0s.07.08,0,.14a.64.64,0,0,1-.51,0H8.75a.08.08,0,0,1,0,0"/><path class="cls-146" d="M15.45,9.29c-.1,0-.19,0-.19-.1s.13-.16.26-.16.18,0,.18.09-.14.14-.25.17"/><path class="cls-147" d="M8,15.38c-.12,0-.25,0-.25-.13s.12-.11.21-.11.25,0,.26.11-.12.12-.22.13"/><path class="cls-148" d="M15.81,9.68a.23.23,0,0,1-.23.15c-.11,0-.23,0-.22-.12s.14-.12.24-.13a.18.18,0,0,1,.21.1"/><path class="cls-149" d="M7.72,13.9c.09.1,0,.17-.1.18s-.38,0-.46-.18a.65.65,0,0,1,.56,0"/><path class="cls-150" d="M11.1,16.7a.3.3,0,0,1-.27.23.08.08,0,0,1-.1-.1A.29.29,0,0,1,11,16.6a.08.08,0,0,1,.09.1"/><path class="cls-151" d="M11.19,14.94c-.15-.18-.38-.06-.57-.1a.41.41,0,0,1,.29-.18c.25,0,.36.07.28.28"/><path class="cls-152" d="M13.62,8.1a.36.36,0,0,1-.28.23c-.07,0-.13,0-.11-.09A.3.3,0,0,1,13.51,8c.08,0,.11,0,.11.11"/><path class="cls-153" d="M17.8,12.17a.31.31,0,0,1-.3-.19s0-.07.07-.08A.39.39,0,0,1,18,12c0,.11-.08.12-.17.14"/><path class="cls-154" d="M9.91,10.55,10,10.5l.17.5c-.16,0-.21-.07-.28-.14a.34.34,0,0,1,0-.31"/><path class="cls-155" d="M12.79,8.35a.29.29,0,0,1-.26.24c-.08,0-.13,0-.11-.1a.3.3,0,0,1,.26-.25c.08,0,.11,0,.11.11"/><path class="cls-156" d="M9.29,12.65h-.6c0-.08.05-.12.06-.18.22,0,.43,0,.54.18"/><path class="cls-157" d="M8.79,14a1,1,0,0,1,.34,0c.06,0,.13,0,.18,0a.06.06,0,0,1,0,0c.06.11,0,.13-.13.14a.58.58,0,0,1-.41-.05c0-.05,0-.09,0-.14"/><path class="cls-158" d="M17,11.35c.13,0,.27,0,.3.14s-.1.09-.18.09-.3,0-.33-.16.13-.05.21-.07"/><path class="cls-159" d="M12,15.39l-.15.21h0c-.2,0-.27-.11-.22-.27v0l.12,0c.2-.07.23,0,.26.15"/><path class="cls-80" d="M16.93,13.31c0-.08.06-.1.13-.09a.31.31,0,0,1,.29.21c0,.07-.07.1-.15.08a.33.33,0,0,1-.27-.2"/><path class="cls-59" d="M17.59,14.06c0,.08,0,.12-.09.12a.32.32,0,0,1-.3-.23s0-.09.09-.09a.34.34,0,0,1,.3.2"/><path class="cls-160" d="M16.22,15.7c0,.07,0,.17-.12.16s-.17-.1-.18-.19,0-.17.12-.16.17.1.18.19"/><path class="cls-161" d="M8.17,10.13A.21.21,0,0,1,8,9.94c0-.08,0-.17.13-.17s.16.1.18.19,0,.14-.12.17"/><path class="cls-162" d="M7.43,9.88a.23.23,0,0,1,.2.23.1.1,0,0,1-.11.12A.23.23,0,0,1,7.31,10a.11.11,0,0,1,.12-.12"/><path class="cls-90" d="M6.76,10.72a.28.28,0,0,1,.25.22c0,.06,0,.11-.1.1a.25.25,0,0,1-.26-.21c0-.06,0-.1.11-.11"/><path class="cls-163" d="M7.07,11.7c-.13,0-.23-.09-.26-.21s.05-.11.14-.1.23.1.24.22,0,.09-.12.09"/><path class="cls-164" d="M8.91,16.06c-.09,0-.17,0-.16-.1s.12-.14.23-.14.19,0,.18.08-.13.15-.25.16"/><path class="cls-165" d="M7.43,12.74c-.08-.05-.09-.12,0-.17a.2.2,0,0,1,.2,0c.13,0,.24.08.27.2a.48.48,0,0,1-.45,0"/><path class="cls-166" d="M15.44,11.4c.06.27-.18.22-.37.23l-.13-.05h0s0,0,0-.05v0a.74.74,0,0,1,.51-.1h0"/><path class="cls-167" d="M15.79,10.58c.14.17,0,.21-.16.23a.34.34,0,0,1-.31-.07c.08-.21.27-.19.47-.16"/><path class="cls-168" d="M16.77,14.68a.26.26,0,0,1,.22.2s0,.13-.08.13a.23.23,0,0,1-.25-.19c0-.07,0-.12.11-.14"/><path class="cls-169" d="M9,16.6c-.08,0-.16,0-.14-.1s.15-.16.28-.17.14,0,.12.09-.12.17-.26.18"/><path class="cls-170" d="M10.31,16.89a.33.33,0,0,1-.28.22c-.07,0-.13,0-.11-.1a.28.28,0,0,1,.27-.21c.09,0,.12,0,.12.09"/><path class="cls-171" d="M14.66,8.55a.28.28,0,0,1-.27.17c-.08,0-.14,0-.12-.08s.13-.19.28-.2.12,0,.11.11"/><path class="cls-172" d="M8.66,13.73s0,.08.06.12c-.18.13-.4,0-.58.08H8.09c-.05-.2,0-.25.38-.22h.19"/><path class="cls-173" d="M16.13,14.8c.13,0,.2.11.2.21s0,.14-.1.13a.19.19,0,0,1-.2-.2c0-.06,0-.12.1-.14"/><path class="cls-174" d="M10,10.23c-.05.09-.14,0-.21.06a.3.3,0,0,1-.06-.47c.12.12.06.32.27.41"/><path class="cls-175" d="M8.75,14V14a.55.55,0,0,1-.66-.1h0a1.11,1.11,0,0,1,.65,0"/><path class="cls-73" d="M14.83,9.08a.31.31,0,0,1-.3.16c-.07,0-.12,0-.1-.1s.13-.15.26-.16a.11.11,0,0,1,.14.1"/><path class="cls-176" d="M6.3,12.69c0,.06.19.09.11.18s-.18,0-.27,0-.21-.06-.21-.18a.44.44,0,0,1,.37,0"/><path class="cls-177" d="M8.71,12.79l0,0,0,.08a.49.49,0,0,1-.51,0c0-.07,0-.13,0-.18a.9.9,0,0,1,.4,0"/><path class="cls-178" d="M14.18,10.68l.09.05a.68.68,0,0,1-.6.18c0-.07,0-.13.05-.18a.23.23,0,0,1,.19-.1.41.41,0,0,1,.27,0"/><path class="cls-179" d="M8.27,12.92h.51c.09,0-.07.12,0,.15l-.05,0a.62.62,0,0,1-.33,0h0l-.11-.13"/><path class="cls-180" d="M13.81,11.05c-.07,0-.12,0-.13-.1a2.43,2.43,0,0,1,.66-.14s0,.07,0,.1l-.21.14a.86.86,0,0,1-.32,0"/><path class="cls-181" d="M9.36,14.26l-.16.05a.39.39,0,0,1-.28,0,.23.23,0,0,1-.16-.14c.18,0,.4.09.54-.09l.11.09-.05.09"/><path class="cls-182" d="M8,13.5c.07.2-.1.18-.24.17a.29.29,0,0,1-.25-.12c.13-.2.32-.1.49-.05"/><path class="cls-183" d="M8.36,12.47c0,.08.05.17,0,.23a.57.57,0,0,1-.46-.18,2.15,2.15,0,0,0,.51,0"/><path class="cls-184" d="M14.44,10.81a.6.6,0,0,1,.33-.09l.18.08c-.1.21-.3.18-.51.15h0a.11.11,0,0,1,0-.14"/><path class="cls-185" d="M9.42,13.32c0,.16-.18.16-.33.15l-.28-.06,0,0s0-.05,0-.07a1,1,0,0,1,.6,0"/><path class="cls-186" d="M9,13.72a.57.57,0,0,1,.08-.13c.21,0,.44-.05.59.13H9"/><path class="cls-187" d="M15.4,11.39a1.71,1.71,0,0,1-.51.1c-.05-.1,0-.15.11-.19s.27-.06.38,0a.08.08,0,0,1,0,0"/><path class="cls-188" d="M13.06,15.81c0-.13-.2-.19-.27-.3s.19-.09.3,0l0,0c0,.11.07.22,0,.32"/><path class="cls-189" d="M8,13.5c-.16,0-.34-.05-.49.05-.12-.13,0-.19.12-.19A.38.38,0,0,1,8,13.5"/><path class="cls-190" d="M14.39,10.37l-.08.13c-.13,0-.25.13-.41.08s-.08,0-.07-.08a.06.06,0,0,1,0,0,.64.64,0,0,1,.49-.14l.06,0"/><path class="cls-191" d="M15.11,11.75c.11.07,0,.15,0,.23a.56.56,0,0,1-.52,0c.16-.08.43,0,.52-.19"/><path class="cls-192" d="M9.42,13.32a1.85,1.85,0,0,0-.62,0h0l0-.14h.65s.05.06,0,.09"/><path class="cls-193" d="M7.72,13.9H7.16c.09-.19.31-.2.56,0"/><path class="cls-194" d="M8.48,10.91a1.4,1.4,0,0,1,.1.45c-.26-.18-.29-.3-.1-.45"/><path class="cls-195" d="M16.53,11.94c.15,0,.31,0,.4-.15.09,0,.14.11.08.19s-.13.06-.21,0a.4.4,0,0,1-.27-.09"/><path class="cls-196" d="M14.33,10.32l-.49.14c0-.12.09-.16.2-.19s0,0,.07,0,.18,0,.22.09"/><path class="cls-197" d="M11.62,15.33a.37.37,0,0,0,.22.27v.05c-.1,0-.24.07-.31-.05a.19.19,0,0,1,.09-.27"/><path class="cls-198" d="M15.79,10.58a.83.83,0,0,0-.47.16c-.15-.18,0-.21.17-.23a.35.35,0,0,1,.3.07"/><path class="cls-199" d="M10.62,14.53H10c0-.06,0-.08.08-.08s.39-.12.52.08"/><path class="cls-200" d="M15.17,12.16l.05,0c-.21,0-.43,0-.57.16-.09-.19.06-.23.24-.24a1.37,1.37,0,0,1,.28.05"/><path class="cls-201" d="M7.43,12.74h.45c.07.14,0,.14-.17.14a.35.35,0,0,1-.28-.14"/><path class="cls-202" d="M9.52,14.53c.13,0,.05-.09,0-.13a2,2,0,0,1,.54-.05l0,.05c-.07.11-.2.1-.32.12H9.52"/><path class="cls-203" d="M14.32,10.82a2.28,2.28,0,0,1-.64.13v0l.6-.17a.06.06,0,0,1,.06,0s0,0,0,0l0,0"/><path class="cls-204" d="M8.81,12.83a4.21,4.21,0,0,1,.5,0c-.11.18-.25.19-.5,0"/><path class="cls-205" d="M5.08,12.31a.28.28,0,0,1,.21.13s0,.07-.08.06a.23.23,0,0,1-.2-.12s0-.07.07-.07"/><path class="cls-206" d="M18.52,10.94c0,.07-.06.08-.11.08s-.18,0-.2-.1.06-.06.11-.06.17,0,.2.08"/><path class="cls-207" d="M16.2,11.1c.1-.11.3,0,.4-.15,0,.18-.08.22-.4.15"/><path class="cls-208" d="M19,12.34c0,.05-.07.05-.11,0s-.18,0-.19-.13.06-.05.1,0,.17,0,.2.13"/><path class="cls-209" d="M8.37,13.46l.11-.05a.53.53,0,0,1,.33,0h0c0,.05.11,0,.1.09H8.37v0"/><path class="cls-210" d="M11.24,7.09a.21.21,0,0,1-.13.16c-.08,0-.1,0-.09-.07s0-.15.15-.17.07,0,.07.08"/><path class="cls-211" d="M14.89,11.58h0c-.13.11-.34.1-.49.17.05-.22.26-.17.44-.17"/><path class="cls-212" d="M10.22,8c-.05,0-.08,0-.08-.08a.16.16,0,0,1,.13-.15.07.07,0,0,1,.07.08.16.16,0,0,1-.12.15"/><path class="cls-213" d="M6.29,15.07c0,.06-.06.07-.12.06s-.15,0-.17-.07S6,15,6.1,15a.2.2,0,0,1,.19.09"/><path class="cls-214" d="M18,11.62c-.08,0-.17,0-.18-.11s.06-.06.1,0,.18,0,.18.11-.06,0-.1,0"/><path class="cls-215" d="M9.07,11.43c.06.12.15.23.07.37-.13-.11-.19-.23-.07-.37"/><path class="cls-216" d="M5.29,13.65c.08,0,.18,0,.2.11s-.06.06-.11.06-.17,0-.19-.1.06-.06.1-.07"/><path class="cls-217" d="M14.42,17a.07.07,0,0,1,.08.08c0,.05,0,.12-.08.14s-.09,0-.09-.07a.14.14,0,0,1,.09-.15"/><path class="cls-218" d="M18.14,12.64c.07,0,.15,0,.17.12s0,.06-.09.05-.16,0-.18-.12.05,0,.1,0"/><path class="cls-219" d="M14.44,11c.17,0,.37,0,.51-.15l0,0v.08a1.07,1.07,0,0,1-.44.13l-.11,0v0"/><path class="cls-220" d="M6.37,14.48c-.08,0-.16,0-.17-.09s.06-.06.1-.06.16,0,.17.08,0,.06-.1.07"/><path class="cls-221" d="M11.75,7.51c.07,0,.1,0,.08.07s0,.14-.14.15-.07,0-.06-.07a.2.2,0,0,1,.12-.15"/><path class="cls-222" d="M9.48,7.54c.07,0,.07.06.06.1s0,.13-.11.13-.07-.06-.07-.1,0-.12.12-.13"/><path class="cls-223" d="M5.85,12A.23.23,0,0,1,6,12.1s0,.06,0,.06-.18,0-.2-.13,0,0,.08,0"/><path class="cls-224" d="M17.27,10.31c.07,0,.16,0,.17.08s-.07.07-.13.06-.13,0-.15-.07.06-.06.11-.07"/><path class="cls-225" d="M17.35,9.65c.07,0,.15,0,.15.07s-.05.07-.11.07-.16,0-.16-.09.07,0,.12,0"/><path class="cls-226" d="M7.37,15.47s-.06.06-.11.07-.14,0-.15-.06.06-.07.11-.08a.15.15,0,0,1,.15.07"/><path class="cls-227" d="M13.12,17.53c0,.06,0,.14-.14.14s-.05-.05-.05-.09,0-.13.14-.13,0,.05,0,.08"/><path class="cls-228" d="M8.12,8.53c0,.06,0,.13-.1.12s-.08-.05-.08-.1,0-.1.09-.1.06.06.09.08"/><path class="cls-229" d="M13.14,7.64c.07.12,0,.18-.11.22s-.07,0-.07,0,.07-.15.18-.19"/><path class="cls-230" d="M5.63,11.32s0,.07-.08.06-.15-.06-.17-.13,0-.07.09-.05a.23.23,0,0,1,.16.12"/><path class="cls-231" d="M12.83,7c0,.13,0,.19-.15.23s-.06,0-.06-.05.07-.16.21-.18"/><path class="cls-232" d="M13.12,15c0-.12-.09-.25-.28-.28.3-.07.31.09.33.26,0,0,0,0-.05,0"/><path class="cls-233" d="M15.23,17.12c.07,0,.09,0,.09.09s0,.12-.1.13-.07,0-.07-.08,0-.12.08-.14"/><path class="cls-234" d="M16.19,8.85c-.05,0-.11,0-.12,0s.06-.09.12-.1.1,0,.11,0-.05.08-.11.09"/><path class="cls-235" d="M6,13.22s0,.06-.09.06a.21.21,0,0,1-.17-.09s0-.07.07-.07a.26.26,0,0,1,.19.1"/><path class="cls-236" d="M18.84,13.56s0,.07-.07.06-.17,0-.19-.13,0-.05.07,0a.21.21,0,0,1,.19.11"/><path class="cls-237" d="M16.45,16.19a.09.09,0,0,1,.11.08c0,.05,0,.1,0,.11s-.1,0-.12-.09a.09.09,0,0,1,.06-.1"/><path class="cls-238" d="M14.13,7.48A.19.19,0,0,1,14,7.6c-.05,0-.07,0-.05-.07a.16.16,0,0,1,.16-.12s.05,0,.05.07"/><path class="cls-239" d="M7.42,16.12a.16.16,0,0,1-.15.07s-.11,0-.1-.06.09-.08.17-.08a.08.08,0,0,1,.08.07"/><path class="cls-240" d="M16.24,12.34l.35-.09c0,.24-.2.13-.35.09"/><path class="cls-241" d="M18.26,14.55s0,.06-.07,0-.14-.06-.15-.13,0,0,.08,0a.15.15,0,0,1,.14.12"/><path class="cls-242" d="M15.06,8.16c-.05,0-.08,0-.07-.06a.15.15,0,0,1,.15-.1s.07,0,.06.06-.07.09-.14.1"/><path class="cls-243" d="M17.85,13.67a.18.18,0,0,1,.16.11s0,.07-.07.06-.13-.05-.15-.12,0,0,.06-.05"/><path class="cls-244" d="M15.77,16.37s0,.08-.08.08a.1.1,0,0,1-.09-.12s0-.09.08-.08.09.06.09.12"/><path class="cls-245" d="M6.3,12.69H5.93c.12-.13.14-.13.37,0"/><path class="cls-246" d="M16.26,9.48s-.09,0-.09-.05.07-.08.13-.08.12,0,.11.06-.08.07-.15.07"/><path class="cls-247" d="M7.05,9.51c0,.05,0,.09-.07.08a.12.12,0,0,1-.1-.09.07.07,0,0,1,.06-.09c.09,0,.09.06.11.1"/><path class="cls-248" d="M7.71,9.31a.1.1,0,0,1,.11.08s0,.1-.06.11a.1.1,0,0,1-.1-.09c0-.05,0-.08,0-.1"/><path class="cls-249" d="M8.92,8.54c0,.05,0,.11-.07.11s-.1-.06-.09-.12a.11.11,0,0,1,.1-.09c.08,0,.06.06.06.1"/><path class="cls-250" d="M10.4,17.44s-.09,0-.08,0,0-.12.14-.14a0,0,0,0,1,.06,0,.16.16,0,0,1-.12.13"/><path class="cls-251" d="M15.2,8.77s-.08,0-.08,0,.05-.1.12-.1.09,0,.08.07-.07.06-.12.07"/><path class="cls-252" d="M11.86,14.88l0,.14c-.11,0-.14-.15-.21-.22a.22.22,0,0,1,.23.08"/><path class="cls-253" d="M6.26,10.4s0,.06-.07.06-.1-.05-.12-.1,0-.07.06-.06a.17.17,0,0,1,.13.1"/><path class="cls-254" d="M8.55,16.89a.13.13,0,0,1-.13.09c-.05,0-.09,0-.08-.06s.06-.07.12-.09a.07.07,0,0,1,.09.06"/><path class="cls-255" d="M17.49,15.38s0,.07,0,.07a.11.11,0,0,1-.13-.09.05.05,0,0,1,0-.07c.09,0,.11.05.13.09"/><path class="cls-256" d="M8.33,16.22c.05,0,.1,0,.09.06s-.06.07-.12.08-.09,0-.09-.06.06-.07.12-.08"/><path class="cls-257" d="M17.8,12.17,18,12c.09,0,.09.08.05.12a.17.17,0,0,1-.22,0"/><path class="cls-258" d="M6.41,11.15a.06.06,0,0,1-.08,0c-.06,0-.11-.06-.11-.12s0,0,.07,0a.19.19,0,0,1,.12.11"/><path class="cls-259" d="M16.71,15.48s0,.08-.06.07-.08,0-.09-.09,0-.07.07-.07a.08.08,0,0,1,.08.09"/><path class="cls-260" d="M13.78,14.89c-.1-.09,0-.19,0-.29.09.05,0,.16.11.2l-.06.09"/><path class="cls-261" d="M13.89,15.59a2.62,2.62,0,0,1,0-.28.2.2,0,0,1,0,.28"/><path class="cls-262" d="M14.77,10.69a.34.34,0,0,1-.17,0H15l-.18,0"/><path class="cls-263" d="M13.22,10.73h.29a.28.28,0,0,1-.29,0"/><path class="cls-264" d="M15.77,10.05h-.29a.3.3,0,0,1,.29,0"/><path class="cls-265" d="M13.81,11.05h.32a.36.36,0,0,1-.32,0"/><path class="cls-266" d="M14.55,11a.93.93,0,0,1,.44-.12c-.08.18-.26.15-.44.12"/><path class="cls-267" d="M8.75,14H8.1c0-.14.17-.07.26-.08h.36a.08.08,0,0,1,0,.1"/><path class="cls-268" d="M14.17,10.6c-.1,0-.2,0-.28,0l.43-.05c0,.06-.1.07-.15.1"/><path class="cls-269" d="M13.88,10.68c.08-.07.19,0,.28,0l0,0h-.3"/><path class="cls-270" d="M8.81,13.41H8.48c.09-.07.21,0,.31,0h0a.09.09,0,0,0,0,.05"/></g></g></g></g><polygon class="cls-271" points="1.93 6.26 1.93 8.67 11.93 13.47 21.93 8.67 21.93 6.26 1.93 6.26"/></svg>