<svg id="ICONS" xmlns="http://www.w3.org/2000/svg" xmlns:xlink="http://www.w3.org/1999/xlink" viewBox="0 0 24 24"><defs><style>.cls-1{fill:none;}.cls-2{clip-path:url(#clip-path);}.cls-3{clip-path:url(#clip-path-2);}.cls-4{clip-path:url(#clip-path-3);}.cls-5{fill:#f73b20;}.cls-6{fill:#f73724;}.cls-7{fill:#eb4026;}.cls-8{fill:#f75729;}.cls-9{fill:#f73b25;}.cls-10{fill:#f74927;}.cls-11{fill:#eb452c;}.cls-12{fill:#f73320;}.cls-13{fill:#f73927;}.cls-14{fill:#eb3f26;}.cls-15{fill:#f86138;}.cls-16{fill:#f97745;}.cls-17{fill:#f85538;}.cls-18{fill:#f97d38;}.cls-19{fill:#e35544;}.cls-20{fill:#f84d3c;}.cls-21{fill:#f73b27;}.cls-22{fill:#ee5c46;}.cls-23{fill:#f84736;}.cls-24{fill:#ee5f49;}.cls-25{fill:#ed523b;}.cls-26{fill:#ee5b45;}.cls-27{fill-opacity:0;}.cls-28{clip-path:url(#clip-path-4);}.cls-29{clip-path:url(#clip-path-5);}.cls-30{clip-path:url(#clip-path-6);}.cls-31{fill:#1852a3;}.cls-32{fill:#f74724;}.cls-33{fill:#0399d9;}.cls-34{fill:#1f94c3;}.cls-35{fill:#198fcf;}.cls-36{fill:#fe9935;}.cls-37{fill:#f75421;}.cls-38{fill:#f7361d;}.cls-39{fill:#ea3b20;}.cls-40{fill:#23a08b;}.cls-41{fill:#1f94c4;}.cls-42{fill:#1f53a2;}.cls-43{fill:#61a74b;}.cls-44{fill:#219d97;}.cls-45{fill:#b04651;}.cls-46{fill:#f73e1f;}.cls-47{fill:#73a648;}.cls-48{fill:#27a37e;}.cls-49{fill:#39a953;}.cls-50{fill:#f7311d;}.cls-51{fill:#089ad9;}.cls-52{fill:#1a90cf;}.cls-53{fill:#249ca5;}.cls-54{fill:#0599d9;}.cls-55{fill:#1c91d0;}.cls-56{fill:#f9842b;}.cls-57{fill:#f75521;}.cls-58{fill:#fe9a37;}.cls-59{fill:#28a576;}.cls-60{fill:#2ca96a;}.cls-61{fill:#ea3c21;}.cls-62{fill:#e93c22;}.cls-63{fill:#44a950;}.cls-64{fill:#f98f2c;}.cls-65{fill:#0391d4;}.cls-66{fill:#4ea74d;}.cls-67{fill:#1d91cd;}.cls-68{fill:#f75525;}.cls-69{fill:#269ea0;}.cls-70{fill:#29a483;}.cls-71{fill:#8ea444;}.cls-72{fill:#f8712b;}.cls-73{fill:#259e9c;}.cls-74{fill:#c3a242;}.cls-75{fill:#f86328;}.cls-76{fill:#f8792b;}.cls-77{fill:#2196bf;}.cls-78{fill:#45a951;}.cls-79{fill:#f99437;}.cls-80{fill:#26a289;}.cls-81{fill:#2092d0;}.cls-82{fill:#f74127;}.cls-83{fill:#079ad9;}.cls-84{fill:#fe9b39;}.cls-85{fill:#2aa198;}.cls-86{fill:#1e96b8;}.cls-87{fill:#f98f31;}.cls-88{fill:#269bb3;}.cls-89{fill:#24a088;}.cls-90{fill:#57a74c;}.cls-91{fill:#f74924;}.cls-92{fill:#72a74a;}.cls-93{fill:#0a61b1;}.cls-94{fill:#51aa53;}.cls-95{fill:#f74f24;}.cls-96{fill:#0287cd;}.cls-97{fill:#3ea951;}.cls-98{fill:#56a950;}.cls-99{fill:#0168b9;}.cls-100{fill:#f86524;}.cls-101{fill:#fe9b38;}.cls-102{fill:#0b9cda;}.cls-103{fill:#f87d2c;}.cls-104{fill:#f8432f;}.cls-105{fill:#40a84f;}.cls-106{fill:#2ba96a;}.cls-107{fill:#c83f3a;}.cls-108{fill:#31ae55;}.cls-109{fill:#2193d0;}.cls-110{fill:#30ab68;}.cls-111{fill:#1d91cc;}.cls-112{fill:#fe9c3a;}.cls-113{fill:#e33f2a;}.cls-114{fill:#2aa57e;}.cls-115{fill:#1c90cf;}.cls-116{fill:#faaa36;}.cls-117{fill:#3caa54;}.cls-118{fill:#30a851;}.cls-119{fill:#069ad9;}.cls-120{fill:#f99933;}.cls-121{fill:#f87b29;}.cls-122{fill:#f86827;}.cls-123{fill:#2399b4;}.cls-124{fill:#fe9c3b;}.cls-125{fill:#f9992d;}.cls-126{fill:#fe9936;}.cls-127{fill:#2da29b;}.cls-128{fill:#294b96;}.cls-129{fill:#259bad;}.cls-130{fill:#2ea879;}.cls-131{fill:#9fa648;}.cls-132{fill:#f8742c;}.cls-133{fill:#e03b27;}.cls-134{fill:#54ab54;}.cls-135{fill:#0678c2;}.cls-136{fill:#f86329;}.cls-137{fill:#2699be;}.cls-138{fill:#dd402f;}.cls-139{fill:#20509f;}.cls-140{fill:#0591d4;}.cls-141{fill:#31ae5a;}.cls-142{fill:#0770bd;}.cls-143{fill:#7ba647;}.cls-144{fill:#baa03d;}.cls-145{fill:#2ea48f;}.cls-146{fill:#e53b24;}.cls-147{fill:#3fad59;}.cls-148{fill:#6daa51;}.cls-149{fill:#0c9bda;}.cls-150{fill:#f9812a;}.cls-151{fill:#804468;}.cls-152{fill:#fe9d3c;}.cls-153{fill:#047bc4;}.cls-154{fill:#eaa143;}.cls-155{fill:#249bac;}.cls-156{fill:#2ea96f;}.cls-157{fill:#c1a03c;}.cls-158{fill:#0a9bda;}.cls-159{fill:#c3a03e;}.cls-160{fill:#2897cd;}.cls-161{fill:#f99531;}.cls-162{fill:#a2a94f;}.cls-163{fill:#f9812e;}.cls-164{fill:#e99c39;}.cls-165{fill:#47aa53;}.cls-166{fill:#e94a33;}.cls-167{fill:#7fa546;}.cls-168{fill:#35b058;}.cls-169{fill:#45a74d;}.cls-170{fill:#0d88cd;}.cls-171{fill:#f86d27;}.cls-172{fill:#f59d3b;}.cls-173{fill:#7ca648;}.cls-174{fill:#0768b8;}.cls-175{fill:#23a27a;}.cls-176{fill:#1d91d0;}.cls-177{fill:#f9a33b;}.cls-178{fill:#fab43d;}.cls-179{fill:#fe9e3e;}.cls-180{fill:#39ab57;}.cls-181{fill:#e7a142;}.cls-182{fill:#095fb1;}.cls-183{fill:#6f4a77;}.cls-184{fill:#2193d1;}.cls-185{fill:#34ab57;}.cls-186{fill:#30ae51;}.cls-187{fill:#90a444;}.cls-188{fill:#1f92d0;}.cls-189{fill:#f86e28;}.cls-190{fill:#82a646;}.cls-191{fill:#c2a343;}.cls-192{fill:#e09d3a;}.cls-193{fill:#a54151;}.cls-194{fill:#d4a140;}.cls-195{fill:#894665;}.cls-196{fill:#76a84d;}.cls-197{fill:#9da444;}.cls-198{fill:#ee9c39;}.cls-199{fill:#714571;}.cls-200{fill:#b2a342;}.cls-201{fill:#95a445;}.cls-202{fill:#1156a8;}.cls-203{fill:#27a191;}.cls-204{fill:#a7a444;}.cls-205{fill:#d33d31;}.cls-206{fill:#0777c2;}.cls-207{fill:#baa23f;}.cls-208{fill:#89a546;}.cls-209{fill:#f9a134;}.cls-210{fill:#0584ca;}.cls-211{fill:#e1422f;}.cls-212{fill:#29a577;}.cls-213{fill:#874c6d;}.cls-214{fill:#59a84f;}.cls-215{fill:#0b8cd0;}.cls-216{fill:#dea243;}.cls-217{fill:#6eaa50;}.cls-218{fill:#97425a;}.cls-219{fill:#e09e3b;}.cls-220{fill:#cdac56;}.cls-221{fill:#4562a3;}.cls-222{fill:#2354a2;}.cls-223{fill:#1b98d6;}.cls-224{fill:#a9a74b;}.cls-225{fill:#0a66b5;}.cls-226{fill:#60b366;}.cls-227{fill:#257cc2;}.cls-228{fill:#f99731;}.cls-229{fill:#83ad56;}.cls-230{fill:#3ba6b1;}.cls-231{fill:#22a5dd;}.cls-232{fill:#67497a;}.cls-233{fill:#76b363;}.cls-234{fill:#f1ab56;}.cls-235{fill:#98617d;}.cls-236{fill:#57b468;}.cls-237{fill:#38aa8d;}.cls-238{fill:#faa64a;}.cls-239{fill:#fea750;}.cls-240{fill:#259da1;}.cls-241{fill:#309ebe;}.cls-242{fill:#a0a547;}.cls-243{fill:#16a0db;}.cls-244{fill:#48a6d9;}.cls-245{fill:#46b164;}.cls-246{fill:#0799d9;}.cls-247{fill:#23a5dd;}.cls-248{fill:#27a7de;}.cls-249{fill:#309bcf;}.cls-250{fill:#cba343;}.cls-251{fill:#fbbc51;}.cls-252{fill:#fab658;}.cls-253{fill:#fa8b3a;}.cls-254{fill:#48b865;}.cls-255{fill:#27a384;}.cls-256{fill:#fea751;}.cls-257{fill:#4db56c;}.cls-258{fill:#2b98d3;}.cls-259{fill:#3daf5e;}.cls-260{fill:#0c8ed1;}.cls-261{fill:#fe9d3d;}.cls-262{fill:#2c98d3;}.cls-263{fill:#2e9eb7;}.cls-264{fill:#269cac;}.cls-265{fill:#8c5677;}.cls-266{fill:#d64b40;}.cls-267{fill:#d75950;}.cls-268{fill:#855579;}.cls-269{fill:#5b4c82;}.cls-270{fill:#87a443;}.cls-271{fill:#c84844;}.cls-272{fill:#ba545b;}.cls-273{fill:#b2a94e;}.cls-274{font-size:5.56px;font-family:CoolveticaRg-Regular, Coolvetica;}.cls-275{letter-spacing:-0.03em;}</style><clipPath id="clip-path"><path d="M17-12.06c0-4.19-2.29-7.64-5.06-7.64s-5.07,3.45-5.07,7.64S17-7.87,17-12.06Z"/></clipPath><clipPath id="clip-path-2"><rect class="cls-1" x="7.59" y="-13.57" width="11.63" height="16.56" transform="translate(2.83 4.5) rotate(-21.26)"/></clipPath><clipPath id="clip-path-3"><rect class="cls-1" x="7.59" y="-13.57" width="11.62" height="16.56" transform="translate(2.83 4.5) rotate(-21.26)"/></clipPath><clipPath id="clip-path-4"><path d="M12.82,5.22C8,5.22,4,8.57,4,12.72s3.94,7.5,8.8,7.5,8.79-3.36,8.79-7.5S17.67,5.22,12.82,5.22Zm-1.71,13.5a5.85,5.85,0,0,1-5.67-6,5.84,5.84,0,0,1,5.67-6,5.83,5.83,0,0,1,5.66,6A5.84,5.84,0,0,1,11.11,18.72Z"/></clipPath><clipPath id="clip-path-5"><rect class="cls-1" x="9.61" y="5.72" width="10" height="14"/></clipPath><clipPath id="clip-path-6"><rect class="cls-1" x="9.61" y="5.72" width="10" height="14"/></clipPath></defs><path d="M17-12.06c0-4.19-2.29-7.64-5.06-7.64s-5.07,3.45-5.07,7.64S17-7.87,17-12.06Z"/><g class="cls-2"><g id="Illustration_1" data-name="Illustration 1"><g class="cls-3"><g class="cls-4"><path class="cls-5" d="M15.68-.3c.08.21,0,.52-.07.55s-.16-.09-.19-.2-.07-.46.07-.55.15.09.19.2"/><path class="cls-6" d="M14.65-.32c.06,0,.13,0,.17.14s0,.5-.09.54-.13,0-.18-.13,0-.5.1-.55"/><path class="cls-7" d="M13.74-.39c.08,0,.16,0,.2.11a.41.41,0,0,1-.11.46c-.07.06-.17,0-.21-.12a.38.38,0,0,1,.12-.45"/><path class="cls-8" d="M16.58.75c0-.17-.07-.37.06-.45s.14.08.16.18.09.4,0,.49-.14-.09-.19-.22"/><path class="cls-9" d="M15.62.85c.08,0,.14,0,.16.09a.5.5,0,0,1,0,.52c-.06.07-.13,0-.16-.1a.67.67,0,0,1,0-.51"/><path class="cls-10" d="M16.13.58C16,.58,16,.52,16,.42S15.89,0,16,0s.13.08.15.17.06.35-.05.45"/><path class="cls-11" d="M12.45.15c.07,0,.16,0,.2.09a.23.23,0,0,1-.11.31.12.12,0,0,1-.19-.08c-.07-.18,0-.25.1-.32"/><path class="cls-12" d="M14.53,1.32a.41.41,0,0,1,.09-.41s.11,0,.13.08a.42.42,0,0,1-.07.46c-.06,0-.11,0-.15-.13"/><path class="cls-13" d="M15,.71A.4.4,0,0,1,15.1.29c.05,0,.12,0,.14.1s0,.36-.06.45-.1,0-.15-.13"/><path class="cls-14" d="M13.47,1c0-.16,0-.28.12-.34s.11,0,.14.09,0,.31-.11.37-.11,0-.15-.12"/><path class="cls-7" d="M13,.26c0-.17,0-.28.14-.32s.12,0,.14.12a.25.25,0,0,1-.11.31c-.06,0-.12,0-.17-.11"/><path class="cls-15" d="M16.94,2.07c0-.09-.05-.21,0-.28s.09,0,.11.08.05.23,0,.29-.07,0-.1-.09"/><path class="cls-16" d="M17.21.44c.05,0,.09,0,.11.09s.06.2,0,.25-.08,0-.1-.08-.05-.2,0-.26"/><path class="cls-17" d="M16.31,1.62c-.06,0-.09,0-.11-.09s0-.21,0-.26.07,0,.09.09a.37.37,0,0,1,0,.26"/><path class="cls-18" d="M18.05.89C18,.88,18,.81,17.94.75s-.06-.19,0-.22.09.06.11.13,0,.18,0,.23"/><path class="cls-19" d="M10.77.21a.1.1,0,0,1-.15-.06c0-.07,0-.12.05-.13s.12,0,.17.07,0,.1-.07.12"/><path class="cls-20" d="M15.16,1.83a.27.27,0,0,1,0-.34.07.07,0,0,1,.07,0,.28.28,0,0,1,0,.32"/><path class="cls-21" d="M15.76,2.67a.35.35,0,0,1,0-.38s.05,0,.07,0,0,.26-.06.33"/><path class="cls-22" d="M12.12,1s.08,0,.11,0,0,.14,0,.17-.07,0-.1,0a.13.13,0,0,1,0-.18"/><path class="cls-23" d="M14.49,2.37c0-.09,0-.18.06-.22s.06,0,.07.08,0,.19-.06.22-.05,0-.07-.08"/><path class="cls-24" d="M13.39,1.67s.07,0,.08.06,0,.16-.06.19a.07.07,0,0,1-.08-.06c0-.1,0-.16.06-.19"/><path class="cls-25" d="M11.71.12s.07,0,.1,0a.12.12,0,0,1-.05.16.09.09,0,0,1-.13-.06c0-.09,0-.12.08-.14"/><path class="cls-26" d="M12.93.82s.07,0,.09.05A.13.13,0,0,1,13,1s-.09,0-.1-.07a.13.13,0,0,1,0-.15"/></g></g></g></g><g id="clock-outline"><rect class="cls-27" x="2.61" y="3.72" width="2" height="18"/><path d="M12.82,5.22C8,5.22,4,8.57,4,12.72s3.94,7.5,8.8,7.5,8.79-3.36,8.79-7.5S17.67,5.22,12.82,5.22Zm-1.71,13.5a5.85,5.85,0,0,1-5.67-6,5.84,5.84,0,0,1,5.67-6,5.83,5.83,0,0,1,5.66,6A5.84,5.84,0,0,1,11.11,18.72Z"/><g class="cls-28"><g id="Illustration_1-2" data-name="Illustration 1"><g class="cls-29"><g class="cls-30"><path class="cls-31" d="M16.59,11.54c-.07,0-.12.09-.19.09a.24.24,0,0,1-.27-.2.32.32,0,0,1,.14-.36.21.21,0,0,1,.35.1c.06.14.08.27,0,.37"/><path class="cls-32" d="M14.38,9.73a.63.63,0,0,1,0,.43c-.06.15-.15.25-.26.18A.32.32,0,0,1,14,10a.49.49,0,0,0,0-.12.56.56,0,0,1,.12-.23c.09-.08.17-.06.24,0a.11.11,0,0,1,0,.08"/><path class="cls-33" d="M16.94,13.35c0,.15,0,.35-.1.41s-.23,0-.3-.2a.39.39,0,0,1,0-.35.15.15,0,0,1,.24,0l.14.14s0,0,0,0"/><path class="cls-34" d="M16,15.78a.56.56,0,0,1-.14-.47c0-.11,0-.23.14-.25s.17,0,.2.18,0,.15.08.17a.36.36,0,0,1,0,.18c-.06.16-.12.31-.27.19"/><path class="cls-35" d="M16.59,15c-.05.14-.13.23-.24.14a.5.5,0,0,1-.14-.5c0-.19.14-.21.25-.16s.19.23.13.52"/><path class="cls-36" d="M12.28,12.54c0-.16,0-.35.14-.4s.21.07.27.22a.4.4,0,0,1,0,.37c-.07.1-.16.08-.24,0a.87.87,0,0,1-.12-.14s0,0-.05-.06"/><path class="cls-37" d="M13.87,9.89a.58.58,0,0,1-.07.62c-.15.15-.24.1-.26-.18,0-.1,0-.21,0-.32v0c.08-.17.18-.28.31-.08"/><path class="cls-38" d="M14.57,9.67c.11,0,.24-.17.31.05a.46.46,0,0,1-.1.48c-.06.09-.14.14-.23.06a.44.44,0,0,1-.06-.34c0-.1.09-.15.08-.26Z"/><path class="cls-39" d="M15.36,10.19s0,0,0,0-.23.28-.36.1a.4.4,0,0,1,0-.44c.11-.18.24-.16.37,0,0,0,0,0,0,0a.24.24,0,0,1-.06.25"/><path class="cls-35" d="M16.51,14.42c-.08-.17-.19-.34-.05-.54s.18-.07.26,0a.45.45,0,0,1,0,.55c-.1.09-.18.1-.24-.06"/><path class="cls-40" d="M14.57,16.24c.18-.37.24-.39.41-.12a.49.49,0,0,1-.05.44.22.22,0,0,1-.07.09c-.07.05-.15.08-.22,0a.37.37,0,0,1-.07-.43"/><path class="cls-41" d="M16.42,15.9a.63.63,0,0,1,.13.48.3.3,0,0,1-.16.26c-.09,0-.14-.08-.17-.19s0-.18,0-.27.07-.36.25-.28"/><path class="cls-42" d="M16.87,10.84h.23c.09,0,.15.11.17.25a.2.2,0,0,1-.13.23c-.1,0-.2.09-.3,0s-.14-.33,0-.47"/><path class="cls-43" d="M12.65,15.71c-.08.15-.19.21-.32.17a.25.25,0,0,1-.18-.23.22.22,0,0,1,.16-.25l.1,0a.2.2,0,0,1,.15,0,.24.24,0,0,1,.09.33"/><path class="cls-44" d="M15,16.12c0-.12.06-.25.17-.29s.18.16.21.33a.6.6,0,0,1,0,.23.56.56,0,0,1,0,.12.23.23,0,0,1-.25.08l0-.05a.51.51,0,0,1,0-.42"/><path class="cls-45" d="M16.4,10.14c.08-.07.17-.15.27-.11a.23.23,0,0,1,.18.23.19.19,0,0,1-.14.23l-.24.07c-.18-.14-.19-.22-.07-.42"/><path class="cls-46" d="M14.13,9.26a.58.58,0,0,1,.09-.52c0-.08.11-.17.2-.1a.33.33,0,0,1,.07.31,1.33,1.33,0,0,1-.05.19c0,.1-.07.13-.11.18s-.16.11-.2-.06"/><path class="cls-47" d="M12.76,15.12a.24.24,0,0,1,.37-.14.26.26,0,0,1,.09.38.62.62,0,0,1-.36.12.24.24,0,0,1-.16-.21.18.18,0,0,1,.06-.15"/><path class="cls-48" d="M14.33,16.6c-.11,0-.25,0-.26-.19s.09-.43.27-.46a.47.47,0,0,1,.17.3.53.53,0,0,1-.07.31s-.06.07-.11,0"/><path class="cls-49" d="M13.43,16.54c.11,0,.23,0,.22.25s-.19.35-.31.33-.16-.19-.1-.35.14-.14.19-.24Z"/><path class="cls-50" d="M14.73,9.13c0-.22.15-.46.27-.45s.13.1.13.24-.16.43-.28.41-.13-.09-.12-.2"/><path class="cls-51" d="M17.22,12.66a.27.27,0,0,1,.23,0,.37.37,0,0,1,.16.4c-.07.21-.19.14-.3.05s-.12,0-.15-.1-.08-.29.06-.38"/><path class="cls-52" d="M16.66,15.4c0-.14.05-.23.15-.2s.17.2.19.38,0,.26-.11.31-.14-.05-.19-.15a.41.41,0,0,1,0-.19.19.19,0,0,1,0-.15"/><path class="cls-53" d="M15.88,16.47l.08.16A.87.87,0,0,1,16,17c-.05.1-.07.29-.19.24s-.12-.29-.13-.47a.28.28,0,0,1,0-.2c.06-.08.12-.16.21-.09"/><path class="cls-54" d="M17.24,13.54c.15,0,.3.22.3.4s-.05.21-.14.21-.29-.24-.28-.42.07-.17.12-.19"/><path class="cls-55" d="M16.94,14.78c0-.13,0-.28.08-.36s.14,0,.2.07a.6.6,0,0,1,.11.39c0,.08,0,.14-.1.16s-.17-.08-.24-.19a.18.18,0,0,0,0-.07Z"/><path class="cls-56" d="M12.52,10.68a.41.41,0,0,1-.11-.23c0-.17-.05-.37.09-.46s.18.1.23.26a.42.42,0,0,1,0,.25c0,.19-.12.28-.25.18"/><path class="cls-57" d="M13.51,9.48a.86.86,0,0,1,0-.45c0-.13.1-.23.21-.18s.09.17.1.3-.06.11,0,.18a.09.09,0,0,1,0,.07.83.83,0,0,1-.09.16c-.09.06-.17.09-.23-.08"/><path class="cls-58" d="M12,12.31c-.11,0-.26-.21-.27-.39s0-.22.13-.24.26.2.27.39,0,.23-.13.24"/><path class="cls-59" d="M14.74,17.53a.25.25,0,0,0-.09,0c-.07,0-.14.07-.2,0a.36.36,0,0,1,0-.29l.06-.19,0,0a.15.15,0,0,1,0-.08c.1-.07.21-.15.26.11s-.06.31,0,.47Z"/><path class="cls-60" d="M14.22,17c0,.28-.18.53-.3.5s-.13-.09-.13-.21.19-.44.31-.42a.14.14,0,0,1,.12.13"/><path class="cls-61" d="M15.59,9c.09,0,.15.06.15.2s-.15.38-.28.38-.14,0-.14-.2.13-.38.27-.38"/><path class="cls-62" d="M15.88,9.61c0-.08.1-.17.19-.19s.19-.05.23.1a.31.31,0,0,1-.09.34l-.09.06A.17.17,0,0,1,16,10c-.13-.06-.18-.18-.08-.36"/><path class="cls-63" d="M13.09,16.36a.21.21,0,0,1-.11.18c-.13.08-.26.09-.32-.1s.07-.28.18-.33.17-.08.25,0a.17.17,0,0,1,0,.24"/><path class="cls-64" d="M12.52,11.52c.1-.17.2-.1.28,0a.48.48,0,0,1,0,.49c-.09.14-.19.11-.27,0a2.63,2.63,0,0,1,0-.49"/><path class="cls-65" d="M16.86,13c-.16.05-.3,0-.36-.27s.11-.23.21-.25.12,0,.18,0l.06,0a.38.38,0,0,1-.09.48"/><path class="cls-66" d="M13.62,15.6c0,.23-.07.37-.22.41s-.06.09-.1.07a.35.35,0,0,1-.19-.29c0-.11,0-.21.1-.25s.28-.08.41.06"/><path class="cls-67" d="M16.66,15.4v.15c-.07.09-.06.29-.18.33s-.22-.12-.21-.35c0,0,0-.08,0-.12.08-.22.17-.22.26,0s.05.11.09,0"/><path class="cls-68" d="M13.86,8.06c0,.18,0,.39-.2.43s-.11-.11-.11-.22,0-.4.2-.44.09.12.11.23"/><path class="cls-69" d="M16,17.79c0,.17,0,.37-.19.39s-.13-.13-.12-.25,0-.39.19-.4.1.15.12.26"/><path class="cls-70" d="M15,18.29c0-.17.06-.37.22-.41s.1.09.1.19-.13.47-.22.45-.09-.11-.1-.23"/><path class="cls-71" d="M13,14.54c.05.34-.16.3-.27.41a.13.13,0,0,1-.14,0c-.08-.13-.21-.26,0-.42a.5.5,0,0,1,.44.06"/><path class="cls-72" d="M13.08,8.65c0,.15,0,.36-.17.37s-.13-.15-.12-.27,0-.36.15-.38.12.15.14.28"/><path class="cls-73" d="M15.68,16.6c0,.06,0,.11,0,.17s-.14.2-.24.09,0,0-.06-.05a.47.47,0,0,1,0-.33s0-.08,0-.13a.83.83,0,0,1,.15-.11h0s0,0,0,0a.56.56,0,0,1,.07.37"/><path class="cls-74" d="M11.25,13.85c-.14,0-.26-.1-.29-.32s.06-.17.13-.16a.34.34,0,0,1,.29.33c0,.14-.06.14-.13.15"/><path class="cls-75" d="M13.55,10a.34.34,0,0,1-.16.19c-.2-.11-.23-.34-.07-.59a.14.14,0,0,1,.19,0c.14.13.1.29,0,.46Z"/><path class="cls-76" d="M13,10.66l-.07.07c-.14.06-.18-.08-.2-.24a.69.69,0,0,1,0-.25c0-.14.11-.19.2-.15s.12.17.13.29a.37.37,0,0,1-.09.28"/><path class="cls-77" d="M16.46,17.21c0-.18,0-.35.14-.34s.14.18.14.33,0,.31-.16.3-.11-.18-.12-.29"/><path class="cls-78" d="M13.32,16.06l.07,0c.22.18.23.27,0,.53h0c-.11,0-.22,0-.27-.17s0-.28.16-.3"/><path class="cls-5" d="M14.33,8.09c0-.2.14-.43.24-.42s.1.12.08.22-.08.38-.23.41-.09-.11-.09-.21"/><path class="cls-79" d="M12.76,11.2c-.09.06-.15.28-.28.11a.51.51,0,0,1,0-.52c.2-.15.25.1.33.28a.18.18,0,0,1,0,.13"/><path class="cls-80" d="M15.08,16.53h.05a.59.59,0,0,1,0,.35c0,.07,0,.16-.09.16s-.18.09-.25-.05a.4.4,0,0,1,0-.4l.05-.08c.06,0,.12-.07.18,0"/><path class="cls-81" d="M16.75,14.53c.09,0,.14.14.19.25h0c0,.13,0,.27-.06.34s-.17,0-.22-.15c-.1-.31-.08-.39.09-.43"/><path class="cls-82" d="M14.38,9.73V9.67a.39.39,0,0,1,0-.35.54.54,0,0,1,.15-.18c.07,0,.15,0,.18.08a.48.48,0,0,1-.11.44h0c-.05.06-.12.05-.19.07"/><path class="cls-83" d="M18.24,13.39c0,.11-.08.12-.14.11a.39.39,0,0,1-.27-.37c0-.1.08-.12.14-.11a.4.4,0,0,1,.27.37"/><path class="cls-84" d="M12.28,12.54l.05.06a1,1,0,0,1,0,.3c-.13.12-.23,0-.33-.11a.23.23,0,0,1,0-.14c0-.1,0-.21.07-.26s.17.07.24.15"/><path class="cls-85" d="M15.67,17.5c0,.17-.06.35-.19.36s-.12-.14-.11-.26.06-.34.19-.35.1.14.11.25"/><path class="cls-86" d="M16.18,16.18c0,.21-.1.35-.26.24s-.08-.13-.1-.21v-.07a.94.94,0,0,1,0-.09.36.36,0,0,1,.07-.1c0-.08.07-.1.11-.13s.18.17.15.36"/><path class="cls-87" d="M12.41,9.53c0,.15,0,.3-.13.29s-.15-.17-.15-.32,0-.31.13-.29.14.18.15.32"/><path class="cls-75" d="M13.47,8.85c0,.15,0,.33-.17.35s-.11-.13-.11-.25,0-.35.17-.37.11.13.11.27"/><path class="cls-54" d="M17.2,13c0,.07.05.13.11.13l0,.06c0,.32-.09.36-.28.2l0-.05s0,0,0,0v-.25c.09-.19.19-.09.3-.05"/><path class="cls-88" d="M16.32,17.05c0,.15,0,.33-.16.34s-.12-.14-.12-.26,0-.34.15-.36.12.15.13.28"/><path class="cls-89" d="M15.06,17.05l.07-.15a.05.05,0,0,1,0,0,.46.46,0,0,1,.18.42l-.06.14c0,.09-.09.15-.16.12s-.1-.13-.09-.23,0-.17,0-.26"/><path class="cls-90" d="M12.84,16c-.11,0-.17-.13-.15-.31a.18.18,0,0,1,.15-.18H13c.11,0,.17.12.16.3s-.16.24-.29.19"/><path class="cls-91" d="M14.19,8.51c0,.12,0,.29-.19.33s-.11-.11-.11-.22.06-.35.2-.38.1.1.1.27"/><path class="cls-92" d="M11.83,15.08c.11,0,.24,0,.25.24a.19.19,0,0,1-.2.2.23.23,0,0,1-.22-.26c0-.15.11-.14.17-.18"/><path class="cls-93" d="M17.47,11.29c.12,0,.24.07.25.24a.16.16,0,0,1-.18.19.25.25,0,0,1-.23-.25c0-.15.09-.16.16-.18"/><path class="cls-61" d="M15.41,9.9c.08-.36.19-.44.39-.29a.35.35,0,0,1-.19.46c-.1,0-.16-.05-.21-.17Z"/><path class="cls-94" d="M12.32,16.42c-.08,0-.19-.05-.18-.21s.11-.21.22-.21a.16.16,0,0,1,.18.19.22.22,0,0,1-.22.23"/><path class="cls-6" d="M15.16,8.42c-.06,0-.1-.07-.1-.17s.14-.4.24-.4.1.06.11.16-.14.4-.25.41"/><path class="cls-95" d="M13.83,9.36v0c.09-.08.18-.12.27,0a.35.35,0,0,1,0,.3.45.45,0,0,1-.15.22l-.12,0a.34.34,0,0,1-.08-.16.76.76,0,0,1,.05-.34"/><path class="cls-7" d="M16.52,9.31c-.08,0-.16,0-.14-.18a.26.26,0,0,1,.23-.26.14.14,0,0,1,.16.17.27.27,0,0,1-.25.27"/><path class="cls-96" d="M17,12.55l-.05,0s0,0,0,0-.06-.15-.05-.24.19-.17.29-.06.24.21.07.42-.17.08-.23-.06"/><path class="cls-97" d="M12.38,16.61c.09,0,.19,0,.18.19s-.13.22-.23.24-.17,0-.17-.18.14-.21.22-.25"/><path class="cls-98" d="M11.8,16.13a.23.23,0,0,1-.24-.23c0-.14.1-.21.19-.18s.22,0,.22.22-.1.17-.17.19"/><path class="cls-99" d="M16.46,12.2c-.09,0-.11-.13-.1-.24s.24-.13.34-.26.08,0,.11.08a.4.4,0,0,1,0,.22c-.08.27-.24.22-.39.2"/><path class="cls-100" d="M13.39,10.25c.15.33.12.54-.07.72a1.13,1.13,0,0,1-.14-.69c.06-.12.14-.09.21,0"/><path class="cls-101" d="M11.29,12.73c-.12,0-.27-.19-.27-.35s0-.14.1-.14.28.19.28.34,0,.15-.11.15"/><path class="cls-102" d="M18.08,14.43c0,.1,0,.17-.11.16s-.22-.14-.25-.35,0-.18.1-.16.22.15.26.35"/><path class="cls-103" d="M12.83,9.53c0,.15,0,.3-.13.3s-.15-.17-.14-.33,0-.28.12-.27.13.17.15.3"/><path class="cls-104" d="M14.9,8.41c0,.18-.08.33-.21.37s-.12-.09-.11-.2.09-.33.22-.37.1.09.1.2"/><path class="cls-105" d="M14,16.13c-.07.22-.19.29-.33.22s-.14-.16-.1-.31a.05.05,0,0,1,0,0,.3.3,0,0,1,.28-.07.17.17,0,0,1,.13.2"/><path class="cls-106" d="M14.21,18.29c0-.2.1-.36.24-.37s.1.12.08.21-.1.33-.24.34-.07-.1-.08-.18"/><path class="cls-107" d="M17.3,9.72a.17.17,0,0,1,.1.21.2.2,0,0,1-.26.16A.16.16,0,0,1,17,9.93c0-.12,0-.2.12-.21a.18.18,0,0,1,.2,0"/><path class="cls-108" d="M13.59,18.22c-.05,0-.1,0-.09-.16a.34.34,0,0,1,.22-.35c.07,0,.12,0,.12.13s-.13.38-.25.38"/><path class="cls-109" d="M17,16.25c0-.11,0-.26.13-.24s.16.18.17.34,0,.25-.13.24-.14-.19-.17-.34"/><path class="cls-110" d="M14.33,17.58c0,.17-.09.32-.22.36s-.13-.06-.11-.17.09-.32.22-.35.1,0,.11.16"/><path class="cls-111" d="M16.91,16.39c0,.12,0,.26-.13.25s-.15-.18-.15-.34,0-.26.13-.24.14.18.15.33"/><path class="cls-7" d="M15.86,8.75c-.07,0-.13,0-.12-.15A.35.35,0,0,1,16,8.27c.08,0,.14.05.13.16a.32.32,0,0,1-.24.32"/><path class="cls-112" d="M11.38,11.19a.38.38,0,0,1,.2.36c0,.1,0,.16-.1.16s-.23-.21-.22-.38,0-.15.12-.14"/><path class="cls-113" d="M16.6,9.91c-.09,0-.18,0-.17-.18s.12-.23.23-.23.17,0,.16.19a.22.22,0,0,1-.22.22"/><path class="cls-114" d="M14.73,17.53c.08,0,.17-.18.24,0a.43.43,0,0,1-.05.37c-.05.07-.11.19-.18.13s-.06-.19,0-.31a1.29,1.29,0,0,1,0-.19Z"/><path class="cls-115" d="M17.58,15.07a.38.38,0,0,1,.18.38c0,.09,0,.17-.11.15s-.19-.18-.2-.38,0-.16.13-.15"/><path class="cls-116" d="M11.92,10.53c0,.11,0,.21-.1.2s-.19-.17-.2-.34,0-.21.1-.2.17.18.2.34"/><path class="cls-117" d="M12.94,16.69c.08,0,.17,0,.16.17a.27.27,0,0,1-.21.26c-.08,0-.16,0-.16-.16a.24.24,0,0,1,.21-.27"/><path class="cls-118" d="M13,17.72c-.08,0-.15,0-.14-.15a.29.29,0,0,1,.24-.29c.08,0,.14,0,.13.15s-.12.27-.23.29"/><path class="cls-119" d="M17.7,13.83c-.08,0-.17-.13-.2-.31s.06-.17.13-.15a.31.31,0,0,1,.23.33c0,.11,0,.15-.16.13"/><path class="cls-120" d="M12,10.28c0-.12,0-.23.12-.21s.16.2.16.36,0,.21-.12.19-.15-.18-.16-.34"/><path class="cls-121" d="M13,10.77a.52.52,0,0,1,.16.51c0,.13,0,.23-.16.21a1.18,1.18,0,0,1-.09-.7s.06,0,.09,0"/><path class="cls-122" d="M13,9.42c.13-.23.22-.15.29.07a.57.57,0,0,1-.08.48c-.22-.05-.18-.33-.21-.55"/><path class="cls-7" d="M16.07,8.89c.08,0,.15,0,.14.15s-.1.26-.22.28-.14,0-.14-.14a.27.27,0,0,1,.22-.29"/><path class="cls-123" d="M15.88,16.07l0,.06c-.17,0-.28-.23-.28-.53s.22-.15.28.09,0,.25,0,.38"/><path class="cls-115" d="M17.35,15.55c0,.11,0,.23-.11.21s-.17-.18-.18-.36,0-.2.12-.18.16.17.17.33"/><path class="cls-124" d="M12,12.65v.13a.11.11,0,0,1,0,.16.25.25,0,0,1-.36,0,.28.28,0,0,1,0-.28.14.14,0,0,1,.2-.06s.1.07.15,0"/><path class="cls-125" d="M12.09,10.85c.18,0,.25.1.28.33s0,.28-.16.3,0,0,0,0a1,1,0,0,1-.08-.59"/><path class="cls-126" d="M11.62,12.44a.31.31,0,0,1-.2-.31c0-.13,0-.19.11-.17s.2.14.21.32,0,.16-.12.16"/><path class="cls-127" d="M15.73,19c0-.15,0-.34.17-.35s.1.12.08.22,0,.33-.17.34-.08-.11-.08-.21"/><path class="cls-8" d="M13.94,7c0,.14,0,.31-.18.34s-.09-.11-.08-.2.05-.34.18-.37.08.11.08.23"/><path class="cls-128" d="M17.61,11.09a.2.2,0,0,1-.14-.25c0-.13.12-.13.2-.12a.21.21,0,0,1,.22.18c0,.23-.18.14-.28.19"/><path class="cls-129" d="M15.56,15.6c.07.2.12.43.28.53v0c-.06.13-.14.16-.23.08h0a.75.75,0,0,1,0-.64"/><path class="cls-130" d="M15.06,19.18c0,.19-.06.34-.18.39s-.09-.09-.08-.17.06-.35.2-.38.06.1.06.16"/><path class="cls-131" d="M12.08,14.53c0-.12-.07-.18-.06-.28s.25-.08.38,0l0,.05c0,.25,0,.3-.24.31a.13.13,0,0,1-.13-.08"/><path class="cls-132" d="M13,7.58c0,.14,0,.31-.14.34s-.1-.11-.1-.22,0-.31.14-.33.09.1.1.21"/><path class="cls-9" d="M14.75,7.19c-.09,0-.11,0-.11-.11a.47.47,0,0,1,.18-.41c.07,0,.11,0,.1.13a.57.57,0,0,1-.17.39"/><path class="cls-133" d="M15.8,10.49l-.12.12a.18.18,0,0,1-.2,0,.16.16,0,0,1-.08-.18c.12-.18.29-.19.43-.26s.07.06.08.12,0,.17-.11.2"/><path class="cls-134" d="M11.14,16.31c-.11,0-.21,0-.22-.2a.13.13,0,0,1,.16-.15c.09,0,.2,0,.21.2s-.09.14-.15.15"/><path class="cls-135" d="M17.12,12.19l0-.11c.09-.2.24-.18.36-.23s.12.16.06.28a.17.17,0,0,1-.22.12l-.17-.06"/><path class="cls-136" d="M13.43,7.83c0,.13,0,.29-.15.3s-.09-.12-.08-.22,0-.28.14-.3.09.1.09.22"/><path class="cls-137" d="M16.9,18.16c0,.13,0,.27-.14.27s-.1-.14-.09-.25,0-.28.12-.28.09.15.11.26"/><path class="cls-138" d="M17.82,9.72c-.08,0-.17,0-.18-.16s.09-.17.17-.17a.15.15,0,0,1,.18.16c0,.15-.09.16-.17.17"/><path class="cls-139" d="M18.46,11c-.1,0-.21,0-.23-.21a.11.11,0,0,1,.13-.14c.11,0,.23,0,.24.23s-.08.11-.14.12"/><path class="cls-140" d="M17.64,12.73a.23.23,0,0,1-.13-.29c0-.18.16-.1.25,0a.18.18,0,1,1-.12.33"/><path class="cls-141" d="M14.09,18.94c.08,0,.1.06.09.13s-.07.32-.19.36-.1,0-.09-.14a.43.43,0,0,1,.19-.35"/><path class="cls-142" d="M17.45,11.85c-.09.16-.25.12-.36.23a.27.27,0,0,1,0-.33.25.25,0,0,1,.35.1"/><path class="cls-143" d="M10.67,14.91a.28.28,0,0,1-.26-.22c0-.08.07-.17.14-.14s.23.06.25.25-.08.1-.13.11"/><path class="cls-10" d="M14.25,7.25c.07,0,.09.1.08.18s-.06.33-.19.34-.08-.1-.07-.18.06-.3.18-.34"/><path class="cls-144" d="M12,14.08c-.15.09-.27,0-.36-.18s.11-.13.18-.15.14,0,.21,0,.12.23,0,.3"/><path class="cls-145" d="M15.58,18.5c0,.15,0,.3-.16.33s-.1-.07-.09-.17.05-.32.17-.35.07.11.08.19"/><path class="cls-146" d="M15.6,10.06c.09,0,.19,0,.24.13-.13.17-.29.15-.44.24a1,1,0,0,1,0-.17c0-.14.08-.23.19-.2"/><path class="cls-147" d="M11.82,17.12c.08,0,.16,0,.14.16s-.11.18-.2.17a.13.13,0,0,1-.13-.16c0-.15.12-.16.19-.17"/><path class="cls-148" d="M11.19,15.23c.08,0,.19,0,.19.22a.11.11,0,0,1-.15.12c-.09,0-.2,0-.2-.21s.09-.12.16-.13"/><path class="cls-149" d="M18.55,12.94c0,.11-.07.14-.12.12s-.21-.09-.22-.28.06-.12.11-.11a.34.34,0,0,1,.23.27"/><path class="cls-150" d="M12.76,11.06c0-.14,0-.24.12-.27,0,.24.09.46.08.7-.13,0-.18-.12-.2-.29v-.14"/><path class="cls-151" d="M17.77,10.13c.08,0,.18,0,.18.18s-.09.19-.17.17a.18.18,0,0,1-.17-.2c0-.14.09-.13.16-.15"/><path class="cls-152" d="M10.66,12.17a.33.33,0,0,1-.23-.3c0-.08,0-.14.07-.13a.35.35,0,0,1,.24.3.1.1,0,0,1-.08.13"/><path class="cls-153" d="M17.84,12.2a.21.21,0,0,1-.07-.24c0-.11.1-.12.17-.09s.15,0,.19.13c0,.29-.16.23-.29.2"/><path class="cls-154" d="M10.9,13a.28.28,0,0,1-.21-.27c0-.08,0-.13.08-.12a.29.29,0,0,1,.24.29c0,.09,0,.1-.11.1"/><path class="cls-155" d="M16.4,18c0,.16,0,.31-.15.31s-.09-.13-.08-.22,0-.28.12-.3.09.13.11.21"/><path class="cls-156" d="M14.74,18.63c0,.15-.06.3-.17.34s-.09-.07-.08-.15.06-.3.17-.34.08.07.08.15"/><path class="cls-157" d="M12.33,13.67c.16,0,.33-.07.43.22-.14.14-.3.08-.44,0a.16.16,0,0,1-.06-.17s0-.09.07-.1"/><path class="cls-158" d="M18.66,13.52a.33.33,0,0,1,.23.31c0,.08,0,.11-.09.11s-.26-.2-.25-.32.06-.1.11-.1"/><path class="cls-159" d="M12.07,13.83c-.14,0-.29-.07-.42.07-.09-.21-.06-.3.12-.31s.16.12.25.07,0,0,.05,0a.22.22,0,0,1,0,.16"/><path class="cls-160" d="M17.14,17.18c0,.11,0,.24-.1.24s-.12-.13-.12-.24,0-.22.09-.23.11.12.13.23"/><path class="cls-161" d="M12.11,8.64c0,.1,0,.25-.11.24s-.11-.15-.11-.27,0-.24.11-.24.1.16.11.27"/><path class="cls-162" d="M10.83,13.94c.12,0,.19.1.23.25s-.06.11-.1.1-.23,0-.25-.25.07-.09.12-.1"/><path class="cls-163" d="M12.61,8.59c0,.13,0,.26-.11.28s-.11-.13-.11-.23,0-.26.11-.27.1.12.11.22"/><path class="cls-164" d="M12.26,13.31l0-.18a.29.29,0,0,1,.43,0,.22.22,0,0,1,0,.18.29.29,0,0,1-.37.06h0a0,0,0,0,1,0,0"/><path class="cls-11" d="M17.07,8.72c-.07,0-.14,0-.13-.13s.09-.21.18-.21.13,0,.13.12-.1.18-.18.22"/><path class="cls-165" d="M11.77,16.71c-.09,0-.17,0-.18-.16a.14.14,0,0,1,.15-.15c.08,0,.18,0,.19.15s-.09.15-.16.16"/><path class="cls-166" d="M17.33,9.23a.21.21,0,0,1-.17.2A.13.13,0,0,1,17,9.28c0-.15.1-.16.18-.18s.12,0,.15.13"/><path class="cls-167" d="M11.55,14.77c.06.13,0,.22-.07.24s-.27,0-.33-.24c.13-.15.27-.08.4,0"/><path class="cls-168" d="M14,18.45c0,.15-.09.27-.2.3s-.08-.06-.07-.13.08-.29.2-.31.07.07.07.14"/><path class="cls-169" d="M14,16.13c-.11-.23-.27-.08-.41-.13a.37.37,0,0,1,.21-.23c.18,0,.25.09.2.36"/><path class="cls-12" d="M15.76,7.16a.35.35,0,0,1-.19.3c-.05,0-.1,0-.09-.11s.09-.3.21-.34.08,0,.07.15"/><path class="cls-170" d="M18.75,12.5c-.11,0-.18-.1-.21-.25a.1.1,0,0,1,.05-.11c.12,0,.21,0,.28.17s-.05.16-.12.19"/><path class="cls-171" d="M13.12,10.37l.07-.07.12.67c-.11,0-.14-.09-.2-.19a.72.72,0,0,1,0-.41"/><path class="cls-13" d="M15.17,7.48A.34.34,0,0,1,15,7.8c-.06,0-.1,0-.09-.13a.37.37,0,0,1,.19-.33c.06,0,.08,0,.08.14"/><path class="cls-172" d="M12.67,13.13h-.43c0-.1,0-.16,0-.24a.3.3,0,0,1,.38.24"/><path class="cls-173" d="M12.32,15a.35.35,0,0,1,.24-.06s.09,0,.12.06V15c0,.14,0,.17-.09.19a.27.27,0,0,1-.3-.08c0-.06,0-.11,0-.17"/><path class="cls-174" d="M18.18,11.42a.19.19,0,0,1,.21.19c0,.11-.07.12-.13.12a.23.23,0,0,1-.23-.21c0-.15.09-.07.15-.1"/><path class="cls-175" d="M14.61,16.73,14.5,17h0q-.21-.06-.15-.36a.07.07,0,0,0,0,0l.09-.07c.15-.1.17.06.19.2"/><path class="cls-102" d="M18.13,14c0-.1,0-.12.09-.11s.18.12.2.27,0,.14-.1.11a.32.32,0,0,1-.19-.27"/><path class="cls-83" d="M18.6,15c0,.1,0,.16-.07.15s-.18-.12-.21-.29,0-.13.06-.12.19.12.22.26"/><path class="cls-176" d="M17.62,17.14c0,.09,0,.21-.09.21s-.12-.14-.12-.26,0-.22.09-.21.11.13.12.26"/><path class="cls-177" d="M11.87,9.82c-.09,0-.13-.13-.13-.25s0-.21.09-.21.11.13.13.24,0,.19-.09.22"/><path class="cls-178" d="M11.34,9.49c.1,0,.14.17.15.3s0,.17-.08.16-.14-.15-.15-.29,0-.16.08-.17"/><path class="cls-112" d="M10.86,10.6c.1,0,.16.13.18.29S11,11,11,11s-.17-.13-.19-.28,0-.13.08-.14"/><path class="cls-179" d="M11.08,11.88a.33.33,0,0,1-.18-.28c0-.1,0-.14.1-.12a.29.29,0,0,1,.17.28c0,.08,0,.12-.09.12"/><path class="cls-180" d="M12.4,17.61c-.06,0-.12,0-.12-.14a.18.18,0,0,1,.17-.19c.06,0,.13,0,.13.12s-.09.19-.18.21"/><path class="cls-181" d="M11.34,13.25a.2.2,0,0,1,0-.23.11.11,0,0,1,.14,0,.35.35,0,0,1,.2.26c-.11.15-.22.08-.33,0"/><path class="cls-182" d="M17.06,11.49c.05.35-.13.29-.26.3l-.09-.07s0,0,0,0a.13.13,0,0,0,0-.06V11.6a.34.34,0,0,1,.37-.12h0"/><path class="cls-183" d="M17.31,10.42c.1.21,0,.27-.11.3a.19.19,0,0,1-.22-.1c.06-.27.19-.25.33-.2"/><path class="cls-184" d="M18,15.8a.25.25,0,0,1,.16.25c0,.08,0,.18-.06.18s-.15-.12-.17-.26,0-.15.07-.17"/><path class="cls-185" d="M12.5,18.31c-.07,0-.12,0-.11-.13a.23.23,0,0,1,.2-.22c.05,0,.1,0,.09.12s-.09.22-.18.23"/><path class="cls-186" d="M13.4,18.69c0,.16-.1.26-.2.29s-.09,0-.08-.12.09-.26.2-.28.08,0,.08.11"/><path class="cls-14" d="M16.51,7.75a.27.27,0,0,1-.2.23s-.09,0-.08-.11.09-.25.2-.26.08,0,.08.14"/><path class="cls-187" d="M12.22,14.54c0,.07,0,.11,0,.17s-.28,0-.41.11h0c0-.27,0-.33.26-.3h.14"/><path class="cls-188" d="M17.56,16a.28.28,0,0,1,.14.28c0,.08,0,.18-.07.17s-.14-.13-.14-.27,0-.16.07-.18"/><path class="cls-189" d="M13.15,10c0,.12-.1.06-.15.07a.6.6,0,0,1,0-.61c.08.16,0,.42.19.54"/><path class="cls-190" d="M12.29,14.83V15c-.18.12-.34.15-.47-.12h0a.49.49,0,0,1,.47,0"/><path class="cls-7" d="M16.63,8.45q-.06.21-.21.21c-.06,0-.09-.06-.08-.13a.23.23,0,0,1,.18-.22c.06,0,.1,0,.11.14"/><path class="cls-191" d="M10.54,13.19c0,.07.13.11.07.23s-.13.05-.19,0-.15-.08-.15-.23.18-.06.27,0"/><path class="cls-192" d="M12.26,13.31l0,0v.12c-.12.14-.24.11-.36,0a.28.28,0,0,1,0-.24c.1,0,.19,0,.29.07"/><path class="cls-193" d="M16.17,10.54l.06.08a.36.36,0,0,1-.43.22.35.35,0,0,1,0-.23.15.15,0,0,1,.13-.13.2.2,0,0,1,.2.06"/><path class="cls-194" d="M11.94,13.48h.36c.07,0,0,.14,0,.2l0,0c-.08,0-.16,0-.23,0h0l-.08-.18"/><path class="cls-195" d="M15.9,11c-.05,0-.08-.06-.09-.13a1,1,0,0,1,.47-.18.15.15,0,0,1,0,.13l-.15.18a.36.36,0,0,1-.23,0"/><path class="cls-196" d="M12.72,15.25l-.11.06c-.07,0-.14.07-.21,0a.24.24,0,0,1-.11-.17c.13-.06.29.11.39-.12l.08.11,0,.13"/><path class="cls-197" d="M11.77,14.25c.05.26-.08.24-.18.22a.22.22,0,0,1-.18-.15c.1-.27.23-.14.36-.07"/><path class="cls-198" d="M12,12.9c0,.1,0,.21,0,.3a.35.35,0,0,1-.33-.24A.93.93,0,0,0,12,12.9"/><path class="cls-199" d="M16.35,10.72a.36.36,0,0,1,.24-.13l.12.12c-.07.26-.21.23-.36.19h0c0-.07,0-.13,0-.19"/><path class="cls-200" d="M12.77,14c0,.21-.13.21-.24.19a1.59,1.59,0,0,1-.2-.07l0-.05a.29.29,0,0,1,0-.09.46.46,0,0,1,.44,0"/><path class="cls-201" d="M12.47,14.53l.06-.17c.15,0,.31-.06.42.18h-.48"/><path class="cls-202" d="M17,11.48a.65.65,0,0,1-.37.12.19.19,0,0,1,.08-.24c.09,0,.19-.08.27.07s0,0,0,.05"/><path class="cls-203" d="M15.36,17.28c0-.17-.14-.25-.19-.39s.13-.12.22-.06,0,0,0,0,0,.29,0,.42"/><path class="cls-204" d="M11.77,14.25c-.12,0-.25-.07-.36.07-.08-.18,0-.25.09-.26a.25.25,0,0,1,.27.19"/><path class="cls-205" d="M16.31,10.14s0,.11,0,.17-.18.16-.3.11a.12.12,0,0,1-.05-.11s0,0,0-.06.21-.21.35-.17l0,.06"/><path class="cls-206" d="M16.83,12c.08.1,0,.2,0,.3s-.26.11-.37-.05c.11-.11.3,0,.37-.25"/><path class="cls-207" d="M12.77,14c-.15,0-.3-.06-.45.05h0a1.1,1.1,0,0,0,0-.18h.47a.13.13,0,0,1,0,.12"/><path class="cls-208" d="M11.55,14.77h-.4c.06-.25.22-.26.4,0"/><path class="cls-209" d="M12.09,10.85a2.8,2.8,0,0,1,.08.59c-.19-.24-.22-.4-.08-.59"/><path class="cls-210" d="M17.84,12.2c.11,0,.23,0,.29-.2a.22.22,0,0,1,.06.25c0,.08-.1.08-.16.07a.23.23,0,0,1-.19-.12"/><path class="cls-211" d="M16.27,10.08l-.35.17a.24.24,0,0,1,.15-.25s0,0,0-.05.13,0,.16.13"/><path class="cls-212" d="M14.34,16.65a.54.54,0,0,0,.15.36s0,0,0,.06-.18.09-.23-.07a.36.36,0,0,1,.07-.35"/><path class="cls-213" d="M17.31,10.42a.44.44,0,0,0-.33.2c-.11-.23,0-.27.12-.3a.16.16,0,0,1,.21.1"/><path class="cls-214" d="M13.62,15.6h-.43c0-.08,0-.1.06-.11s.28-.16.37.11"/><path class="cls-215" d="M16.87,12.49l0,0c-.14,0-.3,0-.4.21-.06-.25,0-.31.17-.31s.14,0,.2.06"/><path class="cls-216" d="M11.34,13.25h.33c0,.19,0,.2-.12.19a.24.24,0,0,1-.21-.18"/><path class="cls-217" d="M12.84,15.59c.09-.06,0-.11,0-.17a1.06,1.06,0,0,1,.39-.06.19.19,0,0,1,0,.07c0,.14-.14.13-.23.16h-.13"/><path class="cls-218" d="M16.27,10.72a1,1,0,0,1-.46.18v-.06l.43-.22s0,0,0,0,0,0,0,.05h0"/><path class="cls-219" d="M12.32,13.37c.13,0,.24-.1.37-.06-.09.24-.18.25-.37.06"/><path class="cls-220" d="M9.66,12.69a.19.19,0,0,1,.15.16c0,.06,0,.09-.05.08a.18.18,0,0,1-.15-.15c0-.06,0-.09.05-.09"/><path class="cls-221" d="M19.27,10.89c0,.09-.05.1-.09.1s-.12,0-.14-.13.05-.08.08-.08a.14.14,0,0,1,.15.11"/><path class="cls-222" d="M17.61,11.09c.07-.13.21-.06.28-.19,0,.23-.06.29-.28.19"/><path class="cls-223" d="M19.61,12.72c0,.07-.05.07-.08.06s-.13,0-.14-.17,0-.08.07-.06a.19.19,0,0,1,.15.17"/><path class="cls-224" d="M12,14.19l.08-.06a.26.26,0,0,1,.24,0h0c0,.07.08,0,.07.12H12a.13.13,0,0,1,0-.06"/><path class="cls-15" d="M14.06,5.83c0,.08,0,.18-.09.22s-.07,0-.06-.1,0-.2.1-.22.05,0,.05.1"/><path class="cls-225" d="M16.67,11.72h0c-.1.15-.24.13-.35.23,0-.28.18-.22.31-.23"/><path class="cls-16" d="M13.34,7a.09.09,0,0,1-.06-.1c0-.09,0-.18.09-.2s.06,0,.05.1,0,.17-.08.2"/><path class="cls-226" d="M10.53,16.3c0,.08,0,.09-.09.09s-.1,0-.12-.1,0-.1.07-.1a.13.13,0,0,1,.14.11"/><path class="cls-227" d="M18.91,11.78c-.05,0-.12,0-.12-.14s0-.09.07-.07.12,0,.13.15,0,.06-.08.06"/><path class="cls-228" d="M12.52,11.52a.82.82,0,0,1,0,.49.47.47,0,0,1,0-.49"/><path class="cls-229" d="M9.81,14.44c.06,0,.13.05.14.14s0,.09-.07.08a.14.14,0,0,1-.14-.13c0-.08,0-.07.07-.09"/><path class="cls-230" d="M16.34,18.84s.05.05.05.1,0,.16-.05.19-.07,0-.07-.1a.24.24,0,0,1,.07-.19"/><path class="cls-231" d="M19,13.12a.16.16,0,0,1,.12.15c0,.06,0,.09-.06.07a.19.19,0,0,1-.13-.15c0-.06,0-.07.07-.07"/><path class="cls-232" d="M16.35,10.9c.12-.07.26,0,.36-.2l0,0a.49.49,0,0,0,0,.12c-.09.12-.21.11-.31.16L16.35,11v0"/><path class="cls-233" d="M10.58,15.53c-.05,0-.11,0-.12-.11s0-.09.08-.08a.1.1,0,0,1,.12.1c0,.08,0,.08-.08.09"/><path class="cls-17" d="M14.43,6.38c.05,0,.07,0,.06.1s0,.18-.1.2-.05,0-.05-.1a.29.29,0,0,1,.09-.2"/><path class="cls-18" d="M12.81,6.42s0,.09,0,.14,0,.17-.08.17,0-.08,0-.13,0-.16.09-.18"/><path class="cls-234" d="M10.21,12.26a.19.19,0,0,1,.13.15s0,.08,0,.07a.15.15,0,0,1-.14-.16c0-.05,0-.06.05-.06"/><path class="cls-235" d="M18.37,10.06c.05,0,.12,0,.12.11a.08.08,0,0,1-.09.08.12.12,0,0,1-.11-.1c0-.08.05-.08.08-.09"/><path class="cls-19" d="M18.43,9.19c.05,0,.1,0,.11.09a.08.08,0,0,1-.09.09c-.05,0-.11,0-.11-.11s.05-.07.09-.07"/><path class="cls-236" d="M11.3,16.83c0,.07,0,.08-.08.09a.09.09,0,0,1-.11-.08.07.07,0,0,1,.08-.09c.05,0,.09,0,.11.08"/><path class="cls-237" d="M15.4,19.54c0,.07,0,.18-.09.18s0-.07,0-.11,0-.18.1-.19,0,.07,0,.12"/><path class="cls-238" d="M11.83,7.73c0,.07,0,.16-.07.15s0-.07,0-.12,0-.15.06-.15.05.08.06.12"/><path class="cls-20" d="M15.42,6.56a.22.22,0,0,1-.08.28s0,0-.05,0a.26.26,0,0,1,.13-.25"/><path class="cls-239" d="M10.06,11.39c0,.06,0,.08-.06.07a.19.19,0,0,1-.12-.17s0-.09.06-.07a.27.27,0,0,1,.12.17"/><path class="cls-21" d="M15.2,5.72a.29.29,0,0,1-.11.3s0,0,0-.06,0-.21.15-.24"/><path class="cls-240" d="M15.41,16.2c0-.16-.07-.33-.2-.37.21-.08.22.13.23.34t0,0"/><path class="cls-241" d="M16.92,19s.06.06.06.12,0,.16-.08.17,0-.05,0-.1,0-.15.06-.19"/><path class="cls-22" d="M17.6,8.15s-.08,0-.08-.06A.09.09,0,0,1,17.6,8s.07,0,.08,0a.11.11,0,0,1-.08.13"/><path class="cls-242" d="M10.31,13.88c0,.07,0,.08-.06.07a.14.14,0,0,1-.12-.11c0-.06,0-.09,0-.09a.15.15,0,0,1,.13.13"/><path class="cls-243" d="M19.5,14.32c0,.07,0,.09-.05.08a.18.18,0,0,1-.14-.17c0-.05,0-.06.05-.05s.11.07.14.14"/><path class="cls-244" d="M17.78,17.77c.06,0,.07.06.08.11s0,.13,0,.15-.07-.06-.08-.12a.16.16,0,0,1,0-.14"/><path class="cls-23" d="M16.13,6.34c0,.08-.05.15-.12.16s0,0,0-.08,0-.16.11-.16,0,0,0,.08"/><path class="cls-245" d="M11.34,17.69c0,.07-.07.09-.11.08s-.08,0-.07-.07.06-.11.11-.11.06,0,.07.1"/><path class="cls-246" d="M17.64,12.73l.25-.13c0,.32-.15.18-.25.13"/><path class="cls-247" d="M19.07,15.62c0,.05,0,.08-.05.07a.19.19,0,0,1-.1-.16c0-.06,0-.07.06-.06a.15.15,0,0,1,.09.15"/><path class="cls-24" d="M16.79,7.24s-.05,0-.05-.08.05-.13.11-.13,0,0,0,.07a.17.17,0,0,1-.11.14"/><path class="cls-248" d="M18.79,14.47a.2.2,0,0,1,.11.14c0,.06,0,.09,0,.08a.17.17,0,0,1-.11-.15c0-.06,0-.06.05-.07"/><path class="cls-249" d="M17.3,18c0,.06,0,.11-.06.1s-.07-.08-.06-.16,0-.1.06-.1.06.09.06.16"/><path class="cls-250" d="M10.54,13.19h-.27c.08-.17.1-.17.27,0"/><path class="cls-25" d="M17.65,9s-.07,0-.07-.06.05-.11.1-.11.08,0,.08.08S17.7,9,17.65,9"/><path class="cls-251" d="M11.07,9c0,.06,0,.12-.05.11S11,9.06,11,9s0-.1,0-.11.07.08.08.13"/><path class="cls-252" d="M11.54,8.74c.06,0,.08.06.08.12s0,.12,0,.13-.07-.05-.08-.11a.29.29,0,0,1,0-.14"/><path class="cls-253" d="M12.41,7.74c0,.07,0,.14-.05.14s-.07-.08-.06-.15,0-.12.06-.12.05.08.05.13"/><path class="cls-254" d="M13.46,19.42s-.06,0-.06-.05a.21.21,0,0,1,.11-.19s0,0,0,.07a.2.2,0,0,1-.09.17"/><path class="cls-26" d="M16.89,8s-.06,0-.06-.06,0-.12.09-.12.06,0,.06.08a.11.11,0,0,1-.09.1"/><path class="cls-255" d="M14.5,16.06v.18a1.32,1.32,0,0,1-.15-.29c.08,0,.13,0,.16.11"/><path class="cls-256" d="M10.5,10.18c0,.05,0,.07,0,.07s-.08-.06-.09-.12,0-.1,0-.09a.16.16,0,0,1,.09.14"/><path class="cls-257" d="M12.15,18.69c0,.07-.05.12-.1.12s-.06,0-.06-.08a.14.14,0,0,1,.08-.11s.07,0,.08.07"/><path class="cls-258" d="M18.53,16.72s0,.09,0,.09-.08,0-.1-.12,0-.09,0-.09.07,0,.09.12"/><path class="cls-259" d="M12,17.82s.07,0,.06.08A.11.11,0,0,1,12,18s-.06,0-.06-.08a.1.1,0,0,1,.09-.1"/><path class="cls-260" d="M18.75,12.5l.12-.19a.12.12,0,0,1,0,.16c0,.08-.1.09-.16,0"/><path class="cls-261" d="M10.61,11.16c0,.06,0,.08,0,.06a.21.21,0,0,1-.09-.15c0-.05,0-.06.06-.05a.17.17,0,0,1,.08.14"/><path class="cls-262" d="M18,16.85s0,.1,0,.09-.06-.06-.07-.12,0-.1.05-.09.06.06.06.12"/><path class="cls-263" d="M15.88,16.07c-.08-.11,0-.25,0-.38.07.06,0,.21.08.26a.56.56,0,0,0,0,.12"/><path class="cls-264" d="M16,17v-.36A.45.45,0,0,1,16,17"/><path class="cls-265" d="M16.59,10.56c-.05,0-.09,0-.12-.07h.24l-.12.07"/><path class="cls-266" d="M15.48,10.61h.2a.12.12,0,0,1-.2,0"/><path class="cls-267" d="M17.3,9.72h-.2a.13.13,0,0,1,.2,0"/><path class="cls-268" d="M15.9,11h.23a.16.16,0,0,1-.23,0"/><path class="cls-269" d="M16.43,11a.47.47,0,0,1,.31-.16c-.06.24-.18.2-.31.16"/><path class="cls-270" d="M12.29,14.83h-.47c0-.18.12-.09.19-.1a1,1,0,0,1,.25,0,.16.16,0,0,1,0,.12"/><path class="cls-271" d="M16.15,10.44c-.06,0-.14,0-.19-.07l.3-.06c0,.08-.07.09-.11.13"/><path class="cls-272" d="M16,10.54c.06-.09.13,0,.2,0l0,0H16"/><path class="cls-273" d="M12.32,14.12h-.23c.07-.1.15,0,.22-.06h0v.06"/></g></g></g></g></g><g id="star-outline"><rect class="cls-27" x="11.06" y="7.95" width="3" height="3"/><path d="M13.26,10.57H13.2l-.64-.34-.63.34a.13.13,0,0,1-.17-.05.13.13,0,0,1,0-.08l.13-.71-.52-.5a.13.13,0,0,1,0-.12.15.15,0,0,1,.1-.09l.72-.1.31-.64a.12.12,0,0,1,.17-.06.17.17,0,0,1,.06.06l.31.64.72.1a.15.15,0,0,1,.1.09.13.13,0,0,1,0,.12l-.52.5.13.7a.15.15,0,0,1-.05.13Zm-.7-.61h.06l.47.25L13,9.7a.11.11,0,0,1,0-.11l.37-.37-.52-.08a.13.13,0,0,1-.09-.07l-.24-.47-.23.47a.14.14,0,0,1-.1.07l-.52.08.37.36a.12.12,0,0,1,0,.11l-.09.52L12.5,10S12.54,10,12.56,10Z"/></g><text class="cls-274" transform="translate(7.98 14.69) scale(0.67 1)">N<tspan class="cls-275" x="3.29" y="0">e</tspan><tspan x="5.89" y="0">w</tspan></text></svg>