<svg id="ICONS" xmlns="http://www.w3.org/2000/svg" xmlns:xlink="http://www.w3.org/1999/xlink" viewBox="0 0 24 24"><defs><style>.cls-1{fill:none;}.cls-2{clip-path:url(#clip-path);}.cls-3{clip-path:url(#clip-path-2);}.cls-4{fill:#1852a3;}.cls-5{fill:#f74724;}.cls-6{fill:#0399d9;}.cls-7{fill:#1f94c3;}.cls-8{fill:#198fcf;}.cls-9{fill:#fe9935;}.cls-10{fill:#f75421;}.cls-11{fill:#f7361d;}.cls-12{fill:#ea3b20;}.cls-13{fill:#23a08b;}.cls-14{fill:#1f94c4;}.cls-15{fill:#1f53a2;}.cls-16{fill:#61a74b;}.cls-17{fill:#219d97;}.cls-18{fill:#b04651;}.cls-19{fill:#f73e1f;}.cls-20{fill:#73a648;}.cls-21{fill:#27a37e;}.cls-22{fill:#39a953;}.cls-23{fill:#f7311d;}.cls-24{fill:#089ad9;}.cls-25{fill:#1a90cf;}.cls-26{fill:#249ca5;}.cls-27{fill:#0599d9;}.cls-28{fill:#1c91d0;}.cls-29{fill:#f9842b;}.cls-30{fill:#f75521;}.cls-31{fill:#fe9a37;}.cls-32{fill:#28a576;}.cls-33{fill:#2ca96a;}.cls-34{fill:#ea3c21;}.cls-35{fill:#e93c22;}.cls-36{fill:#44a950;}.cls-37{fill:#f98f2c;}.cls-38{fill:#0391d4;}.cls-39{fill:#4ea74d;}.cls-40{fill:#1d91cd;}.cls-41{fill:#f75525;}.cls-42{fill:#269ea0;}.cls-43{fill:#29a483;}.cls-44{fill:#8ea444;}.cls-45{fill:#f8712b;}.cls-46{fill:#259e9c;}.cls-47{fill:#c3a242;}.cls-48{fill:#f86328;}.cls-49{fill:#f8792b;}.cls-50{fill:#2196bf;}.cls-51{fill:#45a951;}.cls-52{fill:#f73b20;}.cls-53{fill:#f99437;}.cls-54{fill:#26a289;}.cls-55{fill:#2092d0;}.cls-56{fill:#f74127;}.cls-57{fill:#079ad9;}.cls-58{fill:#fe9b39;}.cls-59{fill:#2aa198;}.cls-60{fill:#1e96b8;}.cls-61{fill:#f98f31;}.cls-62{fill:#269bb3;}.cls-63{fill:#24a088;}.cls-64{fill:#57a74c;}.cls-65{fill:#f74924;}.cls-66{fill:#72a74a;}.cls-67{fill:#0a61b1;}.cls-68{fill:#51aa53;}.cls-69{fill:#f73724;}.cls-70{fill:#f74f24;}.cls-71{fill:#eb4026;}.cls-72{fill:#0287cd;}.cls-73{fill:#3ea951;}.cls-74{fill:#56a950;}.cls-75{fill:#0168b9;}.cls-76{fill:#f86524;}.cls-77{fill:#fe9b38;}.cls-78{fill:#0b9cda;}.cls-79{fill:#f87d2c;}.cls-80{fill:#f8432f;}.cls-81{fill:#40a84f;}.cls-82{fill:#2ba96a;}.cls-83{fill:#c83f3a;}.cls-84{fill:#31ae55;}.cls-85{fill:#2193d0;}.cls-86{fill:#30ab68;}.cls-87{fill:#1d91cc;}.cls-88{fill:#fe9c3a;}.cls-89{fill:#e33f2a;}.cls-90{fill:#2aa57e;}.cls-91{fill:#1c90cf;}.cls-92{fill:#faaa36;}.cls-93{fill:#3caa54;}.cls-94{fill:#30a851;}.cls-95{fill:#069ad9;}.cls-96{fill:#f99933;}.cls-97{fill:#f87b29;}.cls-98{fill:#f86827;}.cls-99{fill:#2399b4;}.cls-100{fill:#fe9c3b;}.cls-101{fill:#f9992d;}.cls-102{fill:#fe9936;}.cls-103{fill:#2da29b;}.cls-104{fill:#f75729;}.cls-105{fill:#294b96;}.cls-106{fill:#259bad;}.cls-107{fill:#2ea879;}.cls-108{fill:#9fa648;}.cls-109{fill:#f8742c;}.cls-110{fill:#f73b25;}.cls-111{fill:#e03b27;}.cls-112{fill:#54ab54;}.cls-113{fill:#0678c2;}.cls-114{fill:#f86329;}.cls-115{fill:#2699be;}.cls-116{fill:#dd402f;}.cls-117{fill:#20509f;}.cls-118{fill:#0591d4;}.cls-119{fill:#31ae5a;}.cls-120{fill:#0770bd;}.cls-121{fill:#7ba647;}.cls-122{fill:#f74927;}.cls-123{fill:#baa03d;}.cls-124{fill:#2ea48f;}.cls-125{fill:#e53b24;}.cls-126{fill:#3fad59;}.cls-127{fill:#6daa51;}.cls-128{fill:#0c9bda;}.cls-129{fill:#f9812a;}.cls-130{fill:#804468;}.cls-131{fill:#fe9d3c;}.cls-132{fill:#047bc4;}.cls-133{fill:#eaa143;}.cls-134{fill:#249bac;}.cls-135{fill:#2ea96f;}.cls-136{fill:#c1a03c;}.cls-137{fill:#0a9bda;}.cls-138{fill:#c3a03e;}.cls-139{fill:#2897cd;}.cls-140{fill:#f99531;}.cls-141{fill:#a2a94f;}.cls-142{fill:#f9812e;}.cls-143{fill:#e99c39;}.cls-144{fill:#eb452c;}.cls-145{fill:#47aa53;}.cls-146{fill:#e94a33;}.cls-147{fill:#7fa546;}.cls-148{fill:#35b058;}.cls-149{fill:#45a74d;}.cls-150{fill:#f73320;}.cls-151{fill:#0d88cd;}.cls-152{fill:#f86d27;}.cls-153{fill:#f73927;}.cls-154{fill:#f59d3b;}.cls-155{fill:#7ca648;}.cls-156{fill:#0768b8;}.cls-157{fill:#23a27a;}.cls-158{fill:#1d91d0;}.cls-159{fill:#f9a33b;}.cls-160{fill:#fab43d;}.cls-161{fill:#fe9e3e;}.cls-162{fill:#39ab57;}.cls-163{fill:#e7a142;}.cls-164{fill:#095fb1;}.cls-165{fill:#6f4a77;}.cls-166{fill:#2193d1;}.cls-167{fill:#34ab57;}.cls-168{fill:#30ae51;}.cls-169{fill:#eb3f26;}.cls-170{fill:#90a444;}.cls-171{fill:#1f92d0;}.cls-172{fill:#f86e28;}.cls-173{fill:#82a646;}.cls-174{fill:#c2a343;}.cls-175{fill:#e09d3a;}.cls-176{fill:#a54151;}.cls-177{fill:#d4a140;}.cls-178{fill:#894665;}.cls-179{fill:#76a84d;}.cls-180{fill:#9da444;}.cls-181{fill:#ee9c39;}.cls-182{fill:#714571;}.cls-183{fill:#b2a342;}.cls-184{fill:#95a445;}.cls-185{fill:#1156a8;}.cls-186{fill:#27a191;}.cls-187{fill:#a7a444;}.cls-188{fill:#d33d31;}.cls-189{fill:#0777c2;}.cls-190{fill:#baa23f;}.cls-191{fill:#89a546;}.cls-192{fill:#f9a134;}.cls-193{fill:#0584ca;}.cls-194{fill:#e1422f;}.cls-195{fill:#29a577;}.cls-196{fill:#874c6d;}.cls-197{fill:#59a84f;}.cls-198{fill:#0b8cd0;}.cls-199{fill:#dea243;}.cls-200{fill:#6eaa50;}.cls-201{fill:#97425a;}.cls-202{fill:#e09e3b;}.cls-203{fill:#cdac56;}.cls-204{fill:#4562a3;}.cls-205{fill:#2354a2;}.cls-206{fill:#1b98d6;}.cls-207{fill:#a9a74b;}.cls-208{fill:#f86138;}.cls-209{fill:#0a66b5;}.cls-210{fill:#f97745;}.cls-211{fill:#60b366;}.cls-212{fill:#257cc2;}.cls-213{fill:#f99731;}.cls-214{fill:#83ad56;}.cls-215{fill:#3ba6b1;}.cls-216{fill:#22a5dd;}.cls-217{fill:#67497a;}.cls-218{fill:#76b363;}.cls-219{fill:#f85538;}.cls-220{fill:#f97d38;}.cls-221{fill:#f1ab56;}.cls-222{fill:#98617d;}.cls-223{fill:#e35544;}.cls-224{fill:#57b468;}.cls-225{fill:#38aa8d;}.cls-226{fill:#faa64a;}.cls-227{fill:#f84d3c;}.cls-228{fill:#fea750;}.cls-229{fill:#f73b27;}.cls-230{fill:#259da1;}.cls-231{fill:#309ebe;}.cls-232{fill:#ee5c46;}.cls-233{fill:#a0a547;}.cls-234{fill:#16a0db;}.cls-235{fill:#48a6d9;}.cls-236{fill:#f84736;}.cls-237{fill:#46b164;}.cls-238{fill:#0799d9;}.cls-239{fill:#23a5dd;}.cls-240{fill:#ee5f49;}.cls-241{fill:#27a7de;}.cls-242{fill:#309bcf;}.cls-243{fill:#cba343;}.cls-244{fill:#ed523b;}.cls-245{fill:#fbbc51;}.cls-246{fill:#fab658;}.cls-247{fill:#fa8b3a;}.cls-248{fill:#48b865;}.cls-249{fill:#ee5b45;}.cls-250{fill:#27a384;}.cls-251{fill:#fea751;}.cls-252{fill:#4db56c;}.cls-253{fill:#2b98d3;}.cls-254{fill:#3daf5e;}.cls-255{fill:#0c8ed1;}.cls-256{fill:#fe9d3d;}.cls-257{fill:#2c98d3;}.cls-258{fill:#2e9eb7;}.cls-259{fill:#269cac;}.cls-260{fill:#8c5677;}.cls-261{fill:#d64b40;}.cls-262{fill:#d75950;}.cls-263{fill:#855579;}.cls-264{fill:#5b4c82;}.cls-265{fill:#87a443;}.cls-266{fill:#c84844;}.cls-267{fill:#ba545b;}.cls-268{fill:#b2a94e;}.cls-269{fill-opacity:0;}</style><clipPath id="clip-path"><rect class="cls-1" x="3" y="3.08" width="18.18" height="17.67"/></clipPath><clipPath id="clip-path-2"><rect class="cls-1" x="3" y="3.08" width="18.18" height="17.67"/></clipPath></defs><g id="Illustration_1" data-name="Illustration 1"><g class="cls-2"><g class="cls-3"><path class="cls-4" d="M15.69,10.44a2.13,2.13,0,0,1-.33.11.45.45,0,0,1-.5-.26c-.1-.25.09-.35.26-.45a.45.45,0,0,1,.63.13c.11.17.15.34-.06.47"/><path class="cls-5" d="M11.67,8.14a.56.56,0,0,1,0,.56c-.1.18-.28.31-.46.22A.34.34,0,0,1,11,8.43a.59.59,0,0,0,0-.14A.51.51,0,0,1,11.24,8a.33.33,0,0,1,.44,0,.08.08,0,0,1,0,.1"/><path class="cls-6" d="M16.33,12.71c0,.2.09.45-.18.53A.49.49,0,0,1,15.6,13a.36.36,0,0,1,0-.44.32.32,0,0,1,.42,0,2.53,2.53,0,0,1,.27.18s0,0,0,0"/><path class="cls-7" d="M14.69,15.78a.54.54,0,0,1-.26-.59c0-.14.05-.3.25-.31a.31.31,0,0,1,.36.22c0,.09,0,.19.15.22s0,.15,0,.22-.2.4-.47.24"/><path class="cls-8" d="M15.7,14.81c-.1.18-.24.3-.44.18a.53.53,0,0,1-.26-.63c.06-.25.25-.26.46-.21s.35.3.24.66"/><path class="cls-9" d="M7.87,11.69c0-.2,0-.44.24-.5a.47.47,0,0,1,.5.27.39.39,0,0,1,0,.48.35.35,0,0,1-.43,0A1.24,1.24,0,0,1,8,11.77a.09.09,0,0,1-.08-.08"/><path class="cls-10" d="M10.75,8.35c.12.29.18.56-.13.78s-.43.12-.47-.22a2.68,2.68,0,0,1,0-.4V8.45c.16-.21.33-.35.57-.1"/><path class="cls-11" d="M12,8.07c.2,0,.43-.22.57.06a.49.49,0,0,1-.18.62.32.32,0,0,1-.42.06c-.16-.11-.13-.27-.1-.43s.15-.19.14-.32Z"/><path class="cls-12" d="M13.47,8.73l0,0c-.19.2-.42.36-.65.13s-.06-.4.08-.55.44-.21.67,0l0,0a.28.28,0,0,1-.11.32"/><path class="cls-8" d="M15.55,14.07c-.15-.21-.34-.43-.09-.68s.33-.09.47.06a.45.45,0,0,1,.05.7c-.17.11-.32.12-.43-.08"/><path class="cls-13" d="M12,16.36c.33-.47.44-.49.74-.15a.47.47,0,0,1-.07.56l-.14.11a.45.45,0,0,1-.41,0,.38.38,0,0,1-.12-.55"/><path class="cls-14" d="M15.38,15.93a.65.65,0,0,1,.24.61.41.41,0,0,1-.29.33c-.16.05-.25-.1-.3-.24s-.07-.23-.1-.34.14-.46.45-.36"/><path class="cls-15" d="M16.2,9.55a2.94,2.94,0,0,1,.42,0,.37.37,0,0,1,.32.31c0,.19-.11.25-.25.3s-.36.11-.54,0c-.26-.3-.25-.42.05-.6"/><path class="cls-16" d="M8.53,15.7a.57.57,0,0,1-.58.21c-.15,0-.3-.12-.32-.3s.13-.27.28-.31l.18,0a.53.53,0,0,1,.28,0c.18.09.28.21.16.43"/><path class="cls-17" d="M12.88,16.21c.07-.15.12-.32.3-.36s.34.2.39.42a.66.66,0,0,1,0,.28.38.38,0,0,1-.09.15.47.47,0,0,1-.44.1.21.21,0,0,1-.1-.06.49.49,0,0,1,0-.53"/><path class="cls-18" d="M15.34,8.67a.69.69,0,0,1,.51-.15c.15,0,.31.11.32.29a.27.27,0,0,1-.25.3,2.17,2.17,0,0,1-.43.08c-.34-.17-.36-.27-.15-.52"/><path class="cls-19" d="M11.22,7.55a.55.55,0,0,1,.16-.65c.1-.11.21-.22.37-.12a.31.31,0,0,1,.13.38,1.7,1.7,0,0,1-.09.24c0,.13-.12.17-.21.24s-.28.14-.36-.09"/><path class="cls-20" d="M8.73,15a.52.52,0,0,1,.67-.18c.2.07.36.23.17.48a1.36,1.36,0,0,1-.66.15.34.34,0,0,1-.28-.26.18.18,0,0,1,.1-.19"/><path class="cls-21" d="M11.59,16.81c-.2,0-.45,0-.48-.23A.53.53,0,0,1,11.6,16a.69.69,0,0,1,.32.39.51.51,0,0,1-.14.39c-.06,0-.11.09-.19,0"/><path class="cls-22" d="M10,16.74c.2,0,.42,0,.4.31a.57.57,0,0,1-.56.42A.28.28,0,0,1,9.61,17c.08-.15.24-.18.34-.3Z"/><path class="cls-23" d="M12.31,7.39c0-.28.27-.58.49-.57s.25.13.24.3-.29.55-.51.53a.22.22,0,0,1-.22-.26"/><path class="cls-24" d="M16.84,11.85a.58.58,0,0,1,.41,0c.19.11.4.26.29.5s-.34.17-.53.06c-.14.06-.22,0-.28-.12s-.14-.37.11-.48"/><path class="cls-25" d="M15.83,15.3c0-.17.09-.29.27-.24a.47.47,0,0,1,.33.47c0,.16,0,.33-.19.39s-.26-.06-.35-.19a.34.34,0,0,1-.06-.24.17.17,0,0,1,0-.19"/><path class="cls-26" d="M14.4,16.66l.15.19a.73.73,0,0,1,0,.46c-.09.13-.12.36-.33.3S14,17.25,14,17a.27.27,0,0,1,0-.26c.11-.1.22-.21.38-.11"/><path class="cls-27" d="M16.89,13a.6.6,0,0,1,.53.5c0,.19-.08.27-.26.26a.59.59,0,0,1-.51-.53.25.25,0,0,1,.24-.23"/><path class="cls-28" d="M16.34,14.52c0-.16-.06-.36.14-.45a.31.31,0,0,1,.36.09.55.55,0,0,1,.2.48.23.23,0,0,1-.17.21c-.21,0-.33-.1-.44-.24a.81.81,0,0,0-.1-.09Z"/><path class="cls-29" d="M8.3,9.35a.46.46,0,0,1-.2-.29c0-.22-.1-.48.15-.58s.34.13.43.32a.52.52,0,0,1,.07.32c-.08.24-.21.35-.45.23"/><path class="cls-30" d="M10.1,7.84a.8.8,0,0,1,0-.57c.08-.16.19-.29.39-.24s.15.23.17.38-.11.15,0,.23a.11.11,0,0,1,0,.1.75.75,0,0,1-.17.19c-.16.08-.31.11-.41-.09"/><path class="cls-31" d="M7.37,11.4a.59.59,0,0,1-.5-.49.25.25,0,0,1,.24-.3c.2,0,.47.25.49.49s-.06.29-.23.3"/><path class="cls-32" d="M12.32,18l-.16.05c-.12.05-.25.09-.35,0a.35.35,0,0,1,0-.38c0-.07.06-.15.1-.23l0,0a.17.17,0,0,1,.06-.1c.2-.08.4-.19.48.14s-.1.39-.08.6Z"/><path class="cls-33" d="M11.39,17.29c0,.34-.34.66-.55.63a.25.25,0,0,1-.23-.27c0-.25.33-.56.55-.53s.23.11.23.17"/><path class="cls-34" d="M13.87,7.17a.24.24,0,0,1,.28.26.58.58,0,0,1-.5.48.22.22,0,0,1-.27-.25.54.54,0,0,1,.49-.49"/><path class="cls-35" d="M14.4,8a.61.61,0,0,1,.34-.23c.17,0,.35-.06.44.13s0,.32-.18.42l-.16.07a.35.35,0,0,1-.28.07c-.25-.08-.34-.22-.16-.46"/><path class="cls-36" d="M9.32,16.51a.28.28,0,0,1-.19.24c-.23.09-.48.11-.59-.13s.13-.36.34-.42.32-.1.46,0a.17.17,0,0,1,0,.3"/><path class="cls-37" d="M8.29,10.41c.19-.22.36-.13.51,0s.25.42.06.63-.34.13-.48-.05a1.83,1.83,0,0,1-.09-.62"/><path class="cls-38" d="M16.19,12.29a.51.51,0,0,1-.66-.34c0-.28.21-.29.39-.32s.21,0,.32,0a.15.15,0,0,1,.11,0c.12.25.11.46-.16.6"/><path class="cls-39" d="M10.3,15.55a.47.47,0,0,1-.41.52.17.17,0,0,1-.18.1.46.46,0,0,1-.33-.38c0-.14,0-.26.16-.3s.52-.11.76.06"/><path class="cls-40" d="M15.83,15.3v.19c-.13.12-.12.37-.33.42s-.4-.16-.38-.44a1,1,0,0,1,.07-.15c.13-.29.3-.29.47,0,.07.09.09.14.17,0"/><path class="cls-41" d="M10.74,6c-.06.23-.09.5-.38.55s-.2-.14-.19-.28.08-.5.36-.56.17.15.21.29"/><path class="cls-42" d="M14.67,18.33c-.05.21-.07.46-.34.48s-.23-.16-.21-.31.06-.49.35-.51.18.19.2.34"/><path class="cls-43" d="M12.74,19c0-.22.1-.47.38-.52s.19.11.2.24-.24.59-.41.58-.16-.15-.17-.3"/><path class="cls-44" d="M9.08,14.22c.1.43-.29.38-.49.51a.36.36,0,0,1-.27-.05c-.13-.17-.37-.33,0-.54a1.23,1.23,0,0,1,.8.08"/><path class="cls-45" d="M9.31,6.78c-.05.2,0,.45-.3.48s-.23-.19-.23-.35,0-.45.29-.47.2.19.24.34"/><path class="cls-46" d="M14,16.82A1.72,1.72,0,0,1,14,17c-.15,0-.25.26-.44.11a.11.11,0,0,1-.1-.06.38.38,0,0,1,0-.41c0-.05,0-.11,0-.17a1.28,1.28,0,0,1,.29-.13h.05a.09.09,0,0,1,.11,0,.57.57,0,0,1,.12.47"/><path class="cls-47" d="M6,13.35a.51.51,0,0,1-.53-.4c0-.16.1-.22.23-.2a.53.53,0,0,1,.53.4c0,.18-.1.19-.23.2"/><path class="cls-48" d="M10.17,8.51a.51.51,0,0,1-.29.23c-.36-.13-.41-.43-.14-.74a.35.35,0,0,1,.35-.07c.26.17.18.37.08.59Z"/><path class="cls-49" d="M9.23,9.32l-.14.09c-.26.07-.32-.1-.35-.31a.45.45,0,0,1,0-.3.27.27,0,0,1,.37-.2c.18.06.2.21.23.37a.39.39,0,0,1-.16.35"/><path class="cls-50" d="M15.46,17.59c0-.23,0-.44.26-.44s.26.23.25.42-.07.4-.29.39-.21-.23-.22-.37"/><path class="cls-51" d="M9.76,16.14l.13-.07c.39.23.4.34.06.67h0c-.21,0-.4,0-.5-.22a.3.3,0,0,1,.31-.37"/><path class="cls-52" d="M11.59,6.07c0-.24.25-.54.43-.52s.18.15.16.27-.16.49-.43.52-.16-.14-.16-.27"/><path class="cls-53" d="M8.73,10c-.16.07-.27.35-.5.13a.49.49,0,0,1-.07-.66c.37-.19.46.14.61.36a.21.21,0,0,1,0,.17"/><path class="cls-54" d="M13,16.73h.1c.1.14,0,.29,0,.44s0,.21-.16.21-.33.11-.45-.07-.05-.35.06-.51l.08-.09c.12,0,.23-.09.34,0"/><path class="cls-55" d="M16,14.21a.58.58,0,0,1,.36.31h0c0,.16.06.34-.11.42s-.3-.06-.4-.19c-.18-.39-.15-.48.16-.53"/><path class="cls-56" d="M11.67,8.14V8.07a.33.33,0,0,1,0-.43.67.67,0,0,1,.27-.23c.12,0,.27-.06.33.1a.5.5,0,0,1-.21.56h0a.64.64,0,0,1-.36.08"/><path class="cls-57" d="M18.7,12.77c0,.14-.15.15-.27.14s-.51-.29-.48-.47.14-.15.25-.14.51.27.5.47"/><path class="cls-58" d="M7.87,11.69l.08.08a1,1,0,0,1-.07.38c-.24.15-.42,0-.6-.14a.15.15,0,0,1,0-.17c0-.14,0-.27.12-.33s.31.08.45.18"/><path class="cls-59" d="M14,18c-.06.21-.12.43-.35.45s-.22-.18-.2-.33.1-.43.35-.45.18.19.2.33"/><path class="cls-60" d="M14.94,16.29c-.06.27-.17.43-.47.3-.12,0-.14-.16-.17-.26a.28.28,0,0,1,0-.09l.06-.12a.46.46,0,0,1,.12-.12c0-.11.13-.13.22-.17.28,0,.31.22.25.46"/><path class="cls-61" d="M8.09,7.89c0,.19,0,.38-.23.37s-.27-.21-.27-.41,0-.38.24-.36.24.23.26.4"/><path class="cls-48" d="M10,7c0,.19,0,.43-.31.45s-.21-.16-.21-.32.07-.44.31-.46.2.16.21.33"/><path class="cls-27" d="M16.8,12.29a.23.23,0,0,0,.21.16s-.07.05-.07.08c-.07.4-.17.46-.52.24l-.09-.06s0,0,0,0l0-.31c.15-.25.35-.12.54-.07"/><path class="cls-62" d="M15.2,17.39c0,.19,0,.41-.28.42s-.22-.18-.22-.33,0-.42.27-.44.22.18.23.35"/><path class="cls-63" d="M12.92,17.39l.12-.2a.1.1,0,0,1,.08-.05c.18.14.39.25.35.53l-.12.18a.24.24,0,0,1-.29.15c-.14,0-.17-.15-.17-.28s0-.22,0-.33"/><path class="cls-64" d="M8.88,16.08c-.2,0-.32-.15-.28-.38a.29.29,0,0,1,.28-.23h.23c.2,0,.32.15.29.38a.37.37,0,0,1-.52.23"/><path class="cls-65" d="M11.32,6.61A.42.42,0,0,1,11,7c-.19,0-.2-.14-.2-.28s.11-.45.36-.48.18.12.17.34"/><path class="cls-66" d="M7.05,14.9c.19.06.43.06.44.3s-.21.26-.36.25-.4-.07-.39-.32.19-.18.31-.23"/><path class="cls-67" d="M17.3,10.12c.21,0,.43.08.46.3s-.15.25-.33.24-.39-.1-.42-.31.16-.21.29-.23"/><path class="cls-34" d="M13.54,8.37c.16-.46.35-.56.72-.38.13.35-.07.49-.34.59a.32.32,0,0,1-.38-.22Z"/><path class="cls-68" d="M7.94,16.59c-.16,0-.34-.07-.33-.26s.2-.26.39-.26.35,0,.33.23-.2.27-.39.29"/><path class="cls-69" d="M13.09,6.49c-.11,0-.17-.08-.18-.21a.63.63,0,0,1,.44-.51c.14,0,.19.08.2.21s-.25.51-.46.51"/><path class="cls-70" d="M10.67,7.68v0c.17-.09.33-.15.5,0a.33.33,0,0,1,.05.38.64.64,0,0,1-.27.27l-.21,0a.34.34,0,0,1-.15-.2.7.7,0,0,1,.08-.43"/><path class="cls-71" d="M15.57,7.62c-.14,0-.29,0-.26-.23s.23-.3.43-.32.29,0,.27.21-.23.31-.44.34"/><path class="cls-72" d="M16.35,11.71l-.08,0a.09.09,0,0,1-.06-.06c0-.1-.11-.19-.09-.31s.33-.2.53-.07.44.27.12.54a.26.26,0,0,1-.42-.08"/><path class="cls-73" d="M8.05,16.83c.16,0,.34,0,.32.24s-.24.28-.42.3-.32,0-.31-.23.25-.26.41-.31"/><path class="cls-74" d="M7,16.22c-.21,0-.42-.07-.44-.29s.19-.26.35-.23.41,0,.41.29-.18.21-.32.23"/><path class="cls-75" d="M15.45,11.26c-.16,0-.19-.16-.18-.3s.45-.16.63-.32a.2.2,0,0,1,.19.09.43.43,0,0,1,.09.28c-.16.35-.45.28-.73.25"/><path class="cls-76" d="M9.88,8.81c.27.41.22.68-.14.9a1.16,1.16,0,0,1-.25-.86c.12-.16.25-.12.39,0"/><path class="cls-77" d="M6.06,11.94a.55.55,0,0,1-.49-.45c0-.13.08-.17.18-.18a.61.61,0,0,1,.52.44c0,.14-.09.18-.21.19"/><path class="cls-78" d="M18.4,14.08c0,.12-.06.22-.19.2a.5.5,0,0,1-.46-.43c0-.14.06-.23.18-.21a.54.54,0,0,1,.47.44"/><path class="cls-79" d="M8.86,7.9c0,.18-.07.37-.25.37s-.25-.21-.25-.41.05-.35.23-.35.24.23.27.39"/><path class="cls-80" d="M12.63,6.49a.49.49,0,0,1-.39.45c-.15,0-.21-.1-.19-.24a.5.5,0,0,1,.39-.47c.15,0,.19.11.19.26"/><path class="cls-81" d="M11,16.23a.44.44,0,0,1-.59.28.29.29,0,0,1-.19-.4s0,0,.05-.05a.67.67,0,0,1,.5-.08c.13,0,.25.07.23.25"/><path class="cls-82" d="M11.37,19c.06-.26.18-.46.44-.48s.17.15.15.27a.46.46,0,0,1-.45.43c-.18,0-.13-.13-.14-.22"/><path class="cls-83" d="M17,8.14c.12,0,.23.12.17.27s-.28.2-.46.19-.27,0-.3-.2a.2.2,0,0,1,.21-.26.5.5,0,0,1,.38,0"/><path class="cls-84" d="M10.25,18.87c-.1,0-.2-.07-.18-.2a.51.51,0,0,1,.41-.46.17.17,0,0,1,.22.18.55.55,0,0,1-.45.48"/><path class="cls-85" d="M16.5,16.37c0-.14,0-.32.23-.3s.29.23.3.43,0,.32-.22.31-.25-.25-.31-.44"/><path class="cls-86" d="M11.59,18.05a.55.55,0,0,1-.4.46.18.18,0,0,1-.21-.22.49.49,0,0,1,.41-.44c.13,0,.19.07.2.2"/><path class="cls-87" d="M16.27,16.55c0,.15-.05.33-.23.32s-.28-.23-.27-.43,0-.32.23-.3.25.23.27.41"/><path class="cls-71" d="M14.37,6.91c-.13,0-.24,0-.22-.18a.47.47,0,0,1,.43-.42.17.17,0,0,1,.22.2.47.47,0,0,1-.43.4"/><path class="cls-88" d="M6.23,10a.47.47,0,0,1,.36.45c0,.13,0,.21-.18.21A.51.51,0,0,1,6,10.17c0-.13.08-.19.23-.18"/><path class="cls-89" d="M15.71,8.37c-.16,0-.33,0-.3-.23s.22-.28.4-.29.32.06.3.24-.22.27-.4.28"/><path class="cls-90" d="M12.32,18c.14,0,.31-.23.43,0a.37.37,0,0,1-.1.46c-.08.09-.18.23-.32.17s-.11-.25-.07-.4a2.1,2.1,0,0,1,.06-.24Z"/><path class="cls-91" d="M17.49,14.88a.49.49,0,0,1,.34.48.17.17,0,0,1-.2.2.46.46,0,0,1-.37-.48c0-.13.07-.2.23-.2"/><path class="cls-92" d="M7.21,9.16c0,.13,0,.26-.19.25S6.69,9.2,6.66,9s0-.26.19-.26.3.23.36.44"/><path class="cls-93" d="M9.06,16.94c.15,0,.31,0,.28.2a.37.37,0,0,1-.38.33c-.14,0-.29,0-.29-.2s.21-.3.39-.33"/><path class="cls-94" d="M9.1,18.23c-.15,0-.28,0-.25-.19a.43.43,0,0,1,.43-.37c.14,0,.25,0,.23.2a.41.41,0,0,1-.41.36"/><path class="cls-95" d="M17.71,13.32a.47.47,0,0,1-.35-.39c0-.16.1-.22.23-.19s.4.15.42.41-.09.19-.3.17"/><path class="cls-96" d="M7.42,8.84c0-.14,0-.29.23-.26s.27.25.28.45-.07.26-.21.25-.28-.23-.3-.44"/><path class="cls-97" d="M9.09,9.46a.58.58,0,0,1,.3.64c0,.17-.1.3-.3.28a1.19,1.19,0,0,1-.17-.9.15.15,0,0,1,.17,0"/><path class="cls-98" d="M9.09,7.76c.22-.29.38-.19.52.09a.54.54,0,0,1-.14.6c-.4-.07-.34-.41-.38-.69"/><path class="cls-71" d="M14.74,7.08c.16,0,.28,0,.26.2a.38.38,0,0,1-.39.35c-.13,0-.26,0-.26-.17a.41.41,0,0,1,.39-.38"/><path class="cls-99" d="M14.4,16.15l-.07.08a.6.6,0,0,1-.5-.67c.23-.26.39-.19.51.11s0,.32.06.48"/><path class="cls-91" d="M17.08,15.49c0,.14,0,.29-.19.27a.42.42,0,0,1-.34-.45c0-.14.07-.26.21-.23a.39.39,0,0,1,.32.41"/><path class="cls-100" d="M7.3,11.84V12c.08.05.13.11,0,.2a.57.57,0,0,1-.64,0c-.08-.11-.14-.23,0-.35A.29.29,0,0,1,7,11.8c.09,0,.17.08.27,0"/><path class="cls-101" d="M7.52,9.56c.32-.07.45.13.5.42a.3.3,0,0,1-.28.38s-.06,0-.09-.06c-.09-.24-.24-.46-.13-.74"/><path class="cls-102" d="M6.66,11.56a.44.44,0,0,1-.37-.38c0-.16.06-.25.2-.22a.43.43,0,0,1,.39.41c0,.13,0,.2-.22.19"/><path class="cls-103" d="M14.13,19.87c0-.19.08-.42.31-.44s.18.15.15.28-.06.42-.3.43-.16-.15-.16-.27"/><path class="cls-104" d="M10.88,4.68c-.05.17-.1.39-.34.42s-.16-.13-.14-.24.1-.43.33-.47.15.14.15.29"/><path class="cls-105" d="M17.55,9.87c-.17,0-.31-.13-.26-.32s.22-.16.36-.16a.42.42,0,0,1,.41.23c-.07.3-.34.18-.51.25"/><path class="cls-106" d="M13.83,15.56c.13.25.21.54.5.66v.06a.27.27,0,0,1-.41.09h-.1c-.11-.27-.24-.54,0-.8"/><path class="cls-107" d="M12.92,20.08a.5.5,0,0,1-.33.49c-.15,0-.17-.11-.15-.22s.11-.44.36-.48.11.13.12.21"/><path class="cls-108" d="M7.5,14.21c0-.15-.13-.23-.12-.36a.64.64,0,0,1,.7,0l.08.07c0,.31,0,.37-.42.39a.28.28,0,0,1-.24-.1"/><path class="cls-109" d="M9.09,5.44c0,.17,0,.38-.25.42s-.18-.14-.18-.27,0-.39.25-.42.17.13.18.27"/><path class="cls-110" d="M12.34,5c-.15,0-.2-.06-.19-.15a.51.51,0,0,1,.34-.51c.12,0,.18,0,.17.16a.64.64,0,0,1-.32.5"/><path class="cls-111" d="M14.25,9.1l-.2.15a.44.44,0,0,1-.37,0A.2.2,0,0,1,13.53,9a1.77,1.77,0,0,1,.79-.32c.09,0,.12.06.13.15a.24.24,0,0,1-.2.24"/><path class="cls-112" d="M5.78,16.45c-.18,0-.37-.05-.39-.25s.16-.2.29-.19.36,0,.38.25-.16.18-.28.19"/><path class="cls-113" d="M16.67,11.26l-.06-.15c.15-.25.42-.22.66-.28.06.11.2.2.1.35a.35.35,0,0,1-.4.15l-.3-.07"/><path class="cls-114" d="M10,5.75c0,.16,0,.37-.28.38S9.52,6,9.53,5.85s.06-.35.26-.38.17.13.16.28"/><path class="cls-115" d="M16.26,18.79c0,.16-.07.34-.26.33s-.17-.17-.16-.31,0-.36.21-.35.18.19.21.33"/><path class="cls-116" d="M17.94,8.14c-.15,0-.32,0-.34-.2s.17-.22.31-.22.32,0,.33.2-.17.2-.3.22"/><path class="cls-117" d="M19.09,9.81c-.18,0-.38-.05-.42-.27s.14-.19.25-.18.41,0,.43.29-.15.13-.26.16"/><path class="cls-118" d="M17.6,11.93c-.17-.06-.33-.16-.24-.36s.31-.13.47-.06a.35.35,0,0,1,.22.26.48.48,0,0,1-.45.16"/><path class="cls-119" d="M11.16,19.78c.13,0,.17.07.16.16a.5.5,0,0,1-.35.45c-.12,0-.18-.05-.16-.17a.53.53,0,0,1,.35-.44"/><path class="cls-120" d="M17.26,10.83c-.17.2-.45.14-.65.28-.15-.15-.11-.28,0-.42a.57.57,0,0,1,.63.14"/><path class="cls-121" d="M4.94,14.69a.51.51,0,0,1-.48-.29c0-.1.13-.21.25-.17s.42.08.46.32-.15.12-.23.14"/><path class="cls-122" d="M11.44,5a.17.17,0,0,1,.15.22c-.05.21-.11.42-.35.44s-.15-.13-.12-.23.11-.38.32-.43"/><path class="cls-123" d="M7.37,13.64a.49.49,0,0,1-.65-.23c0-.21.19-.17.32-.19a1.29,1.29,0,0,1,.39,0c.21.16.21.29-.06.38"/><path class="cls-124" d="M13.85,19.22c0,.18-.07.37-.28.41s-.18-.09-.16-.21.08-.4.3-.44.12.13.14.24"/><path class="cls-125" d="M13.9,8.57c.16,0,.34-.05.43.16-.23.21-.53.19-.8.3a1.48,1.48,0,0,0,0-.21c.06-.17.15-.3.36-.25"/><path class="cls-126" d="M7,17.47c.14,0,.28.05.25.21s-.2.22-.36.22-.27,0-.24-.21.21-.2.35-.22"/><path class="cls-127" d="M5.87,15.09c.16,0,.35.06.35.28s-.16.17-.27.15-.36,0-.36-.27.15-.15.28-.16"/><path class="cls-128" d="M19.26,12.2c0,.13-.12.18-.22.15s-.39-.11-.41-.36.11-.15.21-.13a.53.53,0,0,1,.42.34"/><path class="cls-129" d="M8.72,9.83c0-.18,0-.3.23-.34,0,.3.17.58.14.88-.24,0-.32-.15-.36-.36,0-.06,0-.12,0-.18"/><path class="cls-130" d="M17.84,8.66c.15,0,.33,0,.32.21a.29.29,0,0,1-.3.23c-.14,0-.31-.07-.31-.25s.17-.18.29-.19"/><path class="cls-131" d="M4.91,11.22a.5.5,0,0,1-.42-.38.12.12,0,0,1,.14-.16.51.51,0,0,1,.43.38c0,.11,0,.15-.15.16"/><path class="cls-132" d="M18,11.26a.23.23,0,0,1-.13-.3.24.24,0,0,1,.31-.11c.13,0,.27,0,.34.17,0,.35-.29.29-.52.24"/><path class="cls-133" d="M5.36,12.29A.43.43,0,0,1,5,12a.12.12,0,0,1,.15-.15c.2,0,.4.12.43.37,0,.1-.09.12-.19.12"/><path class="cls-134" d="M15.34,18.59c0,.19-.05.38-.26.39s-.16-.16-.15-.28,0-.35.22-.38.16.16.19.27"/><path class="cls-135" d="M12.33,19.38c0,.19-.1.38-.31.43s-.16-.08-.15-.19a.44.44,0,0,1,.33-.43c.1,0,.12.09.13.19"/><path class="cls-136" d="M7.94,13.13c.3,0,.62-.1.79.27a1.08,1.08,0,0,1-.81.06.19.19,0,0,1-.1-.21c0-.07,0-.11.12-.12"/><path class="cls-137" d="M19.46,12.94c.19.05.37.13.41.38,0,.1-.07.14-.16.14s-.46-.25-.45-.4.1-.12.2-.12"/><path class="cls-138" d="M7.47,13.32c-.24.06-.52-.09-.75.09-.17-.27-.11-.38.21-.39s.29.16.46.09a.06.06,0,0,1,.08,0,.18.18,0,0,1,0,.2"/><path class="cls-139" d="M16.69,17.55c0,.14,0,.3-.18.31s-.22-.17-.22-.32,0-.27.16-.28.21.15.24.29"/><path class="cls-140" d="M7.55,6.77c0,.13,0,.32-.19.3s-.21-.18-.21-.34,0-.3.19-.29.18.19.21.33"/><path class="cls-141" d="M5.22,13.46a.41.41,0,0,1,.42.31c0,.09-.1.15-.17.13s-.42-.06-.46-.32.12-.1.21-.12"/><path class="cls-142" d="M8.45,6.71c0,.16,0,.33-.19.35s-.2-.16-.2-.29,0-.32.19-.34.19.15.2.28"/><path class="cls-143" d="M7.82,12.67l0-.23a.69.69,0,0,1,.78,0c0,.07.09.14,0,.23a.71.71,0,0,1-.66.07H7.87a.1.1,0,0,1,0-.06"/><path class="cls-144" d="M16.57,6.87c-.12,0-.25,0-.24-.17s.16-.25.33-.26.24,0,.23.16-.18.23-.32.27"/><path class="cls-145" d="M6.93,17c-.15,0-.31,0-.32-.21s.15-.18.27-.18.33,0,.34.18-.16.2-.29.21"/><path class="cls-146" d="M17,7.52a.3.3,0,0,1-.31.24c-.14,0-.28,0-.28-.18s.18-.2.31-.23a.23.23,0,0,1,.28.17"/><path class="cls-147" d="M6.54,14.5c.11.17,0,.29-.13.31a.48.48,0,0,1-.61-.3.7.7,0,0,1,.74,0"/><path class="cls-148" d="M10.92,19.15a.44.44,0,0,1-.34.38c-.12,0-.16-.08-.14-.17A.42.42,0,0,1,10.8,19c.1,0,.13.08.12.17"/><path class="cls-149" d="M11,16.23c-.19-.3-.49-.1-.73-.17a.54.54,0,0,1,.38-.29c.32-.06.46.12.35.46"/><path class="cls-150" d="M14.19,4.9a.47.47,0,0,1-.35.38c-.09,0-.18,0-.16-.14a.47.47,0,0,1,.37-.42c.11,0,.15.06.14.18"/><path class="cls-151" d="M19.63,11.65a.41.41,0,0,1-.39-.32.12.12,0,0,1,.09-.14.48.48,0,0,1,.52.22c0,.18-.11.2-.22.24"/><path class="cls-152" d="M9.38,9l.14-.09c.07.28.15.56.22.84-.2.06-.27-.11-.37-.24a.69.69,0,0,1,0-.51"/><path class="cls-153" d="M13.12,5.31a.45.45,0,0,1-.34.4.13.13,0,0,1-.15-.16A.47.47,0,0,1,13,5.13c.1,0,.13.06.14.18"/><path class="cls-154" d="M8.57,12.44H7.79c-.07-.13.07-.2.08-.3.29,0,.55,0,.7.3"/><path class="cls-155" d="M7.93,14.73a1.06,1.06,0,0,1,.43-.08c.09,0,.18,0,.23.09v.08c.07.17-.06.2-.17.23A.62.62,0,0,1,7.89,15c0-.09,0-.15,0-.23"/><path class="cls-156" d="M18.58,10.28c.17,0,.36,0,.39.24s-.13.16-.23.15-.39-.08-.43-.26.16-.09.27-.13"/><path class="cls-157" d="M12.09,17c-.06.12-.13.23-.19.34h0c-.27,0-.35-.19-.29-.45a.17.17,0,0,0,0-.07l.17-.08c.26-.12.29.07.33.25"/><path class="cls-78" d="M18.49,13.53c0-.14.09-.16.17-.15a.42.42,0,0,1,.37.35c0,.12-.08.17-.19.14a.47.47,0,0,1-.35-.34"/><path class="cls-57" d="M19.35,14.78c0,.12,0,.2-.12.19a.41.41,0,0,1-.38-.37c0-.08,0-.16.1-.15a.43.43,0,0,1,.4.33"/><path class="cls-158" d="M17.57,17.49c0,.12,0,.28-.16.27s-.22-.17-.23-.32,0-.28.16-.27.21.17.23.32"/><path class="cls-159" d="M7.12,8.26A.32.32,0,0,1,6.87,8c0-.13,0-.27.16-.27s.22.16.25.3a.23.23,0,0,1-.16.28"/><path class="cls-160" d="M6.16,7.85c.18.05.24.2.26.38s0,.21-.15.2S6,8.23,6,8.05s0-.19.16-.2"/><path class="cls-88" d="M5.29,9.25a.41.41,0,0,1,.32.36c0,.1,0,.17-.13.16a.36.36,0,0,1-.34-.35c0-.1,0-.17.15-.17"/><path class="cls-161" d="M5.68,10.86a.42.42,0,0,1-.32-.35c0-.13.06-.18.17-.15a.39.39,0,0,1,.32.35c0,.1-.06.15-.17.15"/><path class="cls-162" d="M8.08,18.09c-.12,0-.23,0-.21-.17s.16-.23.3-.24.24,0,.24.15-.17.23-.33.26"/><path class="cls-163" d="M6.15,12.59a.19.19,0,0,1,0-.29.22.22,0,0,1,.26,0c.16.06.31.12.35.32-.19.18-.39.1-.59,0"/><path class="cls-164" d="M16.55,10.36c.09.45-.23.37-.47.39l-.17-.09s-.05,0-.06,0l0-.07a.24.24,0,0,0,0-.08.81.81,0,0,1,.67-.16h0"/><path class="cls-165" d="M17,9c.18.27,0,.33-.2.37a.38.38,0,0,1-.41-.12c.11-.34.35-.31.61-.25"/><path class="cls-166" d="M18.28,15.81a.36.36,0,0,1,.29.32c0,.09,0,.22-.1.23s-.28-.16-.33-.33a.16.16,0,0,1,.14-.22"/><path class="cls-167" d="M8.25,19c-.11,0-.21,0-.19-.16a.37.37,0,0,1,.37-.29.13.13,0,0,1,.16.15.34.34,0,0,1-.34.3"/><path class="cls-168" d="M9.89,19.45a.44.44,0,0,1-.36.37.12.12,0,0,1-.14-.15.39.39,0,0,1,.35-.36c.11,0,.15.05.15.14"/><path class="cls-169" d="M15.55,5.64a.42.42,0,0,1-.36.3c-.1,0-.18,0-.16-.15a.35.35,0,0,1,.37-.32c.11,0,.15.06.15.17"/><path class="cls-170" d="M7.75,14.22c0,.09,0,.14.08.21-.23.2-.51.05-.76.14H7c-.07-.33,0-.41.48-.37h.25"/><path class="cls-171" d="M17.46,16a.34.34,0,0,1,.25.35c0,.1,0,.22-.13.22s-.25-.17-.26-.34,0-.2.14-.23"/><path class="cls-172" d="M9.44,8.43c-.06.15-.18.09-.28.1a.59.59,0,0,1-.07-.77c.16.2.08.53.35.67"/><path class="cls-173" d="M7.87,14.59v.15c-.32.15-.62.18-.85-.16H7a1.11,1.11,0,0,1,.84,0"/><path class="cls-71" d="M15.76,6.53a.38.38,0,0,1-.38.27.13.13,0,0,1-.14-.17.32.32,0,0,1,.34-.27.16.16,0,0,1,.18.17"/><path class="cls-174" d="M4.69,12.51c.06.09.24.14.14.29s-.24.07-.35,0-.28-.1-.27-.3a.44.44,0,0,1,.48,0"/><path class="cls-175" d="M7.82,12.67l0,.06,0,.15a.53.53,0,0,1-.66,0,.26.26,0,0,1,.06-.3,1,1,0,0,1,.52.09"/><path class="cls-176" d="M14.92,9.17l.12.1a.78.78,0,0,1-.78.28c0-.12,0-.2.07-.3a.26.26,0,0,1,.24-.16.43.43,0,0,1,.35.08"/><path class="cls-177" d="M7.24,12.88H7.9c.12.06-.08.18,0,.25l-.06,0c-.14,0-.29,0-.42-.06l-.07,0-.15-.22"/><path class="cls-178" d="M14.44,9.78a.18.18,0,0,1-.17-.16,2.54,2.54,0,0,1,.86-.22.15.15,0,0,1,0,.16l-.27.22a.75.75,0,0,1-.42,0"/><path class="cls-179" d="M8.66,15.11l-.21.08c-.12,0-.24.09-.37,0s-.18-.1-.19-.22c.23-.07.51.15.7-.15l.14.14-.07.16"/><path class="cls-180" d="M6.92,13.85c.1.33-.12.3-.32.28a.38.38,0,0,1-.31-.2c.17-.33.41-.17.63-.08"/><path class="cls-181" d="M7.37,12.14c0,.14.06.28-.07.38a.64.64,0,0,1-.6-.3,1.9,1.9,0,0,0,.67-.08"/><path class="cls-182" d="M15.25,9.4a.74.74,0,0,1,.44-.16l.23.14c-.13.34-.39.29-.66.24h0a.19.19,0,0,1,0-.23"/><path class="cls-183" d="M8.74,13.55c0,.27-.23.26-.42.24A2.22,2.22,0,0,1,8,13.7l0-.06a.12.12,0,0,1,0-.11,1.05,1.05,0,0,1,.78,0"/><path class="cls-184" d="M8.2,14.21,8.31,14c.28,0,.57-.08.77.22H8.2"/><path class="cls-185" d="M16.5,10.35a1.64,1.64,0,0,1-.66.16c-.06-.15,0-.24.14-.31s.36-.1.5.09a.14.14,0,0,1,0,.06"/><path class="cls-186" d="M13.47,17.67c-.06-.21-.26-.31-.36-.49.1-.24.25-.15.4-.07l0,0c0,.18.09.37-.06.53"/><path class="cls-187" d="M6.92,13.85c-.21,0-.44-.09-.63.08-.16-.21-.06-.31.16-.32a.45.45,0,0,1,.47.24"/><path class="cls-188" d="M15.19,8.66l-.09.22c-.18.06-.34.21-.55.14-.05,0-.1-.06-.09-.14s0-.05,0-.07a.7.7,0,0,1,.64-.22l.07.07"/><path class="cls-189" d="M16.13,10.94c.15.13,0,.26,0,.39-.23.07-.46.14-.67-.07.21-.13.56,0,.68-.32"/><path class="cls-190" d="M8.74,13.55c-.26,0-.54-.08-.8.07h0c0-.08,0-.15,0-.23h.85s.06.1,0,.15"/><path class="cls-191" d="M6.54,14.5H5.8c.12-.32.41-.33.74,0"/><path class="cls-192" d="M7.52,9.56a3.1,3.1,0,0,1,.13.74c-.34-.29-.38-.5-.13-.74"/><path class="cls-193" d="M18,11.26c.19,0,.41,0,.52-.24.12.07.18.17.11.3a.26.26,0,0,1-.28.1.48.48,0,0,1-.35-.16"/><path class="cls-194" d="M15.12,8.59l-.64.22c0-.19.12-.26.26-.32s0-.05.09-.06.24,0,.29.16"/><path class="cls-195" d="M11.6,16.88a.62.62,0,0,0,.28.45.22.22,0,0,1,0,.08c-.14,0-.32.11-.41-.08a.36.36,0,0,1,.12-.45"/><path class="cls-196" d="M17,9a.93.93,0,0,0-.61.25c-.19-.3,0-.33.22-.38A.37.37,0,0,1,17,9"/><path class="cls-197" d="M10.3,15.55H9.52c0-.09,0-.13.1-.13.25-.07.51-.2.68.13"/><path class="cls-198" d="M16.21,11.63l.06.06c-.27,0-.56,0-.73.26-.12-.32.07-.39.3-.4a1.63,1.63,0,0,1,.37.08"/><path class="cls-199" d="M6.15,12.59h.59c.09.24-.07.24-.21.24a.43.43,0,0,1-.38-.23"/><path class="cls-200" d="M8.87,15.55c.17-.08.07-.15,0-.22a2.46,2.46,0,0,1,.71-.08l0,.09c-.09.18-.26.17-.41.2H8.87"/><path class="cls-201" d="M15.11,9.4a2.28,2.28,0,0,1-.84.22V9.55L15,9.27a.06.06,0,0,1,.08.05s0,0,0,.06a0,0,0,0,1,0,0"/><path class="cls-202" d="M7.94,12.74c.23,0,.43-.12.66-.08-.15.31-.32.33-.66.08"/><path class="cls-203" d="M3.1,11.88a.34.34,0,0,1,.27.2c0,.08,0,.12-.09.11A.3.3,0,0,1,3,12c0-.07,0-.11.09-.11"/><path class="cls-204" d="M20.56,9.62c0,.11-.08.12-.15.11s-.23,0-.26-.15.08-.11.15-.11.21,0,.26.15"/><path class="cls-205" d="M17.55,9.87c.13-.17.38-.08.51-.25,0,.3-.11.37-.51.25"/><path class="cls-206" d="M21.18,11.92c0,.08-.09.08-.14.07s-.24-.06-.25-.21.07-.09.13-.08.22.08.26.22"/><path class="cls-207" d="M7.37,13.78l.14-.08a.64.64,0,0,1,.43,0H8c0,.08.14,0,.13.15h-.7a.2.2,0,0,1,0-.07"/><path class="cls-208" d="M11.1,3.23c0,.1,0,.22-.17.27s-.12,0-.11-.13,0-.24.19-.27.09,0,.09.13"/><path class="cls-209" d="M15.85,10.66h.06c-.18.19-.44.17-.64.3.07-.37.34-.29.58-.3"/><path class="cls-210" d="M9.78,4.74a.12.12,0,0,1-.11-.13c0-.11,0-.23.17-.25s.11.06.1.12,0,.22-.16.26"/><path class="cls-211" d="M4.68,16.44c0,.1-.09.12-.16.11s-.2,0-.22-.13,0-.12.12-.12a.24.24,0,0,1,.26.14"/><path class="cls-212" d="M19.92,10.74c-.1,0-.22-.05-.23-.18s.07-.11.13-.09.23,0,.23.19-.07.07-.13.08"/><path class="cls-213" d="M8.29,10.41c.07.2.19.39.09.62a.45.45,0,0,1-.09-.62"/><path class="cls-214" d="M3.37,14.09c.11.05.24.06.26.18s-.07.11-.14.1a.22.22,0,0,1-.24-.16c0-.1.08-.09.12-.12"/><path class="cls-215" d="M15.24,19.65c.07,0,.1.05.1.12s0,.21-.11.25-.11-.06-.11-.13a.22.22,0,0,1,.12-.24"/><path class="cls-216" d="M20.06,12.43c.1,0,.2.06.22.19s0,.11-.11.08-.21-.07-.24-.19.06-.08.13-.08"/><path class="cls-217" d="M15.26,9.62c.22-.08.48,0,.66-.24l.06,0s0,.1,0,.15c-.16.15-.38.14-.56.21l-.15-.07V9.62"/><path class="cls-218" d="M4.77,15.47c-.09,0-.19,0-.22-.14s.08-.11.14-.11.2,0,.22.14-.07.1-.14.11"/><path class="cls-219" d="M11.77,3.92c.09,0,.13.06.1.13s-.06.22-.18.24-.09-.06-.08-.12a.32.32,0,0,1,.16-.25"/><path class="cls-220" d="M8.82,4c.09,0,.08.11.08.18s0,.21-.15.21-.09-.09-.08-.17S8.7,4,8.82,4"/><path class="cls-221" d="M4.1,11.34a.28.28,0,0,1,.23.19c0,.06,0,.1-.07.09S4,11.56,4,11.42s0-.08.09-.08"/><path class="cls-222" d="M18.94,8.56c.09,0,.21,0,.21.14s-.09.11-.16.1-.18,0-.2-.12.08-.1.15-.12"/><path class="cls-223" d="M19,7.46c.09,0,.19,0,.19.12s-.07.12-.15.12-.21,0-.21-.14.1-.09.17-.1"/><path class="cls-224" d="M6.08,17.11c0,.09-.08.11-.15.12s-.17,0-.19-.11.07-.11.14-.12a.16.16,0,0,1,.2.11"/><path class="cls-225" d="M13.54,20.53c0,.09,0,.22-.18.22s-.07-.08-.06-.14,0-.22.17-.23.07.08.07.15"/><path class="cls-226" d="M7.05,5.62c0,.1,0,.21-.13.2s-.1-.09-.1-.16,0-.18.12-.18.08.1.11.14"/><path class="cls-227" d="M13.57,4.15c.09.2,0,.29-.15.36s-.08,0-.08,0,.09-.25.23-.31"/><path class="cls-228" d="M3.82,10.24c0,.08,0,.11-.1.09s-.2-.09-.22-.21,0-.11.11-.09a.36.36,0,0,1,.21.21"/><path class="cls-229" d="M13.16,3.08a.31.31,0,0,1-.19.38s-.08,0-.08-.08a.3.3,0,0,1,.27-.3"/><path class="cls-230" d="M13.55,16.31c-.08-.19-.12-.41-.37-.46.39-.11.41.16.42.43,0,0,0,0,0,0"/><path class="cls-231" d="M16.29,19.84a.12.12,0,0,1,.11.15c0,.1,0,.2-.13.22s-.09-.07-.09-.13,0-.2.11-.24"/><path class="cls-232" d="M17.53,6.15c-.07,0-.14,0-.15-.07s.07-.14.15-.16.13,0,.14.07-.07.14-.14.16"/><path class="cls-233" d="M4.29,13.38c0,.09-.06.1-.12.1A.24.24,0,0,1,4,13.34c0-.08,0-.12.09-.12a.3.3,0,0,1,.25.16"/><path class="cls-234" d="M21,13.94c0,.08-.05.12-.09.11s-.23-.08-.25-.22,0-.08.08-.07a.34.34,0,0,1,.26.18"/><path class="cls-235" d="M17.87,18.3c.1,0,.12.06.14.14s0,.16-.06.18-.13-.07-.15-.15a.13.13,0,0,1,.07-.17"/><path class="cls-236" d="M14.85,3.87c0,.1-.08.19-.21.2a.07.07,0,0,1-.06-.1c0-.1.08-.2.21-.2s.07,0,.06.1"/><path class="cls-237" d="M6.14,18.19a.18.18,0,0,1-.2.11c-.05,0-.13,0-.12-.1s.11-.14.21-.13.11,0,.11.12"/><path class="cls-238" d="M17.6,11.93l.45-.16c0,.41-.26.22-.45.16"/><path class="cls-239" d="M20.21,15.58c0,.07,0,.1-.09.08a.25.25,0,0,1-.19-.2c0-.07.06-.08.1-.07a.21.21,0,0,1,.18.19"/><path class="cls-240" d="M16.06,5C16,5,16,5,16,4.91a.2.2,0,0,1,.2-.17.08.08,0,0,1,.08.09.2.2,0,0,1-.19.17"/><path class="cls-241" d="M19.69,14.14a.25.25,0,0,1,.21.17c0,.07,0,.11-.1.1a.25.25,0,0,1-.19-.19c0-.07,0-.07.08-.08"/><path class="cls-242" d="M17,18.6c0,.07,0,.14-.1.13s-.12-.11-.11-.2.05-.14.1-.13.12.11.11.2"/><path class="cls-243" d="M4.69,12.51H4.21c.15-.21.18-.21.48,0"/><path class="cls-244" d="M17.62,7.19s-.12,0-.12-.08A.16.16,0,0,1,17.67,7c.08,0,.16,0,.15.11s-.1.11-.2.11"/><path class="cls-245" d="M5.66,7.24c0,.08,0,.15-.09.13a.16.16,0,0,1-.13-.15c0-.07,0-.13.08-.14s.12.09.14.16"/><path class="cls-246" d="M6.52,6.9c.11,0,.13.07.14.15s0,.15-.08.17-.11-.07-.13-.14a.17.17,0,0,1,.07-.18"/><path class="cls-247" d="M8.1,5.63c0,.09,0,.18-.1.18s-.13-.1-.11-.19,0-.15.12-.14.08.09.09.15"/><path class="cls-248" d="M10,20.38s-.11,0-.11-.07a.24.24,0,0,1,.19-.23c.05,0,.08,0,.08.09a.29.29,0,0,1-.16.21"/><path class="cls-249" d="M16.24,6s-.1,0-.1-.07a.16.16,0,0,1,.16-.16c.07,0,.11,0,.1.11s-.09.11-.16.12"/><path class="cls-250" d="M11.9,16.14l0,.22c-.14-.08-.18-.24-.28-.36.14-.05.23,0,.3.14"/><path class="cls-251" d="M4.63,8.72s0,.09-.08.09-.14-.08-.17-.16,0-.12.09-.11a.25.25,0,0,1,.16.18"/><path class="cls-252" d="M7.62,19.45a.21.21,0,0,1-.18.16c-.07,0-.11,0-.1-.11s.07-.11.15-.13.11,0,.13.08"/><path class="cls-253" d="M19.21,17c0,.06,0,.12-.05.13a.18.18,0,0,1-.17-.16c0-.05,0-.11.06-.11s.14.07.16.14"/><path class="cls-254" d="M7.32,18.36c.07,0,.13,0,.12.09a.16.16,0,0,1-.15.13c-.07,0-.13,0-.12-.1s.08-.11.15-.12"/><path class="cls-255" d="M19.63,11.65l.22-.24a.12.12,0,0,1,.06.2.18.18,0,0,1-.28,0"/><path class="cls-256" d="M4.83,10c0,.08,0,.11-.1.08a.2.2,0,0,1-.15-.19c0-.07,0-.07.1-.06a.25.25,0,0,1,.15.17"/><path class="cls-257" d="M18.21,17.13c0,.06,0,.13-.08.12S18,17.17,18,17.1s0-.13.09-.12.1.08.11.15"/><path class="cls-258" d="M14.4,16.15c-.13-.14-.05-.32-.06-.48.11.08,0,.26.13.33a1,1,0,0,1-.07.15"/><path class="cls-259" d="M14.54,17.31c0-.16,0-.31,0-.46a.38.38,0,0,1,0,.46"/><path class="cls-260" d="M15.69,9.19a.3.3,0,0,1-.22-.08h.45l-.23.08"/><path class="cls-261" d="M13.68,9.26h.37a.3.3,0,0,1-.37,0"/><path class="cls-262" d="M17,8.14h-.38a.32.32,0,0,1,.38,0"/><path class="cls-263" d="M14.44,9.78h.42a.35.35,0,0,1-.42,0"/><path class="cls-264" d="M15.41,9.76A1,1,0,0,1,16,9.55c-.11.31-.34.25-.56.21"/><path class="cls-265" d="M7.87,14.59H7c0-.24.22-.12.34-.14a3.49,3.49,0,0,1,.46,0,.16.16,0,0,1,0,.16"/><path class="cls-266" d="M14.9,9c-.12,0-.26.05-.35-.09l.55-.07c0,.1-.13.11-.2.16"/><path class="cls-267" d="M14.53,9.17c.11-.11.24-.06.37-.06l0,.06h-.39"/><path class="cls-268" d="M7.94,13.69H7.51c.12-.12.28,0,.41-.07h0v.07"/></g></g></g><g id="award-outline"><rect class="cls-269" x="4" y="7.08" width="16" height="15"/><path d="M16.67,20.05l-1.54-5.62A3.62,3.62,0,0,0,16,12.08a3.88,3.88,0,0,0-4-3.75,3.88,3.88,0,0,0-4,3.75,3.59,3.59,0,0,0,.89,2.36L7.33,20.05a.62.62,0,0,0,.48.76.69.69,0,0,0,.51-.06l3.55-2,3.79,2a.57.57,0,0,0,.34.08.65.65,0,0,0,.69-.6A1.1,1.1,0,0,0,16.67,20.05ZM12,9.58a2.59,2.59,0,0,1,2.67,2.5A2.59,2.59,0,0,1,12,14.58a2.59,2.59,0,0,1-2.67-2.5A2.59,2.59,0,0,1,12,9.58Zm.21,8a.67.67,0,0,0-.67,0L9,18.9l1-3.56a4.19,4.19,0,0,0,3.95,0L15,19Z"/></g></svg>